<?xml version="1.0" encoding="utf-8"?>
<!-- Generator: Adobe Illustrator 19.0.0, SVG Export Plug-In . SVG Version: 6.00 Build 0)  -->
<svg version="1.1" id="Layer_1" xmlns="http://www.w3.org/2000/svg" xmlns:xlink="http://www.w3.org/1999/xlink" x="0px" y="0px"
	 viewBox="0 0 841.9 595.3" style="enable-background:new 0 0 841.9 595.3;" xml:space="preserve">
<style type="text/css">
	.st0{fill:none;stroke:#FFFFFF;stroke-width:2;stroke-miterlimit:10;}
	.st1{fill:none;stroke:#FFFFFF;stroke-width:2;stroke-linejoin:round;stroke-miterlimit:10;}
	.st2{fill:#FFFFFF;stroke:#FFFFFF;stroke-miterlimit:10;}
	.st3{fill:none;stroke:#FFFFFF;stroke-width:0.9585;stroke-miterlimit:10;}
	.st4{fill:#FFFFFF;}
	.st5{fill:none;stroke:#FFFFFF;stroke-width:0.3628;stroke-miterlimit:10;}
	.st6{fill:none;stroke:#FFFFFF;stroke-width:1.278;stroke-miterlimit:10;}
	.st7{fill:#FFFFFF;stroke:#FFFFFF;stroke-width:0.75;stroke-miterlimit:10;}
</style>
<g id="XMLID_561_">
	<g id="XMLID_596_">
		<g id="XMLID_597_">
			<polygon id="XMLID_598_" class="st0" points="213.8,394.7 155.7,394.7 155.7,328.5 174,322.3 195.4,322.3 213.8,328.5 			"/>
		</g>
	</g>
	<g id="XMLID_593_">
		<g id="XMLID_594_">
			<polygon id="XMLID_595_" class="st1" points="213.8,394.7 195.4,394.7 195.4,322.3 213.8,328.5 			"/>
		</g>
	</g>
	<g id="XMLID_569_">
		<g id="XMLID_591_">
			<polygon id="XMLID_592_" class="st1" points="174,394.7 155.7,394.7 155.7,328.5 174,322.3 			"/>
		</g>
	</g>
	<path id="XMLID_568_" class="st1" d="M172.6,291h3.6c0.4,0,0.7,0.5,0.7,1v5.4c0,0.6,0.3,1,0.7,1h4c0.4,0,0.7-0.5,0.7-1v-5.4
		c0-0.6,0.3-1,0.7-1h3.6c0.4,0,0.7,0.5,0.7,1v5.4c0,0.6,0.3,1,0.7,1h4c0.4,0,0.7-0.5,0.7-1v-5.4c0-0.6,0.3-1,0.7-1h3.6
		c0.4,0,0.7,0.5,0.7,1v6.4v0.2v16.8c-0.7,0-0.3,0-0.7,0h-24.2c-0.4,0-0.3,0-0.7,0l0-23.3C171.9,291.5,172.2,291,172.6,291z"/>
	<path id="XMLID_567_" class="st1" d="M198,291.2l3.4,1.1c0.4,0.1,0.5,0.4,0.5,1l0,6.2c0,0.8,0.1,1.2,0.7,1.4l1.9,0.5
		c0.5,0.1,0.7-0.1,0.7-0.7l0-5.8c0-0.6,0.2-1,0.5-1l2.8,0.7c0.4,0.1,0.7,0.4,0.7,1l0,6.3c0,0.6,0.3,0.9,0.7,1.1l1.4,0.4
		c0.5,0.1,0.7-0.4,0.7-1l0-5.8c0-0.6,0.3-0.7,0.6-0.6l2.7,0.9c0.4,0.1,0.7,0.5,0.7,1v0.6v0.2l-0.1,23c-0.7-0.2-0.4-0.1-0.8-0.3
		l-16.9-5.8c-0.4-0.1-0.2-0.1-0.6-0.2v-23.3C197.5,291.5,197.7,291.1,198,291.2z"/>
	<path id="XMLID_566_" class="st1" d="M171.4,291.2l-3.4,1.1c-0.4,0.1-0.5,0.4-0.5,1l0,6.2c0,0.8-0.1,1.2-0.7,1.4l-1.9,0.5
		c-0.5,0.1-0.7-0.1-0.7-0.7l0-5.8c0-0.6-0.2-1-0.5-1l-2.8,0.7c-0.4,0.1-0.7,0.4-0.7,1l0,6.3c0,0.6-0.3,0.9-0.7,1.1l-1.4,0.4
		c-0.5,0.1-0.7-0.4-0.7-1l0-5.8c0-0.6-0.3-0.7-0.6-0.6l-2.7,0.9c-0.4,0.1-0.7,0.5-0.7,1v0.6v0.2l0.1,23c0.7-0.2,0.4-0.1,0.8-0.3
		l16.9-5.8c0.4-0.1,0.2-0.1,0.6-0.2v-23.3C171.9,291.5,171.8,291.1,171.4,291.2z"/>
	<polygon id="XMLID_565_" class="st1" points="197.5,315.4 171.9,315.4 174,322.3 195.4,322.3 	"/>
	<polygon id="XMLID_564_" class="st1" points="215.8,321.7 197.5,315.4 195.4,322.3 213.7,328.6 	"/>
	<polygon id="XMLID_563_" class="st1" points="153.6,321.7 171.9,315.4 174,322.3 155.7,328.6 	"/>
	<path id="XMLID_562_" class="st0" d="M188.8,339c-0.2-5.3-2-8.4-4.1-8.4s-3.8,3.1-4.1,8.4h0v7.7h8.2L188.8,339L188.8,339z"/>
</g>
<g id="XMLID_538_">
	<g id="XMLID_549_">
		<g id="XMLID_556_">
			<g id="XMLID_559_">
				<polygon id="XMLID_560_" class="st0" points="412.5,394.7 354.4,394.7 354.4,328.5 372.7,322.3 394.2,322.3 412.5,328.5 				"/>
			</g>
		</g>
		<g id="XMLID_553_">
			<g id="XMLID_554_">
				<polygon id="XMLID_555_" class="st1" points="412.5,394.7 394.2,394.7 394.2,322.3 412.5,328.5 				"/>
			</g>
		</g>
		<g id="XMLID_550_">
			<g id="XMLID_551_">
				<polygon id="XMLID_552_" class="st1" points="372.7,394.7 354.4,394.7 354.4,328.5 372.7,322.3 				"/>
			</g>
		</g>
	</g>
	<g id="XMLID_541_">
		<path id="XMLID_548_" class="st1" d="M371.3,291h3.6c0.4,0,0.7,0.5,0.7,1v5.4c0,0.6,0.3,1,0.7,1h4c0.4,0,0.7-0.5,0.7-1v-5.4
			c0-0.6,0.3-1,0.7-1h3.6c0.4,0,0.7,0.5,0.7,1v5.4c0,0.6,0.3,1,0.7,1h4c0.4,0,0.7-0.5,0.7-1v-5.4c0-0.6,0.3-1,0.7-1h3.6
			c0.4,0,0.7,0.5,0.7,1v6.4v0.2v16.8c-0.7,0-0.3,0-0.7,0h-24.3c-0.4,0-0.3,0-0.7,0v-23.3C370.7,291.5,371,291,371.3,291z"/>
		<path id="XMLID_547_" class="st1" d="M396.8,291.2l3.4,1.1c0.4,0.1,0.5,0.4,0.5,1l0,6.2c0,0.8,0.1,1.2,0.7,1.4l1.9,0.5
			c0.5,0.1,0.7-0.1,0.7-0.7l0-5.8c0-0.6,0.2-1,0.5-1l2.8,0.7c0.4,0.1,0.7,0.4,0.7,1l0,6.3c0,0.6,0.3,0.9,0.7,1.1l1.4,0.4
			c0.5,0.1,0.7-0.4,0.7-1l0-5.8c0-0.6,0.3-0.7,0.6-0.6l2.7,0.9c0.4,0.1,0.7,0.5,0.7,1v0.6v0.2l-0.1,23c-0.7-0.2-0.4-0.1-0.8-0.3
			l-16.9-5.8c-0.4-0.1-0.2-0.1-0.6-0.2v-23.3C396.3,291.5,396.4,291.1,396.8,291.2z"/>
		<path id="XMLID_545_" class="st1" d="M370.2,291.2l-3.4,1.1c-0.4,0.1-0.5,0.4-0.5,1l0,6.2c0,0.8-0.1,1.2-0.7,1.4l-1.9,0.5
			c-0.5,0.1-0.7-0.1-0.7-0.7l0-5.8c0-0.6-0.2-1-0.5-1l-2.8,0.7c-0.4,0.1-0.7,0.4-0.7,1l0,6.3c0,0.6-0.3,0.9-0.7,1.1l-1.4,0.4
			c-0.5,0.1-0.7-0.4-0.7-1l0-5.8c0-0.6-0.3-0.7-0.6-0.6l-2.7,0.9c-0.4,0.1-0.7,0.5-0.7,1v0.6v0.2l0.1,23c0.7-0.2,0.4-0.1,0.8-0.3
			l16.9-5.8c0.4-0.1,0.2-0.1,0.6-0.2v-23.3C370.7,291.5,370.5,291.1,370.2,291.2z"/>
		<polygon id="XMLID_544_" class="st1" points="396.3,315.4 370.7,315.4 372.7,322.3 394.2,322.3 		"/>
		<polygon id="XMLID_543_" class="st1" points="414.6,321.7 396.3,315.4 394.2,322.3 412.5,328.6 		"/>
		<polygon id="XMLID_542_" class="st1" points="352.4,321.7 370.7,315.4 372.7,322.3 354.4,328.6 		"/>
	</g>
	<g id="XMLID_539_">
		<path id="XMLID_540_" class="st0" d="M387.5,339c-0.2-5.3-2-8.4-4.1-8.4s-3.8,3.1-4.1,8.4h0v7.7h8.2L387.5,339L387.5,339z"/>
	</g>
</g>
<g id="XMLID_534_">
	<path id="XMLID_537_" class="st0" d="M732.9,402.3H137.8c-4.3,0-7.7-1.7-7.7-3.8l0,0c0-2.1,3.5-3.8,7.7-3.8h595.2
		c4.3,0,7.7,1.7,7.7,3.8l0,0C740.7,400.6,737.2,402.3,732.9,402.3z"/>
	<path id="XMLID_536_" class="st0" d="M765.4,409.9H105.1c-4.3,0-7.7-1.7-7.7-3.8l0,0c0-2.1,3.5-3.8,7.7-3.8h660.4
		c4.3,0,7.7,1.7,7.7,3.8l0,0C773.2,408.2,769.7,409.9,765.4,409.9z"/>
	<path id="XMLID_535_" class="st0" d="M797,417.5H71c-4.3,0-7.7-1.7-7.7-3.8l0,0c0-2.1,3.5-3.8,7.7-3.8h726c4.3,0,7.7,1.7,7.7,3.8
		l0,0C804.8,415.7,801.3,417.5,797,417.5z"/>
</g>
<g id="XMLID_491_">
	<g id="XMLID_164_">
		<path id="XMLID_183_" class="st2" d="M454.2,293.4c0.1,1.2,0.2,1.9,0.2,2.1l-0.1,2.4c0,1-0.1,1.7-0.1,2c-0.2,0.1-0.3,0.1-0.4,0.1
			l-0.2-0.1c-0.6-2.5-1.6-4.4-3-5.6c-1.4-1.2-3.1-1.7-5.1-1.7c-2.1,0-3.8,0.6-5.1,1.7c-1.3,1.2-2,2.5-2,4.1c0,1.2,0.5,2.3,1.4,3.2
			c0.9,1,3.3,2.5,7.1,4.4c2.9,1.5,5,2.7,6.3,3.7c1.3,1,2.2,2.1,2.8,3.3c0.6,1.3,1,2.7,1,4.2c0,1.9-0.5,3.8-1.5,5.5
			c-1,1.7-2.4,3-4.1,3.9c-1.7,0.9-4,1.3-6.8,1.3c-2.5,0-4.8-0.4-7.1-1.2c-1.3-0.5-2.1-0.9-2.4-1.1c-0.3-0.3-0.4-0.6-0.4-0.9
			c0-0.2,0-0.5,0.1-0.8c0.3-2.1,0.4-3.9,0.4-5.3c0-0.9,0.1-1.4,0.2-1.5c0.1-0.1,0.2-0.2,0.4-0.2c0.2,0,0.3,0.1,0.4,0.2
			c0.1,0.1,0.2,0.3,0.2,0.7c0.2,2.2,1.2,4.2,3.1,6c1.9,1.8,4,2.6,6.3,2.6c1.4,0,2.8-0.3,4-0.9c1.2-0.6,2.2-1.5,2.8-2.6
			c0.7-1.1,1-2.2,1-3.3c0-1.5-0.5-2.8-1.6-4c-1-1.2-3.1-2.6-6.3-4.3c-3.1-1.6-5.2-2.8-6.1-3.6c-1.5-1.2-2.7-2.5-3.4-3.9
			c-0.6-1.1-0.8-2.3-0.8-3.7c0-2.5,1-4.7,3-6.4c2-1.8,4.7-2.6,8.1-2.6c1.9,0,3.5,0.2,4.8,0.6C452.2,292.1,453.2,292.7,454.2,293.4z"
			/>
		<path id="XMLID_181_" class="st2" d="M466.1,292.3c0.3-0.1,0.5-0.1,0.6-0.1c0.6,0,1.6,0,3.1,0.1c0.7,0,1.3,0,1.5,0
			c0.4,0,1.2,0,2.5-0.1l4.6-0.3c1.2-0.1,2.6-0.2,4.3-0.2c2.9,0,5.1,0.4,6.8,1.2c1.7,0.8,3,2.1,3.9,3.8c0.9,1.7,1.4,3.4,1.4,5.2
			c0,2.9-1,5.3-3,7.4c-2,2.1-4.7,3.1-8.1,3.1c-0.9,0-1.7-0.1-2.4-0.3c-0.6-0.2-1.4-0.6-2.2-1.1c-0.3-0.2-0.6-0.5-0.6-0.7
			c0.1-0.1,0.2-0.2,0.3-0.3c0.3,0,0.5,0.1,0.8,0.2c0.6,0.2,1.4,0.3,2.3,0.3c1.4,0,2.8-0.4,4.1-1.1c1.3-0.7,2.3-1.7,2.9-3
			s1-2.7,1-4.1c0-1.4-0.3-2.8-1-4.1c-0.7-1.3-1.6-2.4-2.7-3.2c-0.6-0.5-1.6-0.8-2.9-1.1s-2.3-0.5-3.1-0.5c-2.3,0-3.6,0.2-4,0.5
			l0,0.4l0.1,3.1l0,0.5c0,0.5-0.1,1.2-0.1,2.3c0,3.7,0.1,6,0.2,6.9v1.5l0.4,12.5c0,0.2,0,0.5-0.1,1c0,0.5-0.1,0.9-0.1,1.3
			c0,0.9,0.1,1.5,0.2,2c0.4,0.1,1.7,0.4,3.8,0.9c1,0.2,1.5,0.4,1.6,0.4c0.1,0.1,0.3,0.2,0.4,0.4c-0.1,0.3-0.2,0.5-0.3,0.5
			c-0.1,0.1-0.4,0.1-0.7,0.1c-0.2,0-0.7,0-1.5-0.1c-1.6-0.2-2.8-0.2-3.7-0.2l-4.8,0.2l-2.9-0.1c-0.2,0-0.7,0-1.6,0.1l0-0.7l3.5-0.7
			c0.6-0.2,0.9-0.3,1.1-0.5c0.2-0.3,0.3-0.8,0.3-1.5c0-0.2,0-0.5,0-1.1c0-0.4,0-0.9,0-1.6c0-2.1-0.1-6.7-0.3-13.7
			c-0.1-3.3-0.1-6.6-0.1-10v-0.5c0-1.3-0.2-2.1-0.6-2.5c-0.7-0.6-2.4-1.1-5.1-1.5c-0.1-0.2-0.1-0.4-0.1-0.5
			C465.9,292.6,466,292.5,466.1,292.3z"/>
		<path id="XMLID_179_" class="st2" d="M503.3,326.7c0.2-0.2,0.3-0.3,0.5-0.3c0.3-0.1,0.8-0.2,1.6-0.2c1.8-0.1,2.9-0.3,3.3-0.5
			c0.3-0.4,0.4-0.9,0.4-1.5l0-1.9l0-6.9L509,312l0-6.9l-0.1-7.8c0-1.9-0.1-2.9-0.4-3.1c-0.3-0.3-1.3-0.5-2.9-0.6
			c-0.7,0-1.3-0.1-1.8-0.2c-0.2-0.1-0.4-0.3-0.4-0.5c0-0.1,0-0.3,0.1-0.5c0.2-0.1,0.3-0.1,0.4-0.1c0.3,0,0.6,0,0.9,0
			c1.1,0.1,2.2,0.2,3.3,0.2l2-0.1l4.8,0.1c2.4,0,4.3,0,5.6-0.1c1.3-0.1,2.3-0.1,2.7-0.1c0.4,0,1.5,0,3.1,0.1l3.9,0l0.5,0.1l2.3-0.1
			l0.3,0.1c0.1,0.1,0.2,0.3,0.2,0.5c0,0.3,0,0.6-0.1,1.2c-0.1,0.5-0.1,0.9-0.1,1c0,1.9,0.1,3.5,0.2,4.8c0,0.1-0.1,0.2-0.2,0.2
			c-0.2,0-0.4,0-0.5-0.1c-0.2-0.3-0.5-1-0.8-1.8c-0.3-0.9-0.8-1.9-1.5-3c-0.5-0.8-0.8-1.2-1.1-1.4c-0.3-0.1-0.8-0.2-1.6-0.2
			c-0.2,0-1,0-2.5-0.1c-0.4,0-0.8,0-1.2,0l-7.8,0.2h-0.7c-1,0-1.6,0.1-1.8,0.4c-0.3,0.4-0.5,1.7-0.5,3.8c0,0.2,0,2.4,0.1,6.6v3.8
			c0.2,0.1,0.4,0.1,0.7,0.1h0.5c0.3,0,0.8,0,1.4,0c0.9,0,1.6,0.1,1.9,0.1c0.2,0,0.4,0,0.6,0c2-0.1,4.5-0.1,7.6-0.1
			c1-0.2,1.5-0.4,1.7-0.6c0.3-0.3,0.5-1.2,0.6-2.6c0.1-1.4,0.4-2.2,0.9-2.3c0.2,0,0.5,0,0.7,0.1c0,0.1,0.1,0.3,0.1,0.4
			c0,0.1,0,0.3-0.1,0.6c-0.1,0.7-0.1,2.8-0.1,6.3c0,0.9,0.1,2,0.2,3.2c0.1,1.2,0.2,1.8,0.2,1.9c0,0.2,0,0.4-0.1,0.7
			c-0.1,0.1-0.3,0.1-0.4,0.1h-0.2c-0.3-0.5-0.6-1.3-0.8-2.4c-0.5-1.8-1-3-1.5-3.5c-0.5-0.5-1.4-0.7-2.5-0.7c-0.3,0-0.7,0-1.4,0
			c-0.7,0-1.7,0-3,0h-1.8c-2.5,0-4.2,0.1-5,0.2l0,0.9l0,5l0,3.2l0,3.1c0,1.9,0.1,2.9,0.4,3.2c0.3,0.4,1,0.6,2,0.6l1.7,0
			c0.1,0,0.7,0,1.7,0c1,0,2.2,0,3.7,0c3.5,0,5.9-0.2,7-0.5c1.2-0.3,2.1-0.8,2.9-1.6c0.8-0.8,1.7-2.4,2.9-5c0.3-0.7,0.7-1.1,1-1.1
			c0.2,0,0.3,0.1,0.5,0.2c-0.5,1.8-0.8,3-0.9,3.5c-0.2,1.3-0.3,2.6-0.4,3.9c0,0.6-0.1,1.1-0.4,1.5H535l-7.7,0.1l-3.4,0l-8.2,0.1
			h-3.3c-0.4,0-0.8,0-1.2,0c-3.3,0.1-5.7,0.2-7.2,0.2c-0.3,0-0.5,0-0.6-0.1c-0.1-0.1-0.2-0.2-0.2-0.4L503.3,326.7z"/>
		<path id="XMLID_177_" class="st2" d="M545.6,326.7c0.2-0.2,0.3-0.3,0.5-0.3c0.3-0.1,0.8-0.2,1.6-0.2c1.8-0.1,2.9-0.3,3.3-0.5
			c0.3-0.4,0.4-0.9,0.4-1.5l0-1.9l0-6.9l-0.1-3.3l0-6.9l-0.1-7.8c0-1.9-0.1-2.9-0.4-3.1c-0.3-0.3-1.3-0.5-2.9-0.6
			c-0.7,0-1.3-0.1-1.8-0.2c-0.2-0.1-0.4-0.3-0.4-0.5c0-0.1,0-0.3,0.1-0.5c0.2-0.1,0.3-0.1,0.4-0.1c0.3,0,0.6,0,0.9,0
			c1.1,0.1,2.2,0.2,3.3,0.2l2-0.1l4.8,0.1c2.4,0,4.3,0,5.6-0.1c1.3-0.1,2.3-0.1,2.7-0.1c0.4,0,1.5,0,3.1,0.1l3.9,0l0.5,0.1l2.3-0.1
			l0.3,0.1c0.1,0.1,0.2,0.3,0.2,0.5c0,0.3,0,0.6-0.1,1.2c-0.1,0.5-0.1,0.9-0.1,1c0,1.9,0.1,3.5,0.2,4.8c0,0.1-0.1,0.2-0.2,0.2
			c-0.2,0-0.4,0-0.5-0.1c-0.2-0.3-0.5-1-0.8-1.8c-0.3-0.9-0.8-1.9-1.5-3c-0.5-0.8-0.8-1.2-1.1-1.4c-0.3-0.1-0.8-0.2-1.6-0.2
			c-0.2,0-1,0-2.5-0.1c-0.4,0-0.8,0-1.2,0l-7.8,0.2H558c-1,0-1.6,0.1-1.8,0.4c-0.3,0.4-0.5,1.7-0.5,3.8c0,0.2,0,2.4,0.1,6.6v3.8
			c0.2,0.1,0.4,0.1,0.7,0.1h0.5c0.3,0,0.8,0,1.4,0c0.9,0,1.6,0.1,1.9,0.1c0.2,0,0.4,0,0.6,0c2-0.1,4.5-0.1,7.6-0.1
			c1-0.2,1.5-0.4,1.7-0.6c0.3-0.3,0.5-1.2,0.6-2.6c0.1-1.4,0.4-2.2,0.9-2.3c0.2,0,0.5,0,0.7,0.1c0,0.1,0.1,0.3,0.1,0.4
			c0,0.1,0,0.3-0.1,0.6c-0.1,0.7-0.1,2.8-0.1,6.3c0,0.9,0.1,2,0.2,3.2c0.1,1.2,0.2,1.8,0.2,1.9c0,0.2,0,0.4-0.1,0.7
			c-0.1,0.1-0.3,0.1-0.4,0.1h-0.2c-0.3-0.5-0.6-1.3-0.8-2.4c-0.5-1.8-1-3-1.5-3.5c-0.5-0.5-1.4-0.7-2.5-0.7c-0.3,0-0.7,0-1.4,0
			c-0.7,0-1.7,0-3,0h-1.8c-2.5,0-4.2,0.1-5,0.2l0,0.9l0,5l0,3.2l0,3.1c0,1.9,0.1,2.9,0.4,3.2c0.3,0.4,1,0.6,2,0.6l1.7,0
			c0.1,0,0.7,0,1.7,0c1,0,2.2,0,3.7,0c3.5,0,5.9-0.2,7-0.5c1.2-0.3,2.1-0.8,2.9-1.6c0.8-0.8,1.7-2.4,2.9-5c0.3-0.7,0.7-1.1,1-1.1
			c0.2,0,0.3,0.1,0.5,0.2c-0.5,1.8-0.8,3-0.9,3.5c-0.2,1.3-0.3,2.6-0.4,3.9c0,0.6-0.1,1.1-0.4,1.5h-0.6l-7.7,0.1l-3.4,0l-8.2,0.1
			h-3.3c-0.4,0-0.8,0-1.2,0c-3.3,0.1-5.7,0.2-7.2,0.2c-0.3,0-0.5,0-0.6-0.1c-0.1-0.1-0.2-0.2-0.2-0.4L545.6,326.7z"/>
		<path id="XMLID_175_" class="st2" d="M586.8,327.3c0-0.3,0.1-0.5,0.2-0.7c1.4-0.4,2.8-0.6,4.1-0.8c0.9-0.1,1.5-0.3,1.7-0.6
			c0.2-0.2,0.3-1.1,0.3-2.6l0.2-7.2l0-4.9l0-6.4v-1.7c0-3.8,0-6.2-0.1-7.2c0-0.2-0.1-0.4-0.2-0.8c-0.5-0.2-0.9-0.4-1.2-0.4
			c-0.3-0.1-1.8-0.3-4.3-0.8c0-0.2,0-0.3,0-0.4c0-0.1,0-0.3,0-0.4c0.3,0,0.9,0,1.7,0.1l4.2,0.2l2.4,0.1l0.7,0c0.1,0,0.4,0,0.8,0.1
			c1.1,0,1.7,0,1.9,0l2.2-0.2c1.5,0,2.5,0,3.1,0.1c0,0.3-0.1,0.7-0.2,1.1c-0.2,0-1.1,0.1-2.8,0.2c-1.7,0.1-2.7,0.2-2.9,0.3
			c-0.4,0.2-0.6,1-0.6,2.2c0,0.3,0,0.9-0.1,1.8v1.6l0,5.1v1.7l0.1,9l-0.1,7.7l0,1.7c0,0.5,0.1,0.9,0.3,1c0.5,0,1.8,0,4,0.1h1.9
			l4.7-0.2c1.2,0,2.1-0.2,2.6-0.4c0.5-0.2,1.4-0.8,2.6-1.8c0.7-0.7,1.3-1.3,1.7-2c0.1-0.1,0.2-0.4,0.5-0.7c0.3-0.5,0.8-1.4,1.4-2.8
			h0.9c-0.1,0.7-0.2,1.3-0.4,1.9c-0.5,2.6-0.9,4.7-1.1,6.4c0,0.4-0.1,0.7-0.1,1l-10.2-0.3c-8.8,0-14,0.1-15.6,0.2
			c-0.5,0-1,0.1-1.6,0.1H586.8z"/>
		<path id="XMLID_173_" class="st2" d="M660.5,294l0.3,4.1c0.1,1.3,0.2,2.1,0.2,2.6l-0.8,0.1c-1.2-2.8-2.7-4.8-4.5-6.2
			c-1.8-1.4-4-2.1-6.6-2.1c-3.2,0-5.7,0.4-7.5,1.2c-2.6,1.1-4.8,3-6.6,5.8c-1.8,2.7-2.8,6.1-2.8,9.9c0,2.2,0.3,4.3,1,6
			s1.6,3.4,2.9,5c1.2,1.5,2.7,2.9,4.4,4c1.1,0.7,2.4,1.3,3.9,1.7c0.9,0.2,2.1,0.3,3.8,0.3c1.1,0,2.3-0.2,3.6-0.5
			c1.3-0.3,2.3-0.7,3-1.2c0.7-0.5,1.1-1.1,1.4-1.8s0.4-1.9,0.4-3.8c0-3.1-0.2-5-0.6-5.5c-0.4-0.5-1.7-0.9-4-1l-1.1-0.1l-0.7,0
			c-0.1,0-0.3,0-0.4-0.1l-0.4-0.7c0-0.1,0.1-0.2,0.2-0.4c0.9-0.1,3-0.2,6.2-0.2c0.7,0,1.9,0,3.5,0.1l2.8,0.1l2.5,0
			c0.5,0,1.1,0,1.8,0.1c0.1,0,0.2,0.1,0.2,0.1c0,0,0.1,0.1,0.1,0.2c0,0.2,0,0.5-0.1,0.8c-0.8,0.2-1.4,0.2-1.8,0.2l-1.8,0
			c-0.6,0-1.1,0.2-1.4,0.6c-0.2,0.2-0.3,0.9-0.3,2l0,3.6c0,2.5-0.1,4-0.3,4.7c-0.1,0.4-0.3,0.8-0.7,1.1c-0.3,0.3-1.1,0.7-2.2,1.1
			c-1.6,0.6-3,1.1-4.3,1.3c-2.4,0.4-4.7,0.6-7,0.6c-3.6,0-6.6-0.5-8.9-1.4c-2.3-0.9-4.3-2.2-6-3.8c-1.7-1.6-2.9-3.3-3.6-5
			c-1.1-2.5-1.6-5-1.6-7.5c0-3.2,0.8-6.3,2.5-9.4c1.7-3,4.4-5.5,8.1-7.4c2.6-1.3,6.2-2,10.8-2c3.1,0,5.7,0.3,7.7,0.8
			C657.8,292.6,659.4,293.3,660.5,294z"/>
		<path id="XMLID_170_" class="st2" d="M675.4,309.7c0-1.9,0.2-3.5,0.7-5c0.4-1.4,1.2-3,2.3-4.7c1.1-1.7,2.3-3.1,3.8-4.2
			c1.5-1.1,3.6-2.1,6.2-3c1.9-0.6,4.2-0.9,7-0.9c1.9,0,3.8,0.3,5.6,0.8c1.8,0.5,3.5,1.2,5,2.1c1.5,0.9,3,2.3,4.5,4.2
			c1,1.3,1.8,2.7,2.3,4.2c0.7,2,1,4,1,6.1c0,2.4-0.2,4.4-0.7,6c-0.5,1.6-1.2,3.1-2.3,4.7c-0.9,1.2-2.3,2.6-4.4,4.1
			c-1.4,1.1-3.1,1.9-5.2,2.6c-2.1,0.6-4.3,1-6.7,1c-2.4,0-4.6-0.3-6.5-0.8c-1.9-0.6-3.5-1.3-4.7-2.1c-1.3-0.8-2.6-2-3.9-3.6
			c-1.3-1.6-2.4-3.3-3-5.2C675.7,314,675.4,311.9,675.4,309.7z M694.3,326.6c1.5,0,3.1-0.2,4.8-0.6c1.6-0.4,3.1-1.1,4.4-2.1
			c1.3-1,2.3-2.1,3-3.4c0.7-1.3,1.3-2.9,1.7-4.9c0.4-2,0.7-4,0.7-6c0-2.5-0.4-4.9-1.1-7.3c-0.6-1.8-1.5-3.5-2.8-4.9
			c-1.3-1.4-2.8-2.6-4.6-3.4c-1.8-0.8-3.7-1.2-5.8-1.2c-1.7,0-3.3,0.3-4.9,0.8c-1.6,0.5-2.9,1.2-3.9,2.1c-1,0.8-2,2-2.8,3.6
			c-0.9,1.6-1.5,3.3-2,5.1c-0.5,1.9-0.7,3.5-0.7,5c0,1.5,0.2,3.2,0.7,5.1c0.5,1.9,1.1,3.6,1.9,5c0.8,1.4,1.8,2.6,2.9,3.7
			c1.2,1.1,2.5,1.9,3.9,2.5C691.2,326.4,692.7,326.6,694.3,326.6z"/>
		<path id="XMLID_168_" class="st2" d="M723.5,326.7c0.2-0.2,0.3-0.3,0.5-0.3c0.3-0.1,0.8-0.2,1.6-0.2c1.8-0.1,2.9-0.3,3.3-0.5
			c0.3-0.4,0.4-0.9,0.4-1.5l0-1.9l0-6.9l-0.1-3.3l0-6.9l-0.1-7.8c0-1.9-0.1-2.9-0.4-3.1c-0.3-0.3-1.3-0.5-2.9-0.6
			c-0.7,0-1.3-0.1-1.8-0.2c-0.2-0.1-0.4-0.3-0.4-0.5c0-0.1,0-0.3,0.1-0.5c0.2-0.1,0.3-0.1,0.4-0.1c0.3,0,0.6,0,0.9,0
			c1.1,0.1,2.2,0.2,3.3,0.2l2-0.1l4.8,0.1c2.4,0,4.3,0,5.6-0.1c1.3-0.1,2.3-0.1,2.7-0.1c0.4,0,1.5,0,3.1,0.1l3.9,0l0.5,0.1l2.3-0.1
			l0.3,0.1c0.1,0.1,0.2,0.3,0.2,0.5c0,0.3,0,0.6-0.1,1.2c-0.1,0.5-0.1,0.9-0.1,1c0,1.9,0.1,3.5,0.2,4.8c0,0.1-0.1,0.2-0.2,0.2
			c-0.2,0-0.4,0-0.5-0.1c-0.2-0.3-0.5-1-0.8-1.8c-0.3-0.9-0.8-1.9-1.5-3c-0.5-0.8-0.8-1.2-1.1-1.4c-0.3-0.1-0.8-0.2-1.6-0.2
			c-0.2,0-1,0-2.5-0.1c-0.4,0-0.8,0-1.2,0l-7.8,0.2h-0.7c-1,0-1.6,0.1-1.8,0.4c-0.3,0.4-0.5,1.7-0.5,3.8c0,0.2,0,2.4,0.1,6.6v3.8
			c0.2,0.1,0.4,0.1,0.7,0.1h0.5c0.3,0,0.8,0,1.4,0c0.9,0,1.6,0.1,1.9,0.1c0.2,0,0.4,0,0.6,0c2-0.1,4.5-0.1,7.6-0.1
			c1-0.2,1.5-0.4,1.7-0.6c0.3-0.3,0.5-1.2,0.6-2.6c0.1-1.4,0.4-2.2,0.9-2.3c0.2,0,0.5,0,0.7,0.1c0,0.1,0.1,0.3,0.1,0.4
			c0,0.1,0,0.3-0.1,0.6c-0.1,0.7-0.1,2.8-0.1,6.3c0,0.9,0.1,2,0.2,3.2c0.1,1.2,0.2,1.8,0.2,1.9c0,0.2,0,0.4-0.1,0.7
			c-0.1,0.1-0.3,0.1-0.4,0.1h-0.2c-0.3-0.5-0.6-1.3-0.8-2.4c-0.5-1.8-1-3-1.5-3.5c-0.5-0.5-1.4-0.7-2.5-0.7c-0.3,0-0.7,0-1.4,0
			c-0.7,0-1.7,0-3,0h-1.8c-2.5,0-4.2,0.1-5,0.2l0,0.9l0,5l0,3.2l0,3.1c0,1.9,0.1,2.9,0.4,3.2c0.3,0.4,1,0.6,2,0.6l1.7,0
			c0.1,0,0.7,0,1.7,0c1,0,2.2,0,3.7,0c3.5,0,5.9-0.2,7-0.5c1.2-0.3,2.1-0.8,2.9-1.6c0.8-0.8,1.7-2.4,2.9-5c0.3-0.7,0.7-1.1,1-1.1
			c0.2,0,0.3,0.1,0.5,0.2c-0.5,1.8-0.8,3-0.9,3.5c-0.2,1.3-0.3,2.6-0.4,3.9c0,0.6-0.1,1.1-0.4,1.5h-0.6l-7.7,0.1l-3.4,0l-8.2,0.1
			h-3.3c-0.4,0-0.8,0-1.2,0c-3.3,0.1-5.7,0.2-7.2,0.2c-0.3,0-0.5,0-0.6-0.1c-0.1-0.1-0.2-0.2-0.2-0.4L723.5,326.7z"/>
		<path id="XMLID_165_" class="st2" d="M765,326.6c0.7-0.3,1.5-0.5,2.3-0.6c1.3-0.1,2.3-0.5,2.9-0.9c0.5-1,0.7-3.6,0.7-7.7v-4.3
			l0.1-2.6l-0.1-1.9l0.1-3.5l-0.1-8.9c0-1-0.1-1.7-0.4-2c-0.4-0.5-1.5-0.9-3.3-1.3c-0.7-0.2-1.2-0.3-1.4-0.5
			c-0.2-0.1-0.3-0.4-0.3-0.8c0.4-0.1,0.7-0.1,0.9-0.1h1.9l1,0c0.7,0,1.4,0.1,2.2,0.2c1.7,0.1,3.4,0.2,5.2,0.2c0.5,0,1.2,0,2.2-0.1
			c2.5-0.1,4.3-0.2,5.4-0.2c2.2,0,4.3,0.2,6.2,0.7c2,0.4,4,1.2,6,2.4c1.3,0.7,2.6,1.9,4,3.5c1.4,1.6,2.4,3.4,3.1,5.3
			c0.7,1.9,1.1,4,1.1,6.4c0,2.1-0.4,4.2-1.2,6.3c-0.8,2.1-1.9,3.9-3.2,5.4c-1.4,1.5-2.8,2.7-4.2,3.5c-1.4,0.8-3.6,1.4-6.5,2
			c-1.2,0.2-3.4,0.3-6.5,0.3c-2.1,0-3.7-0.1-5-0.2c-0.5-0.1-1.1-0.1-1.6-0.1c-0.1,0-0.2,0-0.3,0l-11.1,0.2l-0.1-0.2
			c0-0.1-0.1-0.2-0.1-0.3L765,326.6z M778.9,325.5c1.4,0.5,2.8,0.7,4.2,0.7c1.8,0,3.6-0.3,5.4-0.9c1.8-0.6,3.3-1.4,4.7-2.4
			c1.4-1,2.5-2.2,3.3-3.5c0.9-1.3,1.5-2.5,1.9-3.6c0.5-1.5,0.8-3.6,0.8-6c0-2.4-0.5-4.8-1.5-7.2c-0.7-1.7-1.9-3.3-3.6-4.9
			c-1.7-1.5-3.8-2.7-6.2-3.4c-2.4-0.7-4.9-1.1-7.7-1.1c-1.9,0-3.3,0.2-4.2,0.6c-0.1,0.1-0.2,0.2-0.3,0.4c-0.1,0.5-0.2,0.9-0.2,1.3
			c0,0.2,0,0.5,0,0.8c0.1,2.1,0.1,3.8,0.1,5.1l0,6.2c0,9.1,0.2,14.2,0.5,15.2C776.4,323.8,777.4,324.7,778.9,325.5z"/>
	</g>
</g>
<g id="XMLID_469_">
	<path id="XMLID_489_" class="st2" d="M435.7,344h1v16.6l10.1-9.8h1.3l-7,6.7l7.4,8.5h-1.2l-6.8-7.8l-3.7,3.6v4.2h-1V344z"/>
	<path id="XMLID_486_" class="st2" d="M459.8,366.4c-0.7,0-1.4-0.1-2.1-0.3c-0.7-0.2-1.3-0.5-1.9-0.9c-0.5-0.4-1-0.9-1.3-1.5
		c-0.3-0.6-0.5-1.3-0.5-2v-0.1c0-0.8,0.2-1.5,0.5-2.1c0.3-0.6,0.8-1.1,1.4-1.5c0.6-0.4,1.3-0.7,2.1-0.9c0.8-0.2,1.7-0.3,2.7-0.3
		c1.1,0,2,0.1,3,0.2c0.9,0.2,1.7,0.4,2.5,0.6v-1c0-1.7-0.5-3-1.4-3.8c-1-0.8-2.3-1.3-4-1.3c-0.9,0-1.8,0.1-2.6,0.3
		c-0.8,0.2-1.6,0.5-2.3,0.9l-0.4-0.8c0.8-0.4,1.7-0.7,2.5-1c0.9-0.2,1.8-0.4,2.8-0.4c2.1,0,3.7,0.6,4.8,1.7c0.5,0.5,0.9,1.1,1.1,1.8
		c0.3,0.7,0.4,1.5,0.4,2.5v9.5h-1v-3.2c-0.2,0.4-0.5,0.8-0.8,1.3c-0.4,0.4-0.8,0.8-1.3,1.1c-0.5,0.3-1.2,0.6-1.9,0.8
		C461.4,366.3,460.7,366.4,459.8,366.4z M459.8,365.4c0.9,0,1.8-0.1,2.5-0.4c0.8-0.3,1.4-0.6,2-1.1c0.6-0.5,1-1,1.3-1.6
		c0.3-0.6,0.5-1.3,0.5-1.9v-1.9c-0.7-0.2-1.6-0.4-2.4-0.6c-0.9-0.2-1.9-0.2-3-0.2c-0.8,0-1.6,0.1-2.3,0.3c-0.7,0.2-1.3,0.4-1.8,0.8
		c-0.5,0.3-0.9,0.7-1.2,1.2c-0.3,0.5-0.4,1-0.4,1.7v0.1c0,0.6,0.1,1.2,0.4,1.6c0.3,0.5,0.6,0.9,1.1,1.2c0.4,0.3,1,0.6,1.5,0.7
		C458.6,365.4,459.2,365.4,459.8,365.4z"/>
	<path id="XMLID_484_" class="st2" d="M480.2,366.3c-1.1,0-2.2-0.2-3.3-0.6c-1.1-0.4-2.1-1-2.9-1.7l0.6-0.8c0.8,0.7,1.7,1.2,2.7,1.5
		c1,0.4,1.9,0.5,2.9,0.5c0.6,0,1.2-0.1,1.7-0.2c0.5-0.2,1-0.4,1.4-0.6c0.4-0.3,0.7-0.6,0.9-1c0.2-0.4,0.3-0.8,0.3-1.3v-0.1
		c0-0.5-0.1-1-0.4-1.4c-0.3-0.4-0.6-0.7-1-0.9c-0.4-0.3-0.9-0.5-1.5-0.6c-0.6-0.2-1.1-0.4-1.7-0.5c-0.7-0.2-1.4-0.4-2-0.6
		c-0.6-0.2-1.2-0.5-1.7-0.8c-0.5-0.3-0.9-0.7-1.1-1.1c-0.3-0.4-0.4-1-0.4-1.6v-0.1c0-0.6,0.1-1.1,0.4-1.6c0.3-0.5,0.6-0.9,1.1-1.3
		c0.5-0.4,1-0.6,1.6-0.8c0.6-0.2,1.3-0.3,2.1-0.3c0.9,0,1.8,0.2,2.7,0.5c0.9,0.3,1.8,0.7,2.6,1.3l-0.5,0.8c-0.7-0.5-1.5-0.9-2.3-1.2
		c-0.8-0.3-1.7-0.4-2.5-0.4c-1.3,0-2.3,0.3-3,0.9c-0.7,0.6-1.1,1.3-1.1,2.1v0.1c0,0.5,0.1,0.9,0.4,1.2c0.3,0.3,0.6,0.6,1,0.9
		c0.4,0.3,0.9,0.5,1.5,0.6c0.6,0.2,1.1,0.4,1.8,0.5c0.7,0.2,1.3,0.4,2,0.6c0.6,0.2,1.2,0.5,1.7,0.8c0.5,0.3,0.9,0.7,1.2,1.2
		c0.3,0.5,0.4,1,0.4,1.7v0.1c0,0.6-0.1,1.2-0.4,1.7c-0.3,0.5-0.7,0.9-1.1,1.3c-0.5,0.4-1.1,0.6-1.7,0.8
		C481.7,366.2,481,366.3,480.2,366.3z"/>
	<path id="XMLID_480_" class="st2" d="M498.2,366.3c-1.2,0-2.2-0.3-2.9-1c-0.7-0.7-1.1-1.7-1.1-3.1v-10.4h-2.3v-0.9h2.3v-5.1h1v5.1
		h5.5v0.9h-5.5V362c0,1.1,0.3,2,0.8,2.5c0.6,0.6,1.3,0.8,2.3,0.8c0.7,0,1.5-0.2,2.3-0.5v0.9C499.9,366.1,499.1,366.3,498.2,366.3z"
		/>
	<path id="XMLID_475_" class="st2" d="M514.4,366.4c-1,0-2-0.2-2.9-0.6c-0.9-0.4-1.7-0.9-2.4-1.6s-1.2-1.5-1.6-2.5
		c-0.4-1-0.6-2.1-0.6-3.3v-0.1c0-1.1,0.2-2.1,0.5-3.1c0.4-1,0.9-1.8,1.5-2.5c0.7-0.7,1.4-1.3,2.3-1.7c0.9-0.4,1.8-0.6,2.9-0.6
		c1.1,0,2.2,0.2,3,0.7c0.9,0.5,1.6,1.1,2.2,1.8c0.6,0.7,1,1.6,1.3,2.5c0.3,1,0.4,1.9,0.4,3v0.3h-13.2c0,1,0.2,1.9,0.6,2.8
		c0.4,0.8,0.9,1.5,1.4,2.1c0.6,0.6,1.3,1,2,1.3c0.8,0.3,1.6,0.5,2.4,0.5c1.2,0,2.3-0.3,3.2-0.8s1.7-1.2,2.3-2l0.7,0.6
		c-0.7,0.9-1.6,1.7-2.6,2.3C517,366.1,515.8,366.4,514.4,366.4z M520.1,357.9c0-0.8-0.2-1.6-0.5-2.4c-0.3-0.8-0.7-1.5-1.2-2.1
		c-0.5-0.6-1.1-1.1-1.8-1.5c-0.7-0.4-1.6-0.6-2.5-0.6c-0.9,0-1.7,0.2-2.4,0.5c-0.7,0.3-1.4,0.8-1.9,1.4c-0.5,0.6-1,1.3-1.3,2.1
		c-0.3,0.8-0.5,1.7-0.5,2.6H520.1z"/>
	<path id="XMLID_472_" class="st2" d="M535,366.4c-1,0-2-0.2-2.9-0.6c-0.9-0.4-1.7-0.9-2.4-1.6c-0.7-0.7-1.2-1.5-1.6-2.5
		c-0.4-1-0.6-2.1-0.6-3.3v-0.1c0-1.1,0.2-2.1,0.5-3.1c0.4-1,0.9-1.8,1.5-2.5c0.7-0.7,1.4-1.3,2.3-1.7c0.9-0.4,1.8-0.6,2.9-0.6
		c1.1,0,2.2,0.2,3,0.7c0.9,0.5,1.6,1.1,2.2,1.8c0.6,0.7,1,1.6,1.3,2.5c0.3,1,0.4,1.9,0.4,3v0.3h-13.2c0,1,0.2,1.9,0.6,2.8
		c0.4,0.8,0.9,1.5,1.4,2.1c0.6,0.6,1.3,1,2,1.3c0.8,0.3,1.6,0.5,2.4,0.5c1.2,0,2.3-0.3,3.2-0.8c0.9-0.5,1.7-1.2,2.3-2l0.7,0.6
		c-0.7,0.9-1.6,1.7-2.6,2.3C537.6,366.1,536.4,366.4,535,366.4z M540.7,357.9c0-0.8-0.2-1.6-0.5-2.4c-0.3-0.8-0.7-1.5-1.2-2.1
		c-0.5-0.6-1.1-1.1-1.8-1.5c-0.7-0.4-1.6-0.6-2.5-0.6c-0.9,0-1.7,0.2-2.4,0.5c-0.7,0.3-1.4,0.8-1.9,1.4c-0.5,0.6-1,1.3-1.3,2.1
		c-0.3,0.8-0.5,1.7-0.5,2.6H540.7z"/>
	<path id="XMLID_470_" class="st2" d="M549.3,344h1v22h-1V344z"/>
</g>
<line id="XMLID_468_" class="st0" x1="571" y1="357" x2="803.7" y2="357"/>
<g id="XMLID_421_">
	<g id="XMLID_423_">
		<path id="XMLID_427_" class="st0" d="M284.4,138.5c0,0,6.7-0.7,16.3,3.4c9.6,4.2,17.6,1,17.6,1s-3.6,4.7-13.6,3.9
			c0,0,5.2,2.5,14.8,0.9c0,0-9.5,5.6-19.9,2.4c-10.3-3.1-15.2-1.9-15.2-1.9V138.5z"/>
		<g id="XMLID_424_">
			<rect id="XMLID_426_" x="283.3" y="138.5" class="st2" width="1.1" height="29.6"/>
			<circle id="XMLID_425_" class="st3" cx="283.9" cy="137" r="1"/>
		</g>
	</g>
	<path id="XMLID_422_" class="st0" d="M263.8,181.6l18.8-27.1c0.8-1,2.3-1,3.1,0l19,27.2"/>
</g>
<g id="XMLID_418_">
	<g id="XMLID_419_">
		<polygon id="XMLID_420_" class="st0" points="324.3,394.6 243.8,394.6 243.8,302.8 269.2,294.1 298.9,294.1 324.3,302.8 		"/>
	</g>
</g>
<g id="XMLID_411_">
	<g id="XMLID_412_">
		<g id="XMLID_413_">
			<path id="XMLID_17_" class="st4" d="M300.5,296l22.6,7.5v89.7h-22.6V296 M298.5,293.2v102H325v-93.1L298.5,293.2L298.5,293.2z"/>
		</g>
	</g>
</g>
<g id="XMLID_404_">
	<g id="XMLID_405_">
		<g id="XMLID_406_">
			<path id="XMLID_13_" class="st4" d="M267.6,296v97.2h-22.6v-89.7L267.6,296 M269.6,293.2l-26.6,8.8v93.1h26.6V293.2L269.6,293.2z
				"/>
		</g>
	</g>
</g>
<polygon id="XMLID_403_" class="st1" points="301.8,284.5 266.4,284.5 269.2,294.1 298.9,294.1 "/>
<polygon id="XMLID_298_" class="st1" points="327.2,293.2 301.8,284.5 298.9,294.1 324.3,302.8 "/>
<polygon id="XMLID_297_" class="st1" points="240.9,293.2 266.3,284.5 269.2,294.1 243.8,302.8 "/>
<path id="XMLID_296_" class="st3" d="M301.3,250.7"/>
<path id="XMLID_295_" class="st5" d="M331.7,275.8"/>
<path id="XMLID_294_" class="st3" d="M300.4,261.3"/>
<g id="XMLID_292_">
	<path id="XMLID_293_" class="st0" d="M292.3,319.4c-0.5-10.4-3.9-16.5-8-16.5s-7.6,6.1-8,16.5h-0.1v15.1h16.2L292.3,319.4
		L292.3,319.4z"/>
</g>
<path id="XMLID_291_" class="st1" d="M267.2,250.7h5.4c0.5,0,0.9,0.6,0.9,1.5v7.5c0,0.8,0.4,1.5,0.9,1.5h5.1c0.5,0,0.9-0.6,0.9-1.5
	v-7.5c0-0.8,0.4-1.5,0.9-1.5h5c0.5,0,0.9,0.6,0.9,1.5v7.5c0,0.8,0.4,1.5,0.9,1.5h5.2c0.5,0,0.9-0.6,0.9-1.5v-7.5
	c0-0.8,0.4-1.5,0.9-1.5h5.4c0.5,0,0.9,0.6,0.9,1.5v8.9v0.2v23.3c-0.9,0-0.4,0-0.9,0h-33.7c-0.5,0-0.4,0-0.9,0l0-32.4
	C266.3,251.3,266.7,250.7,267.2,250.7z"/>
<path id="XMLID_290_" class="st1" d="M302.5,250.9l4.7,1.6c0.5,0.2,0.6,0.6,0.6,1.4l0,8.6c0,1,0.1,1.7,1,1.9l2.7,0.7
	c0.6,0.1,1-0.2,1-1l0-8c0-0.8,0.2-1.3,0.7-1.3l3.8,1c0.5,0.2,0.9,0.6,0.9,1.4l0,8.8c0,0.8,0.4,1.3,0.9,1.5l2,0.6
	c0.6,0.1,0.9-0.6,0.9-1.4l0-8c0-0.8,0.4-1,0.8-0.9l3.7,1.2c0.6,0.2,0.9,0.6,0.9,1.5v0.8v0.2l-0.1,32c-0.9-0.3-0.6-0.2-1.1-0.4
	l-23.5-8.1c-0.5-0.2-0.3-0.1-0.8-0.3v-32.4C301.8,251.3,302.1,250.8,302.5,250.9z"/>
<path id="XMLID_289_" class="st1" d="M265.6,250.9l-4.7,1.6c-0.5,0.2-0.6,0.6-0.6,1.4l0,8.6c0,1-0.1,1.7-1,1.9l-2.7,0.7
	c-0.6,0.1-1-0.2-1-1l0-8c0-0.8-0.2-1.3-0.7-1.3l-3.8,1c-0.5,0.2-0.9,0.6-0.9,1.4l0,8.8c0,0.8-0.4,1.3-0.9,1.5l-2,0.6
	c-0.6,0.1-0.9-0.6-0.9-1.4l0-8c0-0.8-0.4-1-0.8-0.9l-3.7,1.2c-0.6,0.2-0.9,0.6-0.9,1.5v0.8v0.2l0.1,32c0.9-0.3,0.6-0.2,1.1-0.4
	l23.5-8.1c0.5-0.2,0.3-0.1,0.8-0.3v-32.4C266.3,251.3,266.1,250.8,265.6,250.9z"/>
<g id="XMLID_285_">
	<g id="XMLID_286_">
		<path id="XMLID_288_" class="st6" d="M312.3,279.6"/>
		<polyline id="XMLID_287_" class="st6" points="255.8,215.2 255.8,215.2 273.6,209.1 294.5,209.1 312.3,215.2 		"/>
	</g>
</g>
<path id="XMLID_284_" class="st7" d="M312.5,214.7l-17.7-6c-0.2-0.1-0.4,0-0.6,0.1c-0.2,0.1-0.3,0.3-0.3,0.5v50.1
	c0,0.3,0.3,0.6,0.6,0.6h0.6v-1.2V258v-47.9l16.5,5.5v47.2v0.7v1.2h0.6c0.4,0,0.6-0.3,0.6-0.6v-49C313,215,312.8,214.8,312.5,214.7z"
	/>
<polygon id="XMLID_283_" class="st1" points="296.5,202.4 271.6,202.4 273.6,209.1 294.5,209.1 "/>
<polygon id="XMLID_282_" class="st1" points="314.3,208.5 296.5,202.4 294.5,209.1 312.3,215.2 "/>
<polygon id="XMLID_281_" class="st1" points="253.8,208.5 271.6,202.4 273.6,209.1 255.8,215.2 "/>
<path id="XMLID_280_" class="st3" d="M295.2,178.9"/>
<path id="XMLID_279_" class="st3" d="M312.4,191.3"/>
<path id="XMLID_278_" class="st3" d="M294.7,184"/>
<g id="XMLID_52_">
	<path id="XMLID_256_" class="st0" d="M289.8,226.9c-0.3-7.3-2.7-11.6-5.6-11.6s-5.3,4.3-5.6,11.6h0v10.6h11.3L289.8,226.9
		L289.8,226.9z"/>
</g>
<path id="XMLID_51_" class="st0" d="M272.2,178.7h3.5c0.4,0,0.7,0.5,0.7,1v5.2c0,0.6,0.3,1,0.7,1h3.9c0.4,0,0.7-0.5,0.7-1v-5.2
	c0-0.6,0.3-1,0.7-1h3.5c0.4,0,0.7,0.5,0.7,1v5.2c0,0.6,0.3,1,0.7,1h3.9c0.4,0,0.7-0.5,0.7-1v-5.2c0-0.6,0.3-1,0.7-1h3.5
	c0.4,0,0.7,0.5,0.7,1v6.3v0.2v16.3c-0.7,0-0.3,0-0.7,0h-23.6c-0.4,0-0.3,0-0.7,0l0-22.7C271.6,179.1,271.9,178.7,272.2,178.7z"/>
<path id="XMLID_49_" class="st1" d="M297,178.8l3.3,1.1c0.4,0.1,0.4,0.4,0.4,1l0,6c0,0.7,0.1,1.2,0.7,1.3l1.9,0.5
	c0.4,0.1,0.7-0.1,0.7-0.7l0-5.6c0-0.6,0.2-0.9,0.5-0.9l2.7,0.7c0.4,0.1,0.7,0.4,0.7,1l0,6.1c0,0.6,0.3,0.9,0.7,1l1.4,0.4
	c0.5,0.1,0.7-0.4,0.7-1l0-5.6c0-0.6,0.3-0.7,0.6-0.6l2.6,0.9c0.4,0.1,0.7,0.5,0.7,1v0.5v0.2l-0.1,22.4c-0.7-0.2-0.4-0.1-0.8-0.3
	l-16.5-5.6c-0.4-0.1-0.2-0.1-0.6-0.2v-22.7C296.5,179.1,296.7,178.8,297,178.8z"/>
<path id="XMLID_48_" class="st1" d="M271.1,178.8l-3.3,1.1c-0.4,0.1-0.4,0.4-0.4,1l0,6c0,0.7-0.1,1.2-0.7,1.3l-1.9,0.5
	c-0.4,0.1-0.7-0.1-0.7-0.7l0-5.6c0-0.6-0.2-0.9-0.5-0.9l-2.7,0.7c-0.4,0.1-0.7,0.4-0.7,1l0,6.1c0,0.6-0.3,0.9-0.7,1l-1.4,0.4
	c-0.5,0.1-0.7-0.4-0.7-1l0-5.6c0-0.6-0.3-0.7-0.6-0.6l-2.6,0.9c-0.4,0.1-0.7,0.5-0.7,1v0.5v0.2l0.1,22.4c0.7-0.2,0.4-0.1,0.8-0.3
	l16.5-5.6c0.4-0.1,0.2-0.1,0.6-0.2v-22.7C271.6,179.1,271.4,178.8,271.1,178.8z"/>
<path id="XMLID_47_" class="st7" d="M274,208.7c-0.2-0.1-0.4-0.2-0.6-0.1l-18,6.1c-0.3,0.1-0.4,0.3-0.4,0.6v43.5h1.3v-0.6v-0.3
	v-42.1l16.7-5.7v47.4v0.3v0.6h1.3v-49.2C274.3,209,274.2,208.8,274,208.7z"/>
</svg>
