<?xml version="1.0" encoding="utf-8"?>
<!-- Generator: Adobe Illustrator 19.0.0, SVG Export Plug-In . SVG Version: 6.00 Build 0)  -->
<svg version="1.1" id="Layer_1" xmlns="http://www.w3.org/2000/svg" xmlns:xlink="http://www.w3.org/1999/xlink" x="0px" y="0px"
	 viewBox="0 0 841.9 595.3" style="enable-background:new 0 0 841.9 595.3;" xml:space="preserve">
<style type="text/css">
	.st0{fill:none;stroke:#FFFFFF;stroke-miterlimit:10;}
	.st1{fill:none;stroke:#FFFFFF;stroke-linejoin:round;stroke-miterlimit:10;}
	.st2{fill:#FFFFFF;stroke:#FFFFFF;stroke-miterlimit:10;}
	.st3{fill:none;stroke:#FFFFFF;stroke-width:2;stroke-miterlimit:10;}
	.st4{fill:#FFFFFF;stroke:#FFFFFF;stroke-width:0.75;stroke-miterlimit:10;}
	.st5{fill:none;stroke:#FFFFFF;stroke-width:0.9585;stroke-miterlimit:10;}
	.st6{fill:none;stroke:#FFFFFF;stroke-width:1.278;stroke-miterlimit:10;}
	.st7{fill:#FFFFFF;}
	.st8{fill:none;stroke:#FFFFFF;stroke-width:1.278;stroke-linejoin:round;stroke-miterlimit:10;}
	.st9{fill:none;stroke:#FFFFFF;stroke-width:0.3628;stroke-miterlimit:10;}
</style>
<g id="XMLID_44_">
	<g id="XMLID_135_">
		<g id="XMLID_136_">
			<polygon id="XMLID_137_" class="st0" points="193.2,383.7 135.1,383.7 135.1,317.6 153.4,311.3 174.9,311.3 193.2,317.6 			"/>
		</g>
	</g>
	<g id="XMLID_132_">
		<g id="XMLID_133_">
			<polygon id="XMLID_134_" class="st1" points="193.2,383.7 174.9,383.7 174.9,311.3 193.2,317.6 			"/>
		</g>
	</g>
	<g id="XMLID_117_">
		<g id="XMLID_118_">
			<polygon id="XMLID_131_" class="st1" points="153.4,383.7 135.1,383.7 135.1,317.6 153.4,311.3 			"/>
		</g>
	</g>
	<path id="XMLID_115_" class="st1" d="M152,280.1h3.6c0.4,0,0.7,0.5,0.7,1v5.4c0,0.6,0.3,1,0.7,1h4c0.4,0,0.7-0.5,0.7-1v-5.4
		c0-0.6,0.3-1,0.7-1h3.6c0.4,0,0.7,0.5,0.7,1v5.4c0,0.6,0.3,1,0.7,1h4c0.4,0,0.7-0.5,0.7-1v-5.4c0-0.6,0.3-1,0.7-1h3.6
		c0.4,0,0.7,0.5,0.7,1v6.4v0.2v16.8c-0.7,0-0.3,0-0.7,0H152c-0.4,0-0.3,0-0.7,0l0-23.3C151.3,280.6,151.7,280.1,152,280.1z"/>
	<path id="XMLID_114_" class="st1" d="M177.5,280.3l3.4,1.1c0.4,0.1,0.5,0.4,0.5,1l0,6.2c0,0.8,0.1,1.2,0.7,1.4l1.9,0.5
		c0.5,0.1,0.7-0.1,0.7-0.7l0-5.8c0-0.6,0.2-1,0.5-1l2.8,0.7c0.4,0.1,0.7,0.4,0.7,1l0,6.3c0,0.6,0.3,0.9,0.7,1.1l1.4,0.4
		c0.5,0.1,0.7-0.4,0.7-1l0-5.8c0-0.6,0.3-0.7,0.6-0.6l2.7,0.9c0.4,0.1,0.7,0.5,0.7,1v0.6v0.2l-0.1,23c-0.7-0.2-0.4-0.1-0.8-0.3
		l-16.9-5.8c-0.4-0.1-0.2-0.1-0.6-0.2v-23.3C177,280.6,177.1,280.2,177.5,280.3z"/>
	<path id="XMLID_54_" class="st1" d="M150.8,280.3l-3.4,1.1c-0.4,0.1-0.5,0.4-0.5,1l0,6.2c0,0.8-0.1,1.2-0.7,1.4l-1.9,0.5
		c-0.5,0.1-0.7-0.1-0.7-0.7l0-5.8c0-0.6-0.2-1-0.5-1l-2.8,0.7c-0.4,0.1-0.7,0.4-0.7,1l0,6.3c0,0.6-0.3,0.9-0.7,1.1l-1.4,0.4
		c-0.5,0.1-0.7-0.4-0.7-1l0-5.8c0-0.6-0.3-0.7-0.6-0.6l-2.7,0.9c-0.4,0.1-0.7,0.5-0.7,1v0.6v0.2l0.1,23c0.7-0.2,0.4-0.1,0.8-0.3
		l16.9-5.8c0.4-0.1,0.2-0.1,0.6-0.2v-23.3C151.3,280.6,151.2,280.2,150.8,280.3z"/>
	<polygon id="XMLID_53_" class="st1" points="177,304.5 151.3,304.5 153.4,311.4 174.9,311.4 	"/>
	<polygon id="XMLID_50_" class="st1" points="195.3,310.8 177,304.5 174.9,311.4 193.2,317.6 	"/>
	<polygon id="XMLID_46_" class="st1" points="133.1,310.8 151.3,304.5 153.4,311.4 135.1,317.6 	"/>
	<path id="XMLID_45_" class="st0" d="M168.2,328.1c-0.2-5.3-2-8.4-4.1-8.4s-3.8,3.1-4.1,8.4h0v7.7h8.2L168.2,328.1L168.2,328.1z"/>
</g>
<g id="XMLID_43_">
	<g id="XMLID_107_">
		<g id="XMLID_124_">
			<g id="XMLID_125_">
				<polygon id="XMLID_126_" class="st0" points="391.9,383.7 333.9,383.7 333.9,317.6 352.2,311.3 373.6,311.3 391.9,317.6 				"/>
			</g>
		</g>
		<g id="XMLID_121_">
			<g id="XMLID_122_">
				<polygon id="XMLID_123_" class="st1" points="391.9,383.7 373.6,383.7 373.6,311.3 391.9,317.6 				"/>
			</g>
		</g>
		<g id="XMLID_112_">
			<g id="XMLID_113_">
				<polygon id="XMLID_120_" class="st1" points="352.2,383.7 333.9,383.7 333.9,317.6 352.2,311.3 				"/>
			</g>
		</g>
	</g>
	<g id="XMLID_97_">
		<path id="XMLID_105_" class="st1" d="M350.8,280.1h3.6c0.4,0,0.7,0.5,0.7,1v5.4c0,0.6,0.3,1,0.7,1h4c0.4,0,0.7-0.5,0.7-1v-5.4
			c0-0.6,0.3-1,0.7-1h3.6c0.4,0,0.7,0.5,0.7,1v5.4c0,0.6,0.3,1,0.7,1h4c0.4,0,0.7-0.5,0.7-1v-5.4c0-0.6,0.3-1,0.7-1h3.6
			c0.4,0,0.7,0.5,0.7,1v6.4v0.2v16.8c-0.7,0-0.3,0-0.7,0h-24.3c-0.4,0-0.3,0-0.7,0l0-23.3C350.1,280.6,350.4,280.1,350.8,280.1z"/>
		<path id="XMLID_104_" class="st1" d="M376.2,280.3l3.4,1.1c0.4,0.1,0.5,0.4,0.5,1l0,6.2c0,0.8,0.1,1.2,0.7,1.4l1.9,0.5
			c0.5,0.1,0.7-0.1,0.7-0.7l0-5.8c0-0.6,0.2-1,0.5-1l2.8,0.7c0.4,0.1,0.7,0.4,0.7,1l0,6.3c0,0.6,0.3,0.9,0.7,1.1l1.4,0.4
			c0.5,0.1,0.7-0.4,0.7-1l0-5.8c0-0.6,0.3-0.7,0.6-0.6l2.7,0.9c0.4,0.1,0.7,0.5,0.7,1v0.6v0.2l-0.1,23c-0.7-0.2-0.4-0.1-0.8-0.3
			l-16.9-5.8c-0.4-0.1-0.2-0.1-0.6-0.2v-23.3C375.7,280.6,375.8,280.2,376.2,280.3z"/>
		<path id="XMLID_103_" class="st1" d="M349.6,280.3l-3.4,1.1c-0.4,0.1-0.5,0.4-0.5,1l0,6.2c0,0.8-0.1,1.2-0.7,1.4l-1.9,0.5
			c-0.5,0.1-0.7-0.1-0.7-0.7l0-5.8c0-0.6-0.2-1-0.5-1l-2.8,0.7c-0.4,0.1-0.7,0.4-0.7,1l0,6.3c0,0.6-0.3,0.9-0.7,1.1l-1.4,0.4
			c-0.5,0.1-0.7-0.4-0.7-1l0-5.8c0-0.6-0.3-0.7-0.6-0.6l-2.7,0.9c-0.4,0.1-0.7,0.5-0.7,1v0.6v0.2l0.1,23c0.7-0.2,0.4-0.1,0.8-0.3
			l16.9-5.8c0.4-0.1,0.2-0.1,0.6-0.2v-23.3C350.1,280.6,349.9,280.2,349.6,280.3z"/>
		<polygon id="XMLID_102_" class="st1" points="375.7,304.5 350.1,304.5 352.2,311.4 373.6,311.4 		"/>
		<polygon id="XMLID_101_" class="st1" points="394,310.8 375.7,304.5 373.6,311.4 391.9,317.6 		"/>
		<polygon id="XMLID_98_" class="st1" points="331.8,310.8 350.1,304.5 352.2,311.4 333.9,317.6 		"/>
	</g>
	<g id="XMLID_90_">
		<path id="XMLID_96_" class="st0" d="M367,328.1c-0.2-5.3-2-8.4-4.1-8.4s-3.8,3.1-4.1,8.4h0v7.7h8.2L367,328.1L367,328.1z"/>
	</g>
</g>
<g id="XMLID_127_">
	<path id="XMLID_130_" class="st0" d="M712.3,391.4H117.2c-4.3,0-7.7-1.7-7.7-3.8l0,0c0-2.1,3.5-3.8,7.7-3.8h595.2
		c4.3,0,7.7,1.7,7.7,3.8l0,0C720.1,389.7,716.6,391.4,712.3,391.4z"/>
	<path id="XMLID_129_" class="st0" d="M744.8,399H84.5c-4.3,0-7.7-1.7-7.7-3.8l0,0c0-2.1,3.5-3.8,7.7-3.8h660.4
		c4.3,0,7.7,1.7,7.7,3.8l0,0C752.6,397.2,749.1,399,744.8,399z"/>
	<path id="XMLID_128_" class="st0" d="M776.4,406.5h-726c-4.3,0-7.7-1.7-7.7-3.8l0,0c0-2.1,3.5-3.8,7.7-3.8h726
		c4.3,0,7.7,1.7,7.7,3.8l0,0C784.2,404.8,780.7,406.5,776.4,406.5z"/>
</g>
<g id="XMLID_21_">
	<g id="XMLID_342_">
		<path id="XMLID_361_" class="st2" d="M433.6,282.5c0.1,1.2,0.2,1.9,0.2,2.1l-0.1,2.4c0,1-0.1,1.7-0.1,2c-0.2,0.1-0.3,0.1-0.4,0.1
			L433,289c-0.6-2.5-1.6-4.4-3-5.6c-1.4-1.2-3.1-1.7-5.1-1.7c-2.1,0-3.8,0.6-5.1,1.7c-1.3,1.2-2,2.5-2,4.1c0,1.2,0.5,2.3,1.4,3.2
			c0.9,1,3.3,2.5,7.1,4.4c2.9,1.5,5,2.7,6.3,3.7c1.3,1,2.2,2.1,2.8,3.3c0.6,1.3,1,2.7,1,4.2c0,1.9-0.5,3.8-1.5,5.5
			c-1,1.7-2.4,3-4.1,3.9c-1.7,0.9-4,1.3-6.8,1.3c-2.5,0-4.8-0.4-7.1-1.2c-1.3-0.5-2.1-0.9-2.4-1.1c-0.3-0.3-0.4-0.6-0.4-0.9
			c0-0.2,0-0.5,0.1-0.8c0.3-2.1,0.4-3.9,0.4-5.3c0-0.9,0.1-1.4,0.2-1.5c0.1-0.1,0.2-0.2,0.4-0.2c0.2,0,0.3,0.1,0.4,0.2
			c0.1,0.1,0.2,0.3,0.2,0.7c0.2,2.2,1.2,4.2,3.1,6c1.9,1.8,4,2.6,6.3,2.6c1.4,0,2.8-0.3,4-0.9c1.2-0.6,2.2-1.5,2.8-2.6
			c0.7-1.1,1-2.2,1-3.3c0-1.5-0.5-2.8-1.6-4c-1-1.2-3.1-2.6-6.3-4.3c-3.1-1.6-5.2-2.8-6.1-3.6c-1.5-1.2-2.7-2.5-3.4-3.9
			c-0.6-1.1-0.8-2.3-0.8-3.7c0-2.5,1-4.7,3-6.4c2-1.8,4.7-2.6,8.1-2.6c1.9,0,3.5,0.2,4.8,0.6C431.6,281.2,432.6,281.7,433.6,282.5z"
			/>
		<path id="XMLID_359_" class="st2" d="M445.5,281.3c0.3-0.1,0.5-0.1,0.6-0.1c0.6,0,1.6,0,3.1,0.1c0.7,0,1.3,0,1.5,0
			c0.4,0,1.2,0,2.5-0.1l4.6-0.3c1.2-0.1,2.6-0.2,4.3-0.2c2.9,0,5.1,0.4,6.8,1.2s3,2.1,3.9,3.8c0.9,1.7,1.4,3.4,1.4,5.2
			c0,2.9-1,5.3-3,7.4c-2,2.1-4.7,3.1-8.1,3.1c-0.9,0-1.7-0.1-2.4-0.3c-0.6-0.2-1.4-0.6-2.2-1.1c-0.3-0.2-0.6-0.5-0.6-0.7
			c0.1-0.1,0.2-0.2,0.3-0.3c0.3,0,0.5,0.1,0.8,0.2c0.6,0.2,1.4,0.3,2.3,0.3c1.4,0,2.8-0.4,4.1-1.1c1.3-0.7,2.3-1.7,2.9-3
			s1-2.7,1-4.1c0-1.4-0.3-2.8-1-4.1s-1.6-2.4-2.7-3.2c-0.6-0.5-1.6-0.8-2.9-1.1c-1.3-0.3-2.3-0.5-3.1-0.5c-2.3,0-3.6,0.2-4,0.5
			l0,0.4l0.1,3.1l0,0.5c0,0.5-0.1,1.2-0.1,2.3c0,3.7,0.1,6,0.2,6.9v1.5l0.4,12.5c0,0.2,0,0.5-0.1,1c0,0.5-0.1,0.9-0.1,1.3
			c0,0.9,0.1,1.5,0.2,2c0.4,0.1,1.7,0.4,3.8,0.9c1,0.2,1.5,0.4,1.6,0.4c0.1,0.1,0.3,0.2,0.4,0.4c-0.1,0.3-0.2,0.5-0.3,0.5
			c-0.1,0.1-0.4,0.1-0.7,0.1c-0.2,0-0.7,0-1.5-0.1c-1.6-0.2-2.8-0.2-3.7-0.2l-4.8,0.2l-2.9-0.1c-0.2,0-0.7,0-1.6,0.1l0-0.7l3.5-0.7
			c0.6-0.2,0.9-0.3,1.1-0.5c0.2-0.3,0.3-0.8,0.3-1.5c0-0.2,0-0.5,0-1.1c0-0.4,0-0.9,0-1.6c0-2.1-0.1-6.7-0.3-13.7
			c-0.1-3.3-0.1-6.6-0.1-10v-0.5c0-1.3-0.2-2.1-0.6-2.5c-0.7-0.6-2.4-1.1-5.1-1.5c-0.1-0.2-0.1-0.4-0.1-0.5
			C445.4,281.7,445.4,281.5,445.5,281.3z"/>
		<path id="XMLID_357_" class="st2" d="M482.7,315.8c0.2-0.2,0.3-0.3,0.5-0.3c0.3-0.1,0.8-0.2,1.6-0.2c1.8-0.1,2.9-0.3,3.3-0.5
			c0.3-0.4,0.4-0.9,0.4-1.5l0-1.9l0-6.9l-0.1-3.3l0-6.9l-0.1-7.8c0-1.9-0.1-2.9-0.4-3.1c-0.3-0.3-1.3-0.5-2.9-0.6
			c-0.7,0-1.3-0.1-1.8-0.2c-0.2-0.1-0.4-0.3-0.4-0.5c0-0.1,0-0.3,0.1-0.5c0.2-0.1,0.3-0.1,0.4-0.1c0.3,0,0.6,0,0.9,0
			c1.1,0.1,2.2,0.2,3.3,0.2l2-0.1l4.8,0.1c2.4,0,4.3,0,5.6-0.1s2.3-0.1,2.7-0.1c0.4,0,1.5,0,3.1,0.1l3.9,0l0.5,0.1l2.3-0.1l0.3,0.1
			c0.1,0.1,0.2,0.3,0.2,0.5c0,0.3,0,0.6-0.1,1.2c-0.1,0.5-0.1,0.9-0.1,1c0,1.9,0.1,3.5,0.2,4.8c0,0.1-0.1,0.2-0.2,0.2
			c-0.2,0-0.4,0-0.5-0.1c-0.2-0.3-0.5-1-0.8-1.8c-0.3-0.9-0.8-1.9-1.5-3c-0.5-0.8-0.8-1.2-1.1-1.4c-0.3-0.1-0.8-0.2-1.6-0.2
			c-0.2,0-1,0-2.5-0.1c-0.4,0-0.8,0-1.2,0l-7.8,0.2h-0.7c-1,0-1.6,0.1-1.8,0.4c-0.3,0.4-0.5,1.7-0.5,3.8c0,0.2,0,2.4,0.1,6.6v3.8
			c0.2,0.1,0.4,0.1,0.7,0.1h0.5c0.3,0,0.8,0,1.4,0c0.9,0,1.6,0.1,1.9,0.1c0.2,0,0.4,0,0.6,0c2-0.1,4.5-0.1,7.6-0.1
			c1-0.2,1.5-0.4,1.7-0.6c0.3-0.3,0.5-1.2,0.6-2.6c0.1-1.4,0.4-2.2,0.9-2.3c0.2,0,0.5,0,0.7,0.1c0,0.1,0.1,0.3,0.1,0.4
			c0,0.1,0,0.3-0.1,0.6c-0.1,0.7-0.1,2.8-0.1,6.3c0,0.9,0.1,2,0.2,3.2c0.1,1.2,0.2,1.8,0.2,1.9c0,0.2,0,0.4-0.1,0.7
			c-0.1,0.1-0.3,0.1-0.4,0.1H509c-0.3-0.5-0.6-1.3-0.8-2.4c-0.5-1.8-1-3-1.5-3.5c-0.5-0.5-1.4-0.7-2.5-0.7c-0.3,0-0.7,0-1.4,0
			c-0.7,0-1.7,0-3,0H498c-2.5,0-4.2,0.1-5,0.2l0,0.9l0,5l0,3.2l0,3.1c0,1.9,0.1,2.9,0.4,3.2c0.3,0.4,1,0.6,2,0.6l1.7,0
			c0.1,0,0.7,0,1.7,0c1,0,2.2,0,3.7,0c3.5,0,5.9-0.2,7-0.5c1.2-0.3,2.1-0.8,2.9-1.6c0.8-0.8,1.7-2.4,2.9-5c0.3-0.7,0.7-1.1,1-1.1
			c0.2,0,0.3,0.1,0.5,0.2c-0.5,1.8-0.8,3-0.9,3.5c-0.2,1.3-0.3,2.6-0.4,3.9c0,0.6-0.1,1.1-0.4,1.5h-0.6l-7.7,0.1l-3.4,0l-8.2,0.1
			h-3.3c-0.4,0-0.8,0-1.2,0c-3.3,0.1-5.7,0.2-7.2,0.2c-0.3,0-0.5,0-0.6-0.1c-0.1-0.1-0.2-0.2-0.2-0.4L482.7,315.8z"/>
		<path id="XMLID_355_" class="st2" d="M525,315.8c0.2-0.2,0.3-0.3,0.5-0.3c0.3-0.1,0.8-0.2,1.6-0.2c1.8-0.1,2.9-0.3,3.3-0.5
			c0.3-0.4,0.4-0.9,0.4-1.5l0-1.9l0-6.9l-0.1-3.3l0-6.9l-0.1-7.8c0-1.9-0.1-2.9-0.4-3.1c-0.3-0.3-1.3-0.5-2.9-0.6
			c-0.7,0-1.3-0.1-1.8-0.2c-0.2-0.1-0.4-0.3-0.4-0.5c0-0.1,0-0.3,0.1-0.5c0.2-0.1,0.3-0.1,0.4-0.1c0.3,0,0.6,0,0.9,0
			c1.1,0.1,2.2,0.2,3.3,0.2l2-0.1l4.8,0.1c2.4,0,4.3,0,5.6-0.1s2.3-0.1,2.7-0.1c0.4,0,1.5,0,3.1,0.1l3.9,0l0.5,0.1l2.3-0.1l0.3,0.1
			c0.1,0.1,0.2,0.3,0.2,0.5c0,0.3,0,0.6-0.1,1.2c-0.1,0.5-0.1,0.9-0.1,1c0,1.9,0.1,3.5,0.2,4.8c0,0.1-0.1,0.2-0.2,0.2
			c-0.2,0-0.4,0-0.5-0.1c-0.2-0.3-0.5-1-0.8-1.8c-0.3-0.9-0.8-1.9-1.5-3c-0.5-0.8-0.8-1.2-1.1-1.4c-0.3-0.1-0.8-0.2-1.6-0.2
			c-0.2,0-1,0-2.5-0.1c-0.4,0-0.8,0-1.2,0l-7.8,0.2h-0.7c-1,0-1.6,0.1-1.8,0.4c-0.3,0.4-0.5,1.7-0.5,3.8c0,0.2,0,2.4,0.1,6.6v3.8
			c0.2,0.1,0.4,0.1,0.7,0.1h0.5c0.3,0,0.8,0,1.4,0c0.9,0,1.6,0.1,1.9,0.1c0.2,0,0.4,0,0.6,0c2-0.1,4.5-0.1,7.6-0.1
			c1-0.2,1.5-0.4,1.7-0.6c0.3-0.3,0.5-1.2,0.6-2.6c0.1-1.4,0.4-2.2,0.9-2.3c0.2,0,0.5,0,0.7,0.1c0,0.1,0.1,0.3,0.1,0.4
			c0,0.1,0,0.3-0.1,0.6c-0.1,0.7-0.1,2.8-0.1,6.3c0,0.9,0.1,2,0.2,3.2c0.1,1.2,0.2,1.8,0.2,1.9c0,0.2,0,0.4-0.1,0.7
			c-0.1,0.1-0.3,0.1-0.4,0.1h-0.2c-0.3-0.5-0.6-1.3-0.8-2.4c-0.5-1.8-1-3-1.5-3.5c-0.5-0.5-1.4-0.7-2.5-0.7c-0.3,0-0.7,0-1.4,0
			c-0.7,0-1.7,0-3,0h-1.8c-2.5,0-4.2,0.1-5,0.2l0,0.9l0,5l0,3.2l0,3.1c0,1.9,0.1,2.9,0.4,3.2c0.3,0.4,1,0.6,2,0.6l1.7,0
			c0.1,0,0.7,0,1.7,0c1,0,2.2,0,3.7,0c3.5,0,5.9-0.2,7-0.5c1.2-0.3,2.1-0.8,2.9-1.6c0.8-0.8,1.7-2.4,2.9-5c0.3-0.7,0.7-1.1,1-1.1
			c0.2,0,0.3,0.1,0.5,0.2c-0.5,1.8-0.8,3-0.9,3.5c-0.2,1.3-0.3,2.6-0.4,3.9c0,0.6-0.1,1.1-0.4,1.5h-0.6l-7.7,0.1l-3.4,0l-8.2,0.1
			h-3.3c-0.4,0-0.8,0-1.2,0c-3.3,0.1-5.7,0.2-7.2,0.2c-0.3,0-0.5,0-0.6-0.1c-0.1-0.1-0.2-0.2-0.2-0.4L525,315.8z"/>
		<path id="XMLID_353_" class="st2" d="M566.2,316.3c0-0.3,0.1-0.5,0.2-0.7c1.4-0.4,2.8-0.6,4.1-0.8c0.9-0.1,1.5-0.3,1.7-0.6
			c0.2-0.2,0.3-1.1,0.3-2.6l0.2-7.2l0-4.9l0-6.4v-1.7c0-3.8,0-6.2-0.1-7.2c0-0.2-0.1-0.4-0.2-0.8c-0.5-0.2-0.9-0.4-1.2-0.4
			c-0.3-0.1-1.8-0.3-4.3-0.8c0-0.2,0-0.3,0-0.4c0-0.1,0-0.3,0-0.4c0.3,0,0.9,0,1.7,0.1l4.2,0.2l2.4,0.1l0.7,0c0.1,0,0.4,0,0.8,0.1
			c1.1,0,1.7,0,1.9,0l2.2-0.2c1.5,0,2.5,0,3.1,0.1c0,0.3-0.1,0.7-0.2,1.1c-0.2,0-1.1,0.1-2.8,0.2c-1.7,0.1-2.7,0.2-2.9,0.3
			c-0.4,0.2-0.6,1-0.6,2.2c0,0.3,0,0.9-0.1,1.8v1.6l0,5.1v1.7l0.1,9l-0.1,7.7l0,1.7c0,0.5,0.1,0.9,0.3,1c0.5,0,1.8,0,4,0.1h1.9
			l4.7-0.2c1.2,0,2.1-0.2,2.6-0.4c0.5-0.2,1.4-0.8,2.6-1.8c0.7-0.7,1.3-1.3,1.7-2c0.1-0.1,0.2-0.4,0.5-0.7c0.3-0.5,0.8-1.4,1.4-2.8
			h0.9c-0.1,0.7-0.2,1.3-0.4,1.9c-0.5,2.6-0.9,4.7-1.1,6.4c0,0.4-0.1,0.7-0.1,1l-10.2-0.3c-8.8,0-14,0.1-15.6,0.2
			c-0.5,0-1,0.1-1.6,0.1H566.2z"/>
		<path id="XMLID_351_" class="st2" d="M640,283l0.3,4.1c0.1,1.3,0.2,2.1,0.2,2.6l-0.8,0.1c-1.2-2.8-2.7-4.8-4.5-6.2
			c-1.8-1.4-4-2.1-6.6-2.1c-3.2,0-5.7,0.4-7.5,1.2c-2.6,1.1-4.8,3-6.6,5.8c-1.8,2.7-2.8,6.1-2.8,9.9c0,2.2,0.3,4.3,1,6
			c0.7,1.8,1.6,3.4,2.9,5c1.2,1.5,2.7,2.9,4.4,4c1.1,0.7,2.4,1.3,3.9,1.7c0.9,0.2,2.1,0.3,3.8,0.3c1.1,0,2.3-0.2,3.6-0.5
			c1.3-0.3,2.3-0.7,3-1.2c0.7-0.5,1.1-1.1,1.4-1.8s0.4-1.9,0.4-3.8c0-3.1-0.2-5-0.6-5.5c-0.4-0.5-1.7-0.9-4-1l-1.1-0.1l-0.7,0
			c-0.1,0-0.3,0-0.4-0.1l-0.4-0.7c0-0.1,0.1-0.2,0.2-0.4c0.9-0.1,3-0.2,6.2-0.2c0.7,0,1.9,0,3.5,0.1l2.8,0.1l2.5,0
			c0.5,0,1.1,0,1.8,0.1c0.1,0,0.2,0.1,0.2,0.1c0,0,0.1,0.1,0.1,0.2c0,0.2,0,0.5-0.1,0.8c-0.8,0.2-1.4,0.2-1.8,0.2l-1.8,0
			c-0.6,0-1.1,0.2-1.4,0.6c-0.2,0.2-0.3,0.9-0.3,2l0,3.6c0,2.5-0.1,4-0.3,4.7c-0.1,0.4-0.3,0.8-0.7,1.1c-0.3,0.3-1.1,0.7-2.2,1.1
			c-1.6,0.6-3,1.1-4.3,1.3c-2.4,0.4-4.7,0.6-7,0.6c-3.6,0-6.6-0.5-8.9-1.4c-2.3-0.9-4.3-2.2-6-3.8c-1.7-1.6-2.9-3.3-3.6-5
			c-1.1-2.5-1.6-5-1.6-7.5c0-3.2,0.8-6.3,2.5-9.4c1.7-3,4.4-5.5,8.1-7.4c2.6-1.3,6.2-2,10.8-2c3.1,0,5.7,0.3,7.7,0.8
			C637.2,281.7,638.8,282.3,640,283z"/>
		<path id="XMLID_348_" class="st2" d="M654.8,298.7c0-1.9,0.2-3.5,0.7-5c0.4-1.4,1.2-3,2.3-4.7c1.1-1.7,2.3-3.1,3.8-4.2
			c1.5-1.1,3.6-2.1,6.2-3c1.9-0.6,4.2-0.9,7-0.9c1.9,0,3.8,0.3,5.6,0.8c1.8,0.5,3.5,1.2,5,2.1c1.5,0.9,3,2.3,4.5,4.2
			c1,1.3,1.8,2.7,2.3,4.2c0.7,2,1,4,1,6.1c0,2.4-0.2,4.4-0.7,6c-0.5,1.6-1.2,3.1-2.3,4.7c-0.9,1.2-2.3,2.6-4.4,4.1
			c-1.4,1.1-3.1,1.9-5.2,2.6c-2.1,0.6-4.3,1-6.7,1c-2.4,0-4.6-0.3-6.5-0.8c-1.9-0.6-3.5-1.3-4.7-2.1c-1.3-0.8-2.6-2-3.9-3.6
			c-1.3-1.6-2.4-3.3-3-5.2C655.2,303.1,654.8,301,654.8,298.7z M673.8,315.7c1.5,0,3.1-0.2,4.8-0.6c1.6-0.4,3.1-1.1,4.4-2.1
			c1.3-1,2.3-2.1,3-3.4c0.7-1.3,1.3-2.9,1.7-4.9c0.4-2,0.7-4,0.7-6c0-2.5-0.4-4.9-1.1-7.3c-0.6-1.8-1.5-3.5-2.8-4.9
			s-2.8-2.6-4.6-3.4c-1.8-0.8-3.7-1.2-5.8-1.2c-1.7,0-3.3,0.3-4.9,0.8c-1.6,0.5-2.9,1.2-3.9,2.1c-1,0.8-2,2-2.8,3.6
			c-0.9,1.6-1.5,3.3-2,5.1c-0.5,1.9-0.7,3.5-0.7,5c0,1.5,0.2,3.2,0.7,5.1c0.5,1.9,1.1,3.6,1.9,5c0.8,1.4,1.8,2.6,2.9,3.7
			c1.2,1.1,2.5,1.9,3.9,2.5C670.6,315.4,672.1,315.7,673.8,315.7z"/>
		<path id="XMLID_346_" class="st2" d="M702.9,315.8c0.2-0.2,0.3-0.3,0.5-0.3c0.3-0.1,0.8-0.2,1.6-0.2c1.8-0.1,2.9-0.3,3.3-0.5
			c0.3-0.4,0.4-0.9,0.4-1.5l0-1.9l0-6.9l-0.1-3.3l0-6.9l-0.1-7.8c0-1.9-0.1-2.9-0.4-3.1c-0.3-0.3-1.3-0.5-2.9-0.6
			c-0.7,0-1.3-0.1-1.8-0.2c-0.2-0.1-0.4-0.3-0.4-0.5c0-0.1,0-0.3,0.1-0.5c0.2-0.1,0.3-0.1,0.4-0.1c0.3,0,0.6,0,0.9,0
			c1.1,0.1,2.2,0.2,3.3,0.2l2-0.1l4.8,0.1c2.4,0,4.3,0,5.6-0.1s2.3-0.1,2.7-0.1c0.4,0,1.5,0,3.1,0.1l3.9,0l0.5,0.1l2.3-0.1l0.3,0.1
			c0.1,0.1,0.2,0.3,0.2,0.5c0,0.3,0,0.6-0.1,1.2c-0.1,0.5-0.1,0.9-0.1,1c0,1.9,0.1,3.5,0.2,4.8c0,0.1-0.1,0.2-0.2,0.2
			c-0.2,0-0.4,0-0.5-0.1c-0.2-0.3-0.5-1-0.8-1.8c-0.3-0.9-0.8-1.9-1.5-3c-0.5-0.8-0.8-1.2-1.1-1.4c-0.3-0.1-0.8-0.2-1.6-0.2
			c-0.2,0-1,0-2.5-0.1c-0.4,0-0.8,0-1.2,0l-7.8,0.2h-0.7c-1,0-1.6,0.1-1.8,0.4c-0.3,0.4-0.5,1.7-0.5,3.8c0,0.2,0,2.4,0.1,6.6v3.8
			c0.2,0.1,0.4,0.1,0.7,0.1h0.5c0.3,0,0.8,0,1.4,0c0.9,0,1.6,0.1,1.9,0.1c0.2,0,0.4,0,0.6,0c2-0.1,4.5-0.1,7.6-0.1
			c1-0.2,1.5-0.4,1.7-0.6c0.3-0.3,0.5-1.2,0.6-2.6c0.1-1.4,0.4-2.2,0.9-2.3c0.2,0,0.5,0,0.7,0.1c0,0.1,0.1,0.3,0.1,0.4
			c0,0.1,0,0.3-0.1,0.6c-0.1,0.7-0.1,2.8-0.1,6.3c0,0.9,0.1,2,0.2,3.2c0.1,1.2,0.2,1.8,0.2,1.9c0,0.2,0,0.4-0.1,0.7
			c-0.1,0.1-0.3,0.1-0.4,0.1h-0.2c-0.3-0.5-0.6-1.3-0.8-2.4c-0.5-1.8-1-3-1.5-3.5c-0.5-0.5-1.4-0.7-2.5-0.7c-0.3,0-0.7,0-1.4,0
			c-0.7,0-1.7,0-3,0h-1.8c-2.5,0-4.2,0.1-5,0.2l0,0.9l0,5l0,3.2l0,3.1c0,1.9,0.1,2.9,0.4,3.2c0.3,0.4,1,0.6,2,0.6l1.7,0
			c0.1,0,0.7,0,1.7,0c1,0,2.2,0,3.7,0c3.5,0,5.9-0.2,7-0.5c1.2-0.3,2.1-0.8,2.9-1.6c0.8-0.8,1.7-2.4,2.9-5c0.3-0.7,0.7-1.1,1-1.1
			c0.2,0,0.3,0.1,0.5,0.2c-0.5,1.8-0.8,3-0.9,3.5c-0.2,1.3-0.3,2.6-0.4,3.9c0,0.6-0.1,1.1-0.4,1.5h-0.6l-7.7,0.1l-3.4,0l-8.2,0.1
			H712c-0.4,0-0.8,0-1.2,0c-3.3,0.1-5.7,0.2-7.2,0.2c-0.3,0-0.5,0-0.6-0.1c-0.1-0.1-0.2-0.2-0.2-0.4L702.9,315.8z"/>
		<path id="XMLID_343_" class="st2" d="M744.5,315.7c0.7-0.3,1.5-0.5,2.3-0.6c1.3-0.1,2.3-0.5,2.9-0.9c0.5-1,0.7-3.6,0.7-7.7v-4.3
			l0.1-2.6l-0.1-1.9l0.1-3.5l-0.1-8.9c0-1-0.1-1.7-0.4-2c-0.4-0.5-1.5-0.9-3.3-1.3c-0.7-0.2-1.2-0.3-1.4-0.5
			c-0.2-0.1-0.3-0.4-0.3-0.8c0.4-0.1,0.7-0.1,0.9-0.1h1.9l1,0c0.7,0,1.4,0.1,2.2,0.2c1.7,0.1,3.4,0.2,5.2,0.2c0.5,0,1.2,0,2.2-0.1
			c2.5-0.1,4.3-0.2,5.4-0.2c2.2,0,4.3,0.2,6.2,0.7c2,0.4,4,1.2,6,2.4c1.3,0.7,2.6,1.9,4,3.5s2.4,3.4,3.1,5.3c0.7,1.9,1.1,4,1.1,6.4
			c0,2.1-0.4,4.2-1.2,6.3c-0.8,2.1-1.9,3.9-3.2,5.4c-1.4,1.5-2.8,2.7-4.2,3.5c-1.4,0.8-3.6,1.4-6.5,2c-1.2,0.2-3.4,0.3-6.5,0.3
			c-2.1,0-3.7-0.1-5-0.2c-0.5-0.1-1.1-0.1-1.6-0.1c-0.1,0-0.2,0-0.3,0l-11.1,0.2l-0.1-0.2c0-0.1-0.1-0.2-0.1-0.3L744.5,315.7z
			 M758.4,314.6c1.4,0.5,2.8,0.7,4.2,0.7c1.8,0,3.6-0.3,5.4-0.9c1.8-0.6,3.3-1.4,4.7-2.4c1.4-1,2.5-2.2,3.3-3.5
			c0.9-1.3,1.5-2.5,1.9-3.6c0.5-1.5,0.8-3.6,0.8-6c0-2.4-0.5-4.8-1.5-7.2c-0.7-1.7-1.9-3.3-3.6-4.9c-1.7-1.5-3.8-2.7-6.2-3.4
			c-2.4-0.7-4.9-1.1-7.7-1.1c-1.9,0-3.3,0.2-4.2,0.6c-0.1,0.1-0.2,0.2-0.3,0.4c-0.1,0.5-0.2,0.9-0.2,1.3c0,0.2,0,0.5,0,0.8
			c0.1,2.1,0.1,3.8,0.1,5.1l0,6.2c0,9.1,0.2,14.2,0.5,15.2C755.9,312.9,756.8,313.8,758.4,314.6z"/>
	</g>
</g>
<g id="XMLID_106_">
	<path id="XMLID_108_" class="st2" d="M415.1,333.1h1v16.6l10.1-9.8h1.3l-7,6.7l7.4,8.5h-1.2l-6.8-7.8l-3.7,3.6v4.2h-1V333.1z"/>
	<path id="XMLID_110_" class="st2" d="M439.2,355.5c-0.7,0-1.4-0.1-2.1-0.3c-0.7-0.2-1.3-0.5-1.9-0.9c-0.5-0.4-1-0.9-1.3-1.5
		c-0.3-0.6-0.5-1.3-0.5-2v-0.1c0-0.8,0.2-1.5,0.5-2.1c0.3-0.6,0.8-1.1,1.4-1.5c0.6-0.4,1.3-0.7,2.1-0.9c0.8-0.2,1.7-0.3,2.7-0.3
		c1.1,0,2,0.1,3,0.2c0.9,0.2,1.7,0.4,2.5,0.6v-1c0-1.7-0.5-3-1.4-3.8c-1-0.8-2.3-1.3-4-1.3c-0.9,0-1.8,0.1-2.6,0.3
		c-0.8,0.2-1.6,0.5-2.3,0.9l-0.4-0.8c0.8-0.4,1.7-0.7,2.5-1c0.9-0.2,1.8-0.4,2.8-0.4c2.1,0,3.7,0.6,4.8,1.7c0.5,0.5,0.9,1.1,1.1,1.8
		c0.3,0.7,0.4,1.5,0.4,2.5v9.5h-1v-3.2c-0.2,0.4-0.5,0.8-0.8,1.3c-0.4,0.4-0.8,0.8-1.3,1.1c-0.5,0.3-1.2,0.6-1.9,0.8
		C440.9,355.3,440.1,355.5,439.2,355.5z M439.3,354.5c0.9,0,1.8-0.1,2.5-0.4c0.8-0.3,1.4-0.6,2-1.1c0.6-0.5,1-1,1.3-1.6
		s0.5-1.3,0.5-1.9v-1.9c-0.7-0.2-1.6-0.4-2.4-0.6c-0.9-0.2-1.9-0.2-3-0.2c-0.8,0-1.6,0.1-2.3,0.3c-0.7,0.2-1.3,0.4-1.8,0.8
		c-0.5,0.3-0.9,0.7-1.2,1.2c-0.3,0.5-0.4,1-0.4,1.7v0.1c0,0.6,0.1,1.2,0.4,1.6c0.3,0.5,0.6,0.9,1.1,1.2c0.4,0.3,1,0.6,1.5,0.7
		C438,354.4,438.6,354.5,439.3,354.5z"/>
	<path id="XMLID_119_" class="st2" d="M459.7,355.4c-1.1,0-2.2-0.2-3.3-0.6c-1.1-0.4-2.1-1-2.9-1.7l0.6-0.8c0.8,0.7,1.7,1.2,2.7,1.5
		c1,0.4,1.9,0.5,2.9,0.5c0.6,0,1.2-0.1,1.7-0.2c0.5-0.2,1-0.4,1.4-0.6c0.4-0.3,0.7-0.6,0.9-1c0.2-0.4,0.3-0.8,0.3-1.3v-0.1
		c0-0.5-0.1-1-0.4-1.4c-0.3-0.4-0.6-0.7-1-0.9c-0.4-0.3-0.9-0.5-1.5-0.6c-0.6-0.2-1.1-0.4-1.7-0.5c-0.7-0.2-1.4-0.4-2-0.6
		c-0.6-0.2-1.2-0.5-1.7-0.8c-0.5-0.3-0.9-0.7-1.1-1.1c-0.3-0.4-0.4-1-0.4-1.6v-0.1c0-0.6,0.1-1.1,0.4-1.6c0.3-0.5,0.6-0.9,1.1-1.3
		c0.5-0.4,1-0.6,1.6-0.8c0.6-0.2,1.3-0.3,2.1-0.3c0.9,0,1.8,0.2,2.7,0.5c0.9,0.3,1.8,0.7,2.6,1.3l-0.5,0.8c-0.7-0.5-1.5-0.9-2.3-1.2
		c-0.8-0.3-1.7-0.4-2.5-0.4c-1.3,0-2.3,0.3-3,0.9c-0.7,0.6-1.1,1.3-1.1,2.1v0.1c0,0.5,0.1,0.9,0.4,1.2c0.3,0.3,0.6,0.6,1,0.9
		c0.4,0.3,0.9,0.5,1.5,0.6c0.6,0.2,1.1,0.4,1.8,0.5c0.7,0.2,1.3,0.4,2,0.6c0.6,0.2,1.2,0.5,1.7,0.8c0.5,0.3,0.9,0.7,1.2,1.2
		c0.3,0.5,0.4,1,0.4,1.7v0.1c0,0.6-0.1,1.2-0.4,1.7c-0.3,0.5-0.7,0.9-1.1,1.3c-0.5,0.4-1.1,0.6-1.7,0.8
		C461.1,355.3,460.4,355.4,459.7,355.4z"/>
	<path id="XMLID_12_" class="st2" d="M477.6,355.4c-1.2,0-2.2-0.3-2.9-1c-0.7-0.7-1.1-1.7-1.1-3.1v-10.4h-2.3v-0.9h2.3v-5.1h1v5.1
		h5.5v0.9h-5.5v10.3c0,1.1,0.3,2,0.8,2.5c0.6,0.6,1.3,0.8,2.3,0.8c0.7,0,1.5-0.2,2.3-0.5v0.9C479.3,355.2,478.5,355.4,477.6,355.4z"
		/>
	<path id="XMLID_1_" class="st2" d="M493.9,355.5c-1,0-2-0.2-2.9-0.6c-0.9-0.4-1.7-0.9-2.4-1.6c-0.7-0.7-1.2-1.5-1.6-2.5
		c-0.4-1-0.6-2.1-0.6-3.3v-0.1c0-1.1,0.2-2.1,0.5-3.1c0.4-1,0.9-1.8,1.5-2.5c0.7-0.7,1.4-1.3,2.3-1.7c0.9-0.4,1.8-0.6,2.9-0.6
		c1.1,0,2.2,0.2,3,0.7c0.9,0.5,1.6,1.1,2.2,1.8c0.6,0.7,1,1.6,1.3,2.5c0.3,1,0.4,1.9,0.4,3v0.3h-13.2c0,1,0.2,1.9,0.6,2.8
		c0.4,0.8,0.9,1.5,1.4,2.1c0.6,0.6,1.3,1,2,1.3c0.8,0.3,1.6,0.5,2.4,0.5c1.2,0,2.3-0.3,3.2-0.8c0.9-0.5,1.7-1.2,2.3-2l0.7,0.6
		c-0.7,0.9-1.6,1.7-2.6,2.3C496.5,355.1,495.2,355.5,493.9,355.5z M499.5,347c0-0.8-0.2-1.6-0.5-2.4c-0.3-0.8-0.7-1.5-1.2-2.1
		c-0.5-0.6-1.1-1.1-1.8-1.5c-0.7-0.4-1.6-0.6-2.5-0.6c-0.9,0-1.7,0.2-2.4,0.5c-0.7,0.3-1.4,0.8-1.9,1.4c-0.5,0.6-1,1.3-1.3,2.1
		c-0.3,0.8-0.5,1.7-0.5,2.6H499.5z"/>
	<path id="XMLID_5_" class="st2" d="M514.4,355.5c-1,0-2-0.2-2.9-0.6c-0.9-0.4-1.7-0.9-2.4-1.6c-0.7-0.7-1.2-1.5-1.6-2.5
		c-0.4-1-0.6-2.1-0.6-3.3v-0.1c0-1.1,0.2-2.1,0.5-3.1c0.4-1,0.9-1.8,1.5-2.5c0.7-0.7,1.4-1.3,2.3-1.7c0.9-0.4,1.8-0.6,2.9-0.6
		c1.1,0,2.2,0.2,3,0.7c0.9,0.5,1.6,1.1,2.2,1.8c0.6,0.7,1,1.6,1.3,2.5c0.3,1,0.4,1.9,0.4,3v0.3h-13.2c0,1,0.2,1.9,0.6,2.8
		c0.4,0.8,0.9,1.5,1.4,2.1s1.3,1,2,1.3c0.8,0.3,1.6,0.5,2.4,0.5c1.2,0,2.3-0.3,3.2-0.8c0.9-0.5,1.7-1.2,2.3-2l0.7,0.6
		c-0.7,0.9-1.6,1.7-2.6,2.3C517,355.1,515.8,355.5,514.4,355.5z M520.1,347c0-0.8-0.2-1.6-0.5-2.4c-0.3-0.8-0.7-1.5-1.2-2.1
		c-0.5-0.6-1.1-1.1-1.8-1.5c-0.7-0.4-1.6-0.6-2.5-0.6c-0.9,0-1.7,0.2-2.4,0.5c-0.7,0.3-1.4,0.8-1.9,1.4c-0.5,0.6-1,1.3-1.3,2.1
		c-0.3,0.8-0.5,1.7-0.5,2.6H520.1z"/>
	<path id="XMLID_3_" class="st2" d="M528.7,333.1h1v22h-1V333.1z"/>
</g>
<line id="XMLID_2_" class="st3" x1="550.5" y1="346.1" x2="783.1" y2="346.1"/>
<g id="XMLID_36_">
	<g id="XMLID_89_">
		<g id="XMLID_91_">
			<path id="XMLID_95_" class="st0" d="M263.8,127.6c0,0,6.7-0.7,16.3,3.4c9.6,4.2,17.6,1,17.6,1s-3.6,4.7-13.6,3.9
				c0,0,5.2,2.5,14.8,0.9c0,0-9.5,5.6-19.9,2.4c-10.3-3.1-15.2-1.9-15.2-1.9V127.6z"/>
			<g id="XMLID_92_">
				<rect id="XMLID_94_" x="262.7" y="127.6" class="st4" width="1.1" height="29.6"/>
				<circle id="XMLID_93_" class="st5" cx="263.3" cy="126" r="1"/>
			</g>
		</g>
		<path id="XMLID_64_" class="st0" d="M243.2,170.6l18.8-27.1c0.8-1,2.3-1,3.1,0l19,27.2"/>
	</g>
	<g id="XMLID_86_">
		<g id="XMLID_87_">
			<polygon id="XMLID_88_" class="st6" points="303.8,383.6 223.2,383.6 223.2,291.8 248.6,283.1 278.4,283.1 303.8,291.8 			"/>
		</g>
	</g>
	<g id="XMLID_83_">
		<g id="XMLID_84_">
			<g id="XMLID_85_">
				<path id="XMLID_155_" class="st7" d="M279.2,284.1l23.9,8v90.9h-23.9V284.1 M277.9,282.3v102h26.6v-93.1L277.9,282.3
					L277.9,282.3z"/>
			</g>
		</g>
	</g>
	<g id="XMLID_80_">
		<g id="XMLID_81_">
			<g id="XMLID_82_">
				<path id="XMLID_151_" class="st7" d="M247.8,284.1v98.8h-23.9v-90.9L247.8,284.1 M249.1,282.3l-26.6,8.8v93.1h26.6V282.3
					L249.1,282.3z"/>
			</g>
		</g>
	</g>
	<polygon id="XMLID_79_" class="st8" points="281.3,273.6 245.9,273.6 248.6,283.1 278.4,283.1 	"/>
	<polygon id="XMLID_78_" class="st8" points="306.7,282.3 281.3,273.6 278.4,283.1 303.8,291.8 	"/>
	<polygon id="XMLID_77_" class="st8" points="220.3,282.3 245.7,273.6 248.6,283.1 223.2,291.8 	"/>
	<path id="XMLID_76_" class="st5" d="M280.7,239.7"/>
	<path id="XMLID_75_" class="st9" d="M311.2,264.9"/>
	<path id="XMLID_74_" class="st5" d="M279.9,250.4"/>
	<g id="XMLID_70_">
		<path id="XMLID_71_" class="st6" d="M271.7,308.5c-0.5-10.4-3.9-16.5-8-16.5c-4.1,0-7.6,6.1-8,16.5h-0.1v15.1h16.2L271.7,308.5
			L271.7,308.5z"/>
	</g>
	<path id="XMLID_67_" class="st8" d="M246.7,239.7h5.4c0.5,0,0.9,0.6,0.9,1.5v7.5c0,0.8,0.4,1.5,0.9,1.5h5.1c0.5,0,0.9-0.6,0.9-1.5
		v-7.5c0-0.8,0.4-1.5,0.9-1.5h5c0.5,0,0.9,0.6,0.9,1.5v7.5c0,0.8,0.4,1.5,0.9,1.5h5.2c0.5,0,0.9-0.6,0.9-1.5v-7.5
		c0-0.8,0.4-1.5,0.9-1.5h5.4c0.5,0,0.9,0.6,0.9,1.5v8.9v0.2v23.3c-0.9,0-0.4,0-0.9,0h-33.7c-0.5,0-0.4,0-0.9,0l0-32.4
		C245.7,240.4,246.1,239.7,246.7,239.7z"/>
	<path id="XMLID_63_" class="st8" d="M282,240l4.7,1.6c0.5,0.2,0.6,0.6,0.6,1.4l0,8.6c0,1,0.1,1.7,1,1.9l2.7,0.7c0.6,0.1,1-0.2,1-1
		l0-8c0-0.8,0.2-1.3,0.7-1.3l3.8,1c0.5,0.2,0.9,0.6,0.9,1.4l0,8.8c0,0.8,0.4,1.3,0.9,1.5l2,0.6c0.6,0.1,0.9-0.6,0.9-1.4l0-8
		c0-0.8,0.4-1,0.8-0.9l3.7,1.2c0.6,0.2,0.9,0.6,0.9,1.5v0.8v0.2l-0.1,32c-0.9-0.3-0.6-0.2-1.1-0.4l-23.5-8.1
		c-0.5-0.2-0.3-0.1-0.8-0.3v-32.4C281.3,240.4,281.5,239.9,282,240z"/>
	<path id="XMLID_62_" class="st8" d="M245,240l-4.7,1.6c-0.5,0.2-0.6,0.6-0.6,1.4l0,8.6c0,1-0.1,1.7-1,1.9l-2.7,0.7
		c-0.6,0.1-1-0.2-1-1l0-8c0-0.8-0.2-1.3-0.7-1.3l-3.8,1c-0.5,0.2-0.9,0.6-0.9,1.4l0,8.8c0,0.8-0.4,1.3-0.9,1.5l-2,0.6
		c-0.6,0.1-0.9-0.6-0.9-1.4l0-8c0-0.8-0.4-1-0.8-0.9l-3.7,1.2c-0.6,0.2-0.9,0.6-0.9,1.5v0.8v0.2l0.1,32c0.9-0.3,0.6-0.2,1.1-0.4
		l23.5-8.1c0.5-0.2,0.3-0.1,0.8-0.3v-32.4C245.7,240.4,245.5,239.9,245,240z"/>
	<g id="XMLID_99_">
		<g id="XMLID_100_">
			<path id="XMLID_73_" class="st6" d="M291.7,268.7"/>
			<polyline id="XMLID_72_" class="st6" points="235.2,204.3 235.2,204.3 253,198.2 273.9,198.2 291.7,204.3 			"/>
		</g>
	</g>
	<path id="XMLID_185_" class="st7" d="M292,203.7l-17.7-6c-0.2-0.1-0.4,0-0.6,0.1c-0.2,0.1-0.3,0.3-0.3,0.5v50.1
		c0,0.3,0.3,0.6,0.6,0.6h0.6v-1.2v-0.7v-47.9l16.5,5.5V252v0.7v1.2h0.6c0.4,0,0.6-0.3,0.6-0.6v-49
		C292.4,204.1,292.2,203.8,292,203.7z"/>
	<polygon id="XMLID_69_" class="st1" points="275.9,191.5 251,191.5 253,198.2 273.9,198.2 	"/>
	<polygon id="XMLID_68_" class="st1" points="293.7,197.6 275.9,191.5 273.9,198.2 291.7,204.3 	"/>
	<polygon id="XMLID_66_" class="st1" points="233.2,197.6 251,191.5 253,198.2 235.2,204.3 	"/>
	<path id="XMLID_65_" class="st5" d="M274.6,168"/>
	<path id="XMLID_61_" class="st5" d="M291.8,180.4"/>
	<path id="XMLID_60_" class="st5" d="M274.1,173"/>
	<g id="XMLID_58_">
		<path id="XMLID_59_" class="st6" d="M269.2,216c-0.3-7.3-2.7-11.6-5.6-11.6c-2.9,0-5.3,4.3-5.6,11.6h0v10.6h11.3L269.2,216
			L269.2,216z"/>
	</g>
	<path id="XMLID_57_" class="st0" d="M251.7,167.8h3.5c0.4,0,0.7,0.5,0.7,1v5.2c0,0.6,0.3,1,0.7,1h3.9c0.4,0,0.7-0.5,0.7-1v-5.2
		c0-0.6,0.3-1,0.7-1h3.5c0.4,0,0.7,0.5,0.7,1v5.2c0,0.6,0.3,1,0.7,1h3.9c0.4,0,0.7-0.5,0.7-1v-5.2c0-0.6,0.3-1,0.7-1h3.5
		c0.4,0,0.7,0.5,0.7,1v6.3v0.2v16.3c-0.7,0-0.3,0-0.7,0h-23.6c-0.4,0-0.3,0-0.7,0l0-22.7C251,168.2,251.3,167.8,251.7,167.8z"/>
	<path id="XMLID_56_" class="st1" d="M276.4,167.9l3.3,1.1c0.4,0.1,0.4,0.4,0.4,1l0,6c0,0.7,0.1,1.2,0.7,1.3l1.9,0.5
		c0.4,0.1,0.7-0.1,0.7-0.7l0-5.6c0-0.6,0.2-0.9,0.5-0.9l2.7,0.7c0.4,0.1,0.7,0.4,0.7,1l0,6.1c0,0.6,0.3,0.9,0.7,1l1.4,0.4
		c0.5,0.1,0.7-0.4,0.7-1l0-5.6c0-0.6,0.3-0.7,0.6-0.6l2.6,0.9c0.4,0.1,0.7,0.5,0.7,1v0.5v0.2l-0.1,22.4c-0.7-0.2-0.4-0.1-0.8-0.3
		l-16.5-5.6c-0.4-0.1-0.2-0.1-0.6-0.2v-22.7C275.9,168.2,276.1,167.8,276.4,167.9z"/>
	<path id="XMLID_55_" class="st1" d="M250.5,167.9l-3.3,1.1c-0.4,0.1-0.4,0.4-0.4,1l0,6c0,0.7-0.1,1.2-0.7,1.3l-1.9,0.5
		c-0.4,0.1-0.7-0.1-0.7-0.7l0-5.6c0-0.6-0.2-0.9-0.5-0.9l-2.7,0.7c-0.4,0.1-0.7,0.4-0.7,1l0,6.1c0,0.6-0.3,0.9-0.7,1l-1.4,0.4
		c-0.5,0.1-0.7-0.4-0.7-1l0-5.6c0-0.6-0.3-0.7-0.6-0.6l-2.6,0.9c-0.4,0.1-0.7,0.5-0.7,1v0.5v0.2l0.1,22.4c0.7-0.2,0.4-0.1,0.8-0.3
		l16.5-5.6c0.4-0.1,0.2-0.1,0.6-0.2v-22.7C251,168.2,250.9,167.8,250.5,167.9z"/>
	<path id="XMLID_188_" class="st7" d="M253.5,197.7c-0.2-0.1-0.4-0.2-0.6-0.1l-18,6.1c-0.3,0.1-0.4,0.3-0.4,0.6v43.5h1.3v-0.6V247
		v-42.1l16.7-5.7v47.4v0.3v0.6h1.3v-49.2C253.7,198,253.6,197.8,253.5,197.7z"/>
</g>
</svg>
