<?xml version="1.0" encoding="utf-8"?>
<!-- Generator: Adobe Illustrator 19.0.0, SVG Export Plug-In . SVG Version: 6.00 Build 0)  -->
<svg version="1.1" id="Layer_1" xmlns="http://www.w3.org/2000/svg" xmlns:xlink="http://www.w3.org/1999/xlink" x="0px" y="0px"
	 viewBox="0 0 815.9 210.5" style="enable-background:new 0 0 815.9 210.5;" xml:space="preserve">
<style type="text/css">
	.st0{fill:#FFFFFF;stroke:#FFFFFF;stroke-width:2;stroke-miterlimit:10;}
	.st1{fill:none;stroke:#FFFFFF;stroke-width:2;stroke-miterlimit:10;}
	.st2{fill:#FFFFFF;stroke:#FFFFFF;stroke-miterlimit:10;}
	.st3{fill:none;stroke:#FFFFFF;stroke-width:1.3092;stroke-miterlimit:10;}
	.st4{fill:#FFFFFF;}
	.st5{fill:none;stroke:#FFFFFF;stroke-width:2;stroke-linejoin:round;stroke-miterlimit:10;}
	.st6{fill:none;stroke:#FFFFFF;stroke-width:0.3628;stroke-miterlimit:10;}
</style>
<g id="XMLID_1_">
	<g id="XMLID_650_">
		<g id="XMLID_187_">
			<path id="XMLID_206_" class="st0" d="M163.1,71.4c0.3,2.2,0.4,3.5,0.4,3.9l-0.2,4.5c-0.1,1.9-0.2,3.2-0.3,3.7
				c-0.3,0.1-0.6,0.2-0.8,0.2l-0.5-0.1c-1.1-4.7-2.9-8.2-5.5-10.4c-2.6-2.2-5.8-3.3-9.5-3.3c-3.9,0-7,1.1-9.5,3.3
				c-2.5,2.2-3.7,4.7-3.7,7.6c0,2.2,0.9,4.2,2.6,6c1.7,1.8,6.2,4.6,13.3,8.2c5.4,2.8,9.3,5.1,11.6,6.9c2.3,1.8,4.1,3.8,5.3,6.2
				c1.2,2.3,1.8,5,1.8,7.8c0,3.6-0.9,7-2.8,10.2c-1.9,3.2-4.4,5.6-7.6,7.2s-7.4,2.4-12.7,2.4c-4.6,0-9-0.7-13.2-2.2
				c-2.5-0.9-4-1.6-4.5-2.1c-0.5-0.5-0.8-1.1-0.8-1.7c0-0.4,0-0.8,0.1-1.4c0.5-4,0.7-7.3,0.8-9.9c0.1-1.6,0.2-2.5,0.4-2.8
				c0.1-0.2,0.4-0.4,0.8-0.4c0.3,0,0.5,0.1,0.7,0.3c0.2,0.2,0.3,0.6,0.4,1.2c0.4,4.2,2.3,7.9,5.8,11.2c3.5,3.3,7.4,4.9,11.7,4.9
				c2.7,0,5.1-0.6,7.4-1.7c2.3-1.1,4-2.7,5.3-4.9c1.3-2.1,1.9-4.2,1.9-6.2c0-2.7-1-5.3-2.9-7.5c-1.9-2.3-5.8-4.9-11.6-8
				c-5.8-3-9.6-5.2-11.4-6.6c-2.8-2.3-5-4.7-6.4-7.2c-1-2-1.6-4.3-1.6-6.9c0-4.7,1.9-8.7,5.6-12c3.7-3.3,8.7-4.9,15-4.9
				c3.5,0,6.4,0.4,8.9,1.2C159.3,69,161.1,70,163.1,71.4z"/>
			<path id="XMLID_204_" class="st0" d="M185.2,69.3c0.6-0.1,1-0.2,1.2-0.2c1.2,0,3.1,0.1,5.7,0.2c1.4,0,2.3,0.1,2.8,0.1
				c0.7,0,2.3-0.1,4.7-0.2l8.6-0.5c2.3-0.2,4.9-0.3,7.9-0.3c5.3,0,9.6,0.8,12.7,2.3c3.2,1.5,5.6,3.9,7.3,7.1
				c1.7,3.2,2.6,6.4,2.6,9.6c0,5.3-1.9,9.9-5.6,13.8c-3.7,3.9-8.7,5.8-15,5.8c-1.8,0-3.2-0.2-4.4-0.5c-1.2-0.4-2.5-1-4.1-2.1
				c-0.6-0.4-1-0.9-1.2-1.4c0.1-0.2,0.3-0.4,0.6-0.5c0.5,0,1,0.1,1.5,0.3c1.2,0.4,2.6,0.6,4.4,0.6c2.7,0,5.2-0.7,7.6-2
				c2.4-1.3,4.2-3.2,5.4-5.6c1.2-2.4,1.8-5,1.8-7.7c0-2.6-0.6-5.2-1.9-7.7s-3-4.5-5.1-6c-1.2-0.8-3-1.6-5.5-2.1
				c-2.5-0.6-4.4-0.9-5.7-0.9c-4.2,0-6.7,0.3-7.5,0.9L204,73l0.2,5.7l-0.1,1c-0.1,0.9-0.1,2.3-0.1,4.2c0,6.9,0.1,11.2,0.3,12.9v2.8
				l0.7,23.2c0,0.3,0,1-0.1,1.9c-0.1,0.9-0.1,1.7-0.1,2.4c0,1.6,0.1,2.9,0.4,3.7c0.8,0.2,3.2,0.8,7.1,1.7c1.8,0.4,2.8,0.7,3,0.8
				c0.3,0.1,0.5,0.3,0.7,0.7c-0.1,0.5-0.3,0.8-0.5,1c-0.2,0.2-0.7,0.2-1.3,0.2c-0.4,0-1.4-0.1-2.8-0.3c-2.9-0.3-5.2-0.5-6.9-0.5
				l-8.9,0.4l-5.3-0.2c-0.3,0-1.3,0-2.9,0.1l-0.1-1.3l6.6-1.3c1.1-0.3,1.7-0.6,2-0.9c0.3-0.5,0.5-1.4,0.5-2.8c0-0.3,0-1,0.1-2
				c0-0.7,0.1-1.7,0.1-2.9c0-4-0.2-12.5-0.5-25.5c-0.1-6.1-0.2-12.3-0.2-18.6v-0.9c0-2.4-0.4-4-1.1-4.6c-1.3-1.1-4.4-2-9.4-2.7
				c-0.2-0.4-0.3-0.7-0.3-0.9C184.9,70,185,69.7,185.2,69.3z"/>
			<path id="XMLID_202_" class="st0" d="M254.5,133.4c0.3-0.3,0.6-0.5,0.9-0.5c0.6-0.2,1.6-0.3,2.9-0.4c3.3-0.2,5.3-0.5,6.1-0.9
				c0.5-0.7,0.7-1.6,0.7-2.9l-0.1-3.6l0.1-12.9l-0.1-6.1l0.1-12.8l-0.3-14.5c0-3.5-0.3-5.4-0.7-5.9c-0.6-0.6-2.4-1-5.4-1.1
				c-1.3,0-2.4-0.1-3.4-0.3c-0.4-0.2-0.7-0.5-0.7-0.9c0-0.3,0.1-0.6,0.3-1c0.3-0.2,0.6-0.3,0.8-0.3c0.5,0,1,0,1.7,0.1
				c2,0.2,4.1,0.3,6.2,0.3l3.8-0.1l8.9,0.2c4.5,0,8-0.1,10.5-0.2s4.2-0.2,5.1-0.2c0.8,0,2.7,0.1,5.8,0.2l7.2-0.1l0.9,0.2l4.2-0.2
				l0.5,0.3c0.2,0.3,0.3,0.6,0.4,0.9c0,0.5-0.1,1.2-0.2,2.2c-0.2,1-0.2,1.6-0.2,1.8c0,3.5,0.1,6.5,0.4,8.9c0,0.2-0.1,0.3-0.3,0.4
				c-0.4,0-0.7-0.1-1-0.2c-0.4-0.6-0.9-1.8-1.5-3.4c-0.6-1.6-1.6-3.5-2.8-5.6c-0.8-1.4-1.5-2.3-2-2.5c-0.5-0.3-1.5-0.4-3-0.4
				c-0.3,0-1.8,0-4.6-0.1c-0.7,0-1.5-0.1-2.2-0.1l-14.5,0.3h-1.3c-1.9,0-3,0.2-3.4,0.7c-0.6,0.8-0.9,3.2-0.9,7.2
				c0,0.4,0.1,4.5,0.3,12.2v7.1c0.4,0.1,0.8,0.2,1.2,0.2h0.9c0.6,0,1.4,0,2.5,0.1c1.8,0.1,2.9,0.1,3.6,0.1c0.4,0,0.8,0,1.1-0.1
				c3.7-0.1,8.4-0.2,14.1-0.2c1.8-0.3,2.8-0.7,3.2-1.1c0.5-0.6,0.9-2.2,1.1-4.8c0.3-2.6,0.8-4,1.7-4.4c0.4,0,0.8,0.1,1.2,0.3
				c0.1,0.3,0.1,0.5,0.1,0.8c0,0.2,0,0.6-0.1,1.2c-0.2,1.3-0.3,5.2-0.3,11.8c0,1.8,0.1,3.7,0.3,5.9c0.2,2.2,0.3,3.3,0.3,3.5
				c0,0.3-0.1,0.7-0.2,1.2c-0.3,0.1-0.5,0.2-0.7,0.2h-0.4c-0.5-0.9-1.1-2.4-1.6-4.4c-0.9-3.4-1.8-5.6-2.8-6.4
				c-1-0.9-2.5-1.3-4.7-1.3c-0.5,0-1.3,0-2.6,0.1c-1.3,0.1-3.1,0.1-5.6,0.1h-3.3c-4.7,0-7.8,0.1-9.3,0.3l-0.1,1.7l0.1,9.4l-0.1,5.9
				l0.1,5.8c0,3.5,0.3,5.5,0.7,6c0.6,0.7,1.8,1.1,3.8,1.1l3.1-0.1c0.3,0,1.3,0,3.2,0.1c1.8,0.1,4.1,0.1,6.8,0.1
				c6.5,0,10.9-0.3,13.1-0.8c2.2-0.6,4-1.6,5.4-3c1.4-1.4,3.2-4.5,5.3-9.2c0.6-1.4,1.3-2.1,1.9-2.1c0.3,0,0.6,0.1,1,0.4
				c-1,3.4-1.5,5.6-1.7,6.6c-0.4,2.4-0.6,4.8-0.7,7.3c0,1.1-0.3,2.1-0.8,2.8h-1.1l-14.3,0.2l-6.4-0.1l-15.3,0.2h-6.2
				c-0.8,0-1.5,0-2.2,0.1c-6.1,0.3-10.6,0.4-13.5,0.4c-0.5,0-0.9-0.1-1-0.2c-0.2-0.2-0.3-0.4-0.3-0.7L254.5,133.4z"/>
			<path id="XMLID_200_" class="st0" d="M333.2,133.4c0.3-0.3,0.6-0.5,0.9-0.5c0.6-0.2,1.6-0.3,2.9-0.4c3.3-0.2,5.3-0.5,6.1-0.9
				c0.5-0.7,0.7-1.6,0.7-2.9l-0.1-3.6l0.1-12.9l-0.1-6.1l0.1-12.8l-0.3-14.5c0-3.5-0.3-5.4-0.7-5.9c-0.6-0.6-2.4-1-5.4-1.1
				c-1.3,0-2.4-0.1-3.4-0.3c-0.4-0.2-0.7-0.5-0.7-0.9c0-0.3,0.1-0.6,0.3-1c0.3-0.2,0.6-0.3,0.8-0.3c0.5,0,1,0,1.7,0.1
				c2,0.2,4.1,0.3,6.2,0.3l3.8-0.1l8.9,0.2c4.5,0,8-0.1,10.5-0.2c2.5-0.1,4.2-0.2,5.1-0.2c0.8,0,2.7,0.1,5.8,0.2l7.2-0.1l0.9,0.2
				l4.2-0.2l0.5,0.3c0.2,0.3,0.3,0.6,0.4,0.9c0,0.5-0.1,1.2-0.2,2.2c-0.2,1-0.2,1.6-0.2,1.8c0,3.5,0.1,6.5,0.4,8.9
				c0,0.2-0.1,0.3-0.3,0.4c-0.4,0-0.7-0.1-1-0.2c-0.4-0.6-0.9-1.8-1.5-3.4c-0.6-1.6-1.6-3.5-2.8-5.6c-0.8-1.4-1.5-2.3-2-2.5
				c-0.5-0.3-1.5-0.4-3-0.4c-0.3,0-1.8,0-4.6-0.1c-0.7,0-1.5-0.1-2.2-0.1l-14.5,0.3h-1.3c-1.9,0-3,0.2-3.4,0.7
				c-0.6,0.8-0.9,3.2-0.9,7.2c0,0.4,0.1,4.5,0.3,12.2v7.1c0.4,0.1,0.8,0.2,1.2,0.2h0.9c0.6,0,1.4,0,2.5,0.1c1.8,0.1,2.9,0.1,3.6,0.1
				c0.4,0,0.8,0,1.1-0.1c3.7-0.1,8.4-0.2,14.1-0.2c1.8-0.3,2.8-0.7,3.2-1.1c0.5-0.6,0.9-2.2,1.1-4.8c0.3-2.6,0.8-4,1.7-4.4
				c0.4,0,0.8,0.1,1.2,0.3c0.1,0.3,0.1,0.5,0.1,0.8c0,0.2,0,0.6-0.1,1.2c-0.2,1.3-0.3,5.2-0.3,11.8c0,1.8,0.1,3.7,0.3,5.9
				c0.2,2.2,0.3,3.3,0.3,3.5c0,0.3-0.1,0.7-0.2,1.2c-0.3,0.1-0.5,0.2-0.7,0.2h-0.4c-0.5-0.9-1.1-2.4-1.6-4.4
				c-0.9-3.4-1.8-5.6-2.8-6.4c-1-0.9-2.5-1.3-4.7-1.3c-0.5,0-1.3,0-2.6,0.1c-1.3,0.1-3.1,0.1-5.6,0.1h-3.3c-4.7,0-7.8,0.1-9.3,0.3
				l-0.1,1.7l0.1,9.4l-0.1,5.9l0.1,5.8c0,3.5,0.3,5.5,0.7,6c0.6,0.7,1.8,1.1,3.8,1.1l3.1-0.1c0.3,0,1.3,0,3.2,0.1
				c1.8,0.1,4.1,0.1,6.8,0.1c6.5,0,10.9-0.3,13.1-0.8c2.2-0.6,4-1.6,5.4-3c1.4-1.4,3.2-4.5,5.3-9.2c0.6-1.4,1.3-2.1,1.9-2.1
				c0.3,0,0.6,0.1,1,0.4c-1,3.4-1.5,5.6-1.7,6.6c-0.4,2.4-0.6,4.8-0.7,7.3c0,1.1-0.3,2.1-0.8,2.8h-1.1l-14.3,0.2l-6.4-0.1l-15.3,0.2
				h-6.2c-0.8,0-1.5,0-2.2,0.1c-6.1,0.3-10.6,0.4-13.5,0.4c-0.5,0-0.9-0.1-1-0.2c-0.2-0.2-0.3-0.4-0.3-0.7L333.2,133.4z"/>
			<path id="XMLID_198_" class="st0" d="M409.9,134.5c0-0.5,0.2-1,0.4-1.4c2.6-0.7,5.2-1.2,7.7-1.4c1.7-0.1,2.7-0.5,3.2-1.1
				c0.3-0.4,0.5-2.1,0.6-4.9l0.4-13.4l-0.1-9.1l0.1-11.9v-3.2c0-7.2,0-11.6-0.1-13.4c0-0.3-0.2-0.8-0.4-1.4
				c-0.9-0.4-1.6-0.7-2.2-0.8c-0.6-0.1-3.3-0.6-8-1.5c0-0.4-0.1-0.6-0.1-0.8c0-0.2,0-0.5,0.1-0.8c0.6,0,1.7,0,3.2,0.1l7.7,0.3
				l4.5,0.1l1.3-0.1c0.2,0,0.7,0,1.5,0.1c2,0,3.2,0,3.5-0.1l4.1-0.3c2.7,0,4.7,0.1,5.8,0.2c0,0.6-0.2,1.3-0.4,2
				c-0.4,0.1-2.1,0.2-5.3,0.3c-3.2,0.1-5,0.3-5.4,0.6c-0.8,0.4-1.2,1.8-1.2,4.1c0,0.5,0,1.6-0.1,3.3V83l0.1,9.4v3.2l0.1,16.8
				l-0.2,14.3l0.1,3.2c0,1,0.2,1.6,0.5,1.9c0.8,0,3.3,0.1,7.5,0.1h3.5l8.8-0.3c2.3-0.1,3.9-0.3,4.9-0.7c1-0.4,2.6-1.5,4.9-3.4
				c1.4-1.2,2.5-2.5,3.3-3.8c0.2-0.3,0.5-0.7,0.9-1.2c0.6-0.9,1.5-2.6,2.6-5.3h1.7c-0.2,1.2-0.4,2.4-0.7,3.5c-1,4.8-1.7,8.8-2,11.9
				c-0.1,0.7-0.1,1.3-0.2,1.9l-19-0.6c-16.3,0-26,0.2-29.1,0.5c-0.9,0.1-1.9,0.1-3,0.1H409.9z"/>
			<path id="XMLID_196_" class="st0" d="M547.2,72.4l0.6,7.7c0.2,2.3,0.3,3.9,0.3,4.8l-1.4,0.3c-2.3-5.2-5.1-9-8.5-11.6
				c-3.4-2.6-7.5-3.9-12.4-3.9c-6,0-10.6,0.7-13.9,2.2c-4.8,2.1-8.9,5.7-12.4,10.8c-3.4,5.1-5.1,11.3-5.1,18.5
				c0,4.2,0.6,7.9,1.9,11.2s3,6.4,5.3,9.3c2.3,2.9,5,5.3,8.1,7.4c2,1.4,4.5,2.4,7.3,3.2c1.6,0.4,4,0.6,7.1,0.6c2,0,4.3-0.3,6.8-0.9
				c2.5-0.6,4.3-1.3,5.6-2.3c1.3-1,2.1-2.1,2.6-3.3c0.5-1.2,0.7-3.6,0.7-7.1c0-5.9-0.4-9.3-1.2-10.2c-0.8-1-3.2-1.6-7.4-1.9l-2-0.2
				l-1.4,0.1c-0.2,0-0.5-0.1-0.8-0.2l-0.8-1.3c0-0.2,0.1-0.4,0.4-0.7c1.8-0.3,5.6-0.4,11.5-0.4c1.3,0,3.5,0,6.5,0.1l5.2,0.2l4.7-0.1
				c0.9,0,2,0,3.3,0.1c0.2,0,0.4,0.1,0.5,0.2c0.1,0.1,0.1,0.2,0.1,0.4c0,0.4-0.1,0.8-0.3,1.4c-1.4,0.3-2.5,0.5-3.3,0.5l-3.3-0.1
				c-1.1,0-2,0.4-2.7,1.2c-0.3,0.4-0.5,1.6-0.5,3.8l0.1,6.7c0,4.6-0.2,7.5-0.6,8.7c-0.2,0.7-0.6,1.4-1.3,2c-0.6,0.6-2,1.3-4.1,2.1
				c-2.9,1.2-5.6,2-8,2.4c-4.5,0.8-8.8,1.2-13,1.2c-6.7,0-12.2-0.9-16.5-2.6c-4.3-1.7-8-4.1-11.1-7.1c-3.1-3.1-5.3-6.1-6.6-9.3
				c-2-4.6-3-9.2-3-14c0-5.9,1.6-11.7,4.7-17.4c3.1-5.7,8.2-10.3,15.2-13.9c4.9-2.5,11.6-3.8,20-3.8c5.8,0,10.6,0.5,14.3,1.5
				C542.1,70,545.1,71.2,547.2,72.4z"/>
			<path id="XMLID_193_" class="st0" d="M574.9,101.7c0-3.5,0.4-6.5,1.2-9.2c0.8-2.7,2.2-5.6,4.2-8.8c2-3.2,4.3-5.8,7.1-7.9
				c2.8-2.1,6.6-4,11.5-5.6c3.5-1.1,7.8-1.7,13.1-1.7c3.6,0,7,0.5,10.4,1.4c3.4,0.9,6.5,2.3,9.3,4c2.8,1.7,5.6,4.3,8.3,7.8
				c1.9,2.4,3.4,5.1,4.4,7.9c1.3,3.7,1.9,7.5,1.9,11.4c0,4.5-0.4,8.2-1.3,11.1c-0.9,2.9-2.3,5.9-4.3,8.7c-1.6,2.2-4.3,4.8-8.2,7.7
				c-2.6,2-5.8,3.6-9.6,4.8c-3.8,1.2-8,1.8-12.4,1.8c-4.5,0-8.5-0.5-12-1.6c-3.5-1-6.5-2.3-8.8-3.8c-2.4-1.5-4.8-3.7-7.3-6.7
				c-2.5-2.9-4.4-6.2-5.7-9.8S574.9,105.9,574.9,101.7z M610.2,133.3c2.8,0,5.8-0.4,8.9-1.2c3.1-0.8,5.8-2.1,8.2-4
				c2.4-1.8,4.2-3.9,5.6-6.3c1.3-2.4,2.4-5.4,3.2-9.1c0.8-3.7,1.2-7.4,1.2-11.1c0-4.6-0.7-9.2-2-13.7c-1.1-3.4-2.8-6.5-5.1-9.2
				c-2.4-2.7-5.2-4.8-8.6-6.3c-3.4-1.5-6.9-2.2-10.7-2.2c-3.1,0-6.1,0.5-9,1.5s-5.4,2.3-7.3,3.9c-1.9,1.6-3.7,3.8-5.3,6.7
				c-1.6,2.9-2.9,6.1-3.7,9.6c-0.8,3.5-1.3,6.6-1.3,9.3c0,2.8,0.4,6,1.3,9.6c0.8,3.6,2,6.6,3.5,9.3c1.5,2.6,3.3,4.9,5.4,6.9
				c2.2,2,4.6,3.6,7.2,4.6C604.2,132.8,607.1,133.3,610.2,133.3z"/>
			<path id="XMLID_191_" class="st0" d="M664.4,133.4c0.3-0.3,0.6-0.5,0.9-0.5c0.6-0.2,1.6-0.3,2.9-0.4c3.3-0.2,5.3-0.5,6.1-0.9
				c0.5-0.7,0.7-1.6,0.7-2.9l-0.1-3.6l0.1-12.9l-0.1-6.1l0.1-12.8l-0.3-14.5c0-3.5-0.3-5.4-0.7-5.9c-0.6-0.6-2.4-1-5.4-1.1
				c-1.3,0-2.4-0.1-3.4-0.3c-0.4-0.2-0.7-0.5-0.7-0.9c0-0.3,0.1-0.6,0.3-1c0.3-0.2,0.6-0.3,0.8-0.3c0.5,0,1,0,1.7,0.1
				c2,0.2,4.1,0.3,6.2,0.3l3.8-0.1l8.9,0.2c4.5,0,8-0.1,10.5-0.2s4.2-0.2,5.1-0.2c0.8,0,2.7,0.1,5.8,0.2l7.2-0.1l0.9,0.2l4.2-0.2
				l0.5,0.3c0.2,0.3,0.3,0.6,0.4,0.9c0,0.5-0.1,1.2-0.2,2.2c-0.2,1-0.2,1.6-0.2,1.8c0,3.5,0.1,6.5,0.4,8.9c0,0.2-0.1,0.3-0.3,0.4
				c-0.4,0-0.7-0.1-1-0.2c-0.4-0.6-0.9-1.8-1.5-3.4c-0.6-1.6-1.6-3.5-2.8-5.6c-0.8-1.4-1.5-2.3-2-2.5c-0.5-0.3-1.5-0.4-3-0.4
				c-0.3,0-1.8,0-4.6-0.1c-0.7,0-1.5-0.1-2.2-0.1l-14.5,0.3h-1.3c-1.9,0-3,0.2-3.4,0.7c-0.6,0.8-0.9,3.2-0.9,7.2
				c0,0.4,0.1,4.5,0.3,12.2v7.1c0.4,0.1,0.8,0.2,1.2,0.2h0.9c0.6,0,1.4,0,2.5,0.1c1.8,0.1,2.9,0.1,3.6,0.1c0.4,0,0.8,0,1.1-0.1
				c3.7-0.1,8.4-0.2,14.1-0.2c1.8-0.3,2.8-0.7,3.2-1.1c0.5-0.6,0.9-2.2,1.1-4.8c0.3-2.6,0.8-4,1.7-4.4c0.4,0,0.8,0.1,1.2,0.3
				c0.1,0.3,0.1,0.5,0.1,0.8c0,0.2,0,0.6-0.1,1.2c-0.2,1.3-0.3,5.2-0.3,11.8c0,1.8,0.1,3.7,0.3,5.9c0.2,2.2,0.3,3.3,0.3,3.5
				c0,0.3-0.1,0.7-0.2,1.2c-0.3,0.1-0.5,0.2-0.7,0.2h-0.4c-0.5-0.9-1.1-2.4-1.6-4.4c-0.9-3.4-1.8-5.6-2.8-6.4
				c-1-0.9-2.5-1.3-4.7-1.3c-0.5,0-1.3,0-2.6,0.1c-1.3,0.1-3.1,0.1-5.6,0.1h-3.3c-4.7,0-7.8,0.1-9.3,0.3l-0.1,1.7l0.1,9.4l-0.1,5.9
				l0.1,5.8c0,3.5,0.3,5.5,0.7,6c0.6,0.7,1.8,1.1,3.8,1.1l3.1-0.1c0.3,0,1.3,0,3.2,0.1c1.8,0.1,4.1,0.1,6.8,0.1
				c6.5,0,10.9-0.3,13.1-0.8c2.2-0.6,4-1.6,5.4-3c1.4-1.4,3.2-4.5,5.3-9.2c0.6-1.4,1.3-2.1,1.9-2.1c0.3,0,0.6,0.1,1,0.4
				c-1,3.4-1.5,5.6-1.7,6.6c-0.4,2.4-0.6,4.8-0.7,7.3c0,1.1-0.3,2.1-0.8,2.8h-1.1l-14.3,0.2l-6.4-0.1l-15.3,0.2h-6.2
				c-0.8,0-1.5,0-2.2,0.1c-6.1,0.3-10.6,0.4-13.5,0.4c-0.5,0-0.9-0.1-1-0.2c-0.2-0.2-0.3-0.4-0.3-0.7L664.4,133.4z"/>
			<path id="XMLID_188_" class="st0" d="M741.8,133.2c1.3-0.5,2.7-0.9,4.4-1.1c2.4-0.3,4.2-0.8,5.4-1.7c0.9-1.9,1.4-6.6,1.4-14.2v-8
				l0.1-4.8l-0.1-3.6l0.1-6.6l-0.2-16.5c0-1.9-0.3-3.1-0.8-3.7c-0.8-0.8-2.8-1.6-6.2-2.3c-1.4-0.3-2.2-0.6-2.5-0.8
				c-0.3-0.3-0.5-0.7-0.6-1.4c0.8-0.2,1.3-0.3,1.6-0.3h3.6l1.9-0.1c1.3,0,2.6,0.1,4.2,0.4c3.1,0.2,6.3,0.3,9.6,0.3
				c0.9,0,2.3-0.1,4.1-0.2c4.7-0.3,8-0.4,10.1-0.4c4.1,0,8,0.4,11.6,1.2c3.6,0.8,7.4,2.3,11.3,4.5c2.4,1.4,4.9,3.6,7.4,6.6
				c2.5,3,4.4,6.3,5.7,9.8c1.3,3.5,2,7.5,2,12c0,4-0.7,7.9-2.2,11.8c-1.4,3.9-3.4,7.3-6,10.1c-2.6,2.9-5.2,5-7.8,6.5
				c-2.6,1.4-6.7,2.7-12.1,3.7c-2.2,0.4-6.3,0.6-12,0.6c-3.8,0-6.9-0.1-9.4-0.4c-0.9-0.1-2-0.2-3-0.2c-0.2,0-0.4,0-0.6,0.1
				l-20.7,0.4l-0.1-0.4c-0.1-0.2-0.1-0.4-0.1-0.6L741.8,133.2z M767.7,131.2c2.6,0.9,5.2,1.3,7.8,1.3c3.4,0,6.8-0.5,10.1-1.6
				c3.3-1.1,6.2-2.6,8.7-4.5c2.5-1.9,4.6-4.2,6.2-6.6c1.6-2.5,2.8-4.7,3.5-6.6c0.9-2.9,1.4-6.6,1.4-11.2c0-4.4-0.9-8.9-2.8-13.4
				c-1.3-3.2-3.6-6.2-6.8-9c-3.2-2.9-7.1-5-11.5-6.3c-4.4-1.3-9.2-2-14.3-2c-3.5,0-6.1,0.4-7.8,1.2c-0.2,0.2-0.4,0.4-0.6,0.7
				c-0.2,0.8-0.3,1.6-0.3,2.3c0,0.4,0,1,0.1,1.6c0.1,3.9,0.2,7.1,0.2,9.5l-0.1,11.5c0,16.9,0.3,26.4,0.9,28.3
				C763,128.1,764.8,129.7,767.7,131.2z"/>
		</g>
	</g>
	<g id="XMLID_632_">
		<path id="XMLID_648_" class="st0" d="M128.6,165.6h1.8v31l18.8-18.3h2.4l-13,12.5l13.7,15.8H150l-12.7-14.5l-7,6.7v7.9h-1.8V165.6
			z"/>
		<path id="XMLID_645_" class="st0" d="M173.4,207.3c-1.3,0-2.7-0.2-4-0.5c-1.3-0.4-2.4-0.9-3.5-1.6c-1-0.7-1.8-1.6-2.4-2.7
			c-0.6-1.1-0.9-2.3-0.9-3.8v-0.1c0-1.5,0.3-2.8,1-3.9c0.6-1.1,1.5-2.1,2.6-2.9c1.1-0.8,2.4-1.3,4-1.7c1.5-0.4,3.2-0.6,5-0.6
			c2,0,3.8,0.2,5.5,0.5c1.7,0.3,3.2,0.7,4.6,1.2v-1.9c0-3.2-0.9-5.6-2.7-7.1s-4.3-2.3-7.4-2.3c-1.8,0-3.4,0.2-4.9,0.6
			c-1.5,0.4-2.9,1-4.4,1.7l-0.7-1.6c1.6-0.8,3.2-1.4,4.7-1.8c1.6-0.5,3.3-0.7,5.2-0.7c3.9,0,6.9,1,9,3.1c0.9,0.9,1.6,2.1,2.1,3.4
			c0.5,1.3,0.7,2.9,0.7,4.6v17.6h-1.8v-5.9c-0.4,0.8-0.9,1.6-1.6,2.3c-0.7,0.8-1.5,1.5-2.5,2.1c-1,0.6-2.1,1.2-3.5,1.5
			C176.5,207.1,175,207.3,173.4,207.3z M173.6,205.5c1.7,0,3.3-0.3,4.7-0.8c1.4-0.5,2.7-1.2,3.7-2c1-0.9,1.9-1.9,2.5-3
			s0.9-2.3,0.9-3.6v-3.5c-1.4-0.4-2.9-0.8-4.5-1.1c-1.6-0.3-3.5-0.4-5.7-0.4c-1.6,0-3,0.2-4.3,0.5c-1.3,0.3-2.4,0.8-3.3,1.4
			c-0.9,0.6-1.6,1.4-2.2,2.3c-0.5,0.9-0.8,1.9-0.8,3.1v0.1c0,1.2,0.2,2.2,0.7,3c0.5,0.9,1.1,1.6,2,2.2c0.8,0.6,1.8,1,2.8,1.3
			C171.2,205.4,172.4,205.5,173.6,205.5z"/>
		<path id="XMLID_643_" class="st0" d="M211.5,207.1c-2,0-4.1-0.4-6.1-1.1c-2-0.7-3.8-1.8-5.4-3.1l1.1-1.4c1.6,1.2,3.3,2.2,5.1,2.9
			c1.8,0.7,3.6,1,5.5,1c1.1,0,2.2-0.1,3.2-0.4c1-0.3,1.8-0.7,2.6-1.2c0.7-0.5,1.3-1.1,1.7-1.9c0.4-0.7,0.6-1.5,0.6-2.4v-0.1
			c0-1-0.2-1.8-0.7-2.5c-0.5-0.7-1.1-1.2-1.9-1.7c-0.8-0.5-1.7-0.9-2.7-1.2c-1-0.3-2.1-0.7-3.2-1c-1.3-0.4-2.6-0.8-3.7-1.2
			c-1.2-0.4-2.2-0.9-3.1-1.5c-0.9-0.6-1.6-1.2-2.1-2s-0.8-1.8-0.8-3v-0.1c0-1,0.2-2,0.7-2.9c0.5-0.9,1.1-1.7,2-2.4
			c0.8-0.7,1.8-1.2,3-1.6c1.2-0.4,2.5-0.6,3.9-0.6c1.6,0,3.3,0.3,5.1,0.8c1.7,0.6,3.3,1.3,4.8,2.4l-1,1.5c-1.3-1-2.8-1.7-4.3-2.2
			c-1.6-0.5-3.1-0.8-4.6-0.8c-2.3,0-4.2,0.5-5.6,1.6c-1.4,1.1-2.1,2.4-2.1,3.9v0.1c0,0.9,0.2,1.7,0.7,2.3c0.5,0.6,1.1,1.2,1.9,1.6
			c0.8,0.5,1.7,0.9,2.7,1.2c1,0.3,2.1,0.7,3.3,1c1.3,0.3,2.5,0.7,3.7,1.1c1.2,0.4,2.2,0.9,3.1,1.5c0.9,0.6,1.6,1.3,2.2,2.2
			c0.5,0.9,0.8,1.9,0.8,3.1v0.1c0,1.2-0.3,2.2-0.8,3.2c-0.5,1-1.2,1.8-2.1,2.4c-0.9,0.7-2,1.2-3.2,1.6
			C214.2,206.9,212.9,207.1,211.5,207.1z"/>
		<path id="XMLID_641_" class="st0" d="M245,207.1c-2.3,0-4.1-0.6-5.5-1.9c-1.4-1.3-2-3.2-2-5.8v-19.4h-4.3v-1.6h4.3v-9.5h1.8v9.5
			h10.3v1.6h-10.3v19.2c0,2.1,0.5,3.6,1.5,4.7c1,1,2.5,1.5,4.3,1.5c1.4,0,2.8-0.3,4.3-1v1.7C248.1,206.8,246.6,207.1,245,207.1z"/>
		<path id="XMLID_638_" class="st0" d="M275.2,207.3c-1.9,0-3.7-0.3-5.4-1c-1.7-0.7-3.2-1.7-4.5-3c-1.3-1.3-2.3-2.9-3-4.7
			c-0.8-1.8-1.1-3.9-1.1-6.1v-0.1c0-2.1,0.3-4,1-5.8c0.7-1.8,1.6-3.4,2.8-4.7c1.2-1.3,2.6-2.4,4.3-3.1c1.6-0.7,3.4-1.1,5.4-1.1
			c2.1,0,4,0.4,5.6,1.3c1.6,0.8,3,2,4.1,3.3c1.1,1.4,1.9,3,2.5,4.7c0.5,1.8,0.8,3.6,0.8,5.5v0.6H263c0.1,1.9,0.5,3.6,1.2,5.2
			c0.7,1.5,1.6,2.9,2.7,3.9c1.1,1.1,2.4,1.9,3.8,2.5c1.4,0.6,3,0.9,4.5,0.9c2.2,0,4.2-0.5,5.9-1.5c1.7-1,3.2-2.2,4.3-3.7l1.3,1.1
			c-1.3,1.7-2.9,3.1-4.8,4.2S277.8,207.3,275.2,207.3z M285.7,191.5c-0.1-1.5-0.4-3-0.9-4.5s-1.2-2.7-2.1-3.9
			c-0.9-1.1-2.1-2-3.4-2.7c-1.4-0.7-2.9-1-4.7-1c-1.6,0-3.1,0.3-4.5,0.9c-1.4,0.6-2.6,1.5-3.6,2.5c-1,1.1-1.8,2.4-2.4,3.9
			c-0.6,1.5-0.9,3.1-1,4.8H285.7z"/>
		<path id="XMLID_635_" class="st0" d="M313.5,207.3c-1.9,0-3.7-0.3-5.4-1c-1.7-0.7-3.2-1.7-4.5-3c-1.3-1.3-2.3-2.9-3-4.7
			c-0.8-1.8-1.1-3.9-1.1-6.1v-0.1c0-2.1,0.3-4,1-5.8c0.7-1.8,1.6-3.4,2.8-4.7c1.2-1.3,2.6-2.4,4.3-3.1c1.6-0.7,3.4-1.1,5.4-1.1
			c2.1,0,4,0.4,5.6,1.3c1.6,0.8,3,2,4.1,3.3c1.1,1.4,1.9,3,2.5,4.7c0.5,1.8,0.8,3.6,0.8,5.5v0.6h-24.6c0.1,1.9,0.5,3.6,1.2,5.2
			c0.7,1.5,1.6,2.9,2.7,3.9s2.4,1.9,3.8,2.5c1.4,0.6,3,0.9,4.5,0.9c2.2,0,4.2-0.5,5.9-1.5c1.7-1,3.2-2.2,4.3-3.7l1.3,1.1
			c-1.3,1.7-2.9,3.1-4.8,4.2S316.1,207.3,313.5,207.3z M324,191.5c-0.1-1.5-0.4-3-0.9-4.5c-0.5-1.5-1.2-2.7-2.1-3.9
			c-0.9-1.1-2.1-2-3.4-2.7c-1.4-0.7-2.9-1-4.7-1c-1.6,0-3.1,0.3-4.5,0.9c-1.4,0.6-2.6,1.5-3.6,2.5c-1,1.1-1.8,2.4-2.4,3.9
			c-0.6,1.5-0.9,3.1-1,4.8H324z"/>
		<path id="XMLID_633_" class="st0" d="M340.1,165.6h1.9v41h-1.9V165.6z"/>
	</g>
	<line id="XMLID_631_" class="st1" x1="380.6" y1="205.5" x2="813.7" y2="205.5"/>
	<g id="XMLID_624_">
		<g id="XMLID_626_">
			<path id="XMLID_630_" class="st0" d="M45.8,6.6c0,0,9.2-1,22.2,4.7c13,5.7,24.1,1.4,24.1,1.4s-5,6.5-18.6,5.3
				c0,0,7.1,3.5,20.2,1.2c0,0-13,7.6-27.1,3.3C52.5,18.3,45.8,20,45.8,20V6.6z"/>
			<g id="XMLID_627_">
				<rect id="XMLID_629_" x="44.3" y="6.5" class="st2" width="1.5" height="21.3"/>
				<circle id="XMLID_628_" class="st3" cx="45.1" cy="4.4" r="1.4"/>
			</g>
		</g>
		<path id="XMLID_625_" class="st1" d="M16.3,66.7l27-38.3c1.1-1.3,3.2-1.3,4.3,0l26.7,38"/>
	</g>
	<g id="XMLID_621_">
		<g id="XMLID_622_">
			<polygon id="XMLID_623_" class="st1" points="85.7,206.2 5.1,206.2 5.1,114.4 30.5,105.7 60.3,105.7 85.7,114.4 			"/>
		</g>
	</g>
	<g id="XMLID_614_">
		<g id="XMLID_615_">
			<g id="XMLID_616_">
				<path id="XMLID_41_" class="st4" d="M61.8,107.6l22.6,7.5v89.7H61.8V107.6 M59.8,104.9v102h26.6v-93.1L59.8,104.9L59.8,104.9z"
					/>
			</g>
		</g>
	</g>
	<g id="XMLID_604_">
		<g id="XMLID_608_">
			<g id="XMLID_609_">
				<path id="XMLID_45_" class="st4" d="M29,107.6v97.2H6.4v-89.7L29,107.6 M31,104.9l-26.6,8.8v93.1H31V104.9L31,104.9z"/>
			</g>
		</g>
	</g>
	<polygon id="XMLID_600_" class="st5" points="63.2,96.2 27.7,96.2 30.5,105.7 60.3,105.7 	"/>
	<polygon id="XMLID_599_" class="st5" points="88.6,104.9 63.2,96.2 60.3,105.7 85.7,114.4 	"/>
	<polygon id="XMLID_415_" class="st5" points="2.2,104.9 27.6,96.2 30.5,105.7 5.1,114.4 	"/>
	<path id="XMLID_414_" class="st6" d="M137.9,87.5"/>
	<g id="XMLID_409_">
		<path id="XMLID_410_" class="st1" d="M53.6,131.1c-0.5-10.4-3.9-16.5-8-16.5s-7.6,6.1-8,16.5h-0.1v15.1h16.2L53.6,131.1
			L53.6,131.1z"/>
	</g>
	<path id="XMLID_408_" class="st5" d="M28.6,62.3H34c0.5,0,0.9,0.6,0.9,1.5v7.5c0,0.8,0.4,1.5,0.9,1.5H41c0.5,0,0.9-0.6,0.9-1.5
		v-7.5c0-0.8,0.4-1.5,0.9-1.5h5c0.5,0,0.9,0.6,0.9,1.5v7.5c0,0.8,0.4,1.5,0.9,1.5H55c0.5,0,0.9-0.6,0.9-1.5v-7.5
		c0-0.8,0.4-1.5,0.9-1.5h5.4c0.5,0,0.9,0.6,0.9,1.5v8.9v0.2v23.3c-0.9,0-0.4,0-0.9,0H28.6c-0.5,0-0.4,0-0.9,0l0-32.4
		C27.6,63,28,62.3,28.6,62.3z"/>
	<path id="XMLID_407_" class="st5" d="M63.9,62.5l4.7,1.6c0.5,0.2,0.6,0.6,0.6,1.4l0,8.6c0,1,0.1,1.7,1,1.9l2.7,0.7
		c0.6,0.1,1-0.2,1-1l0-8c0-0.8,0.2-1.3,0.7-1.3l3.8,1c0.5,0.2,0.9,0.6,0.9,1.4l0,8.8c0,0.8,0.4,1.3,0.9,1.5l2,0.6
		c0.6,0.1,0.9-0.6,0.9-1.4l0-8c0-0.8,0.4-1,0.8-0.9l3.7,1.2c0.6,0.2,0.9,0.6,0.9,1.5v0.8v0.2l-0.1,32c-0.9-0.3-0.6-0.2-1.1-0.4
		L64,96.4c-0.5-0.2-0.3-0.1-0.8-0.3V63.8C63.2,63,63.4,62.4,63.9,62.5z"/>
	<path id="XMLID_44_" class="st5" d="M26.9,62.5l-4.7,1.6c-0.5,0.2-0.6,0.6-0.6,1.4l0,8.6c0,1-0.1,1.7-1,1.9l-2.7,0.7
		c-0.6,0.1-1-0.2-1-1l0-8c0-0.8-0.2-1.3-0.7-1.3l-3.8,1c-0.5,0.2-0.9,0.6-0.9,1.4l0,8.8c0,0.8-0.4,1.3-0.9,1.5l-2,0.6
		c-0.6,0.1-0.9-0.6-0.9-1.4l0-8c0-0.8-0.4-1-0.8-0.9l-3.7,1.2c-0.6,0.2-0.9,0.6-0.9,1.5v0.8v0.2l0.1,32c0.9-0.3,0.6-0.2,1.1-0.4
		l23.5-8.1c0.5-0.2,0.3-0.1,0.8-0.3V63.8C27.6,63,27.4,62.4,26.9,62.5z"/>
</g>
</svg>
