<?xml version="1.0" encoding="utf-8"?>
<!-- Generator: Adobe Illustrator 19.0.0, SVG Export Plug-In . SVG Version: 6.00 Build 0)  -->
<svg version="1.1" id="Layer_1" xmlns="http://www.w3.org/2000/svg" xmlns:xlink="http://www.w3.org/1999/xlink" x="0px" y="0px"
	 viewBox="0 0 742 282" style="enable-background:new 0 0 742 282;" xml:space="preserve">
<style type="text/css">
	.st0{fill:none;stroke:#FFFFFF;stroke-width:2;stroke-miterlimit:10;}
	.st1{fill:none;stroke:#FFFFFF;stroke-width:2;stroke-linejoin:round;stroke-miterlimit:10;}
	.st2{fill:#FFFFFF;stroke:#FFFFFF;stroke-miterlimit:10;}
	.st3{fill:none;stroke:#FFFFFF;stroke-width:0.9585;stroke-miterlimit:10;}
	.st4{fill:#FFFFFF;}
	.st5{fill:none;stroke:#FFFFFF;stroke-width:0.3628;stroke-miterlimit:10;}
	.st6{fill:none;stroke:#FFFFFF;stroke-width:1.278;stroke-miterlimit:10;}
	.st7{fill:#FFFFFF;stroke:#FFFFFF;stroke-width:0.75;stroke-miterlimit:10;}
</style>
<g id="XMLID_6_">
	<g id="XMLID_561_">
		<g id="XMLID_596_">
			<g id="XMLID_597_">
				<polygon id="XMLID_598_" class="st0" points="150.7,259 92.7,259 92.7,192.8 111,186.5 132.4,186.5 150.7,192.8 				"/>
			</g>
		</g>
		<g id="XMLID_593_">
			<g id="XMLID_594_">
				<polygon id="XMLID_595_" class="st1" points="150.7,259 132.4,259 132.4,186.5 150.7,192.8 				"/>
			</g>
		</g>
		<g id="XMLID_569_">
			<g id="XMLID_591_">
				<polygon id="XMLID_592_" class="st1" points="111,259 92.7,259 92.7,192.8 111,186.5 				"/>
			</g>
		</g>
		<path id="XMLID_568_" class="st1" d="M109.6,155.3h3.6c0.4,0,0.7,0.5,0.7,1v5.4c0,0.6,0.3,1,0.7,1h4c0.4,0,0.7-0.5,0.7-1v-5.4
			c0-0.6,0.3-1,0.7-1h3.6c0.4,0,0.7,0.5,0.7,1v5.4c0,0.6,0.3,1,0.7,1h4c0.4,0,0.7-0.5,0.7-1v-5.4c0-0.6,0.3-1,0.7-1h3.6
			c0.4,0,0.7,0.5,0.7,1v6.4v0.2l0,16.8c-0.7,0-0.3,0-0.7,0h-24.2c-0.4,0-0.3,0-0.7,0l0-23.3C108.9,155.8,109.2,155.3,109.6,155.3z"
			/>
		<path id="XMLID_567_" class="st1" d="M135,155.5l3.4,1.1c0.4,0.1,0.5,0.4,0.5,1l0,6.2c0,0.8,0.1,1.2,0.7,1.4l1.9,0.5
			c0.5,0.1,0.7-0.1,0.7-0.7l0-5.8c0-0.6,0.2-1,0.5-1l2.8,0.7c0.4,0.1,0.7,0.4,0.7,1l0,6.3c0,0.6,0.3,0.9,0.7,1.1l1.4,0.4
			c0.5,0.1,0.7-0.4,0.7-1l0-5.8c0-0.6,0.3-0.7,0.6-0.6l2.7,0.9c0.4,0.1,0.7,0.5,0.7,1v0.6v0.2l-0.1,23c-0.7-0.2-0.4-0.1-0.8-0.3
			l-16.9-5.8c-0.4-0.1-0.2-0.1-0.6-0.2v-23.3C134.5,155.8,134.7,155.4,135,155.5z"/>
		<path id="XMLID_566_" class="st1" d="M108.4,155.5l-3.4,1.1c-0.4,0.1-0.5,0.4-0.5,1l0,6.2c0,0.8-0.1,1.2-0.7,1.4l-1.9,0.5
			c-0.5,0.1-0.7-0.1-0.7-0.7l0-5.8c0-0.6-0.2-1-0.5-1l-2.8,0.7c-0.4,0.1-0.7,0.4-0.7,1l0,6.3c0,0.6-0.3,0.9-0.7,1.1l-1.4,0.4
			c-0.5,0.1-0.7-0.4-0.7-1l0-5.8c0-0.6-0.3-0.7-0.6-0.6l-2.7,0.9c-0.4,0.1-0.7,0.5-0.7,1v0.6v0.2l0.1,23c0.7-0.2,0.4-0.1,0.8-0.3
			l16.9-5.8c0.4-0.1,0.2-0.1,0.6-0.2v-23.3C108.9,155.8,108.8,155.4,108.4,155.5z"/>
		<polygon id="XMLID_565_" class="st1" points="134.5,179.7 108.9,179.7 111,186.6 132.4,186.6 		"/>
		<polygon id="XMLID_564_" class="st1" points="152.8,186 134.5,179.7 132.4,186.6 150.7,192.9 		"/>
		<polygon id="XMLID_563_" class="st1" points="90.6,186 108.9,179.7 111,186.6 92.7,192.9 		"/>
		<path id="XMLID_562_" class="st0" d="M125.8,203.3c-0.2-5.3-2-8.4-4.1-8.4s-3.8,3.1-4.1,8.4h0v7.7h8.2L125.8,203.3L125.8,203.3z"
			/>
	</g>
	<g id="XMLID_538_">
		<g id="XMLID_549_">
			<g id="XMLID_556_">
				<g id="XMLID_559_">
					<polygon id="XMLID_560_" class="st0" points="349.5,259 291.4,259 291.4,192.8 309.7,186.5 331.2,186.5 349.5,192.8 					"/>
				</g>
			</g>
			<g id="XMLID_553_">
				<g id="XMLID_554_">
					<polygon id="XMLID_555_" class="st1" points="349.5,259 331.2,259 331.2,186.5 349.5,192.8 					"/>
				</g>
			</g>
			<g id="XMLID_550_">
				<g id="XMLID_551_">
					<polygon id="XMLID_552_" class="st1" points="309.7,259 291.4,259 291.4,192.8 309.7,186.5 					"/>
				</g>
			</g>
		</g>
		<g id="XMLID_541_">
			<path id="XMLID_548_" class="st1" d="M308.3,155.3h3.6c0.4,0,0.7,0.5,0.7,1v5.4c0,0.6,0.3,1,0.7,1h4c0.4,0,0.7-0.5,0.7-1v-5.4
				c0-0.6,0.3-1,0.7-1h3.6c0.4,0,0.7,0.5,0.7,1v5.4c0,0.6,0.3,1,0.7,1h4c0.4,0,0.7-0.5,0.7-1v-5.4c0-0.6,0.3-1,0.7-1h3.6
				c0.4,0,0.7,0.5,0.7,1v6.4v0.2v16.8c-0.7,0-0.3,0-0.7,0h-24.3c-0.4,0-0.3,0-0.7,0v-23.3C307.6,155.8,307.9,155.3,308.3,155.3z"/>
			<path id="XMLID_547_" class="st1" d="M333.7,155.5l3.4,1.1c0.4,0.1,0.5,0.4,0.5,1l0,6.2c0,0.8,0.1,1.2,0.7,1.4l1.9,0.5
				c0.5,0.1,0.7-0.1,0.7-0.7l0-5.8c0-0.6,0.2-1,0.5-1l2.8,0.7c0.4,0.1,0.7,0.4,0.7,1l0,6.3c0,0.6,0.3,0.9,0.7,1.1l1.4,0.4
				c0.5,0.1,0.7-0.4,0.7-1l0-5.8c0-0.6,0.3-0.7,0.6-0.6l2.7,0.9c0.4,0.1,0.7,0.5,0.7,1v0.6v0.2l-0.1,23c-0.7-0.2-0.4-0.1-0.8-0.3
				l-16.9-5.8c-0.4-0.1-0.2-0.1-0.6-0.2v-23.3C333.3,155.8,333.4,155.4,333.7,155.5z"/>
			<path id="XMLID_545_" class="st1" d="M307.1,155.5l-3.4,1.1c-0.4,0.1-0.5,0.4-0.5,1l0,6.2c0,0.8-0.1,1.2-0.7,1.4l-1.9,0.5
				c-0.5,0.1-0.7-0.1-0.7-0.7l0-5.8c0-0.6-0.2-1-0.5-1l-2.8,0.7c-0.4,0.1-0.7,0.4-0.7,1l0,6.3c0,0.6-0.3,0.9-0.7,1.1l-1.4,0.4
				c-0.5,0.1-0.7-0.4-0.7-1l0-5.8c0-0.6-0.3-0.7-0.6-0.6l-2.7,0.9c-0.4,0.1-0.7,0.5-0.7,1v0.6v0.2l0.1,23c0.7-0.2,0.4-0.1,0.8-0.3
				l16.9-5.8c0.4-0.1,0.2-0.1,0.6-0.2v-23.3C307.6,155.8,307.5,155.4,307.1,155.5z"/>
			<polygon id="XMLID_544_" class="st1" points="333.3,179.7 307.6,179.7 309.7,186.6 331.2,186.6 			"/>
			<polygon id="XMLID_543_" class="st1" points="351.5,186 333.3,179.7 331.2,186.6 349.5,192.9 			"/>
			<polygon id="XMLID_542_" class="st1" points="289.3,186 307.6,179.7 309.7,186.6 291.4,192.9 			"/>
		</g>
		<g id="XMLID_539_">
			<path id="XMLID_540_" class="st0" d="M324.5,203.3c-0.2-5.3-2-8.4-4.1-8.4c-2.1,0-3.8,3.1-4.1,8.4h0v7.7h8.2L324.5,203.3
				L324.5,203.3z"/>
		</g>
	</g>
	<g id="XMLID_534_">
		<path id="XMLID_537_" class="st0" d="M669.9,266.6H74.7c-4.3,0-7.7-1.7-7.7-3.8l0,0c0-2.1,3.5-3.8,7.7-3.8h595.2
			c4.3,0,7.7,1.7,7.7,3.8l0,0C677.7,264.9,674.2,266.6,669.9,266.6z"/>
		<path id="XMLID_536_" class="st0" d="M702.4,274.2H42c-4.3,0-7.7-1.7-7.7-3.8l0,0c0-2.1,3.5-3.8,7.7-3.8h660.4
			c4.3,0,7.7,1.7,7.7,3.8l0,0C710.1,272.5,706.7,274.2,702.4,274.2z"/>
		<path id="XMLID_535_" class="st0" d="M734,281.8H8c-4.3,0-7.7-1.7-7.7-3.8l0,0c0-2.1,3.5-3.8,7.7-3.8h726c4.3,0,7.7,1.7,7.7,3.8
			l0,0C741.7,280,738.3,281.8,734,281.8z"/>
	</g>
	<g id="XMLID_491_">
		<g id="XMLID_217_">
			<path id="XMLID_236_" class="st2" d="M391.2,157.7c0.1,1.2,0.2,1.9,0.2,2.1l-0.1,2.4c0,1-0.1,1.7-0.1,2c-0.2,0.1-0.3,0.1-0.4,0.1
				l-0.2-0.1c-0.6-2.5-1.6-4.4-3-5.6c-1.4-1.2-3.1-1.7-5.1-1.7c-2.1,0-3.8,0.6-5.1,1.7c-1.3,1.2-2,2.5-2,4.1c0,1.2,0.5,2.3,1.4,3.2
				c0.9,1,3.3,2.5,7.1,4.4c2.9,1.5,5,2.7,6.3,3.7c1.3,1,2.2,2.1,2.8,3.3c0.6,1.3,1,2.7,1,4.2c0,1.9-0.5,3.8-1.5,5.5
				c-1,1.7-2.4,3-4.1,3.9c-1.7,0.9-4,1.3-6.8,1.3c-2.5,0-4.8-0.4-7.1-1.2c-1.3-0.5-2.1-0.9-2.4-1.1c-0.3-0.3-0.4-0.6-0.4-0.9
				c0-0.2,0-0.5,0.1-0.8c0.3-2.1,0.4-3.9,0.4-5.3c0-0.9,0.1-1.4,0.2-1.5c0.1-0.1,0.2-0.2,0.4-0.2c0.2,0,0.3,0.1,0.4,0.2
				c0.1,0.1,0.2,0.3,0.2,0.7c0.2,2.2,1.2,4.2,3.1,6c1.9,1.8,4,2.6,6.3,2.6c1.4,0,2.8-0.3,4-0.9c1.2-0.6,2.2-1.5,2.8-2.6
				c0.7-1.1,1-2.2,1-3.3c0-1.5-0.5-2.8-1.6-4c-1-1.2-3.1-2.6-6.3-4.3c-3.1-1.6-5.2-2.8-6.1-3.6c-1.5-1.2-2.7-2.5-3.4-3.9
				c-0.6-1.1-0.8-2.3-0.8-3.7c0-2.5,1-4.7,3-6.4c2-1.8,4.7-2.6,8.1-2.6c1.9,0,3.5,0.2,4.8,0.6C389.2,156.4,390.2,157,391.2,157.7z"
				/>
			<path id="XMLID_234_" class="st2" d="M403.1,156.6c0.3-0.1,0.5-0.1,0.6-0.1c0.6,0,1.6,0,3.1,0.1c0.7,0,1.3,0,1.5,0
				c0.4,0,1.2,0,2.5-0.1l4.6-0.3c1.2-0.1,2.6-0.2,4.3-0.2c2.9,0,5.1,0.4,6.8,1.2s3,2.1,3.9,3.8c0.9,1.7,1.4,3.4,1.4,5.2
				c0,2.9-1,5.3-3,7.4c-2,2.1-4.7,3.1-8.1,3.1c-0.9,0-1.7-0.1-2.4-0.3c-0.6-0.2-1.4-0.6-2.2-1.1c-0.3-0.2-0.6-0.5-0.6-0.7
				c0.1-0.1,0.2-0.2,0.3-0.3c0.3,0,0.5,0.1,0.8,0.2c0.6,0.2,1.4,0.3,2.3,0.3c1.4,0,2.8-0.4,4.1-1.1c1.3-0.7,2.3-1.7,2.9-3
				c0.7-1.3,1-2.7,1-4.1c0-1.4-0.3-2.8-1-4.1c-0.7-1.3-1.6-2.4-2.7-3.2c-0.6-0.5-1.6-0.8-2.9-1.1c-1.3-0.3-2.3-0.5-3.1-0.5
				c-2.3,0-3.6,0.2-4,0.5l0,0.4l0.1,3.1l0,0.5c0,0.5-0.1,1.2-0.1,2.3c0,3.7,0.1,6,0.2,6.9v1.5l0.4,12.5c0,0.2,0,0.5-0.1,1
				c0,0.5-0.1,0.9-0.1,1.3c0,0.9,0.1,1.5,0.2,2c0.4,0.1,1.7,0.4,3.8,0.9c1,0.2,1.5,0.4,1.6,0.4c0.1,0.1,0.3,0.2,0.4,0.4
				c-0.1,0.3-0.2,0.5-0.3,0.5c-0.1,0.1-0.4,0.1-0.7,0.1c-0.2,0-0.7,0-1.5-0.1c-1.6-0.2-2.8-0.2-3.7-0.2l-4.8,0.2l-2.9-0.1
				c-0.2,0-0.7,0-1.6,0.1l0-0.7l3.5-0.7c0.6-0.2,0.9-0.3,1.1-0.5c0.2-0.3,0.3-0.8,0.3-1.5c0-0.2,0-0.5,0-1.1c0-0.4,0-0.9,0-1.6
				c0-2.1-0.1-6.7-0.3-13.7c-0.1-3.3-0.1-6.6-0.1-10v-0.5c0-1.3-0.2-2.1-0.6-2.5c-0.7-0.6-2.4-1.1-5.1-1.5c-0.1-0.2-0.1-0.4-0.1-0.5
				C402.9,156.9,403,156.8,403.1,156.6z"/>
			<path id="XMLID_232_" class="st2" d="M440.3,191c0.2-0.2,0.3-0.3,0.5-0.3c0.3-0.1,0.8-0.2,1.6-0.2c1.8-0.1,2.9-0.3,3.3-0.5
				c0.3-0.4,0.4-0.9,0.4-1.5l0-1.9l0-6.9l-0.1-3.3l0-6.9l-0.1-7.8c0-1.9-0.1-2.9-0.4-3.1c-0.3-0.3-1.3-0.5-2.9-0.6
				c-0.7,0-1.3-0.1-1.8-0.2c-0.2-0.1-0.4-0.3-0.4-0.5c0-0.1,0-0.3,0.1-0.5c0.2-0.1,0.3-0.1,0.4-0.1c0.3,0,0.6,0,0.9,0
				c1.1,0.1,2.2,0.2,3.3,0.2l2-0.1l4.8,0.1c2.4,0,4.3,0,5.6-0.1c1.3-0.1,2.3-0.1,2.7-0.1c0.4,0,1.5,0,3.1,0.1l3.9,0l0.5,0.1l2.3-0.1
				l0.3,0.1c0.1,0.1,0.2,0.3,0.2,0.5c0,0.3,0,0.6-0.1,1.2c-0.1,0.5-0.1,0.9-0.1,1c0,1.9,0.1,3.5,0.2,4.8c0,0.1-0.1,0.2-0.2,0.2
				c-0.2,0-0.4,0-0.5-0.1c-0.2-0.3-0.5-1-0.8-1.8c-0.3-0.9-0.8-1.9-1.5-3c-0.5-0.8-0.8-1.2-1.1-1.4c-0.3-0.1-0.8-0.2-1.6-0.2
				c-0.2,0-1,0-2.5-0.1c-0.4,0-0.8,0-1.2,0l-7.8,0.2h-0.7c-1,0-1.6,0.1-1.8,0.4c-0.3,0.4-0.5,1.7-0.5,3.8c0,0.2,0,2.4,0.1,6.6v3.8
				c0.2,0.1,0.4,0.1,0.7,0.1h0.5c0.3,0,0.8,0,1.4,0c0.9,0,1.6,0.1,1.9,0.1c0.2,0,0.4,0,0.6,0c2-0.1,4.5-0.1,7.6-0.1
				c1-0.2,1.5-0.4,1.7-0.6c0.3-0.3,0.5-1.2,0.6-2.6c0.1-1.4,0.4-2.2,0.9-2.3c0.2,0,0.5,0,0.7,0.1c0,0.1,0.1,0.3,0.1,0.4
				c0,0.1,0,0.3-0.1,0.6c-0.1,0.7-0.1,2.8-0.1,6.3c0,0.9,0.1,2,0.2,3.2c0.1,1.2,0.2,1.8,0.2,1.9c0,0.2,0,0.4-0.1,0.7
				c-0.1,0.1-0.3,0.1-0.4,0.1h-0.2c-0.3-0.5-0.6-1.3-0.8-2.4c-0.5-1.8-1-3-1.5-3.5c-0.5-0.5-1.4-0.7-2.5-0.7c-0.3,0-0.7,0-1.4,0
				c-0.7,0-1.7,0-3,0h-1.8c-2.5,0-4.2,0.1-5,0.2l0,0.9l0,5l0,3.2l0,3.1c0,1.9,0.1,2.9,0.4,3.2c0.3,0.4,1,0.6,2,0.6l1.7,0
				c0.1,0,0.7,0,1.7,0c1,0,2.2,0,3.7,0c3.5,0,5.9-0.2,7-0.5c1.2-0.3,2.1-0.8,2.9-1.6c0.8-0.8,1.7-2.4,2.9-5c0.3-0.7,0.7-1.1,1-1.1
				c0.2,0,0.3,0.1,0.5,0.2c-0.5,1.8-0.8,3-0.9,3.5c-0.2,1.3-0.3,2.6-0.4,3.9c0,0.6-0.1,1.1-0.4,1.5H472l-7.7,0.1l-3.4,0l-8.2,0.1
				h-3.3c-0.4,0-0.8,0-1.2,0c-3.3,0.1-5.7,0.2-7.2,0.2c-0.3,0-0.5,0-0.6-0.1c-0.1-0.1-0.2-0.2-0.2-0.4L440.3,191z"/>
			<path id="XMLID_230_" class="st2" d="M482.6,191c0.2-0.2,0.3-0.3,0.5-0.3c0.3-0.1,0.8-0.2,1.6-0.2c1.8-0.1,2.9-0.3,3.3-0.5
				c0.3-0.4,0.4-0.9,0.4-1.5l0-1.9l0-6.9l-0.1-3.3l0-6.9l-0.1-7.8c0-1.9-0.1-2.9-0.4-3.1c-0.3-0.3-1.3-0.5-2.9-0.6
				c-0.7,0-1.3-0.1-1.8-0.2c-0.2-0.1-0.4-0.3-0.4-0.5c0-0.1,0-0.3,0.1-0.5c0.2-0.1,0.3-0.1,0.4-0.1c0.3,0,0.6,0,0.9,0
				c1.1,0.1,2.2,0.2,3.3,0.2l2-0.1l4.8,0.1c2.4,0,4.3,0,5.6-0.1c1.3-0.1,2.3-0.1,2.7-0.1c0.4,0,1.5,0,3.1,0.1l3.9,0l0.5,0.1l2.3-0.1
				l0.3,0.1c0.1,0.1,0.2,0.3,0.2,0.5c0,0.3,0,0.6-0.1,1.2c-0.1,0.5-0.1,0.9-0.1,1c0,1.9,0.1,3.5,0.2,4.8c0,0.1-0.1,0.2-0.2,0.2
				c-0.2,0-0.4,0-0.5-0.1c-0.2-0.3-0.5-1-0.8-1.8c-0.3-0.9-0.8-1.9-1.5-3c-0.5-0.8-0.8-1.2-1.1-1.4c-0.3-0.1-0.8-0.2-1.6-0.2
				c-0.2,0-1,0-2.5-0.1c-0.4,0-0.8,0-1.2,0l-7.8,0.2H495c-1,0-1.6,0.1-1.8,0.4c-0.3,0.4-0.5,1.7-0.5,3.8c0,0.2,0,2.4,0.1,6.6v3.8
				c0.2,0.1,0.4,0.1,0.7,0.1h0.5c0.3,0,0.8,0,1.4,0c0.9,0,1.6,0.1,1.9,0.1c0.2,0,0.4,0,0.6,0c2-0.1,4.5-0.1,7.6-0.1
				c1-0.2,1.5-0.4,1.7-0.6c0.3-0.3,0.5-1.2,0.6-2.6c0.1-1.4,0.4-2.2,0.9-2.3c0.2,0,0.5,0,0.7,0.1c0,0.1,0.1,0.3,0.1,0.4
				c0,0.1,0,0.3-0.1,0.6c-0.1,0.7-0.1,2.8-0.1,6.3c0,0.9,0.1,2,0.2,3.2c0.1,1.2,0.2,1.8,0.2,1.9c0,0.2,0,0.4-0.1,0.7
				c-0.1,0.1-0.3,0.1-0.4,0.1h-0.2c-0.3-0.5-0.6-1.3-0.8-2.4c-0.5-1.8-1-3-1.5-3.5c-0.5-0.5-1.4-0.7-2.5-0.7c-0.3,0-0.7,0-1.4,0
				c-0.7,0-1.7,0-3,0h-1.8c-2.5,0-4.2,0.1-5,0.2l0,0.9l0,5l0,3.2l0,3.1c0,1.9,0.1,2.9,0.4,3.2c0.3,0.4,1,0.6,2,0.6l1.7,0
				c0.1,0,0.7,0,1.7,0c1,0,2.2,0,3.7,0c3.5,0,5.9-0.2,7-0.5c1.2-0.3,2.1-0.8,2.9-1.6c0.8-0.8,1.7-2.4,2.9-5c0.3-0.7,0.7-1.1,1-1.1
				c0.2,0,0.3,0.1,0.5,0.2c-0.5,1.8-0.8,3-0.9,3.5c-0.2,1.3-0.3,2.6-0.4,3.9c0,0.6-0.1,1.1-0.4,1.5h-0.6l-7.7,0.1l-3.4,0l-8.2,0.1
				h-3.3c-0.4,0-0.8,0-1.2,0c-3.3,0.1-5.7,0.2-7.2,0.2c-0.3,0-0.5,0-0.6-0.1c-0.1-0.1-0.2-0.2-0.2-0.4L482.6,191z"/>
			<path id="XMLID_228_" class="st2" d="M523.8,191.6c0-0.3,0.1-0.5,0.2-0.7c1.4-0.4,2.8-0.6,4.1-0.8c0.9-0.1,1.5-0.3,1.7-0.6
				c0.2-0.2,0.3-1.1,0.3-2.6l0.2-7.2l0-4.9l0-6.4v-1.7c0-3.8,0-6.2-0.1-7.2c0-0.2-0.1-0.4-0.2-0.8c-0.5-0.2-0.9-0.4-1.2-0.4
				c-0.3-0.1-1.8-0.3-4.3-0.8c0-0.2,0-0.3,0-0.4c0-0.1,0-0.3,0-0.4c0.3,0,0.9,0,1.7,0.1l4.2,0.2l2.4,0.1l0.7,0c0.1,0,0.4,0,0.8,0.1
				c1.1,0,1.7,0,1.9,0l2.2-0.2c1.5,0,2.5,0,3.1,0.1c0,0.3-0.1,0.7-0.2,1.1c-0.2,0-1.1,0.1-2.8,0.2c-1.7,0.1-2.7,0.2-2.9,0.3
				c-0.4,0.2-0.6,1-0.6,2.2c0,0.3,0,0.9-0.1,1.8v1.6l0,5.1v1.7l0.1,9l-0.1,7.7l0,1.7c0,0.5,0.1,0.9,0.3,1c0.5,0,1.8,0,4,0.1h1.9
				l4.7-0.2c1.2,0,2.1-0.2,2.6-0.4c0.5-0.2,1.4-0.8,2.6-1.8c0.7-0.7,1.3-1.3,1.7-2c0.1-0.1,0.2-0.4,0.5-0.7c0.3-0.5,0.8-1.4,1.4-2.8
				h0.9c-0.1,0.7-0.2,1.3-0.4,1.9c-0.5,2.6-0.9,4.7-1.1,6.4c0,0.4-0.1,0.7-0.1,1l-10.2-0.3c-8.8,0-14,0.1-15.6,0.2
				c-0.5,0-1,0.1-1.6,0.1H523.8z"/>
			<path id="XMLID_226_" class="st2" d="M597.5,158.3l0.3,4.1c0.1,1.3,0.2,2.1,0.2,2.6l-0.8,0.1c-1.2-2.8-2.7-4.8-4.5-6.2
				c-1.8-1.4-4-2.1-6.6-2.1c-3.2,0-5.7,0.4-7.5,1.2c-2.6,1.1-4.8,3-6.6,5.8c-1.8,2.7-2.8,6.1-2.8,9.9c0,2.2,0.3,4.3,1,6
				c0.7,1.8,1.6,3.4,2.9,5c1.2,1.5,2.7,2.9,4.4,4c1.1,0.7,2.4,1.3,3.9,1.7c0.9,0.2,2.1,0.3,3.8,0.3c1.1,0,2.3-0.2,3.6-0.5
				c1.3-0.3,2.3-0.7,3-1.2c0.7-0.5,1.1-1.1,1.4-1.8s0.4-1.9,0.4-3.8c0-3.1-0.2-5-0.6-5.5c-0.4-0.5-1.7-0.9-4-1l-1.1-0.1l-0.7,0
				c-0.1,0-0.3,0-0.4-0.1l-0.4-0.7c0-0.1,0.1-0.2,0.2-0.4c0.9-0.1,3-0.2,6.2-0.2c0.7,0,1.9,0,3.5,0.1l2.8,0.1l2.5,0
				c0.5,0,1.1,0,1.8,0.1c0.1,0,0.2,0.1,0.2,0.1c0,0,0.1,0.1,0.1,0.2c0,0.2,0,0.5-0.1,0.8c-0.8,0.2-1.4,0.2-1.8,0.2l-1.8,0
				c-0.6,0-1.1,0.2-1.4,0.6c-0.2,0.2-0.3,0.9-0.3,2l0,3.6c0,2.5-0.1,4-0.3,4.7c-0.1,0.4-0.3,0.8-0.7,1.1c-0.3,0.3-1.1,0.7-2.2,1.1
				c-1.6,0.6-3,1.1-4.3,1.3c-2.4,0.4-4.7,0.6-7,0.6c-3.6,0-6.6-0.5-8.9-1.4c-2.3-0.9-4.3-2.2-6-3.8c-1.7-1.6-2.9-3.3-3.6-5
				c-1.1-2.5-1.6-5-1.6-7.5c0-3.2,0.8-6.3,2.5-9.4c1.7-3,4.4-5.5,8.1-7.4c2.6-1.3,6.2-2,10.8-2c3.1,0,5.7,0.3,7.7,0.8
				C594.8,156.9,596.4,157.6,597.5,158.3z"/>
			<path id="XMLID_223_" class="st2" d="M612.4,174c0-1.9,0.2-3.5,0.7-5c0.4-1.4,1.2-3,2.3-4.7c1.1-1.7,2.3-3.1,3.8-4.2
				c1.5-1.1,3.6-2.1,6.2-3c1.9-0.6,4.2-0.9,7-0.9c1.9,0,3.8,0.3,5.6,0.8c1.8,0.5,3.5,1.2,5,2.1c1.5,0.9,3,2.3,4.5,4.2
				c1,1.3,1.8,2.7,2.3,4.2c0.7,2,1,4,1,6.1c0,2.4-0.2,4.4-0.7,6c-0.5,1.6-1.2,3.1-2.3,4.7c-0.9,1.2-2.3,2.6-4.4,4.1
				c-1.4,1.1-3.1,1.9-5.2,2.6c-2.1,0.6-4.3,1-6.7,1c-2.4,0-4.6-0.3-6.5-0.8c-1.9-0.6-3.5-1.3-4.7-2.1c-1.3-0.8-2.6-2-3.9-3.6
				c-1.3-1.6-2.4-3.3-3-5.2S612.4,176.2,612.4,174z M631.3,190.9c1.5,0,3.1-0.2,4.8-0.6c1.6-0.4,3.1-1.1,4.4-2.1
				c1.3-1,2.3-2.1,3-3.4c0.7-1.3,1.3-2.9,1.7-4.9c0.4-2,0.7-4,0.7-6c0-2.5-0.4-4.9-1.1-7.3c-0.6-1.8-1.5-3.5-2.8-4.9
				c-1.3-1.4-2.8-2.6-4.6-3.4c-1.8-0.8-3.7-1.2-5.8-1.2c-1.7,0-3.3,0.3-4.9,0.8c-1.6,0.5-2.9,1.2-3.9,2.1c-1,0.8-2,2-2.8,3.6
				c-0.9,1.6-1.5,3.3-2,5.1c-0.5,1.9-0.7,3.5-0.7,5c0,1.5,0.2,3.2,0.7,5.1c0.5,1.9,1.1,3.6,1.9,5c0.8,1.4,1.8,2.6,2.9,3.7
				c1.2,1.1,2.5,1.9,3.9,2.5C628.1,190.7,629.7,190.9,631.3,190.9z"/>
			<path id="XMLID_221_" class="st2" d="M660.5,191c0.2-0.2,0.3-0.3,0.5-0.3c0.3-0.1,0.8-0.2,1.6-0.2c1.8-0.1,2.9-0.3,3.3-0.5
				c0.3-0.4,0.4-0.9,0.4-1.5l0-1.9l0-6.9l-0.1-3.3l0-6.9l-0.1-7.8c0-1.9-0.1-2.9-0.4-3.1c-0.3-0.3-1.3-0.5-2.9-0.6
				c-0.7,0-1.3-0.1-1.8-0.2c-0.2-0.1-0.4-0.3-0.4-0.5c0-0.1,0-0.3,0.1-0.5c0.2-0.1,0.3-0.1,0.4-0.1c0.3,0,0.6,0,0.9,0
				c1.1,0.1,2.2,0.2,3.3,0.2l2-0.1l4.8,0.1c2.4,0,4.3,0,5.6-0.1c1.3-0.1,2.3-0.1,2.7-0.1c0.4,0,1.5,0,3.1,0.1l3.9,0l0.5,0.1l2.3-0.1
				l0.3,0.1c0.1,0.1,0.2,0.3,0.2,0.5c0,0.3,0,0.6-0.1,1.2c-0.1,0.5-0.1,0.9-0.1,1c0,1.9,0.1,3.5,0.2,4.8c0,0.1-0.1,0.2-0.2,0.2
				c-0.2,0-0.4,0-0.5-0.1c-0.2-0.3-0.5-1-0.8-1.8c-0.3-0.9-0.8-1.9-1.5-3c-0.5-0.8-0.8-1.2-1.1-1.4c-0.3-0.1-0.8-0.2-1.6-0.2
				c-0.2,0-1,0-2.5-0.1c-0.4,0-0.8,0-1.2,0l-7.8,0.2h-0.7c-1,0-1.6,0.1-1.8,0.4c-0.3,0.4-0.5,1.7-0.5,3.8c0,0.2,0,2.4,0.1,6.6v3.8
				c0.2,0.1,0.4,0.1,0.7,0.1h0.5c0.3,0,0.8,0,1.4,0c0.9,0,1.6,0.1,1.9,0.1c0.2,0,0.4,0,0.6,0c2-0.1,4.5-0.1,7.6-0.1
				c1-0.2,1.5-0.4,1.7-0.6c0.3-0.3,0.5-1.2,0.6-2.6c0.1-1.4,0.4-2.2,0.9-2.3c0.2,0,0.5,0,0.7,0.1c0,0.1,0.1,0.3,0.1,0.4
				c0,0.1,0,0.3-0.1,0.6c-0.1,0.7-0.1,2.8-0.1,6.3c0,0.9,0.1,2,0.2,3.2c0.1,1.2,0.2,1.8,0.2,1.9c0,0.2,0,0.4-0.1,0.7
				c-0.1,0.1-0.3,0.1-0.4,0.1h-0.2c-0.3-0.5-0.6-1.3-0.8-2.4c-0.5-1.8-1-3-1.5-3.5c-0.5-0.5-1.4-0.7-2.5-0.7c-0.3,0-0.7,0-1.4,0
				c-0.7,0-1.7,0-3,0h-1.8c-2.5,0-4.2,0.1-5,0.2l0,0.9l0,5l0,3.2l0,3.1c0,1.9,0.1,2.9,0.4,3.2c0.3,0.4,1,0.6,2,0.6l1.7,0
				c0.1,0,0.7,0,1.7,0c1,0,2.2,0,3.7,0c3.5,0,5.9-0.2,7-0.5c1.2-0.3,2.1-0.8,2.9-1.6c0.8-0.8,1.7-2.4,2.9-5c0.3-0.7,0.7-1.1,1-1.1
				c0.2,0,0.3,0.1,0.5,0.2c-0.5,1.8-0.8,3-0.9,3.5c-0.2,1.3-0.3,2.6-0.4,3.9c0,0.6-0.1,1.1-0.4,1.5h-0.6l-7.7,0.1l-3.4,0l-8.2,0.1
				h-3.3c-0.4,0-0.8,0-1.2,0c-3.3,0.1-5.7,0.2-7.2,0.2c-0.3,0-0.5,0-0.6-0.1c-0.1-0.1-0.2-0.2-0.2-0.4L660.5,191z"/>
			<path id="XMLID_218_" class="st2" d="M702,190.9c0.7-0.3,1.5-0.5,2.3-0.6c1.3-0.1,2.3-0.5,2.9-0.9c0.5-1,0.7-3.6,0.7-7.7v-4.3
				l0.1-2.6l-0.1-1.9l0.1-3.5l-0.1-8.9c0-1-0.1-1.7-0.4-2c-0.4-0.5-1.5-0.9-3.3-1.3c-0.7-0.2-1.2-0.3-1.4-0.5
				c-0.2-0.1-0.3-0.4-0.3-0.8c0.4-0.1,0.7-0.1,0.9-0.1h1.9l1,0c0.7,0,1.4,0.1,2.2,0.2c1.7,0.1,3.4,0.2,5.2,0.2c0.5,0,1.2,0,2.2-0.1
				c2.5-0.1,4.3-0.2,5.4-0.2c2.2,0,4.3,0.2,6.2,0.7c2,0.4,4,1.2,6,2.4c1.3,0.7,2.6,1.9,4,3.5c1.4,1.6,2.4,3.4,3.1,5.3
				c0.7,1.9,1.1,4,1.1,6.4c0,2.1-0.4,4.2-1.2,6.3c-0.8,2.1-1.9,3.9-3.2,5.4c-1.4,1.5-2.8,2.7-4.2,3.5c-1.4,0.8-3.6,1.4-6.5,2
				c-1.2,0.2-3.4,0.3-6.5,0.3c-2.1,0-3.7-0.1-5-0.2c-0.5-0.1-1.1-0.1-1.6-0.1c-0.1,0-0.2,0-0.3,0l-11.1,0.2l-0.1-0.2
				c0-0.1-0.1-0.2-0.1-0.3L702,190.9z M715.9,189.8c1.4,0.5,2.8,0.7,4.2,0.7c1.8,0,3.6-0.3,5.4-0.9c1.8-0.6,3.3-1.4,4.7-2.4
				s2.5-2.2,3.3-3.5c0.9-1.3,1.5-2.5,1.9-3.6c0.5-1.5,0.8-3.6,0.8-6c0-2.4-0.5-4.8-1.5-7.2c-0.7-1.7-1.9-3.3-3.6-4.9
				c-1.7-1.5-3.8-2.7-6.2-3.4c-2.4-0.7-4.9-1.1-7.7-1.1c-1.9,0-3.3,0.2-4.2,0.6c-0.1,0.1-0.2,0.2-0.3,0.4c-0.1,0.5-0.2,0.9-0.2,1.3
				c0,0.2,0,0.5,0,0.8c0.1,2.1,0.1,3.8,0.1,5.1l0,6.2c0,9.1,0.2,14.2,0.5,15.2C713.4,188.1,714.4,189,715.9,189.8z"/>
		</g>
	</g>
	<g id="XMLID_469_">
		<path id="XMLID_489_" class="st2" d="M372.7,208.3h1v16.6l10.1-9.8h1.3l-7,6.7l7.4,8.5h-1.2l-6.8-7.8l-3.7,3.6v4.2h-1V208.3z"/>
		<path id="XMLID_486_" class="st2" d="M396.8,230.7c-0.7,0-1.4-0.1-2.1-0.3s-1.3-0.5-1.9-0.9c-0.5-0.4-1-0.9-1.3-1.5
			c-0.3-0.6-0.5-1.3-0.5-2V226c0-0.8,0.2-1.5,0.5-2.1c0.3-0.6,0.8-1.1,1.4-1.5c0.6-0.4,1.3-0.7,2.1-0.9c0.8-0.2,1.7-0.3,2.7-0.3
			c1.1,0,2,0.1,3,0.2c0.9,0.2,1.7,0.4,2.5,0.6v-1c0-1.7-0.5-3-1.4-3.8c-1-0.8-2.3-1.3-4-1.3c-0.9,0-1.8,0.1-2.6,0.3
			c-0.8,0.2-1.6,0.5-2.3,0.9l-0.4-0.8c0.8-0.4,1.7-0.7,2.5-1c0.9-0.2,1.8-0.4,2.8-0.4c2.1,0,3.7,0.6,4.8,1.7
			c0.5,0.5,0.9,1.1,1.1,1.8c0.3,0.7,0.4,1.5,0.4,2.5v9.5h-1v-3.2c-0.2,0.4-0.5,0.8-0.8,1.3c-0.4,0.4-0.8,0.8-1.3,1.1
			c-0.5,0.3-1.2,0.6-1.9,0.8C398.4,230.6,397.6,230.7,396.8,230.7z M396.8,229.7c0.9,0,1.8-0.1,2.5-0.4c0.8-0.3,1.4-0.6,2-1.1
			c0.6-0.5,1-1,1.3-1.6c0.3-0.6,0.5-1.3,0.5-1.9v-1.9c-0.7-0.2-1.6-0.4-2.4-0.6c-0.9-0.2-1.9-0.2-3-0.2c-0.8,0-1.6,0.1-2.3,0.3
			c-0.7,0.2-1.3,0.4-1.8,0.8c-0.5,0.3-0.9,0.7-1.2,1.2c-0.3,0.5-0.4,1-0.4,1.7v0.1c0,0.6,0.1,1.2,0.4,1.6c0.3,0.5,0.6,0.9,1.1,1.2
			c0.4,0.3,1,0.6,1.5,0.7C395.6,229.7,396.2,229.7,396.8,229.7z"/>
		<path id="XMLID_484_" class="st2" d="M417.2,230.6c-1.1,0-2.2-0.2-3.3-0.6c-1.1-0.4-2.1-1-2.9-1.7l0.6-0.8
			c0.8,0.7,1.7,1.2,2.7,1.5c1,0.4,1.9,0.5,2.9,0.5c0.6,0,1.2-0.1,1.7-0.2c0.5-0.2,1-0.4,1.4-0.6c0.4-0.3,0.7-0.6,0.9-1
			c0.2-0.4,0.3-0.8,0.3-1.3v-0.1c0-0.5-0.1-1-0.4-1.4c-0.3-0.4-0.6-0.7-1-0.9c-0.4-0.3-0.9-0.5-1.5-0.6c-0.6-0.2-1.1-0.4-1.7-0.5
			c-0.7-0.2-1.4-0.4-2-0.6c-0.6-0.2-1.2-0.5-1.7-0.8c-0.5-0.3-0.9-0.7-1.1-1.1c-0.3-0.4-0.4-1-0.4-1.6v-0.1c0-0.6,0.1-1.1,0.4-1.6
			c0.3-0.5,0.6-0.9,1.1-1.3c0.5-0.4,1-0.6,1.6-0.8c0.6-0.2,1.3-0.3,2.1-0.3c0.9,0,1.8,0.2,2.7,0.5c0.9,0.3,1.8,0.7,2.6,1.3l-0.5,0.8
			c-0.7-0.5-1.5-0.9-2.3-1.2c-0.8-0.3-1.7-0.4-2.5-0.4c-1.3,0-2.3,0.3-3,0.9c-0.7,0.6-1.1,1.3-1.1,2.1v0.1c0,0.5,0.1,0.9,0.4,1.2
			c0.3,0.3,0.6,0.6,1,0.9c0.4,0.3,0.9,0.5,1.5,0.6c0.6,0.2,1.1,0.4,1.8,0.5c0.7,0.2,1.3,0.4,2,0.6c0.6,0.2,1.2,0.5,1.7,0.8
			c0.5,0.3,0.9,0.7,1.2,1.2c0.3,0.5,0.4,1,0.4,1.7v0.1c0,0.6-0.1,1.2-0.4,1.7c-0.3,0.5-0.7,0.9-1.1,1.3c-0.5,0.4-1.1,0.6-1.7,0.8
			C418.7,230.5,418,230.6,417.2,230.6z"/>
		<path id="XMLID_480_" class="st2" d="M435.2,230.6c-1.2,0-2.2-0.3-2.9-1c-0.7-0.7-1.1-1.7-1.1-3.1V216h-2.3v-0.9h2.3V210h1v5.1
			h5.5v0.9h-5.5v10.3c0,1.1,0.3,2,0.8,2.5c0.6,0.6,1.3,0.8,2.3,0.8c0.7,0,1.5-0.2,2.3-0.5v0.9C436.9,230.4,436.1,230.6,435.2,230.6z
			"/>
		<path id="XMLID_475_" class="st2" d="M451.4,230.7c-1,0-2-0.2-2.9-0.6c-0.9-0.4-1.7-0.9-2.4-1.6c-0.7-0.7-1.2-1.5-1.6-2.5
			c-0.4-1-0.6-2.1-0.6-3.3v-0.1c0-1.1,0.2-2.1,0.5-3.1c0.4-1,0.9-1.8,1.5-2.5c0.7-0.7,1.4-1.3,2.3-1.7c0.9-0.4,1.8-0.6,2.9-0.6
			c1.1,0,2.2,0.2,3,0.7c0.9,0.5,1.6,1.1,2.2,1.8c0.6,0.7,1,1.6,1.3,2.5c0.3,1,0.4,1.9,0.4,3v0.3h-13.2c0,1,0.2,1.9,0.6,2.8
			c0.4,0.8,0.9,1.5,1.4,2.1c0.6,0.6,1.3,1,2,1.3c0.8,0.3,1.6,0.5,2.4,0.5c1.2,0,2.3-0.3,3.2-0.8c0.9-0.5,1.7-1.2,2.3-2l0.7,0.6
			c-0.7,0.9-1.6,1.7-2.6,2.3C454,230.4,452.8,230.7,451.4,230.7z M457.1,222.2c0-0.8-0.2-1.6-0.5-2.4s-0.7-1.5-1.2-2.1
			c-0.5-0.6-1.1-1.1-1.8-1.5c-0.7-0.4-1.6-0.6-2.5-0.6c-0.9,0-1.7,0.2-2.4,0.5c-0.7,0.3-1.4,0.8-1.9,1.4c-0.5,0.6-1,1.3-1.3,2.1
			c-0.3,0.8-0.5,1.7-0.5,2.6H457.1z"/>
		<path id="XMLID_472_" class="st2" d="M472,230.7c-1,0-2-0.2-2.9-0.6c-0.9-0.4-1.7-0.9-2.4-1.6c-0.7-0.7-1.2-1.5-1.6-2.5
			c-0.4-1-0.6-2.1-0.6-3.3v-0.1c0-1.1,0.2-2.1,0.5-3.1c0.4-1,0.9-1.8,1.5-2.5c0.7-0.7,1.4-1.3,2.3-1.7c0.9-0.4,1.8-0.6,2.9-0.6
			c1.1,0,2.2,0.2,3,0.7c0.9,0.5,1.6,1.1,2.2,1.8c0.6,0.7,1,1.6,1.3,2.5c0.3,1,0.4,1.9,0.4,3v0.3h-13.2c0,1,0.2,1.9,0.6,2.8
			c0.4,0.8,0.9,1.5,1.4,2.1s1.3,1,2,1.3c0.8,0.3,1.6,0.5,2.4,0.5c1.2,0,2.3-0.3,3.2-0.8c0.9-0.5,1.7-1.2,2.3-2l0.7,0.6
			c-0.7,0.9-1.6,1.7-2.6,2.3S473.4,230.7,472,230.7z M477.7,222.2c0-0.8-0.2-1.6-0.5-2.4c-0.3-0.8-0.7-1.5-1.2-2.1
			c-0.5-0.6-1.1-1.1-1.8-1.5c-0.7-0.4-1.6-0.6-2.5-0.6c-0.9,0-1.7,0.2-2.4,0.5c-0.7,0.3-1.4,0.8-1.9,1.4c-0.5,0.6-1,1.3-1.3,2.1
			c-0.3,0.8-0.5,1.7-0.5,2.6H477.7z"/>
		<path id="XMLID_470_" class="st2" d="M486.3,208.3h1v22h-1V208.3z"/>
	</g>
	<line id="XMLID_468_" class="st0" x1="508" y1="221.3" x2="740.6" y2="221.3"/>
	<g id="XMLID_421_">
		<g id="XMLID_423_">
			<path id="XMLID_427_" class="st0" d="M221.4,2.8c0,0,6.7-0.7,16.3,3.4c9.6,4.2,17.6,1,17.6,1s-3.6,4.7-13.6,3.9
				c0,0,5.2,2.5,14.8,0.9c0,0-9.5,5.6-19.9,2.4c-10.3-3.1-15.2-1.9-15.2-1.9V2.8z"/>
			<g id="XMLID_424_">
				<rect id="XMLID_426_" x="220.3" y="2.8" class="st2" width="1.1" height="29.6"/>
				<circle id="XMLID_425_" class="st3" cx="220.8" cy="1.3" r="1"/>
			</g>
		</g>
		<path id="XMLID_422_" class="st0" d="M200.8,45.9l18.8-27.1c0.8-1,2.3-1,3.1,0l19,27.2"/>
	</g>
	<g id="XMLID_418_">
		<g id="XMLID_419_">
			<polygon id="XMLID_420_" class="st0" points="261.3,258.8 180.8,258.8 180.8,167.1 206.2,158.4 235.9,158.4 261.3,167.1 			"/>
		</g>
	</g>
	<g id="XMLID_411_">
		<g id="XMLID_412_">
			<g id="XMLID_413_">
				<path id="XMLID_30_" class="st4" d="M237.5,160.3l22.6,7.5v89.7h-22.6V160.3 M235.5,157.5v102H262v-93.1L235.5,157.5
					L235.5,157.5z"/>
			</g>
		</g>
	</g>
	<g id="XMLID_404_">
		<g id="XMLID_405_">
			<g id="XMLID_406_">
				<path id="XMLID_28_" class="st4" d="M204.6,160.3v97.2h-22.6v-89.7L204.6,160.3 M206.6,157.5l-26.6,8.8v93.1h26.6V157.5
					L206.6,157.5z"/>
			</g>
		</g>
	</g>
	<polygon id="XMLID_403_" class="st1" points="238.8,148.8 203.4,148.8 206.2,158.4 235.9,158.4 	"/>
	<polygon id="XMLID_298_" class="st1" points="264.2,157.5 238.8,148.8 235.9,158.4 261.3,167.1 	"/>
	<polygon id="XMLID_297_" class="st1" points="177.9,157.5 203.3,148.8 206.2,158.4 180.8,167.1 	"/>
	<path id="XMLID_296_" class="st3" d="M238.3,115"/>
	<path id="XMLID_295_" class="st5" d="M268.7,140.1"/>
	<path id="XMLID_294_" class="st3" d="M237.4,125.6"/>
	<g id="XMLID_292_">
		<path id="XMLID_293_" class="st0" d="M229.3,183.7c-0.5-10.4-3.9-16.5-8-16.5s-7.6,6.1-8,16.5h-0.1v15.1h16.2L229.3,183.7
			L229.3,183.7z"/>
	</g>
	<path id="XMLID_291_" class="st1" d="M204.2,115h5.4c0.5,0,0.9,0.6,0.9,1.5v7.5c0,0.8,0.4,1.5,0.9,1.5h5.1c0.5,0,0.9-0.6,0.9-1.5
		v-7.5c0-0.8,0.4-1.5,0.9-1.5h5c0.5,0,0.9,0.6,0.9,1.5v7.5c0,0.8,0.4,1.5,0.9,1.5h5.2c0.5,0,0.9-0.6,0.9-1.5v-7.5
		c0-0.8,0.4-1.5,0.9-1.5h5.4c0.5,0,0.9,0.6,0.9,1.5v8.9v0.2v23.3c-0.9,0-0.4,0-0.9,0h-33.7c-0.5,0-0.4,0-0.9,0l0-32.4
		C203.3,115.6,203.7,115,204.2,115z"/>
	<path id="XMLID_290_" class="st1" d="M239.5,115.2l4.7,1.6c0.5,0.2,0.6,0.6,0.6,1.4l0,8.6c0,1,0.1,1.7,1,1.9l2.7,0.7
		c0.6,0.1,1-0.2,1-1l0-8c0-0.8,0.2-1.3,0.7-1.3l3.8,1c0.5,0.2,0.9,0.6,0.9,1.4l0,8.8c0,0.8,0.4,1.3,0.9,1.5l2,0.6
		c0.6,0.1,0.9-0.6,0.9-1.4l0-8c0-0.8,0.4-1,0.8-0.9l3.7,1.2c0.6,0.2,0.9,0.6,0.9,1.5v0.8v0.2l-0.1,32c-0.9-0.3-0.6-0.2-1.1-0.4
		l-23.5-8.1c-0.5-0.2-0.3-0.1-0.8-0.3v-32.4C238.8,115.6,239,115.1,239.5,115.2z"/>
	<path id="XMLID_289_" class="st1" d="M202.6,115.2l-4.7,1.6c-0.5,0.2-0.6,0.6-0.6,1.4l0,8.6c0,1-0.1,1.7-1,1.9l-2.7,0.7
		c-0.6,0.1-1-0.2-1-1l0-8c0-0.8-0.2-1.3-0.7-1.3l-3.8,1c-0.5,0.2-0.9,0.6-0.9,1.4l0,8.8c0,0.8-0.4,1.3-0.9,1.5l-2,0.6
		c-0.6,0.1-0.9-0.6-0.9-1.4l0-8c0-0.8-0.4-1-0.8-0.9l-3.7,1.2c-0.6,0.2-0.9,0.6-0.9,1.5v0.8v0.2l0.1,32c0.9-0.3,0.6-0.2,1.1-0.4
		l23.5-8.1c0.5-0.2,0.3-0.1,0.8-0.3v-32.4C203.3,115.6,203.1,115.1,202.6,115.2z"/>
	<g id="XMLID_285_">
		<g id="XMLID_286_">
			<path id="XMLID_288_" class="st6" d="M249.3,143.9"/>
			<polyline id="XMLID_287_" class="st6" points="192.8,79.5 192.8,79.5 210.6,73.4 231.5,73.4 249.3,79.5 			"/>
		</g>
	</g>
	<path id="XMLID_284_" class="st7" d="M249.5,79l-17.7-6c-0.2-0.1-0.4,0-0.6,0.1c-0.2,0.1-0.3,0.3-0.3,0.5v50.1
		c0,0.3,0.3,0.6,0.6,0.6h0.6V123v-0.7V74.5l16.5,5.5v47.2v0.7v1.2h0.6c0.4,0,0.6-0.3,0.6-0.6v-49C250,79.3,249.8,79.1,249.5,79z"/>
	<polygon id="XMLID_283_" class="st1" points="233.5,66.7 208.6,66.7 210.6,73.4 231.5,73.4 	"/>
	<polygon id="XMLID_282_" class="st1" points="251.3,72.8 233.5,66.7 231.5,73.4 249.3,79.5 	"/>
	<polygon id="XMLID_281_" class="st1" points="190.8,72.8 208.6,66.7 210.6,73.4 192.8,79.5 	"/>
	<path id="XMLID_280_" class="st3" d="M232.2,43.2"/>
	<path id="XMLID_279_" class="st3" d="M249.4,55.6"/>
	<path id="XMLID_278_" class="st3" d="M231.7,48.3"/>
	<g id="XMLID_5_">
		<path id="XMLID_256_" class="st0" d="M226.8,91.2c-0.3-7.3-2.7-11.6-5.6-11.6c-2.9,0-5.3,4.3-5.6,11.6h0v10.6h11.3L226.8,91.2
			L226.8,91.2z"/>
	</g>
	<path id="XMLID_4_" class="st0" d="M209.2,43h3.5c0.4,0,0.7,0.5,0.7,1v5.2c0,0.6,0.3,1,0.7,1h3.9c0.4,0,0.7-0.5,0.7-1V44
		c0-0.6,0.3-1,0.7-1h3.5c0.4,0,0.7,0.5,0.7,1v5.2c0,0.6,0.3,1,0.7,1h3.9c0.4,0,0.7-0.5,0.7-1V44c0-0.6,0.3-1,0.7-1h3.5
		c0.4,0,0.7,0.5,0.7,1v6.3v0.2v16.3c-0.7,0-0.3,0-0.7,0h-23.6c-0.4,0-0.3,0-0.7,0V44C208.6,43.4,208.9,43,209.2,43z"/>
	<path id="XMLID_3_" class="st1" d="M234,43.1l3.3,1.1c0.4,0.1,0.4,0.4,0.4,1l0,6c0,0.7,0.1,1.2,0.7,1.3l1.9,0.5
		c0.4,0.1,0.7-0.1,0.7-0.7l0-5.6c0-0.6,0.2-0.9,0.5-0.9l2.7,0.7c0.4,0.1,0.7,0.4,0.7,1l0,6.1c0,0.6,0.3,0.9,0.7,1l1.4,0.4
		c0.5,0.1,0.7-0.4,0.7-1l0-5.6c0-0.6,0.3-0.7,0.6-0.6l2.6,0.9c0.4,0.1,0.7,0.5,0.7,1v0.5v0.2l-0.1,22.4c-0.7-0.2-0.4-0.1-0.8-0.3
		l-16.5-5.6c-0.4-0.1-0.2-0.1-0.6-0.2V44C233.5,43.4,233.6,43.1,234,43.1z"/>
	<path id="XMLID_2_" class="st1" d="M208.1,43.1l-3.3,1.1c-0.4,0.1-0.4,0.4-0.4,1l0,6c0,0.7-0.1,1.2-0.7,1.3l-1.9,0.5
		c-0.4,0.1-0.7-0.1-0.7-0.7l0-5.6c0-0.6-0.2-0.9-0.5-0.9l-2.7,0.7c-0.4,0.1-0.7,0.4-0.7,1l0,6.1c0,0.6-0.3,0.9-0.7,1l-1.4,0.4
		c-0.5,0.1-0.7-0.4-0.7-1l0-5.6c0-0.6-0.3-0.7-0.6-0.6l-2.6,0.9c-0.4,0.1-0.7,0.5-0.7,1v0.5v0.2l0.1,22.4c0.7-0.2,0.4-0.1,0.8-0.3
		l16.5-5.6c0.4-0.1,0.2-0.1,0.6-0.2V44C208.6,43.4,208.4,43.1,208.1,43.1z"/>
	<path id="XMLID_1_" class="st7" d="M211,72.9c-0.2-0.1-0.4-0.2-0.6-0.1l-18,6.1c-0.3,0.1-0.4,0.3-0.4,0.6v43.5h1.3v-0.6v-0.3V80
		l16.7-5.7v47.4v0.3v0.6h1.3V73.5C211.3,73.3,211.2,73.1,211,72.9z"/>
</g>
</svg>
