<?xml version="1.0" standalone="no"?>
<!DOCTYPE svg PUBLIC "-//W3C//DTD SVG 1.1//EN" "http://www.w3.org/Graphics/SVG/1.1/DTD/svg11.dtd" >
<svg xmlns="http://www.w3.org/2000/svg" xmlns:xlink="http://www.w3.org/1999/xlink" version="1.1">
<metadata>
Created by FontForge 20161013 at Thu Feb 21 14:15:47 2008
 By ,,,
Copyright (c) 2007 by Dino dos Santos _DSType. All rights reserved.
</metadata>
<defs>
<font id="Prelo-Black" horiz-adv-x="600" >
  <font-face 
    font-family="Prelo Black"
    font-weight="400"
    font-stretch="normal"
    units-per-em="1000"
    panose-1="2 0 5 6 0 0 0 2 0 4"
    ascent="750"
    descent="-250"
    x-height="500"
    cap-height="680"
    bbox="-75 -290 1140 960"
    underline-thickness="50"
    underline-position="-200"
    unicode-range="U+0020-FB04"
  />
<missing-glyph horiz-adv-x="590" 
d="M70 500h450v-500h-450v500zM287 249l-206 236v-469zM304 249l205 -231v465zM93 488l203 -229l202 229h-405zM296 240l-201 -228h401z" />
    <glyph glyph-name="ff" unicode="ff" horiz-adv-x="640" 
d="M535 519v-19h90v-120h-90v-380h-170v380h-125v-380h-170v380h-60v110l60 10v49q0 77 39.5 114t130.5 37q45 0 95 -10l-15 -130q-25 5 -40 5q-40 0 -40 -46v-19h125v49q0 77 39.5 114t130.5 37q45 0 95 -10l-15 -130q-25 5 -40 5q-40 0 -40 -46z" />
    <glyph glyph-name="fi" unicode="fi" horiz-adv-x="565" 
d="M365 0v380h-125v-380h-170v380h-60v110l60 10v19q0 85 49.5 133t180.5 48q44 0 111 -10t94 -20l-15 -120q-125 15 -170 15q-30 0 -48 -3.5t-24 -12.5t-7 -13.5t-1 -16.5v-19h295v-500h-170z" />
    <glyph glyph-name="fl" unicode="fl" horiz-adv-x="565" 
d="M240 380v-380h-170v380h-60v110l60 10v19q0 85 49.5 133t180.5 48q67 0 115 -10h120v-690h-170v562q-23 3 -45 3q-30 0 -48 -3.5t-24 -12.5t-7 -13.5t-1 -16.5v-19h90v-120h-90z" />
    <glyph glyph-name="ffi" unicode="ffi" horiz-adv-x="860" 
d="M365 500v19q0 85 49.5 133t180.5 48q44 0 111 -10t94 -20l-15 -120q-125 15 -170 15q-30 0 -48 -3.5t-24 -12.5t-7 -13.5t-1 -16.5v-19h295v-500h-170v380h-125v-380h-170v380h-125v-380h-170v380h-60v110l60 10v40q0 82 35.5 121t134.5 39q45 0 95 -10l-15 -130
q-25 5 -40 5q-23 0 -31.5 -6.5t-8.5 -28.5v-30h125z" />
    <glyph glyph-name="ffl" unicode="ffl" horiz-adv-x="860" 
d="M830 690v-690h-170v562q-22 3 -45 3q-30 0 -48 -3.5t-24 -12.5t-7 -13.5t-1 -16.5v-19h90v-120h-90v-380h-170v380h-125v-380h-170v380h-60v110l60 10v40q0 82 35.5 121t134.5 39q45 0 95 -10l-15 -130q-25 5 -40 5q-23 0 -31.5 -6.5t-8.5 -28.5v-30h125v19
q0 85 49.5 133t180.5 48q67 0 115 -10h120z" />
    <glyph glyph-name="T_h" unicode="Th" horiz-adv-x="1030" 
d="M700 0h-170v520h-160v-520h-180v520h-170v160h680v-240h2q59 70 148 70q73 0 111.5 -46t38.5 -124v-340h-170v300q0 70 -60 70q-30 0 -70 -20v-350z" />
    <glyph glyph-name="T_h.caron" unicode="&#x164;h" horiz-adv-x="1030" 
d="M700 0h-170v520h-160v-520h-180v520h-170v160h680v-240h2q59 70 148 70q73 0 111.5 -46t38.5 -124v-340h-170v300q0 70 -60 70q-30 0 -70 -20v-350zM278 822l70 48h90l-110 -140h-100l-110 140h90z" />
    <glyph glyph-name="T_h.commaaccent" unicode="&#x162;h" horiz-adv-x="1030" 
d="M700 0h-170v520h-160v-520h-180v520h-170v160h680v-240h2q59 70 148 70q73 0 111.5 -46t38.5 -124v-340h-170v300q0 70 -60 70q-30 0 -70 -20v-350zM237 -270l30 100h-70v130h170v-130l-80 -100h-50z" />
    <glyph glyph-name="f_f_j" unicode="ffj" horiz-adv-x="860" 
d="M365 500v19q0 85 49.5 133t180.5 48q44 0 111 -10t94 -20l-15 -120q-125 15 -170 15q-30 0 -48 -3.5t-24 -12.5t-7 -13.5t-1 -16.5v-19h295v-530q0 -85 -36.5 -132.5t-133.5 -47.5q-45 0 -95 10l15 130q25 -5 40 -5q40 0 40 46v409h-125v-380h-170v380h-125v-380h-170
v380h-60v110l60 10v40q0 82 35.5 121t134.5 39q45 0 95 -10l-15 -130q-25 5 -40 5q-23 0 -31.5 -6.5t-8.5 -28.5v-30h125z" />
    <glyph glyph-name="f_j" unicode="fj" horiz-adv-x="565" 
d="M240 500h295v-530q0 -85 -36.5 -132.5t-133.5 -47.5q-45 0 -95 10l15 130q25 -5 40 -5q40 0 40 46v409h-125v-380h-170v380h-60v110l60 10v19q0 85 49.5 133t180.5 48q44 0 111 -10t94 -20l-15 -120q-125 15 -170 15q-30 0 -48 -3.5t-24 -12.5t-7 -13.5t-1 -16.5v-19z
" />
    <glyph glyph-name=".notdef" horiz-adv-x="590" 
d="M70 500h450v-500h-450v500zM287 249l-206 236v-469zM304 249l205 -231v465zM93 488l203 -229l202 229h-405zM296 240l-201 -228h401z" />
    <glyph glyph-name=".null" horiz-adv-x="0" 
 />
    <glyph glyph-name="nonmarkingreturn" horiz-adv-x="333" 
 />
    <glyph glyph-name="space" unicode=" " horiz-adv-x="180" 
 />
    <glyph glyph-name="exclam" unicode="!" horiz-adv-x="230" 
d="M30 0v160h170v-160h-170zM40 220l-10 480h170l-10 -480h-150z" />
    <glyph glyph-name="quotedbl" unicode="&#x22;" horiz-adv-x="430" 
d="M50 480l-20 200h170l-20 -200h-130zM250 480l-20 200h170l-20 -200h-130z" />
    <glyph glyph-name="numbersign" unicode="#" horiz-adv-x="613" 
d="M173 500h120l-10 -90h80l10 90h120l-10 -90h100l-11 -110h-100l-11 -100h100l-11 -110h-100l-10 -90h-120l10 90h-80l-10 -90h-120l10 90h-100l11 110h100l11 100h-100l11 110h100zM272 300l-11 -100h80l11 100h-80z" />
    <glyph glyph-name="dollar" unicode="$" horiz-adv-x="610" 
d="M350 -100h-70v91q-73 3 -141 27t-109 62l80 130q40 -24 97 -42t103 -18q80 0 80 50q0 13 -9 23t-27 17t-33.5 11.5t-39.5 10t-36 8.5q-195 56 -195 220q0 94 63.5 143.5t166.5 55.5v91h70v-92q119 -8 210 -68l-70 -140q-100 50 -180 50q-70 0 -70 -40q0 -17 20.5 -31
t42.5 -20.5t59 -15.5q9 -2 13 -3q99 -24 152 -74t53 -136q0 -98 -63.5 -152.5t-166.5 -64.5v-93z" />
    <glyph glyph-name="percent" unicode="%" horiz-adv-x="760" 
d="M620 680l-370 -680h-110l370 680h110zM180 606q-45 0 -45 -70t45 -70t45 70t-45 70zM180 382q-73 0 -111.5 41t-38.5 113t38.5 113t111.5 41t111.5 -41t38.5 -113t-38.5 -113t-111.5 -41zM580 214q-45 0 -45 -70t45 -70t45 70t-45 70zM580 -10q-73 0 -111.5 41t-38.5 113
t38.5 113t111.5 41t111.5 -41t38.5 -113t-38.5 -113t-111.5 -41z" />
    <glyph glyph-name="ampersand" unicode="&#x26;" horiz-adv-x="705" 
d="M525 514q0 -88 -116 -159l95 -88q25 45 31 83h160q-13 -102 -82 -196l72 -74l-110 -120l-82 85q-92 -55 -208 -55q-129 0 -192 52.5t-63 140.5q0 53 30 96.5t113 95.5q-36 46 -49.5 76t-13.5 62q0 83 63.5 130t151.5 47q94 0 147 -47t53 -129zM295 135q51 0 94 19
l-130 136q-49 -35 -49 -80q0 -36 26 -55.5t59 -19.5zM275 520q0 -33 37 -74q53 38 53 74q0 55 -45 55q-21 0 -33 -14.5t-12 -40.5z" />
    <glyph glyph-name="quotesingle" unicode="'" horiz-adv-x="230" 
d="M50 480l-20 200h170l-20 -200h-130z" />
    <glyph glyph-name="parenleft" unicode="(" horiz-adv-x="330" 
d="M210 820h110q-120 -216 -120 -480q0 -251 120 -480h-110q-89 102 -134.5 227.5t-45.5 252.5q0 273 180 480z" />
    <glyph glyph-name="parenright" unicode=")" horiz-adv-x="330" 
d="M10 820h110q180 -207 180 -480q0 -127 -45.5 -252.5t-134.5 -227.5h-110q120 229 120 480q0 264 -120 480z" />
    <glyph glyph-name="asterisk" unicode="*" horiz-adv-x="410" 
d="M157 680h96l-13 -117l111 50l29 -94l-117 -10l78 -84l-75 -58l-62 111l-60 -111l-75 58l78 84l-117 10l28 94l112 -50z" />
    <glyph glyph-name="plus" unicode="+" horiz-adv-x="500" 
d="M320 485v-150h150v-140h-150v-150h-140v150h-150v140h150v150h140z" />
    <glyph glyph-name="comma" unicode="," horiz-adv-x="230" 
d="M70 -130l30 130h-70v160h170v-160l-80 -130h-50z" />
    <glyph glyph-name="hyphen" unicode="-" horiz-adv-x="500" 
d="M30 335h440v-140h-440v140z" />
    <glyph glyph-name="period" unicode="." horiz-adv-x="230" 
d="M30 0v160h170v-160h-170z" />
    <glyph glyph-name="slash" unicode="/" horiz-adv-x="540" 
d="M530 680l-370 -680h-150l370 680h150z" />
    <glyph glyph-name="zero" unicode="0" horiz-adv-x="590" 
d="M295 550q-46 0 -65.5 -52.5t-19.5 -152.5q0 -215 85 -215t85 215q0 100 -19.5 152.5t-65.5 52.5zM295 -10q-78 0 -131.5 27t-82 78t-40 111t-11.5 139t11.5 137.5t40 107.5t82 74.5t131.5 25.5t131.5 -25.5t82 -74.5t40 -107.5t11.5 -137.5t-11.5 -139t-40 -111t-82 -78
t-131.5 -27z" />
    <glyph glyph-name="one" unicode="1" horiz-adv-x="390" 
d="M170 487l-118 -42l-42 140q143 46 205 100h125v-685h-170v487z" />
    <glyph glyph-name="two" unicode="2" horiz-adv-x="550" 
d="M230 535q-66 0 -150 -30l-50 135q70 27 122.5 38.5t117.5 11.5q116 0 178 -58t62 -152q0 -97 -59.5 -170.5t-180.5 -157.5v-2h250v-150h-490v160q174 106 237 168t63 117q0 90 -100 90z" />
    <glyph glyph-name="three" unicode="3" horiz-adv-x="570" 
d="M270 550q-81 0 -177 -40l-50 130q115 50 257 50q92 0 156 -47t64 -134q0 -104 -108 -150v-2q66 -19 97 -64.5t31 -102.5q0 -96 -69 -148t-191 -52q-138 0 -250 50l50 130q93 -40 190 -40q46 0 70.5 20.5t24.5 49.5q0 39 -26.5 54.5t-78.5 15.5h-95v140h87q60 0 79 22.5
t19 57.5q0 27 -21.5 43.5t-58.5 16.5z" />
    <glyph glyph-name="four" unicode="4" horiz-adv-x="590" 
d="M193 280h127v180h-2q-52 -89 -125 -180zM280 680h210v-400h80v-140h-80v-140h-170v140h-300v140q163 177 260 400z" />
    <glyph glyph-name="five" unicode="5" horiz-adv-x="570" 
d="M540 230q0 -118 -70.5 -179t-199.5 -61q-128 0 -240 50l50 130q93 -40 180 -40q52 0 76 26t24 64q0 36 -19.5 63t-65.5 27q-51 0 -85 -30l-120 10l10 390h420v-150h-273l-5 -104l2 -1q52 30 113 30q92 0 147.5 -58t55.5 -167z" />
    <glyph glyph-name="six" unicode="6" horiz-adv-x="570" 
d="M200 403l2 -1q51 53 128 53q98 0 154 -62t56 -173q0 -107 -67.5 -168.5t-179.5 -61.5q-87 0 -148 44.5t-88 113t-27 152.5q0 390 309 390q91 0 180 -30l-20 -130q-87 20 -145 20q-19 0 -37.5 -3t-41 -12.5t-38.5 -24.5t-27 -42.5t-10 -64.5zM215 280q-4 -37 -2 -70
t20.5 -56.5t51.5 -23.5t54 23.5t21 66.5q0 36 -17.5 62t-58.5 26q-34 0 -69 -28z" />
    <glyph glyph-name="seven" unicode="7" horiz-adv-x="500" 
d="M295 528v2h-275v150h460v-120q-44 -80 -66.5 -124.5t-55 -118.5t-53.5 -150.5t-35 -166.5h-190q23 128 80 269.5t135 258.5z" />
    <glyph glyph-name="eight" unicode="8" horiz-adv-x="590" 
d="M316 419q22 9 38 30t16 46q0 29 -20.5 49.5t-59.5 20.5q-33 0 -51.5 -18.5t-18.5 -41.5q0 -32 29 -54.5t67 -31.5zM269 270q-28 -12 -46 -33t-18 -47q0 -30 24.5 -52.5t71.5 -22.5q43 0 63.5 17t20.5 43q0 17 -6.5 30t-23 24t-25 15.5t-33.5 14.5t-28 11zM290 -10
q-109 0 -184.5 44t-75.5 138q0 111 116 161v2q-96 57 -96 165q0 63 38 107.5t93 63.5t119 19q94 0 167 -47.5t73 -133.5q0 -50 -24 -85.5t-74 -64.5v-2q118 -63 118 -167q0 -101 -78 -150.5t-192 -49.5z" />
    <glyph glyph-name="nine" unicode="9" horiz-adv-x="570" 
d="M370 277l-2 1q-51 -53 -128 -53q-98 0 -154 62t-56 173q0 107 67.5 168.5t179.5 61.5q87 0 148 -44.5t88 -113t27 -152.5q0 -390 -309 -390q-91 0 -180 30l20 130q87 -20 145 -20q19 0 37.5 3t41 12.5t38.5 24.5t27 42.5t10 64.5zM355 400q4 37 2 70t-20.5 56.5
t-51.5 23.5t-54 -23.5t-21 -66.5q0 -36 17.5 -62t58.5 -26q34 0 69 28z" />
    <glyph glyph-name="colon" unicode=":" horiz-adv-x="230" 
d="M30 0v160h170v-160h-170zM30 300v160h170v-160h-170z" />
    <glyph glyph-name="semicolon" unicode=";" horiz-adv-x="230" 
d="M70 -130l30 130h-70v160h170v-160l-80 -130h-50zM30 300v160h170v-160h-170z" />
    <glyph glyph-name="less" unicode="&#x3c;" horiz-adv-x="480" 
d="M30 300l420 210v-150l-240 -110l240 -110v-150l-420 210v100z" />
    <glyph glyph-name="equal" unicode="=" horiz-adv-x="500" 
d="M30 435h440v-140h-440v140zM30 235h440v-140h-440v140z" />
    <glyph glyph-name="greater" unicode="&#x3e;" horiz-adv-x="480" 
d="M30 510l420 -210v-100l-420 -210v150l240 110l-240 110v150z" />
    <glyph glyph-name="question" unicode="?" horiz-adv-x="480" 
d="M245 690q62 0 107 -18t67 -47.5t31.5 -60t9.5 -64.5q0 -45 -16.5 -80t-40 -57t-47 -40.5t-40 -39t-16.5 -43.5v-30h-150v30q0 47 14 83.5t34 56.5t39.5 36t33.5 32t14 34q0 48 -75 48q-55 0 -142 -25l-48 145q96 40 225 40zM140 0v160h170v-160h-170z" />
    <glyph glyph-name="at" unicode="@" horiz-adv-x="830" 
d="M591 330v-167q35 0 59.5 26t34.5 60t10 72q0 106 -74 171t-186 65q-132 0 -215.5 -84.5t-83.5 -219.5q0 -119 77.5 -200t195.5 -81l-10 -92q-161 0 -265 106t-104 267q0 174 114.5 286.5t289.5 112.5q154 0 260 -91.5t106 -234.5q0 -112 -62.5 -186t-175.5 -74h-104v39
h-1q-39 -46 -107 -46q-55 0 -86 35.5t-31 87.5q0 37 16 63t43 38.5t52.5 17.5t52.5 5h61v16q0 39 -56 39q-48 0 -129 -23l-24 88q108 35 188 35q74 0 114 -29.5t40 -101.5zM458 174v56h-56q-15 0 -25.5 -9t-10.5 -27t11 -26.5t25 -8.5q35 0 56 15z" />
    <glyph glyph-name="A" unicode="A" horiz-adv-x="650" 
d="M200 0h-190l205 685h220l205 -685h-200l-35 135h-170zM321 460h-1l-49 -175h98z" />
    <glyph glyph-name="B" unicode="B" horiz-adv-x="610" 
d="M330 270h-110v-110h110q35 0 52.5 10.5t17.5 44.5t-17.5 44.5t-52.5 10.5zM320 520h-100v-90h100q31 0 45.5 10t14.5 35t-14.5 35t-45.5 10zM475 355v-2q115 -41 115 -163q0 -91 -59 -140.5t-171 -49.5h-320v680h300q113 0 171.5 -44.5t58.5 -130.5q0 -51 -26 -91
t-69 -59z" />
    <glyph glyph-name="C" unicode="C" horiz-adv-x="620" 
d="M220 345q0 -101 34 -148t106 -47q68 0 200 30l40 -150q-133 -40 -255 -40q-315 0 -315 355q0 77 15 136.5t50 108t98 74.5t152 26q122 0 255 -40l-40 -150q-132 30 -200 30q-140 0 -140 -185z" />
    <glyph glyph-name="D" unicode="D" horiz-adv-x="650" 
d="M40 680h265q89 0 152 -24.5t98 -70.5t50 -104.5t15 -135.5t-15 -136.5t-50 -108t-98 -74.5t-152 -26h-265v680zM305 520h-85v-360h85q75 0 100 42.5t25 142.5q0 98 -24.5 136.5t-100.5 38.5z" />
    <glyph glyph-name="E" unicode="E" horiz-adv-x="560" 
d="M220 160h310v-160h-490v680h485v-160h-305v-90h260v-160h-260v-110z" />
    <glyph glyph-name="F" unicode="F" horiz-adv-x="535" 
d="M220 0h-180v680h475v-160h-295v-110h250v-160h-250v-250z" />
    <glyph glyph-name="G" unicode="G" horiz-adv-x="640" 
d="M360 150q27 0 60 3v67h-80v160h260v-350q-133 -40 -255 -40q-315 0 -315 355q0 77 15 136.5t50 108t98 74.5t152 26q122 0 255 -40l-40 -150q-132 30 -200 30q-140 0 -140 -185q0 -101 34 -148t106 -47z" />
    <glyph glyph-name="H" unicode="H" horiz-adv-x="640" 
d="M420 270h-200v-270h-180v680h180v-250h200v250h180v-680h-180v270z" />
    <glyph glyph-name="I" unicode="I" horiz-adv-x="260" 
d="M220 0h-180v680h180v-680z" />
    <glyph glyph-name="J" unicode="J" horiz-adv-x="370" 
d="M150 201v479h180v-489q0 -102 -53 -151.5t-147 -49.5q-70 0 -120 10l15 150q30 -5 55 -5q70 0 70 56z" />
    <glyph glyph-name="K" unicode="K" horiz-adv-x="645" 
d="M410 0l-135 245l-55 -76v-169h-180v680h180v-265l200 265h215l-229 -291l229 -389h-225z" />
    <glyph glyph-name="L" unicode="L" horiz-adv-x="540" 
d="M220 160h300v-160h-480v680h180v-520z" />
    <glyph glyph-name="M" unicode="M" horiz-adv-x="800" 
d="M405 310h2l113 370h240v-680h-180v360h-2l-118 -360h-130l-113 360h-2v-360h-175v680h240z" />
    <glyph glyph-name="N" unicode="N" horiz-adv-x="650" 
d="M610 0h-190l-203 330h-2v-330h-175v680h180l213 -350h2v350h175v-680z" />
    <glyph glyph-name="O" unicode="O" horiz-adv-x="690" 
d="M345 540q-74 0 -99.5 -46.5t-25.5 -148.5q0 -104 25.5 -154.5t99.5 -50.5t99.5 50.5t25.5 154.5q0 102 -25.5 148.5t-99.5 46.5zM345 -10q-315 0 -315 355q0 77 15 136.5t50 108t98 74.5t152 26t152 -26t98 -74.5t50 -108t15 -136.5q0 -355 -315 -355z" />
    <glyph glyph-name="P" unicode="P" 
d="M340 210h-120v-210h-180v680h300q112 0 176 -63t64 -172t-64 -172t-176 -63zM220 520v-150h100q75 0 75 75t-75 75h-100z" />
    <glyph glyph-name="Q" unicode="Q" horiz-adv-x="690" 
d="M30 345q0 77 15 136.5t50 108t98 74.5t152 26t152 -26t98 -74.5t50 -108t15 -136.5q0 -129 -53 -203.5t-142 -86.5v-5q44 -11 175 0v-160q-117 -14 -204 12t-126 88q-148 11 -214 107t-66 248zM345 540q-74 0 -99.5 -46.5t-25.5 -148.5q0 -104 25.5 -154.5t99.5 -50.5
t99.5 50.5t25.5 154.5q0 102 -25.5 148.5t-99.5 46.5z" />
    <glyph glyph-name="R" unicode="R" horiz-adv-x="615" 
d="M395 0l-123 220h-52v-220h-180v680h300q113 0 176.5 -60.5t63.5 -169.5q0 -151 -120 -200l145 -250h-210zM220 520v-140h100q35 0 55 14.5t20 55.5t-20 55.5t-55 14.5h-100z" />
    <glyph glyph-name="S" unicode="S" 
d="M300 150q80 0 80 45q0 13 -6 22.5t-22 16.5t-28 11t-42.5 12t-46.5 13q-195 58 -195 220q0 102 73 151t187 49q117 0 250 -40l-40 -150q-132 30 -210 30q-31 0 -50.5 -11.5t-19.5 -33.5q0 -23 27.5 -35t96.5 -28q7 -1 11 -2q205 -48 205 -210q0 -111 -75 -165.5
t-195 -54.5q-137 0 -270 40l30 150q132 -30 240 -30z" />
    <glyph glyph-name="T" unicode="T" horiz-adv-x="560" 
d="M540 520h-170v-520h-180v520h-170v160h520v-160z" />
    <glyph glyph-name="U" unicode="U" horiz-adv-x="640" 
d="M40 240v440h180v-440q0 -52 24 -76t76 -24t76 24t24 76v440h180v-440q0 -128 -76 -189t-204 -61t-204 61t-76 189z" />
    <glyph glyph-name="V" unicode="V" horiz-adv-x="650" 
d="M329 220h1l120 460h190l-205 -685h-220l-205 685h200z" />
    <glyph glyph-name="W" unicode="W" horiz-adv-x="940" 
d="M471 390h-2l-74 -395h-230l-155 685h200l79 -460h1l80 460h210l84 -460h1l75 460h190l-155 -685h-230z" />
    <glyph glyph-name="X" unicode="X" horiz-adv-x="650" 
d="M640 0h-215l-115 205l-100 -205h-200l190 350l-185 330h210l98 -185l92 185h210l-185 -330z" />
    <glyph glyph-name="Y" unicode="Y" horiz-adv-x="620" 
d="M314 420h2l99 260h195l-210 -440v-240h-180v240l-210 440h205z" />
    <glyph glyph-name="Z" unicode="Z" horiz-adv-x="560" 
d="M270 162v-2h270v-160h-520v130l265 388v2h-245v160h490v-130z" />
    <glyph glyph-name="bracketleft" unicode="[" horiz-adv-x="300" 
d="M210 -40h80v-100h-260v960h260v-100h-80v-760z" />
    <glyph glyph-name="backslash" unicode="\" horiz-adv-x="540" 
d="M380 0l-370 680h150l370 -680h-150z" />
    <glyph glyph-name="bracketright" unicode="]" horiz-adv-x="300" 
d="M10 -40h80v760h-80v100h260v-960h-260v100z" />
    <glyph glyph-name="asciicircum" unicode="^" horiz-adv-x="380" 
d="M260 510l-70 98l-70 -98h-90l110 190h100l110 -190h-90z" />
    <glyph glyph-name="underscore" unicode="_" horiz-adv-x="500" 
d="M30 -60h440v-100h-440v100z" />
    <glyph glyph-name="grave" unicode="`" horiz-adv-x="290" 
d="M150 560l-100 140h140l50 -140h-90z" />
    <glyph glyph-name="a" unicode="a" horiz-adv-x="505" 
d="M70 350l-25 135q125 25 220 25q109 0 159.5 -35.5t50.5 -134.5v-340h-170v50h-2q-28 -33 -60 -46.5t-78 -13.5q-72 0 -111 46t-39 114q0 47 21 80.5t55 49.5t67 23t67 7h80v20q0 25 -18.5 32.5t-61.5 7.5q-62 0 -155 -20zM305 140v70h-70q-50 0 -50 -45q0 -24 15.5 -34.5
t34.5 -10.5q43 0 70 20z" />
    <glyph glyph-name="b" unicode="b" horiz-adv-x="530" 
d="M190 45l-30 -50h-130v705h170v-250h2q21 27 56.5 43.5t71.5 16.5q180 0 180 -260q0 -74 -17.5 -130t-61.5 -93t-111 -37q-76 0 -128 55h-2zM200 350v-200q27 -20 60 -20q70 0 70 120t-70 120q-33 0 -60 -20z" />
    <glyph glyph-name="c" unicode="c" horiz-adv-x="480" 
d="M290 130q65 0 150 20l30 -135q-100 -25 -180 -25q-147 0 -208.5 66t-61.5 194t61.5 194t208.5 66q80 0 180 -25l-30 -135q-85 20 -150 20q-90 0 -90 -120t90 -120z" />
    <glyph glyph-name="d" unicode="d" horiz-adv-x="530" 
d="M330 455v245h170v-700h-170v50h-2q-21 -27 -56.5 -43.5t-71.5 -16.5q-180 0 -180 260q0 74 17.5 130t61.5 93t111 37q74 0 118 -55h2zM330 150v200q-28 20 -60 20q-70 0 -70 -120t70 -120q32 0 60 20z" />
    <glyph glyph-name="e" unicode="e" horiz-adv-x="530" 
d="M290 510q79 0 129.5 -23.5t70 -64.5t24.5 -95.5t-6 -116.5h-303q4 -38 32.5 -59t77.5 -21q85 0 155 20l20 -135q-88 -25 -200 -25q-144 0 -207 67t-63 193t63 193t207 67zM205 315h135q4 33 -8.5 49t-51.5 16q-68 0 -75 -65z" />
    <glyph glyph-name="f" unicode="f" horiz-adv-x="345" 
d="M70 500v40q0 82 35.5 121t134.5 39q45 0 95 -10l-15 -130q-25 5 -40 5q-23 0 -31.5 -6.5t-8.5 -28.5v-30h90v-120h-90v-380h-170v380h-60v110z" />
    <glyph glyph-name="g" unicode="g" horiz-adv-x="555" 
d="M80 13v2q-32 22 -39.5 56t14.5 69t70 58v2q-37 19 -58.5 57t-21.5 83q0 87 59 128.5t161 41.5q42 0 75 -10h195v-100h-64v-2q9 -29 9 -58q0 -86 -58 -128t-157 -42q-28 0 -55 8q-26 -48 14 -51l161 -12q160 -11 160 -135q0 -103 -74.5 -146.5t-235.5 -43.5
q-119 0 -172 31.5t-53 98.5q0 61 70 93zM150 -50q0 -17 10.5 -28t30 -15.5t33.5 -5.5t36 -1q41 0 73 12t32 35q0 30 -40 33l-165 10q-10 -24 -10 -40zM265 280q60 0 60 60t-60 60t-60 -60t60 -60z" />
    <glyph glyph-name="h" unicode="h" horiz-adv-x="530" 
d="M200 0h-170v700h170v-260h2q59 70 148 70q73 0 111.5 -46t38.5 -124v-340h-170v300q0 70 -60 70q-30 0 -70 -20v-350z" />
    <glyph glyph-name="i" unicode="i" horiz-adv-x="230" 
d="M30 0v500h170v-500h-170zM30 550v150h170v-150h-170z" />
    <glyph glyph-name="j" unicode="j" horiz-adv-x="270" 
d="M70 550v150h170v-150h-170zM70 -39v539h170v-550q0 -82 -35.5 -121t-134.5 -39q-45 0 -95 10l15 130q25 -5 40 -5q23 0 31.5 7t8.5 29z" />
    <glyph glyph-name="k" unicode="k" horiz-adv-x="560" 
d="M200 145v-145h-170v700h170v-345l135 145h205l-175 -188l185 -312h-200l-103 196z" />
    <glyph glyph-name="l" unicode="l" horiz-adv-x="230" 
d="M30 0v700h170v-700h-170z" />
    <glyph glyph-name="m" unicode="m" horiz-adv-x="830" 
d="M500 0h-170v307q-4 63 -60 63q-30 0 -70 -20v-350h-170v500h170v-60h2q59 70 148 70q95 0 131 -78q68 78 169 78q73 0 111.5 -46t38.5 -124v-340h-170v300q0 70 -60 70q-30 0 -70 -20v-350z" />
    <glyph glyph-name="n" unicode="n" horiz-adv-x="530" 
d="M200 0h-170v500h170v-60h2q59 70 148 70q73 0 111.5 -46t38.5 -124v-340h-170v300q0 70 -60 70q-30 0 -70 -20v-350z" />
    <glyph glyph-name="o" unicode="o" horiz-adv-x="550" 
d="M275 370q-43 0 -59 -28.5t-16 -91.5t16 -91.5t59 -28.5t59 28.5t16 91.5t-16 91.5t-59 28.5zM275 -10q-255 0 -255 260t255 260t255 -260t-255 -260z" />
    <glyph glyph-name="p" unicode="p" horiz-adv-x="530" 
d="M200 45v-245h-170v700h170v-50h2q21 27 56.5 43.5t71.5 16.5q180 0 180 -260q0 -74 -17.5 -130t-61.5 -93t-111 -37q-74 0 -118 55h-2zM200 350v-200q27 -20 60 -20q70 0 70 120t-70 120q-33 0 -60 -20z" />
    <glyph glyph-name="q" unicode="q" horiz-adv-x="530" 
d="M340 455l30 50h130v-705h-170v250h-2q-21 -27 -56.5 -43.5t-71.5 -16.5q-180 0 -180 260q0 74 17.5 130t61.5 93t111 37q76 0 128 -55h2zM330 150v200q-28 20 -60 20q-70 0 -70 -120t70 -120q32 0 60 20z" />
    <glyph glyph-name="r" unicode="r" horiz-adv-x="370" 
d="M200 0h-170v500h170v-80h2q19 37 60.5 63.5t97.5 26.5v-160q-110 0 -160 -20v-330z" />
    <glyph glyph-name="s" unicode="s" horiz-adv-x="480" 
d="M235 125q60 0 60 23q0 5 -3 8.5t-10 5.5t-12.5 3t-17 2.5t-17.5 2.5q-101 17 -155.5 56.5t-54.5 123.5q0 160 210 160q120 0 220 -25l-30 -135q-106 25 -180 25q-50 0 -50 -20q0 -3 0.5 -4.5t2 -3.5t3 -3t4.5 -2.5t5.5 -2.5t8 -2t9 -2t10.5 -2.5t12 -2.5q95 -22 126 -37
q89 -42 89 -133q0 -87 -56 -128.5t-154 -41.5q-140 0 -240 25l30 135q106 -25 190 -25z" />
    <glyph glyph-name="t" unicode="t" horiz-adv-x="375" 
d="M240 380v-209q0 -46 60 -46q15 0 40 5l15 -130q-50 -10 -115 -10q-91 0 -130.5 37t-39.5 114v239h-60v110l60 10l20 140h150v-140h110v-120h-110z" />
    <glyph glyph-name="u" unicode="u" horiz-adv-x="530" 
d="M330 500h170v-500h-170v60h-2q-59 -70 -148 -70q-73 0 -111.5 46t-38.5 124v340h170v-300q0 -70 60 -70q30 0 70 20v350z" />
    <glyph glyph-name="v" unicode="v" horiz-adv-x="560" 
d="M550 500l-167 -505h-208l-165 505h190l83 -320h2l85 320h180z" />
    <glyph glyph-name="w" unicode="w" horiz-adv-x="790" 
d="M395 240h-2l-53 -245h-190l-140 505h190l63 -320h2l52 320h165l58 -320h2l58 320h180l-140 -505h-190z" />
    <glyph glyph-name="x" unicode="x" horiz-adv-x="545" 
d="M335 0l-75 135l-70 -135h-180l163 260l-148 240h195l64 -118l61 118h175l-150 -235l165 -265h-200z" />
    <glyph glyph-name="y" unicode="y" horiz-adv-x="560" 
d="M185 -5l-175 505h190l83 -320h2l85 320h180l-165 -505q-37 -115 -93 -160t-152 -45q-55 0 -105 10l15 140q25 -5 50 -5q67 0 85 60z" />
    <glyph glyph-name="z" unicode="z" horiz-adv-x="470" 
d="M445 500v-120l-215 -248v-2h230v-130h-450v120l220 248v2h-205v130h420z" />
    <glyph glyph-name="braceleft" unicode="{" horiz-adv-x="340" 
d="M30 300v80q26 4 40.5 11t21 22.5t7.5 28.5t1 43q0 29 -5 93.5t-5 95.5q0 30 7.5 53.5t18 38.5t30.5 25.5t37 16t46 8.5t48 3.5t53 0.5v-70q-24 0 -34.5 -3.5t-18 -23.5t-7.5 -63q0 -30 7 -100t7 -101q0 -54 -27.5 -78.5t-82.5 -39.5v-2q55 -15 82.5 -39.5t27.5 -78.5
q0 -31 -7 -101t-7 -100q0 -43 7.5 -63t18 -23.5t34.5 -3.5v-70q-34 0 -53 0.5t-48 3.5t-46 8.5t-37 16t-30.5 25.5t-18 38.5t-7.5 53.5q0 31 5 95.5t5 93.5q0 30 -1 43t-7.5 28.5t-21 22.5t-40.5 11z" />
    <glyph glyph-name="bar" unicode="|" horiz-adv-x="170" 
d="M140 -100h-110v880h110v-880z" />
    <glyph glyph-name="braceright" unicode="}" horiz-adv-x="340" 
d="M310 380v-80q-26 -4 -40.5 -11t-21 -22.5t-7.5 -28.5t-1 -43q0 -29 5 -93.5t5 -95.5q0 -30 -7.5 -53.5t-18 -38.5t-30.5 -25.5t-37 -16t-46 -8.5t-48 -3.5t-53 -0.5v70q24 0 34.5 3.5t18 23.5t7.5 63q0 30 -7 100t-7 101q0 54 27.5 78.5t82.5 39.5v2q-55 15 -82.5 39.5
t-27.5 78.5q0 31 7 101t7 100q0 43 -7.5 63t-18 23.5t-34.5 3.5v70q34 0 53 -0.5t48 -3.5t46 -8.5t37 -16t30.5 -25.5t18 -38.5t7.5 -53.5q0 -31 -5 -95.5t-5 -93.5q0 -30 1 -43t7.5 -28.5t21 -22.5t40.5 -11z" />
    <glyph glyph-name="asciitilde" unicode="~" horiz-adv-x="460" 
d="M144 285q-31 0 -62 -35l-52 40q21 56 51 83t59 27q27 0 97.5 -17.5t85.5 -17.5h5h6h5.5t6 0.5t6 1.5t6.5 2.5t6.5 3.5t7 4.5t8 6t8.5 7.5l42 -51q-42 -86 -107 -86q-19 0 -89.5 15.5t-89.5 15.5z" />
    <glyph glyph-name="exclamdown" unicode="&#xa1;" horiz-adv-x="230" 
d="M30 340v160h170v-160h-170zM30 -200l10 480h150l10 -480h-170z" />
    <glyph glyph-name="cent" unicode="&#xa2;" horiz-adv-x="510" 
d="M350 -100h-70v91q-116 5 -183 74.5t-67 184.5t67 184.5t183 74.5v91h70v-93q57 -6 130 -37l-20 -130q-62 23 -110 28v-237q49 5 110 29l20 -130q-73 -31 -130 -37v-93zM210 250q0 -95 70 -116v231q-70 -19 -70 -115z" />
    <glyph glyph-name="sterling" unicode="&#xa3;" horiz-adv-x="620" 
d="M30 410h50v80q0 102 68.5 151t181.5 49q73 0 143.5 -19.5t116.5 -50.5l-70 -140q-100 50 -180 50q-40 0 -65 -16t-25 -47v-57h200v-130h-200v-130h320v-150h-540v150h50v130h-50v130z" />
    <glyph glyph-name="currency" unicode="&#xa4;" horiz-adv-x="513" 
d="M100 249q0 68 48 114l-78 90l8 8l79 -90q44 36 100 36q55 0 99 -36l78 90l9 -8l-78 -89q50 -47 50 -115t-49 -114l76 -86l-9 -9l-77 87q-43 -35 -99 -35q-57 0 -100 35l-76 -87l-9 9l76 86q-48 46 -48 114zM112 249q0 -59 43 -102t102 -43t102.5 43t43.5 102t-43.5 102.5
t-102.5 43.5t-102 -43.5t-43 -102.5z" />
    <glyph glyph-name="yen" unicode="&#xa5;" horiz-adv-x="660" 
d="M446 295h124v-100h-150v-195h-180v195h-150v100h124l-184 385h205l99 -260h2l99 260h195z" />
    <glyph glyph-name="brokenbar" unicode="&#xa6;" horiz-adv-x="170" 
d="M140 380h-110v400h110v-400zM140 -100h-110v400h110v-400z" />
    <glyph glyph-name="section" unicode="&#xa7;" 
d="M570 360q0 -102 -72 -159q62 -59 62 -151q0 -102 -73 -151t-187 -49q-145 0 -250 70l70 140q100 -50 180 -50q70 0 70 40q0 17 -20.5 31t-42.5 20.5t-59 15.5q-9 2 -13 3q-99 24 -152 74t-53 136q0 101 72 159q-62 56 -62 151q0 102 73 151t187 49q145 0 250 -70
l-70 -140q-100 50 -180 50q-70 0 -70 -40q0 -17 20.5 -31t42.5 -20.5t59 -15.5q9 -2 13 -3q99 -24 152 -74t53 -136zM380 350q0 8 -3.5 15t-12.5 13t-16 10t-22 8t-22 6t-25.5 6.5t-23.5 5.5q-35 -28 -35 -74q0 -8 3.5 -15t12 -13t16 -10t21.5 -8.5t22.5 -6.5l25.5 -6t24 -6
q35 31 35 75z" />
    <glyph glyph-name="dieresis" unicode="&#xa8;" horiz-adv-x="480" 
d="M200 700v-140h-150v140h150zM430 700v-140h-150v140h150z" />
    <glyph glyph-name="copyright" unicode="&#xa9;" horiz-adv-x="765" 
d="M30 340q0 146 103 248t249 102q147 0 250 -102t103 -248t-103 -248t-250 -102q-146 0 -249 102t-103 248zM105 340q0 -115 81.5 -197.5t195.5 -82.5q115 0 196.5 82.5t81.5 197.5q0 114 -81.5 194.5t-196.5 80.5t-196 -80t-81 -195zM395 428q-80 0 -80 -84q0 -94 80 -94
q47 0 92 30l36 -75q-60 -43 -135 -43q-83 0 -132 47.5t-49 134.5q0 83 48.5 127.5t132.5 44.5q75 0 135 -43l-36 -75q-45 30 -92 30z" />
    <glyph glyph-name="ordfeminine" unicode="&#xaa;" horiz-adv-x="290" 
d="M58 605l-13 68q65 12 110 12q55 0 80 -17.5t25 -67.5v-170h-85v25h-1q-26 -30 -69 -30q-36 0 -55.5 23t-19.5 57q0 44 32.5 62t72.5 18h40v10q0 13 -9 16.5t-31 3.5q-33 0 -77 -10zM175 500v35h-35q-25 0 -25 -22q0 -23 25 -23q21 0 35 10z" />
    <glyph glyph-name="guillemotleft" unicode="&#xab;" horiz-adv-x="730" 
d="M30 300l320 210v-180l-140 -80l140 -80v-180l-320 210v100zM380 300l320 210v-180l-140 -80l140 -80v-180l-320 210v100z" />
    <glyph glyph-name="logicalnot" unicode="&#xac;" horiz-adv-x="590" 
d="M50 335h490v-240h-140v100h-350v140z" />
    <glyph glyph-name="uni00AD" unicode="&#xad;" horiz-adv-x="540" 
d="M50 335h440v-140h-440v140z" />
    <glyph glyph-name="registered" unicode="&#xae;" horiz-adv-x="765" 
d="M428 168l-55 95h-31v-95h-101v344h148q68 0 108 -32t40 -92q0 -77 -59 -107l74 -113h-124zM342 423v-71h47q45 0 45 36q0 35 -45 35h-47zM30 340q0 146 103 248t249 102q147 0 250 -102t103 -248t-103 -248t-250 -102q-146 0 -249 102t-103 248zM105 340
q0 -115 81.5 -197.5t195.5 -82.5q115 0 196.5 82.5t81.5 197.5q0 114 -81.5 194.5t-196.5 80.5t-196 -80t-81 -195z" />
    <glyph glyph-name="macron" unicode="&#xaf;" horiz-adv-x="440" 
d="M50 680h340v-120h-340v120z" />
    <glyph glyph-name="degree" unicode="&#xb0;" horiz-adv-x="260" 
d="M30 580q0 41 29.5 70.5t70.5 29.5t70.5 -29.5t29.5 -70.5t-29.5 -70.5t-70.5 -29.5t-70.5 29.5t-29.5 70.5zM91 580q0 -16 11.5 -27.5t27.5 -11.5t27.5 11.5t11.5 27.5t-11.5 27.5t-27.5 11.5t-27.5 -11.5t-11.5 -27.5z" />
    <glyph glyph-name="plusminus" unicode="&#xb1;" horiz-adv-x="500" 
d="M30 140h150v70h-150v140h150v150h140v-150h150v-140h-150v-70h150v-140h-440v140z" />
    <glyph glyph-name="twosuperior" unicode="&#xb2;" horiz-adv-x="305" 
d="M130 808q-24 0 -75 -23l-25 65q61 35 125 35q55 0 85 -29t30 -76q0 -48 -30 -85t-90 -79v-1h125v-75h-245v80q87 53 118.5 84t31.5 59q0 45 -50 45z" />
    <glyph glyph-name="threesuperior" unicode="&#xb3;" horiz-adv-x="315" 
d="M158 810q-11 0 -20 -1t-21.5 -5.5t-16.5 -6t-20 -9t-18 -8.5l-25 65q61 35 128 35q46 0 78 -23.5t32 -66.5q0 -53 -54 -75v-1q64 -19 64 -84q0 -48 -34.5 -74t-95.5 -26q-70 0 -125 35l25 65q66 -30 98 -30q21 0 33 10.5t12 24.5q0 35 -53 35h-47v70h43q49 0 49 40
q0 13 -9.5 21.5t-22.5 8.5z" />
    <glyph glyph-name="acute" unicode="&#xb4;" horiz-adv-x="290" 
d="M240 700l-100 -140h-90l50 140h140z" />
    <glyph glyph-name="mu" unicode="&#xb5;" horiz-adv-x="530" 
d="M30 -29v529h170v-300q0 -70 60 -70q30 0 70 20v350h170v-500h-170v60h-2q-52 -62 -128 -69v-21q0 -85 -36.5 -132.5t-133.5 -47.5q-45 0 -95 10l15 130q25 -5 40 -5q40 0 40 46z" />
    <glyph glyph-name="paragraph" unicode="&#xb6;" horiz-adv-x="565" 
d="M535 620h-82v-620h-70v620h-60v-325h-92q-90 0 -145.5 53.5t-55.5 139.5q0 89 55 140.5t146 51.5h304v-60z" />
    <glyph glyph-name="periodcentered" unicode="&#xb7;" horiz-adv-x="230" 
d="M30 170v160h170v-160h-170z" />
    <glyph glyph-name="cedilla" unicode="&#xb8;" horiz-adv-x="294" 
d="M101 -80v80h60v-50q83 -14 83 -74q0 -38 -28 -59.5t-79 -21.5q-47 0 -87 12l9 52q21 -4 43 -4q39 0 39 30q0 23 -40 35z" />
    <glyph glyph-name="onesuperior" unicode="&#xb9;" horiz-adv-x="295" 
d="M40 610h70v179l-59 -21l-21 65q71 22 103 50h62v-273h70v-70h-225v70z" />
    <glyph glyph-name="ordmasculine" unicode="&#xba;" horiz-adv-x="315" 
d="M158 615q-22 0 -30 -14t-8 -46t8 -46t30 -14q21 0 29 14.5t8 45.5t-8 45.5t-29 14.5zM158 425q-128 0 -128 130t128 130q127 0 127 -130t-127 -130z" />
    <glyph glyph-name="guillemotright" unicode="&#xbb;" horiz-adv-x="730" 
d="M30 510l320 -210v-100l-320 -210v180l140 80l-140 80v180zM380 510l320 -210v-100l-320 -210v180l140 80l-140 80v180z" />
    <glyph glyph-name="onequarter" unicode="&#xbc;" horiz-adv-x="800" 
d="M60 410h70v179l-59 -21l-21 65q71 22 103 50h62v-273h70v-70h-225v70zM647 680l-370 -680h-50l370 680h50zM562 140h63v90h-1q-26 -44 -62 -90zM605 340h105v-200h40v-70h-40v-70h-85v70h-150v70q81 89 130 200z" />
    <glyph glyph-name="onehalf" unicode="&#xbd;" horiz-adv-x="800" 
d="M60 410h70v179l-59 -21l-21 65q71 22 103 50h62v-273h70v-70h-225v70zM617 680l-370 -680h-50l370 680h50zM605 268q-24 0 -75 -23l-25 65q61 35 125 35q55 0 85 -29t30 -76q0 -48 -30 -85t-90 -79v-1h125v-75h-245v80q87 53 118.5 84t31.5 59q0 45 -50 45z" />
    <glyph glyph-name="threequarters" unicode="&#xbe;" horiz-adv-x="800" 
d="M647 680l-370 -680h-50l370 680h50zM562 140h63v90h-1q-26 -44 -62 -90zM605 340h105v-200h40v-70h-40v-70h-85v70h-150v70q81 89 130 200zM178 610q-11 0 -20 -1t-21.5 -5.5t-16.5 -6t-20 -9t-18 -8.5l-25 65q61 35 128 35q46 0 78 -23.5t32 -66.5q0 -53 -54 -75v-1
q64 -19 64 -84q0 -48 -34.5 -74t-95.5 -26q-70 0 -125 35l25 65q66 -30 98 -30q21 0 33 10.5t12 24.5q0 35 -53 35h-47v70h43q49 0 49 40q0 13 -9.5 21.5t-22.5 8.5z" />
    <glyph glyph-name="questiondown" unicode="&#xbf;" horiz-adv-x="500" 
d="M245 -190q-62 0 -107 18t-67 47.5t-31.5 60t-9.5 64.5q0 45 16.5 80t40 57t47 40.5t40 39t16.5 43.5v30h150v-30q0 -47 -14 -83.5t-33.5 -56.5t-39.5 -36t-34 -32t-14 -34q0 -48 75 -48q55 0 142 25l48 -145q-96 -40 -225 -40zM350 500v-160h-170v160h170z" />
    <glyph glyph-name="Agrave" unicode="&#xc0;" horiz-adv-x="650" 
d="M269 730l-100 140h140l50 -140h-90zM200 0h-190l205 685h220l205 -685h-200l-35 135h-170zM321 460h-1l-49 -175h98z" />
    <glyph glyph-name="Aacute" unicode="&#xc1;" horiz-adv-x="650" 
d="M477 870l-100 -140h-90l50 140h140zM200 0h-190l205 685h220l205 -685h-200l-35 135h-170zM321 460h-1l-49 -175h98z" />
    <glyph glyph-name="Acircumflex" unicode="&#xc2;" horiz-adv-x="650" 
d="M391 730l-70 48l-70 -48h-90l110 140h100l110 -140h-90zM200 0h-190l205 685h220l205 -685h-200l-35 135h-170zM321 460h-1l-49 -175h98z" />
    <glyph glyph-name="Atilde" unicode="&#xc3;" horiz-adv-x="650" 
d="M260 755q-31 0 -62 -35l-52 40q21 56 51 83t59 27q27 0 72.5 -17.5t60.5 -17.5h5h6h5.5t6 0.5t6 1.5t6.5 2.5t6.5 3.5t7 4.5t8 6t8.5 7.5l42 -51q-42 -86 -107 -86q-19 0 -64.5 15.5t-64.5 15.5zM200 0h-190l205 685h220l205 -685h-200l-35 135h-170zM321 460h-1
l-49 -175h98z" />
    <glyph glyph-name="Adieresis" unicode="&#xc4;" horiz-adv-x="650" 
d="M283 870v-140h-150v140h150zM513 870v-140h-150v140h150zM200 0h-190l205 685h220l205 -685h-200l-35 135h-170zM321 460h-1l-49 -175h98z" />
    <glyph glyph-name="Aring" unicode="&#xc5;" horiz-adv-x="650" 
d="M221 820q0 41 29.5 70.5t70.5 29.5t70.5 -29.5t29.5 -70.5t-29.5 -70.5t-70.5 -29.5t-70.5 29.5t-29.5 70.5zM282 820q0 -16 11 -27.5t28 -11.5t28 11.5t11 27.5t-11 27.5t-28 11.5t-28 -11.5t-11 -27.5zM200 0h-190l205 685h220l205 -685h-200l-35 135h-170zM321 460h-1
l-49 -175h98z" />
    <glyph glyph-name="AE" unicode="&#xc6;" horiz-adv-x="926" 
d="M189 0h-179l306 680h575v-160h-305v-90h260v-160h-260v-110h310v-160h-490v135h-165zM406 519h-2l-103 -244h105v244z" />
    <glyph glyph-name="Ccedilla" unicode="&#xc7;" horiz-adv-x="620" 
d="M220 345q0 -101 34 -148t106 -47q68 0 200 30l40 -150q-122 -37 -235 -40v-40q83 -14 83 -74q0 -38 -28 -59.5t-79 -21.5q-47 0 -87 12l9 52q21 -4 43 -4q39 0 39 30q0 23 -40 35v72q-275 21 -275 353q0 77 15 136.5t50 108t98 74.5t152 26q122 0 255 -40l-40 -150
q-132 30 -200 30q-140 0 -140 -185z" />
    <glyph glyph-name="Egrave" unicode="&#xc8;" horiz-adv-x="560" 
d="M257 730l-100 140h140l50 -140h-90zM220 160h310v-160h-490v680h485v-160h-305v-90h260v-160h-260v-110z" />
    <glyph glyph-name="Eacute" unicode="&#xc9;" horiz-adv-x="560" 
d="M414 870l-100 -140h-90l50 140h140zM220 160h310v-160h-490v680h485v-160h-305v-90h260v-160h-260v-110z" />
    <glyph glyph-name="Ecircumflex" unicode="&#xca;" horiz-adv-x="560" 
d="M364 730l-70 48l-70 -48h-90l110 140h100l110 -140h-90zM220 160h310v-160h-490v680h485v-160h-305v-90h260v-160h-260v-110z" />
    <glyph glyph-name="Edieresis" unicode="&#xcb;" horiz-adv-x="560" 
d="M241 870v-140h-150v140h150zM471 870v-140h-150v140h150zM220 160h310v-160h-490v680h485v-160h-305v-90h260v-160h-260v-110z" />
    <glyph glyph-name="Igrave" unicode="&#xcc;" horiz-adv-x="260" 
d="M95 730l-100 140h140l50 -140h-90zM220 0h-180v680h180v-680z" />
    <glyph glyph-name="Iacute" unicode="&#xcd;" horiz-adv-x="260" 
d="M274 870l-100 -140h-90l50 140h140zM220 0h-180v680h180v-680z" />
    <glyph glyph-name="Icircumflex" unicode="&#xce;" horiz-adv-x="260" 
d="M200 730l-70 48l-70 -48h-90l110 140h100l110 -140h-90zM219 0h-180v680h180v-680z" />
    <glyph glyph-name="Idieresis" unicode="&#xcf;" horiz-adv-x="260" 
d="M90 870v-140h-150v140h150zM320 870v-140h-150v140h150zM221 0h-180v680h180v-680z" />
    <glyph glyph-name="Eth" unicode="&#xd0;" horiz-adv-x="670" 
d="M60 680h265q89 0 152 -24.5t98 -70.5t50 -104.5t15 -135.5t-15 -136.5t-50 -108t-98 -74.5t-152 -26h-265v295h-70v100h70v285zM325 520h-85v-125h100v-100h-100v-135h85q75 0 100 42.5t25 142.5q0 98 -24.5 136.5t-100.5 38.5z" />
    <glyph glyph-name="Ntilde" unicode="&#xd1;" horiz-adv-x="650" 
d="M273 755q-31 0 -62 -35l-52 40q21 56 51 83t59 27q27 0 72.5 -17.5t60.5 -17.5h5h6h5.5t6 0.5t6 1.5t6.5 2.5t6.5 3.5t7 4.5t8 6t8.5 7.5l42 -51q-42 -86 -107 -86q-19 0 -64.5 15.5t-64.5 15.5zM610 0h-190l-203 330h-2v-330h-175v680h180l213 -350h2v350h175v-680z" />
    <glyph glyph-name="Ograve" unicode="&#xd2;" horiz-adv-x="690" 
d="M321 730l-100 140h140l50 -140h-90zM345 540q-74 0 -99.5 -46.5t-25.5 -148.5q0 -104 25.5 -154.5t99.5 -50.5t99.5 50.5t25.5 154.5q0 102 -25.5 148.5t-99.5 46.5zM345 -10q-315 0 -315 355q0 77 15 136.5t50 108t98 74.5t152 26t152 -26t98 -74.5t50 -108t15 -136.5
q0 -355 -315 -355z" />
    <glyph glyph-name="Oacute" unicode="&#xd3;" horiz-adv-x="690" 
d="M486 870l-100 -140h-90l50 140h140zM345 540q-74 0 -99.5 -46.5t-25.5 -148.5q0 -104 25.5 -154.5t99.5 -50.5t99.5 50.5t25.5 154.5q0 102 -25.5 148.5t-99.5 46.5zM345 -10q-315 0 -315 355q0 77 15 136.5t50 108t98 74.5t152 26t152 -26t98 -74.5t50 -108t15 -136.5
q0 -355 -315 -355z" />
    <glyph glyph-name="Ocircumflex" unicode="&#xd4;" horiz-adv-x="690" 
d="M416 730l-70 48l-70 -48h-90l110 140h100l110 -140h-90zM345 540q-74 0 -99.5 -46.5t-25.5 -148.5q0 -104 25.5 -154.5t99.5 -50.5t99.5 50.5t25.5 154.5q0 102 -25.5 148.5t-99.5 46.5zM345 -10q-315 0 -315 355q0 77 15 136.5t50 108t98 74.5t152 26t152 -26t98 -74.5
t50 -108t15 -136.5q0 -355 -315 -355z" />
    <glyph glyph-name="Otilde" unicode="&#xd5;" horiz-adv-x="690" 
d="M283 755q-31 0 -62 -35l-52 40q21 56 51 83t59 27q27 0 72.5 -17.5t60.5 -17.5h5h6h5.5t6 0.5t6 1.5t6.5 2.5t6.5 3.5t7 4.5t8 6t8.5 7.5l42 -51q-42 -86 -107 -86q-19 0 -64.5 15.5t-64.5 15.5zM345 540q-74 0 -99.5 -46.5t-25.5 -148.5q0 -104 25.5 -154.5t99.5 -50.5
t99.5 50.5t25.5 154.5q0 102 -25.5 148.5t-99.5 46.5zM345 -10q-315 0 -315 355q0 77 15 136.5t50 108t98 74.5t152 26t152 -26t98 -74.5t50 -108t15 -136.5q0 -355 -315 -355z" />
    <glyph glyph-name="Odieresis" unicode="&#xd6;" horiz-adv-x="690" 
d="M309 870v-140h-150v140h150zM539 870v-140h-150v140h150zM345 540q-74 0 -99.5 -46.5t-25.5 -148.5q0 -104 25.5 -154.5t99.5 -50.5t99.5 50.5t25.5 154.5q0 102 -25.5 148.5t-99.5 46.5zM345 -10q-315 0 -315 355q0 77 15 136.5t50 108t98 74.5t152 26t152 -26t98 -74.5
t50 -108t15 -136.5q0 -355 -315 -355z" />
    <glyph glyph-name="multiply" unicode="&#xd7;" horiz-adv-x="526" 
d="M496 399l-134 -134l134 -134l-99 -99l-134 134l-134 -134l-99 99l134 134l-134 134l99 99l134 -134l134 134z" />
    <glyph glyph-name="Oslash" unicode="&#xd8;" horiz-adv-x="690" 
d="M345 -10q-123 0 -199 54l-66 -84l-50 40l70 88q-70 87 -70 257q0 77 15 136.5t50 108t98 74.5t152 26q118 0 193 -48l71 90l50 -40l-73 -92q74 -83 74 -255q0 -355 -315 -355zM470 345q0 62 -8 99l-209 -265q29 -39 92 -39q74 0 99.5 50.5t25.5 154.5zM345 540
q-74 0 -99.5 -46.5t-25.5 -148.5q0 -63 6 -97l207 261q-29 31 -88 31z" />
    <glyph glyph-name="Ugrave" unicode="&#xd9;" horiz-adv-x="640" 
d="M276 730l-100 140h140l50 -140h-90zM40 240v440h180v-440q0 -52 24 -76t76 -24t76 24t24 76v440h180v-440q0 -128 -76 -189t-204 -61t-204 61t-76 189z" />
    <glyph glyph-name="Uacute" unicode="&#xda;" horiz-adv-x="640" 
d="M462 870l-100 -140h-90l50 140h140zM40 240v440h180v-440q0 -52 24 -76t76 -24t76 24t24 76v440h180v-440q0 -128 -76 -189t-204 -61t-204 61t-76 189z" />
    <glyph glyph-name="Ucircumflex" unicode="&#xdb;" horiz-adv-x="640" 
d="M390 730l-70 48l-70 -48h-90l110 140h100l110 -140h-90zM40 240v440h180v-440q0 -52 24 -76t76 -24t76 24t24 76v440h180v-440q0 -128 -76 -189t-204 -61t-204 61t-76 189z" />
    <glyph glyph-name="Udieresis" unicode="&#xdc;" horiz-adv-x="640" 
d="M279 870v-140h-150v140h150zM509 870v-140h-150v140h150zM40 240v440h180v-440q0 -52 24 -76t76 -24t76 24t24 76v440h180v-440q0 -128 -76 -189t-204 -61t-204 61t-76 189z" />
    <glyph glyph-name="Yacute" unicode="&#xdd;" horiz-adv-x="620" 
d="M464 870l-100 -140h-90l50 140h140zM314 420h2l99 260h195l-210 -440v-240h-180v240l-210 440h205z" />
    <glyph glyph-name="Thorn" unicode="&#xde;" 
d="M330 110h-110v-110h-180v680h180v-100h110q113 0 181.5 -63.5t68.5 -171.5t-68.5 -171.5t-181.5 -63.5zM220 420v-150h90q85 0 85 75t-85 75h-90z" />
    <glyph glyph-name="germandbls" unicode="&#xdf;" horiz-adv-x="645" 
d="M320 700q230 0 230 -150q0 -28 -11.5 -52t-27.5 -40.5t-32 -31t-27.5 -28.5t-11.5 -28q0 -18 9 -27t31 -18q87 -34 118.5 -75.5t31.5 -92.5q0 -86 -64.5 -126.5t-161.5 -40.5q-66 0 -129 20l20 130q61 -20 105 -20q50 0 50 35q0 13 -10 25t-21.5 19t-30.5 18t-26 15
q-48 29 -65 51.5t-17 67.5q0 28 11.5 53.5t25 41t25 35.5t11.5 39q0 46 -48 46q-65 0 -65 -96v-470h-170v380h-60v110l60 10q0 57 21 97.5t58 62t79 31t92 9.5z" />
    <glyph glyph-name="agrave" unicode="&#xe0;" horiz-adv-x="505" 
d="M70 350l-25 135q125 25 220 25q109 0 159.5 -35.5t50.5 -134.5v-340h-170v50h-2q-28 -33 -60 -46.5t-78 -13.5q-72 0 -111 46t-39 114q0 47 21 80.5t55 49.5t67 23t67 7h80v20q0 25 -18.5 32.5t-61.5 7.5q-62 0 -155 -20zM305 140v70h-70q-50 0 -50 -45q0 -24 15.5 -34.5
t34.5 -10.5q43 0 70 20zM235 560l-100 140h140l50 -140h-90z" />
    <glyph glyph-name="aacute" unicode="&#xe1;" horiz-adv-x="505" 
d="M15 0zM70 350l-25 135q125 25 220 25q109 0 159.5 -35.5t50.5 -134.5v-340h-170v50h-2q-28 -33 -60 -46.5t-78 -13.5q-72 0 -111 46t-39 114q0 47 21 80.5t55 49.5t67 23t67 7h80v20q0 25 -18.5 32.5t-61.5 7.5q-62 0 -155 -20zM305 140v70h-70q-50 0 -50 -45
q0 -24 15.5 -34.5t34.5 -10.5q43 0 70 20zM406 700l-100 -140h-90l50 140h140z" />
    <glyph glyph-name="acircumflex" unicode="&#xe2;" horiz-adv-x="505" 
d="M70 350l-25 135q125 25 220 25q109 0 159.5 -35.5t50.5 -134.5v-340h-170v50h-2q-28 -33 -60 -46.5t-78 -13.5q-72 0 -111 46t-39 114q0 47 21 80.5t55 49.5t67 23t67 7h80v20q0 25 -18.5 32.5t-61.5 7.5q-62 0 -155 -20zM305 140v70h-70q-50 0 -50 -45q0 -24 15.5 -34.5
t34.5 -10.5q43 0 70 20zM340 560l-70 48l-70 -48h-90l110 140h100l110 -140h-90z" />
    <glyph glyph-name="atilde" unicode="&#xe3;" horiz-adv-x="505" 
d="M70 350l-25 135q125 25 220 25q109 0 159.5 -35.5t50.5 -134.5v-340h-170v50h-2q-28 -33 -60 -46.5t-78 -13.5q-72 0 -111 46t-39 114q0 47 21 80.5t55 49.5t67 23t67 7h80v20q0 25 -18.5 32.5t-61.5 7.5q-62 0 -155 -20zM305 140v70h-70q-50 0 -50 -45q0 -24 15.5 -34.5
t34.5 -10.5q43 0 70 20zM204 585q-31 0 -62 -35l-52 40q21 56 51 83t59 27q27 0 72.5 -17.5t60.5 -17.5h5h6h5.5t6 0.5t6 1.5t6.5 2.5t6.5 3.5t7 4.5t8 6t8.5 7.5l42 -51q-42 -86 -107 -86q-19 0 -64.5 15.5t-64.5 15.5z" />
    <glyph glyph-name="adieresis" unicode="&#xe4;" horiz-adv-x="505" 
d="M15 0zM70 350l-25 135q125 25 220 25q109 0 159.5 -35.5t50.5 -134.5v-340h-170v50h-2q-28 -33 -60 -46.5t-78 -13.5q-72 0 -111 46t-39 114q0 47 21 80.5t55 49.5t67 23t67 7h80v20q0 25 -18.5 32.5t-61.5 7.5q-62 0 -155 -20zM305 140v70h-70q-50 0 -50 -45
q0 -24 15.5 -34.5t34.5 -10.5q43 0 70 20zM229 700v-140h-150v140h150zM459 700v-140h-150v140h150z" />
    <glyph glyph-name="aring" unicode="&#xe5;" horiz-adv-x="505" 
d="M15 0zM70 350l-25 135q125 25 220 25q109 0 159.5 -35.5t50.5 -134.5v-340h-170v50h-2q-28 -33 -60 -46.5t-78 -13.5q-72 0 -111 46t-39 114q0 47 21 80.5t55 49.5t67 23t67 7h80v20q0 25 -18.5 32.5t-61.5 7.5q-62 0 -155 -20zM305 140v70h-70q-50 0 -50 -45
q0 -24 15.5 -34.5t34.5 -10.5q43 0 70 20zM170 650q0 41 29.5 70.5t70.5 29.5t70.5 -29.5t29.5 -70.5t-29.5 -70.5t-70.5 -29.5t-70.5 29.5t-29.5 70.5zM231 650q0 -16 11.5 -27.5t27.5 -11.5t27.5 11.5t11.5 27.5t-11.5 27.5t-27.5 11.5t-27.5 -11.5t-11.5 -27.5z" />
    <glyph glyph-name="ae" unicode="&#xe6;" horiz-adv-x="815" 
d="M575 510q79 0 129.5 -23.5t70 -64.5t24.5 -95.5t-6 -116.5h-303q4 -38 32.5 -59t77.5 -21q85 0 155 20l20 -135q-87 -25 -200 -25q-52 0 -100 10h-1q-84 20 -127 82q-47 -54 -89.5 -73t-92.5 -19q-72 0 -111 46t-39 114q0 47 21 80.5t55 49.5t67 23t67 7h80v20
q0 25 -18.5 32.5t-61.5 7.5q-62 0 -155 -20l-25 135q125 25 220 25q104 0 153 -31q60 31 157 31zM305 140v70h-70q-50 0 -50 -45q0 -24 15.5 -34.5t34.5 -10.5q43 0 70 20zM490 315h135q4 33 -8.5 49t-51.5 16q-68 0 -75 -65z" />
    <glyph glyph-name="ccedilla" unicode="&#xe7;" horiz-adv-x="480" 
d="M290 130q65 0 150 20l30 -135q-92 -24 -172 -25v-40q83 -14 83 -74q0 -38 -28 -59.5t-79 -21.5q-46 0 -87 12l9 52q21 -4 43 -4q39 0 39 30q0 23 -40 35v73q-118 11 -168 76t-50 181q0 128 61.5 194t208.5 66q80 0 180 -25l-30 -135q-85 20 -150 20q-90 0 -90 -120
t90 -120z" />
    <glyph glyph-name="egrave" unicode="&#xe8;" horiz-adv-x="530" 
d="M290 510q79 0 129.5 -23.5t70 -64.5t24.5 -95.5t-6 -116.5h-303q4 -38 32.5 -59t77.5 -21q85 0 155 20l20 -135q-88 -25 -200 -25q-144 0 -207 67t-63 193t63 193t207 67zM205 315h135q4 33 -8.5 49t-51.5 16q-68 0 -75 -65zM245 560l-100 140h140l50 -140h-90z" />
    <glyph glyph-name="eacute" unicode="&#xe9;" horiz-adv-x="530" 
d="M20 0zM290 510q79 0 129.5 -23.5t70 -64.5t24.5 -95.5t-6 -116.5h-303q4 -38 32.5 -59t77.5 -21q85 0 155 20l20 -135q-88 -25 -200 -25q-144 0 -207 67t-63 193t63 193t207 67zM205 315h135q4 33 -8.5 49t-51.5 16q-68 0 -75 -65zM446 700l-100 -140h-90l50 140h140z
" />
    <glyph glyph-name="ecircumflex" unicode="&#xea;" horiz-adv-x="530" 
d="M290 510q79 0 129.5 -23.5t70 -64.5t24.5 -95.5t-6 -116.5h-303q4 -38 32.5 -59t77.5 -21q85 0 155 20l20 -135q-88 -25 -200 -25q-144 0 -207 67t-63 193t63 193t207 67zM205 315h135q4 33 -8.5 49t-51.5 16q-68 0 -75 -65zM359 560l-70 48l-70 -48h-90l110 140h100
l110 -140h-90z" />
    <glyph glyph-name="edieresis" unicode="&#xeb;" horiz-adv-x="530" 
d="M20 0zM290 510q79 0 129.5 -23.5t70 -64.5t24.5 -95.5t-6 -116.5h-303q4 -38 32.5 -59t77.5 -21q85 0 155 20l20 -135q-88 -25 -200 -25q-144 0 -207 67t-63 193t63 193t207 67zM205 315h135q4 33 -8.5 49t-51.5 16q-68 0 -75 -65zM244 700v-140h-150v140h150zM474 700
v-140h-150v140h150z" />
    <glyph glyph-name="igrave" unicode="&#xec;" horiz-adv-x="230" 
d="M30 0v500h170v-500h-170zM76 560l-100 140h140l50 -140h-90z" />
    <glyph glyph-name="iacute" unicode="&#xed;" horiz-adv-x="230" 
d="M30 0zM30 0v500h170v-500h-170zM262 700l-100 -140h-90l50 140h140z" />
    <glyph glyph-name="icircumflex" unicode="&#xee;" horiz-adv-x="230" 
d="M185 560l-70 48l-70 -48h-90l110 140h100l110 -140h-90zM30 0v500h170v-500h-170z" />
    <glyph glyph-name="idieresis" unicode="&#xef;" horiz-adv-x="230" 
d="M31 0v500h170v-500h-170zM75 700v-140h-150v140h150zM305 700v-140h-150v140h150z" />
    <glyph glyph-name="eth" unicode="&#xf0;" horiz-adv-x="550" 
d="M368 660l71 71l56 -56l-61 -61q96 -94 96 -314q0 -84 -27 -152.5t-88 -113t-148 -44.5q-112 0 -179.5 61.5t-67.5 168.5q0 111 56 173t154 62q77 0 128 -53l2 1q1 66 -34 103l-42 -43l-56 57l25 25q-28 5 -47 5q-67 0 -145 -30l-20 130q93 40 180 40q84 0 147 -30z
M345 280q-35 28 -69 28q-41 0 -58.5 -26t-17.5 -62q0 -43 21 -66.5t54 -23.5t51.5 23.5t20.5 56.5t-2 70z" />
    <glyph glyph-name="ntilde" unicode="&#xf1;" horiz-adv-x="530" 
d="M30 0zM200 0h-170v500h170v-60h2q59 70 148 70q73 0 111.5 -46t38.5 -124v-340h-170v300q0 70 -60 70q-30 0 -70 -20v-350zM206 585q-31 0 -62 -35l-52 40q21 56 51 83t59 27q27 0 72.5 -17.5t60.5 -17.5h5h6h5.5t6 0.5t6 1.5t6.5 2.5t6.5 3.5t7 4.5t8 6t8.5 7.5l42 -51
q-42 -86 -107 -86q-19 0 -64.5 15.5t-64.5 15.5z" />
    <glyph glyph-name="ograve" unicode="&#xf2;" horiz-adv-x="550" 
d="M275 370q-43 0 -59 -28.5t-16 -91.5t16 -91.5t59 -28.5t59 28.5t16 91.5t-16 91.5t-59 28.5zM275 -10q-255 0 -255 260t255 260t255 -260t-255 -260zM239 560l-100 140h140l50 -140h-90z" />
    <glyph glyph-name="oacute" unicode="&#xf3;" horiz-adv-x="550" 
d="M20 0zM275 370q-43 0 -59 -28.5t-16 -91.5t16 -91.5t59 -28.5t59 28.5t16 91.5t-16 91.5t-59 28.5zM275 -10q-255 0 -255 260t255 260t255 -260t-255 -260zM423 700l-100 -140h-90l50 140h140z" />
    <glyph glyph-name="ocircumflex" unicode="&#xf4;" horiz-adv-x="550" 
d="M275 370q-43 0 -59 -28.5t-16 -91.5t16 -91.5t59 -28.5t59 28.5t16 91.5t-16 91.5t-59 28.5zM275 -10q-255 0 -255 260t255 260t255 -260t-255 -260zM345 560l-70 48l-70 -48h-90l110 140h100l110 -140h-90z" />
    <glyph glyph-name="otilde" unicode="&#xf5;" horiz-adv-x="550" 
d="M20 0zM275 370q-43 0 -59 -28.5t-16 -91.5t16 -91.5t59 -28.5t59 28.5t16 91.5t-16 91.5t-59 28.5zM275 -10q-255 0 -255 260t255 260t255 -260t-255 -260zM215 585q-31 0 -62 -35l-52 40q21 56 51 83t59 27q27 0 72.5 -17.5t60.5 -17.5h5h6h5.5t6 0.5t6 1.5t6.5 2.5
t6.5 3.5t7 4.5t8 6t8.5 7.5l42 -51q-42 -86 -107 -86q-19 0 -64.5 15.5t-64.5 15.5z" />
    <glyph glyph-name="odieresis" unicode="&#xf6;" horiz-adv-x="550" 
d="M20 0zM275 370q-43 0 -59 -28.5t-16 -91.5t16 -91.5t59 -28.5t59 28.5t16 91.5t-16 91.5t-59 28.5zM275 -10q-255 0 -255 260t255 260t255 -260t-255 -260zM235 700v-140h-150v140h150zM465 700v-140h-150v140h150z" />
    <glyph glyph-name="divide" unicode="&#xf7;" horiz-adv-x="500" 
d="M30 315h440v-100h-440v100zM175 25v140h150v-140h-150zM175 365v140h150v-140h-150z" />
    <glyph glyph-name="oslash" unicode="&#xf8;" horiz-adv-x="550" 
d="M275 -10q-91 0 -151 33l-54 -63l-50 40l54 64q-54 64 -54 186q0 260 255 260q92 0 151 -34l54 64l50 -40l-55 -64q55 -65 55 -186q0 -260 -255 -260zM350 250q0 15 -2 37l-121 -143q17 -14 48 -14q43 0 59 28.5t16 91.5zM275 370q-43 0 -59 -28.5t-16 -91.5q0 -26 1 -37
l121 142q-16 15 -47 15z" />
    <glyph glyph-name="ugrave" unicode="&#xf9;" horiz-adv-x="530" 
d="M330 500h170v-500h-170v60h-2q-59 -70 -148 -70q-73 0 -111.5 46t-38.5 124v340h170v-300q0 -70 60 -70q30 0 70 20v350zM214 560l-100 140h140l50 -140h-90z" />
    <glyph glyph-name="uacute" unicode="&#xfa;" horiz-adv-x="530" 
d="M30 0zM330 500h170v-500h-170v60h-2q-59 -70 -148 -70q-73 0 -111.5 46t-38.5 124v340h170v-300q0 -70 60 -70q30 0 70 20v350zM413 700l-100 -140h-90l50 140h140z" />
    <glyph glyph-name="ucircumflex" unicode="&#xfb;" horiz-adv-x="530" 
d="M330 500h170v-500h-170v60h-2q-59 -70 -148 -70q-73 0 -111.5 46t-38.5 124v340h170v-300q0 -70 60 -70q30 0 70 20v350zM336 560l-70 48l-70 -48h-90l110 140h100l110 -140h-90z" />
    <glyph glyph-name="udieresis" unicode="&#xfc;" horiz-adv-x="530" 
d="M30 0zM330 500h170v-500h-170v60h-2q-59 -70 -148 -70q-73 0 -111.5 46t-38.5 124v340h170v-300q0 -70 60 -70q30 0 70 20v350zM225 700v-140h-150v140h150zM455 700v-140h-150v140h150z" />
    <glyph glyph-name="yacute" unicode="&#xfd;" horiz-adv-x="560" 
d="M10 0zM185 -5l-175 505h190l83 -320h2l85 320h180l-165 -505q-37 -115 -93 -160t-152 -45q-55 0 -105 10l15 140q25 -5 50 -5q67 0 85 60zM432 700l-100 -140h-90l50 140h140z" />
    <glyph glyph-name="thorn" unicode="&#xfe;" horiz-adv-x="530" 
d="M200 45v-245h-170v900h170v-250h2q21 27 56.5 43.5t71.5 16.5q180 0 180 -260q0 -74 -17.5 -130t-61.5 -93t-111 -37q-74 0 -118 55h-2zM200 350v-200q27 -20 60 -20q70 0 70 120t-70 120q-33 0 -60 -20z" />
    <glyph glyph-name="ydieresis" unicode="&#xff;" horiz-adv-x="560" 
d="M185 -5l-175 505h190l83 -320h2l85 320h180l-165 -505q-37 -115 -93 -160t-152 -45q-55 0 -105 10l15 140q25 -5 50 -5q67 0 85 60zM244 700v-140h-150v140h150zM474 700v-140h-150v140h150z" />
    <glyph glyph-name="Amacron" unicode="&#x100;" horiz-adv-x="650" 
d="M150 850h340v-120h-340v120zM200 0h-190l205 685h220l205 -685h-200l-35 135h-170zM321 460h-1l-49 -175h98z" />
    <glyph glyph-name="amacron" unicode="&#x101;" horiz-adv-x="505" 
d="M70 350l-25 135q125 25 220 25q109 0 159.5 -35.5t50.5 -134.5v-340h-170v50h-2q-28 -33 -60 -46.5t-78 -13.5q-72 0 -111 46t-39 114q0 47 21 80.5t55 49.5t67 23t67 7h80v20q0 25 -18.5 32.5t-61.5 7.5q-62 0 -155 -20zM305 140v70h-70q-50 0 -50 -45q0 -24 15.5 -34.5
t34.5 -10.5q43 0 70 20zM96 680h340v-120h-340v120z" />
    <glyph glyph-name="Abreve" unicode="&#x102;" horiz-adv-x="650" 
d="M321 826q65 0 87 54h67q-18 -150 -154 -150t-154 150h67q22 -54 87 -54zM200 0h-190l205 685h220l205 -685h-200l-35 135h-170zM321 460h-1l-49 -175h98z" />
    <glyph glyph-name="abreve" unicode="&#x103;" horiz-adv-x="505" 
d="M15 0zM70 350l-25 135q125 25 220 25q109 0 159.5 -35.5t50.5 -134.5v-340h-170v50h-2q-28 -33 -60 -46.5t-78 -13.5q-72 0 -111 46t-39 114q0 47 21 80.5t55 49.5t67 23t67 7h80v20q0 25 -18.5 32.5t-61.5 7.5q-62 0 -155 -20zM305 140v70h-70q-50 0 -50 -45
q0 -24 15.5 -34.5t34.5 -10.5q43 0 70 20zM272 656q65 0 87 54h67q-18 -150 -154 -150t-154 150h67q22 -54 87 -54z" />
    <glyph glyph-name="Aogonek" unicode="&#x104;" horiz-adv-x="650" 
d="M629 -137l5 -39q-37 -29 -100 -29q-51 0 -82.5 24t-31.5 60q0 69 86 121h-66l-35 135h-170l-35 -135h-190l205 685h220l205 -685h-54q-53 -44 -53 -91q0 -25 16 -39t44 -14q18 0 36 7zM321 460h-1l-49 -175h98z" />
    <glyph glyph-name="aogonek" unicode="&#x105;" horiz-adv-x="505" 
d="M472 -137l5 -39q-37 -29 -100 -29q-51 0 -82.5 24t-31.5 60q0 69 86 121h-44v50h-2q-28 -33 -60 -46.5t-78 -13.5q-72 0 -111 46t-39 114q0 47 21 80.5t55 49.5t67 23t67 7h80v20q0 25 -18.5 32.5t-61.5 7.5q-62 0 -155 -20l-25 135q125 25 220 25q109 0 159.5 -35.5
t50.5 -134.5v-340h-46q-53 -44 -53 -91q0 -25 16 -39t44 -14q18 0 36 7zM305 140v70h-70q-50 0 -50 -45q0 -24 15.5 -34.5t34.5 -10.5q43 0 70 20z" />
    <glyph glyph-name="Cacute" unicode="&#x106;" horiz-adv-x="620" 
d="M492 870l-100 -140h-90l50 140h140zM220 345q0 -101 34 -148t106 -47q68 0 200 30l40 -150q-133 -40 -255 -40q-315 0 -315 355q0 77 15 136.5t50 108t98 74.5t152 26q122 0 255 -40l-40 -150q-132 30 -200 30q-140 0 -140 -185z" />
    <glyph glyph-name="cacute" unicode="&#x107;" horiz-adv-x="480" 
d="M20 0zM290 130q65 0 150 20l30 -135q-100 -25 -180 -25q-147 0 -208.5 66t-61.5 194t61.5 194t208.5 66q80 0 180 -25l-30 -135q-85 20 -150 20q-90 0 -90 -120t90 -120zM424 700l-100 -140h-90l50 140h140z" />
    <glyph glyph-name="Ccircumflex" unicode="&#x108;" horiz-adv-x="620" 
d="M436 730l-70 48l-70 -48h-90l110 140h100l110 -140h-90zM220 345q0 -101 34 -148t106 -47q68 0 200 30l40 -150q-133 -40 -255 -40q-315 0 -315 355q0 77 15 136.5t50 108t98 74.5t152 26q122 0 255 -40l-40 -150q-132 30 -200 30q-140 0 -140 -185z" />
    <glyph glyph-name="ccircumflex" unicode="&#x109;" horiz-adv-x="480" 
d="M20 0zM290 130q65 0 150 20l30 -135q-100 -25 -180 -25q-147 0 -208.5 66t-61.5 194t61.5 194t208.5 66q80 0 180 -25l-30 -135q-85 20 -150 20q-90 0 -90 -120t90 -120zM346 560l-70 48l-70 -48h-90l110 140h100l110 -140h-90z" />
    <glyph glyph-name="Cdotaccent" unicode="&#x10a;" horiz-adv-x="620" 
d="M282 730v140h150v-140h-150zM220 345q0 -101 34 -148t106 -47q68 0 200 30l40 -150q-133 -40 -255 -40q-315 0 -315 355q0 77 15 136.5t50 108t98 74.5t152 26q122 0 255 -40l-40 -150q-132 30 -200 30q-140 0 -140 -185z" />
    <glyph glyph-name="cdotaccent" unicode="&#x10b;" horiz-adv-x="480" 
d="M290 130q65 0 150 20l30 -135q-100 -25 -180 -25q-147 0 -208.5 66t-61.5 194t61.5 194t208.5 66q80 0 180 -25l-30 -135q-85 20 -150 20q-90 0 -90 -120t90 -120zM208 560v140h150v-140h-150z" />
    <glyph glyph-name="Ccaron" unicode="&#x10c;" horiz-adv-x="620" 
d="M358 822l70 48h90l-110 -140h-100l-110 140h90zM220 345q0 -101 34 -148t106 -47q68 0 200 30l40 -150q-133 -40 -255 -40q-315 0 -315 355q0 77 15 136.5t50 108t98 74.5t152 26q122 0 255 -40l-40 -150q-132 30 -200 30q-140 0 -140 -185z" />
    <glyph glyph-name="ccaron" unicode="&#x10d;" horiz-adv-x="480" 
d="M290 130q65 0 150 20l30 -135q-100 -25 -180 -25q-147 0 -208.5 66t-61.5 194t61.5 194t208.5 66q80 0 180 -25l-30 -135q-85 20 -150 20q-90 0 -90 -120t90 -120zM289 652l70 48h90l-110 -140h-100l-110 140h90z" />
    <glyph glyph-name="Dcaron" unicode="&#x10e;" horiz-adv-x="650" 
d="M312 822l70 48h90l-110 -140h-100l-110 140h90zM40 680h265q89 0 152 -24.5t98 -70.5t50 -104.5t15 -135.5t-15 -136.5t-50 -108t-98 -74.5t-152 -26h-265v680zM305 520h-85v-360h85q75 0 100 42.5t25 142.5q0 98 -24.5 136.5t-100.5 38.5z" />
    <glyph glyph-name="dcaron" unicode="&#x10f;" 
d="M330 455v245h170v-700h-170v50h-2q-21 -27 -56.5 -43.5t-71.5 -16.5q-180 0 -180 260q0 74 17.5 130t61.5 93t111 37q74 0 118 -55h2zM330 150v200q-28 20 -60 20q-70 0 -70 -120t70 -120q32 0 60 20zM580 470l30 100h-70v130h170v-130l-80 -100h-50z" />
    <glyph glyph-name="Dcroat" unicode="&#x110;" horiz-adv-x="670" 
d="M60 680h265q89 0 152 -24.5t98 -70.5t50 -104.5t15 -135.5t-15 -136.5t-50 -108t-98 -74.5t-152 -26h-265v295h-70v100h70v285zM325 520h-85v-125h100v-100h-100v-135h85q75 0 100 42.5t25 142.5q0 98 -24.5 136.5t-100.5 38.5z" />
    <glyph glyph-name="dcroat" unicode="&#x111;" horiz-adv-x="530" 
d="M330 455v85h-100v100h100v60h170v-60h70v-100h-70v-540h-170v50h-2q-21 -27 -56.5 -43.5t-71.5 -16.5q-180 0 -180 260q0 74 17.5 130t61.5 93t111 37q74 0 118 -55h2zM330 150v200q-28 20 -60 20q-70 0 -70 -120t70 -120q32 0 60 20z" />
    <glyph glyph-name="Emacron" unicode="&#x112;" horiz-adv-x="560" 
d="M127 850h340v-120h-340v120zM220 160h310v-160h-490v680h485v-160h-305v-90h260v-160h-260v-110z" />
    <glyph glyph-name="emacron" unicode="&#x113;" horiz-adv-x="530" 
d="M290 510q79 0 129.5 -23.5t70 -64.5t24.5 -95.5t-6 -116.5h-303q4 -38 32.5 -59t77.5 -21q85 0 155 20l20 -135q-88 -25 -200 -25q-144 0 -207 67t-63 193t63 193t207 67zM205 315h135q4 33 -8.5 49t-51.5 16q-68 0 -75 -65zM113 680h340v-120h-340v120z" />
    <glyph glyph-name="Ebreve" unicode="&#x114;" horiz-adv-x="560" 
d="M304 826q65 0 87 54h67q-18 -150 -154 -150t-154 150h67q22 -54 87 -54zM220 160h310v-160h-490v680h485v-160h-305v-90h260v-160h-260v-110z" />
    <glyph glyph-name="ebreve" unicode="&#x115;" horiz-adv-x="530" 
d="M20 0zM290 510q79 0 129.5 -23.5t70 -64.5t24.5 -95.5t-6 -116.5h-303q4 -38 32.5 -59t77.5 -21q85 0 155 20l20 -135q-88 -25 -200 -25q-144 0 -207 67t-63 193t63 193t207 67zM205 315h135q4 33 -8.5 49t-51.5 16q-68 0 -75 -65zM286 656q65 0 87 54h67
q-18 -150 -154 -150t-154 150h67q22 -54 87 -54z" />
    <glyph glyph-name="Edotaccent" unicode="&#x116;" horiz-adv-x="560" 
d="M205 730v140h150v-140h-150zM220 160h310v-160h-490v680h485v-160h-305v-90h260v-160h-260v-110z" />
    <glyph glyph-name="edotaccent" unicode="&#x117;" horiz-adv-x="530" 
d="M20 0zM290 510q79 0 129.5 -23.5t70 -64.5t24.5 -95.5t-6 -116.5h-303q4 -38 32.5 -59t77.5 -21q85 0 155 20l20 -135q-88 -25 -200 -25q-144 0 -207 67t-63 193t63 193t207 67zM205 315h135q4 33 -8.5 49t-51.5 16q-68 0 -75 -65zM210 560v140h150v-140h-150z" />
    <glyph glyph-name="Eogonek" unicode="&#x118;" horiz-adv-x="560" 
d="M573 -137l5 -39q-37 -29 -100 -29q-51 0 -82.5 24t-31.5 60q0 69 86 121h-410v680h485v-160h-305v-90h260v-160h-260v-110h310v-160q-53 -44 -53 -91q0 -25 16 -39t44 -14q18 0 36 7z" />
    <glyph glyph-name="eogonek" unicode="&#x119;" horiz-adv-x="530" 
d="M533 -122l5 -39q-37 -29 -100 -29q-51 0 -82.5 24t-31.5 60q0 56 56 100q-41 -4 -90 -4q-144 0 -207 67t-63 193t63 193t207 67q79 0 129.5 -23.5t70 -64.5t24.5 -95.5t-6 -116.5h-303q4 -38 32.5 -59t77.5 -21q85 0 155 20l20 -135q-53 -44 -53 -91q0 -25 16 -39t44 -14
q18 0 36 7zM205 315h135q4 33 -8.5 49t-51.5 16q-68 0 -75 -65z" />
    <glyph glyph-name="Ecaron" unicode="&#x11a;" horiz-adv-x="560" 
d="M287 822l70 48h90l-110 -140h-100l-110 140h90zM220 160h310v-160h-490v680h485v-160h-305v-90h260v-160h-260v-110z" />
    <glyph glyph-name="ecaron" unicode="&#x11b;" horiz-adv-x="530" 
d="M290 510q79 0 129.5 -23.5t70 -64.5t24.5 -95.5t-6 -116.5h-303q4 -38 32.5 -59t77.5 -21q85 0 155 20l20 -135q-88 -25 -200 -25q-144 0 -207 67t-63 193t63 193t207 67zM205 315h135q4 33 -8.5 49t-51.5 16q-68 0 -75 -65zM282 652l70 48h90l-110 -140h-100l-110 140
h90z" />
    <glyph glyph-name="Gcircumflex" unicode="&#x11c;" horiz-adv-x="640" 
d="M445 730l-70 48l-70 -48h-90l110 140h100l110 -140h-90zM360 150q27 0 60 3v67h-80v160h260v-350q-133 -40 -255 -40q-315 0 -315 355q0 77 15 136.5t50 108t98 74.5t152 26q122 0 255 -40l-40 -150q-132 30 -200 30q-140 0 -140 -185q0 -101 34 -148t106 -47z" />
    <glyph glyph-name="gcircumflex" unicode="&#x11d;" horiz-adv-x="555" 
d="M80 13v2q-32 22 -39.5 56t14.5 69t70 58v2q-37 19 -58.5 57t-21.5 83q0 87 59 128.5t161 41.5q42 0 75 -10h195v-100h-64v-2q9 -29 9 -58q0 -86 -58 -128t-157 -42q-28 0 -55 8q-26 -48 14 -51l161 -12q160 -11 160 -135q0 -103 -74.5 -146.5t-235.5 -43.5
q-119 0 -172 31.5t-53 98.5q0 61 70 93zM150 -50q0 -17 10.5 -28t30 -15.5t33.5 -5.5t36 -1q41 0 73 12t32 35q0 30 -40 33l-165 10q-10 -24 -10 -40zM265 280q60 0 60 60t-60 60t-60 -60t60 -60zM350 560l-70 48l-70 -48h-90l110 140h100l110 -140h-90z" />
    <glyph glyph-name="Gbreve" unicode="&#x11e;" horiz-adv-x="640" 
d="M363 826q65 0 87 54h67q-18 -150 -154 -150t-154 150h67q22 -54 87 -54zM360 150q27 0 60 3v67h-80v160h260v-350q-133 -40 -255 -40q-315 0 -315 355q0 77 15 136.5t50 108t98 74.5t152 26q122 0 255 -40l-40 -150q-132 30 -200 30q-140 0 -140 -185q0 -101 34 -148
t106 -47z" />
    <glyph glyph-name="gbreve" unicode="&#x11f;" horiz-adv-x="555" 
d="M10 0zM80 13v2q-32 22 -39.5 56t14.5 69t70 58v2q-37 19 -58.5 57t-21.5 83q0 87 59 128.5t161 41.5q42 0 75 -10h195v-100h-64v-2q9 -29 9 -58q0 -86 -58 -128t-157 -42q-28 0 -55 8q-26 -48 14 -51l161 -12q160 -11 160 -135q0 -103 -74.5 -146.5t-235.5 -43.5
q-119 0 -172 31.5t-53 98.5q0 61 70 93zM150 -50q0 -17 10.5 -28t30 -15.5t33.5 -5.5t36 -1q41 0 73 12t32 35q0 30 -40 33l-165 10q-10 -24 -10 -40zM265 280q60 0 60 60t-60 60t-60 -60t60 -60zM286 656q65 0 87 54h67q-18 -150 -154 -150t-154 150h67q22 -54 87 -54z" />
    <glyph glyph-name="Gdotaccent" unicode="&#x120;" horiz-adv-x="640" 
d="M284 730v140h150v-140h-150zM360 150q27 0 60 3v67h-80v160h260v-350q-133 -40 -255 -40q-315 0 -315 355q0 77 15 136.5t50 108t98 74.5t152 26q122 0 255 -40l-40 -150q-132 30 -200 30q-140 0 -140 -185q0 -101 34 -148t106 -47z" />
    <glyph glyph-name="gdotaccent" unicode="&#x121;" horiz-adv-x="555" 
d="M80 13v2q-32 22 -39.5 56t14.5 69t70 58v2q-37 19 -58.5 57t-21.5 83q0 87 59 128.5t161 41.5q42 0 75 -10h195v-100h-64v-2q9 -29 9 -58q0 -86 -58 -128t-157 -42q-28 0 -55 8q-26 -48 14 -51l161 -12q160 -11 160 -135q0 -103 -74.5 -146.5t-235.5 -43.5
q-119 0 -172 31.5t-53 98.5q0 61 70 93zM150 -50q0 -17 10.5 -28t30 -15.5t33.5 -5.5t36 -1q41 0 73 12t32 35q0 30 -40 33l-165 10q-10 -24 -10 -40zM265 280q60 0 60 60t-60 60t-60 -60t60 -60zM196 560v140h150v-140h-150z" />
    <glyph glyph-name="Gcommaaccent" unicode="&#x122;" horiz-adv-x="640" 
d="M360 150q27 0 60 3v67h-80v160h260v-350q-133 -40 -255 -40q-315 0 -315 355q0 77 15 136.5t50 108t98 74.5t152 26q122 0 255 -40l-40 -150q-132 30 -200 30q-140 0 -140 -185q0 -101 34 -148t106 -47zM309 -270l30 100h-70v130h170v-130l-80 -100h-50z" />
    <glyph glyph-name="gcommaaccent" unicode="&#x123;" horiz-adv-x="555" 
d="M10 0zM80 13v2q-32 22 -39.5 56t14.5 69t70 58v2q-37 19 -58.5 57t-21.5 83q0 87 59 128.5t161 41.5q42 0 75 -10h195v-100h-64v-2q9 -29 9 -58q0 -86 -58 -128t-157 -42q-28 0 -55 8q-26 -48 14 -51l161 -12q160 -11 160 -135q0 -103 -74.5 -146.5t-235.5 -43.5
q-119 0 -172 31.5t-53 98.5q0 61 70 93zM150 -50q0 -17 10.5 -28t30 -15.5t33.5 -5.5t36 -1q41 0 73 12t32 35q0 30 -40 33l-165 10q-10 -24 -10 -40zM265 280q60 0 60 60t-60 60t-60 -60t60 -60zM322 850l-30 -130h70v-160h-170v160l80 130h50z" />
    <glyph glyph-name="Hcircumflex" unicode="&#x124;" horiz-adv-x="640" 
d="M385 730l-70 48l-70 -48h-90l110 140h100l110 -140h-90zM420 270h-200v-270h-180v680h180v-250h200v250h180v-680h-180v270z" />
    <glyph glyph-name="hcircumflex" unicode="&#x125;" horiz-adv-x="530" 
d="M0 0zM200 0h-170v700h170v-260h2q59 70 148 70q73 0 111.5 -46t38.5 -124v-340h-170v300q0 70 -60 70q-30 0 -70 -20v-350zM185 750l-70 48l-70 -48h-90l110 140h100l110 -140h-90z" />
    <glyph glyph-name="Hbar" unicode="&#x126;" horiz-adv-x="660" 
d="M-20 600h70v80h180v-80h200v80h180v-80h70v-100h-70v-500h-180v270h-200v-270h-180v500h-70v100zM230 430h200v70h-200v-70z" />
    <glyph glyph-name="hbar" unicode="&#x127;" horiz-adv-x="530" 
d="M300 540h-100v-100h2q59 70 148 70q73 0 111.5 -46t38.5 -124v-340h-170v300q0 70 -60 70q-30 0 -70 -20v-350h-170v540h-70v100h70v60h170v-60h100v-100z" />
    <glyph glyph-name="Itilde" unicode="&#x128;" horiz-adv-x="260" 
d="M69 755q-31 0 -62 -35l-52 40q21 56 51 83t59 27q27 0 72.5 -17.5t60.5 -17.5h5h6h5.5t6 0.5t6 1.5t6.5 2.5t6.5 3.5t7 4.5t8 6t8.5 7.5l42 -51q-42 -86 -107 -86q-19 0 -64.5 15.5t-64.5 15.5zM219 0h-180v680h180v-680z" />
    <glyph glyph-name="itilde" unicode="&#x129;" horiz-adv-x="230" 
d="M0 0zM30 0v500h170v-500h-170zM54 585q-31 0 -62 -35l-52 40q21 56 51 83t59 27q27 0 72.5 -17.5t60.5 -17.5h5h6h5.5t6 0.5t6 1.5t6.5 2.5t6.5 3.5t7 4.5t8 6t8.5 7.5l42 -51q-42 -86 -107 -86q-19 0 -64.5 15.5t-64.5 15.5z" />
    <glyph glyph-name="Imacron" unicode="&#x12a;" horiz-adv-x="260" 
d="M-40 850h340v-120h-340v120zM216 0h-180v680h180v-680z" />
    <glyph glyph-name="imacron" unicode="&#x12b;" horiz-adv-x="230" 
d="M30 0v500h170v-500h-170zM-55 680h340v-120h-340v120z" />
    <glyph glyph-name="Ibreve" unicode="&#x12c;" horiz-adv-x="260" 
d="M130 826q65 0 87 54h67q-18 -150 -154 -150t-154 150h67q22 -54 87 -54zM222 0h-180v680h180v-680z" />
    <glyph glyph-name="ibreve" unicode="&#x12d;" horiz-adv-x="230" 
d="M0 0zM30 0v500h170v-500h-170zM115 656q65 0 87 54h67q-18 -150 -154 -150t-154 150h67q22 -54 87 -54z" />
    <glyph glyph-name="Iogonek" unicode="&#x12e;" horiz-adv-x="260" 
d="M219 -137l5 -39q-37 -29 -100 -29q-51 0 -82.5 24t-31.5 60q0 69 86 121h-56v680h180v-680h-44q-53 -44 -53 -91q0 -25 16 -39t44 -14q18 0 36 7z" />
    <glyph glyph-name="iogonek" unicode="&#x12f;" horiz-adv-x="230" 
d="M30 0v500h170v-500h-34q-53 -44 -53 -91q0 -25 16 -39t44 -14q18 0 36 7l5 -39q-37 -29 -100 -29q-51 0 -82.5 24t-31.5 60q0 69 86 121h-56zM30 550v150h170v-150h-170z" />
    <glyph glyph-name="Idotaccent" unicode="&#x130;" horiz-adv-x="260" 
d="M55 730v140h150v-140h-150zM220 0h-180v680h180v-680z" />
    <glyph glyph-name="dotlessi" unicode="&#x131;" horiz-adv-x="230" 
d="M30 0v500h170v-500h-170z" />
    <glyph glyph-name="IJ" unicode="&#x132;" horiz-adv-x="630" 
d="M220 0h-180v680h180v-680zM410 201v479h180v-489q0 -102 -53 -151.5t-147 -49.5q-70 0 -120 10l15 150q30 -5 55 -5q70 0 70 56z" />
    <glyph glyph-name="ij" unicode="&#x133;" horiz-adv-x="460" 
d="M30 0v500h170v-500h-170zM30 550v150h170v-150h-170zM260 550v150h170v-150h-170zM260 -39v539h170v-550q0 -82 -35.5 -121t-134.5 -39q-45 0 -95 10l15 130q25 -5 40 -5q23 0 31.5 7t8.5 29z" />
    <glyph glyph-name="Jcircumflex" unicode="&#x134;" horiz-adv-x="370" 
d="M310 730l-70 48l-70 -48h-90l110 140h100l110 -140h-90zM150 201v479h180v-489q0 -102 -53 -151.5t-147 -49.5q-70 0 -120 10l15 150q30 -5 55 -5q70 0 70 56z" />
    <glyph glyph-name="jcircumflex" unicode="&#x135;" horiz-adv-x="270" 
d="M70 -39v539h170v-550q0 -82 -35.5 -121t-134.5 -39q-45 0 -95 10l15 130q25 -5 40 -5q23 0 31.5 7t8.5 29zM225 560l-70 48l-70 -48h-90l110 140h100l110 -140h-90z" />
    <glyph glyph-name="Kcommaaccent" unicode="&#x136;" horiz-adv-x="645" 
d="M261 -263l30 100h-70v130h170v-130l-80 -100h-50zM410 0l-135 245l-55 -76v-169h-180v680h180v-265l200 265h215l-229 -291l229 -389h-225z" />
    <glyph glyph-name="kcommaaccent" unicode="&#x137;" horiz-adv-x="560" 
d="M200 145v-145h-170v700h170v-345l135 145h205l-175 -188l185 -312h-200l-103 196zM230 -270l30 100h-70v130h170v-130l-80 -100h-50z" />
    <glyph glyph-name="kgreenlandic" unicode="&#x138;" horiz-adv-x="560" 
d="M200 145v-145h-170v500h170v-145l135 145h205l-175 -188l185 -312h-200l-103 196z" />
    <glyph glyph-name="Lacute" unicode="&#x139;" horiz-adv-x="540" 
d="M272 870l-100 -140h-90l50 140h140zM220 160h300v-160h-480v680h180v-520z" />
    <glyph glyph-name="lacute" unicode="&#x13a;" horiz-adv-x="230" 
d="M30 0zM30 0v700h170v-700h-170zM262 890l-100 -140h-90l50 140h140z" />
    <glyph glyph-name="Lcommaaccent" unicode="&#x13b;" horiz-adv-x="540" 
d="M221 -262l30 100h-70v130h170v-130l-80 -100h-50zM220 160h300v-160h-480v680h180v-520z" />
    <glyph glyph-name="lcommaaccent" unicode="&#x13c;" horiz-adv-x="230" 
d="M30 0v700h170v-700h-170zM70 -270l30 100h-70v130h170v-130l-80 -100h-50z" />
    <glyph glyph-name="Lcaron" unicode="&#x13d;" horiz-adv-x="540" 
d="M345 450l30 100h-70v130h170v-130l-80 -100h-50zM220 160h300v-160h-480v680h180v-520z" />
    <glyph glyph-name="lcaron" unicode="&#x13e;" horiz-adv-x="300" 
d="M30 0v700h170v-700h-170zM280 470l30 100h-70v130h170v-130l-80 -100h-50z" />
    <glyph glyph-name="Ldot" unicode="&#x13f;" horiz-adv-x="540" 
d="M290 310v140h150v-140h-150zM220 160h300v-160h-480v680h180v-520z" />
    <glyph glyph-name="ldot" unicode="&#x140;" horiz-adv-x="430" 
d="M30 0v700h170v-700h-170zM250 290v140h150v-140h-150z" />
    <glyph glyph-name="Lslash" unicode="&#x141;" horiz-adv-x="550" 
d="M230 160h300v-160h-480v311l-70 -16v100l70 16v269h180v-228l100 23v-100l-100 -23v-192z" />
    <glyph glyph-name="lslash" unicode="&#x142;" horiz-adv-x="270" 
d="M290 355l-70 -18v-337h-170v293l-70 -18v100l70 18v307h170v-263l70 18v-100z" />
    <glyph glyph-name="Nacute" unicode="&#x143;" horiz-adv-x="650" 
d="M468 870l-100 -140h-90l50 140h140zM610 0h-190l-203 330h-2v-330h-175v680h180l213 -350h2v350h175v-680z" />
    <glyph glyph-name="nacute" unicode="&#x144;" horiz-adv-x="530" 
d="M200 0h-170v500h170v-60h2q59 70 148 70q73 0 111.5 -46t38.5 -124v-340h-170v300q0 70 -60 70q-30 0 -70 -20v-350zM401 700l-100 -140h-90l50 140h140z" />
    <glyph glyph-name="Ncommaaccent" unicode="&#x145;" horiz-adv-x="650" 
d="M289 -270l30 100h-70v130h170v-130l-80 -100h-50zM610 0h-190l-203 330h-2v-330h-175v680h180l213 -350h2v350h175v-680z" />
    <glyph glyph-name="ncommaaccent" unicode="&#x146;" horiz-adv-x="530" 
d="M200 0h-170v500h170v-60h2q59 70 148 70q73 0 111.5 -46t38.5 -124v-340h-170v300q0 70 -60 70q-30 0 -70 -20v-350zM223 -270l30 100h-70v130h170v-130l-80 -100h-50z" />
    <glyph glyph-name="Ncaron" unicode="&#x147;" horiz-adv-x="650" 
d="M333 822l70 48h90l-110 -140h-100l-110 140h90zM610 0h-190l-203 330h-2v-330h-175v680h180l213 -350h2v350h175v-680z" />
    <glyph glyph-name="ncaron" unicode="&#x148;" horiz-adv-x="530" 
d="M200 0h-170v500h170v-60h2q59 70 148 70q73 0 111.5 -46t38.5 -124v-340h-170v300q0 70 -60 70q-30 0 -70 -20v-350zM267 652l70 48h90l-110 -140h-100l-110 140h90z" />
    <glyph glyph-name="napostrophe" unicode="&#x149;" horiz-adv-x="530" 
d="M200 0h-170v500h170v-60h2q59 70 148 70q73 0 111.5 -46t38.5 -124v-340h-170v300q0 70 -60 70q-30 0 -70 -20v-350zM88 551l30 100h-70v130h170v-130l-80 -100h-50z" />
    <glyph glyph-name="Eng" unicode="&#x14a;" horiz-adv-x="650" 
d="M430 0l-218 350h-2v-350h-170v680h180l218 -350h2v350h170v-690q0 -200 -190 -200q-80 0 -130 10l15 150q30 -5 55 -5q70 0 70 55z" />
    <glyph glyph-name="eng" unicode="&#x14b;" horiz-adv-x="530" 
d="M330 -29v329q0 70 -60 70q-30 0 -70 -20v-350h-170v500h170v-60h2q59 70 148 70q73 0 111.5 -46t38.5 -124v-370q0 -85 -36.5 -132.5t-133.5 -47.5q-45 0 -95 10l15 130q25 -5 40 -5q40 0 40 46z" />
    <glyph glyph-name="Omacron" unicode="&#x14c;" horiz-adv-x="690" 
d="M178 850h340v-120h-340v120zM345 540q-74 0 -99.5 -46.5t-25.5 -148.5q0 -104 25.5 -154.5t99.5 -50.5t99.5 50.5t25.5 154.5q0 102 -25.5 148.5t-99.5 46.5zM345 -10q-315 0 -315 355q0 77 15 136.5t50 108t98 74.5t152 26t152 -26t98 -74.5t50 -108t15 -136.5
q0 -355 -315 -355z" />
    <glyph glyph-name="omacron" unicode="&#x14d;" horiz-adv-x="550" 
d="M20 0zM275 370q-43 0 -59 -28.5t-16 -91.5t16 -91.5t59 -28.5t59 28.5t16 91.5t-16 91.5t-59 28.5zM275 -10q-255 0 -255 260t255 260t255 -260t-255 -260zM105 680h340v-120h-340v120z" />
    <glyph glyph-name="Obreve" unicode="&#x14e;" horiz-adv-x="690" 
d="M345 826q65 0 87 54h67q-18 -150 -154 -150t-154 150h67q22 -54 87 -54zM345 540q-74 0 -99.5 -46.5t-25.5 -148.5q0 -104 25.5 -154.5t99.5 -50.5t99.5 50.5t25.5 154.5q0 102 -25.5 148.5t-99.5 46.5zM345 -10q-315 0 -315 355q0 77 15 136.5t50 108t98 74.5t152 26
t152 -26t98 -74.5t50 -108t15 -136.5q0 -355 -315 -355z" />
    <glyph glyph-name="obreve" unicode="&#x14f;" horiz-adv-x="550" 
d="M20 0zM275 370q-43 0 -59 -28.5t-16 -91.5t16 -91.5t59 -28.5t59 28.5t16 91.5t-16 91.5t-59 28.5zM275 -10q-255 0 -255 260t255 260t255 -260t-255 -260zM272 656q65 0 87 54h67q-18 -150 -154 -150t-154 150h67q22 -54 87 -54z" />
    <glyph glyph-name="Ohungarumlaut" unicode="&#x150;" horiz-adv-x="690" 
d="M401 870l-100 -140h-90l50 140h140zM571 870l-100 -140h-90l50 140h140zM345 540q-74 0 -99.5 -46.5t-25.5 -148.5q0 -104 25.5 -154.5t99.5 -50.5t99.5 50.5t25.5 154.5q0 102 -25.5 148.5t-99.5 46.5zM345 -10q-315 0 -315 355q0 77 15 136.5t50 108t98 74.5t152 26
t152 -26t98 -74.5t50 -108t15 -136.5q0 -355 -315 -355z" />
    <glyph glyph-name="ohungarumlaut" unicode="&#x151;" horiz-adv-x="550" 
d="M275 370q-43 0 -59 -28.5t-16 -91.5t16 -91.5t59 -28.5t59 28.5t16 91.5t-16 91.5t-59 28.5zM275 -10q-255 0 -255 260t255 260t255 -260t-255 -260zM321 700l-100 -140h-90l50 140h140zM491 700l-100 -140h-90l50 140h140z" />
    <glyph glyph-name="OE" unicode="&#x152;" horiz-adv-x="985" 
d="M955 0h-514q-47 -10 -96 -10q-315 0 -315 355q0 77 15 136.5t50 108t98 74.5t152 26q50 0 98 -10h507v-160h-305v-90h260v-160h-260v-110h310v-160zM345 540q-74 0 -99.5 -46.5t-25.5 -148.5q0 -104 25.5 -154.5t99.5 -50.5t99.5 50.5t25.5 154.5q0 102 -25.5 148.5
t-99.5 46.5z" />
    <glyph glyph-name="oe" unicode="&#x153;" horiz-adv-x="861" 
d="M621 510q79 0 129.5 -23.5t70 -64.5t24.5 -95.5t-6 -116.5h-303q4 -38 32.5 -59t77.5 -21q85 0 155 20l20 -135q-87 -25 -200 -25q-114 0 -179 43q-61 -43 -167 -43q-255 0 -255 260t255 260q104 0 167 -44q64 44 179 44zM275 370q-43 0 -59 -28.5t-16 -91.5t16 -91.5
t59 -28.5t59 28.5t16 91.5t-16 91.5t-59 28.5zM536 315h135q4 33 -8.5 49t-51.5 16q-68 0 -75 -65z" />
    <glyph glyph-name="Racute" unicode="&#x154;" horiz-adv-x="615" 
d="M432 870l-100 -140h-90l50 140h140zM395 0l-123 220h-52v-220h-180v680h300q113 0 176.5 -60.5t63.5 -169.5q0 -151 -120 -200l145 -250h-210zM220 520v-140h100q35 0 55 14.5t20 55.5t-20 55.5t-55 14.5h-100z" />
    <glyph glyph-name="racute" unicode="&#x155;" horiz-adv-x="370" 
d="M30 0zM200 0h-170v500h170v-80h2q19 37 60.5 63.5t97.5 26.5v-160q-110 0 -160 -20v-330zM259 700l-100 -140h-90l50 140h140z" />
    <glyph glyph-name="Rcommaaccent" unicode="&#x156;" horiz-adv-x="615" 
d="M261 -264l30 100h-70v130h170v-130l-80 -100h-50zM395 0l-123 220h-52v-220h-180v680h300q113 0 176.5 -60.5t63.5 -169.5q0 -151 -120 -200l145 -250h-210zM220 520v-140h100q35 0 55 14.5t20 55.5t-20 55.5t-55 14.5h-100z" />
    <glyph glyph-name="rcommaaccent" unicode="&#x157;" horiz-adv-x="370" 
d="M200 0h-170v500h170v-80h2q19 37 60.5 63.5t97.5 26.5v-160q-110 0 -160 -20v-330zM70 -270l30 100h-70v130h170v-130l-80 -100h-50z" />
    <glyph glyph-name="Rcaron" unicode="&#x158;" horiz-adv-x="615" 
d="M293 822l70 48h90l-110 -140h-100l-110 140h90zM395 0l-123 220h-52v-220h-180v680h300q113 0 176.5 -60.5t63.5 -169.5q0 -151 -120 -200l145 -250h-210zM220 520v-140h100q35 0 55 14.5t20 55.5t-20 55.5t-55 14.5h-100z" />
    <glyph glyph-name="rcaron" unicode="&#x159;" horiz-adv-x="370" 
d="M200 0h-170v500h170v-80h2q19 37 60.5 63.5t97.5 26.5v-160q-110 0 -160 -20v-330zM200 652l70 48h90l-110 -140h-100l-110 140h90z" />
    <glyph glyph-name="Sacute" unicode="&#x15a;" 
d="M439 870l-100 -140h-90l50 140h140zM300 150q80 0 80 45q0 13 -6 22.5t-22 16.5t-28 11t-42.5 12t-46.5 13q-195 58 -195 220q0 102 73 151t187 49q117 0 250 -40l-40 -150q-132 30 -210 30q-31 0 -50.5 -11.5t-19.5 -33.5q0 -23 27.5 -35t96.5 -28q7 -1 11 -2
q205 -48 205 -210q0 -111 -75 -165.5t-195 -54.5q-137 0 -270 40l30 150q132 -30 240 -30z" />
    <glyph glyph-name="sacute" unicode="&#x15b;" horiz-adv-x="480" 
d="M235 125q60 0 60 23q0 5 -3 8.5t-10 5.5t-12.5 3t-17 2.5t-17.5 2.5q-101 17 -155.5 56.5t-54.5 123.5q0 160 210 160q120 0 220 -25l-30 -135q-106 25 -180 25q-50 0 -50 -20q0 -3 0.5 -4.5t2 -3.5t3 -3t4.5 -2.5t5.5 -2.5t8 -2t9 -2t10.5 -2.5t12 -2.5q95 -22 126 -37
q89 -42 89 -133q0 -87 -56 -128.5t-154 -41.5q-140 0 -240 25l30 135q106 -25 190 -25zM384 700l-100 -140h-90l50 140h140z" />
    <glyph glyph-name="Scircumflex" unicode="&#x15c;" 
d="M379 730l-70 48l-70 -48h-90l110 140h100l110 -140h-90zM300 150q80 0 80 45q0 13 -6 22.5t-22 16.5t-28 11t-42.5 12t-46.5 13q-195 58 -195 220q0 102 73 151t187 49q117 0 250 -40l-40 -150q-132 30 -210 30q-31 0 -50.5 -11.5t-19.5 -33.5q0 -23 27.5 -35t96.5 -28
q7 -1 11 -2q205 -48 205 -210q0 -111 -75 -165.5t-195 -54.5q-137 0 -270 40l30 150q132 -30 240 -30z" />
    <glyph glyph-name="scircumflex" unicode="&#x15d;" horiz-adv-x="480" 
d="M235 125q60 0 60 23q0 5 -3 8.5t-10 5.5t-12.5 3t-17 2.5t-17.5 2.5q-101 17 -155.5 56.5t-54.5 123.5q0 160 210 160q120 0 220 -25l-30 -135q-106 25 -180 25q-50 0 -50 -20q0 -3 0.5 -4.5t2 -3.5t3 -3t4.5 -2.5t5.5 -2.5t8 -2t9 -2t10.5 -2.5t12 -2.5q95 -22 126 -37
q89 -42 89 -133q0 -87 -56 -128.5t-154 -41.5q-140 0 -240 25l30 135q106 -25 190 -25zM316 560l-70 48l-70 -48h-90l110 140h100l110 -140h-90z" />
    <glyph glyph-name="Scedilla" unicode="&#x15e;" 
d="M255 -80v71q-121 7 -225 39l30 150q132 -30 240 -30q80 0 80 45q0 13 -6 22.5t-22 16.5t-28 11t-42.5 12t-46.5 13q-195 58 -195 220q0 102 73 151t187 49q117 0 250 -40l-40 -150q-132 30 -210 30q-31 0 -50.5 -11.5t-19.5 -33.5q0 -23 27.5 -35t96.5 -28q7 -1 11 -2
q205 -48 205 -210q0 -107 -70 -161.5t-185 -58.5v-40q83 -14 83 -74q0 -38 -28 -59.5t-79 -21.5q-47 0 -87 12l9 52q21 -4 43 -4q39 0 39 30q0 23 -40 35z" />
    <glyph glyph-name="scedilla" unicode="&#x15f;" horiz-adv-x="480" 
d="M204 -80v71q-112 5 -189 24l30 135q106 -25 190 -25q60 0 60 23q0 5 -3 8.5t-10 5.5t-12.5 3t-17 2.5t-17.5 2.5q-101 17 -155.5 56.5t-54.5 123.5q0 160 210 160q120 0 220 -25l-30 -135q-106 25 -180 25q-50 0 -50 -20q0 -3 0.5 -4.5t2 -3.5t3 -3t4.5 -2.5t5.5 -2.5
t8 -2t9 -2t10.5 -2.5t12 -2.5q95 -22 126 -37q89 -42 89 -133q0 -84 -53.5 -126t-147.5 -44v-40q83 -14 83 -74q0 -38 -28 -59.5t-79 -21.5q-46 0 -87 12l9 52q21 -4 43 -4q39 0 39 30q0 23 -40 35z" />
    <glyph glyph-name="Scaron" unicode="&#x160;" 
d="M300 822l70 48h90l-110 -140h-100l-110 140h90zM300 150q80 0 80 45q0 13 -6 22.5t-22 16.5t-28 11t-42.5 12t-46.5 13q-195 58 -195 220q0 102 73 151t187 49q117 0 250 -40l-40 -150q-132 30 -210 30q-31 0 -50.5 -11.5t-19.5 -33.5q0 -23 27.5 -35t96.5 -28
q7 -1 11 -2q205 -48 205 -210q0 -111 -75 -165.5t-195 -54.5q-137 0 -270 40l30 150q132 -30 240 -30z" />
    <glyph glyph-name="scaron" unicode="&#x161;" horiz-adv-x="480" 
d="M15 0zM235 125q60 0 60 23q0 5 -3 8.5t-10 5.5t-12.5 3t-17 2.5t-17.5 2.5q-101 17 -155.5 56.5t-54.5 123.5q0 160 210 160q120 0 220 -25l-30 -135q-106 25 -180 25q-50 0 -50 -20q0 -3 0.5 -4.5t2 -3.5t3 -3t4.5 -2.5t5.5 -2.5t8 -2t9 -2t10.5 -2.5t12 -2.5
q95 -22 126 -37q89 -42 89 -133q0 -87 -56 -128.5t-154 -41.5q-140 0 -240 25l30 135q106 -25 190 -25zM249 652l70 48h90l-110 -140h-100l-110 140h90z" />
    <glyph glyph-name="Tcommaaccent" unicode="&#x162;" horiz-adv-x="560" 
d="M235 -270l30 100h-70v130h170v-130l-80 -100h-50zM540 520h-170v-520h-180v520h-170v160h520v-160z" />
    <glyph glyph-name="tcommaaccent" unicode="&#x163;" horiz-adv-x="375" 
d="M240 380v-209q0 -46 60 -46q15 0 40 5l15 -130q-50 -10 -115 -10q-91 0 -130.5 37t-39.5 114v239h-60v110l60 10l20 140h150v-140h110v-120h-110zM128 -270l30 100h-70v130h170v-130l-80 -100h-50z" />
    <glyph glyph-name="Tcaron" unicode="&#x164;" horiz-adv-x="560" 
d="M282 822l70 48h90l-110 -140h-100l-110 140h90zM540 520h-170v-520h-180v520h-170v160h520v-160z" />
    <glyph glyph-name="tcaron" unicode="&#x165;" horiz-adv-x="375" 
d="M240 380v-209q0 -46 60 -46q15 0 40 5l15 -130q-50 -10 -115 -10q-91 0 -130.5 37t-39.5 114v239h-60v110l60 10l20 140h150v-140h110v-120h-110zM320 540l30 100h-70v130h170v-130l-80 -100h-50z" />
    <glyph glyph-name="Tbar" unicode="&#x166;" horiz-adv-x="560" 
d="M440 220h-70v-220h-180v220h-70v100h70v200h-170v160h520v-160h-170v-200h70v-100z" />
    <glyph glyph-name="tbar" unicode="&#x167;" horiz-adv-x="375" 
d="M70 220h-60v100h60v60h-60v110l60 10l20 140h150v-140h110v-120h-110v-60h100v-100h-100v-49q0 -46 60 -46q15 0 40 5l15 -130q-50 -10 -115 -10q-91 0 -130.5 37t-39.5 114v79z" />
    <glyph glyph-name="Utilde" unicode="&#x168;" horiz-adv-x="640" 
d="M260 755q-31 0 -62 -35l-52 40q21 56 51 83t59 27q27 0 72.5 -17.5t60.5 -17.5h5h6h5.5t6 0.5t6 1.5t6.5 2.5t6.5 3.5t7 4.5t8 6t8.5 7.5l42 -51q-42 -86 -107 -86q-19 0 -64.5 15.5t-64.5 15.5zM40 240v440h180v-440q0 -52 24 -76t76 -24t76 24t24 76v440h180v-440
q0 -128 -76 -189t-204 -61t-204 61t-76 189z" />
    <glyph glyph-name="utilde" unicode="&#x169;" horiz-adv-x="530" 
d="M30 0zM330 500h170v-500h-170v60h-2q-59 -70 -148 -70q-73 0 -111.5 46t-38.5 124v340h170v-300q0 -70 60 -70q30 0 70 20v350zM202 585q-31 0 -62 -35l-52 40q21 56 51 83t59 27q27 0 72.5 -17.5t60.5 -17.5h5h6h5.5t6 0.5t6 1.5t6.5 2.5t6.5 3.5t7 4.5t8 6t8.5 7.5
l42 -51q-42 -86 -107 -86q-19 0 -64.5 15.5t-64.5 15.5z" />
    <glyph glyph-name="Umacron" unicode="&#x16a;" horiz-adv-x="640" 
d="M150 850h340v-120h-340v120zM40 240v440h180v-440q0 -52 24 -76t76 -24t76 24t24 76v440h180v-440q0 -128 -76 -189t-204 -61t-204 61t-76 189z" />
    <glyph glyph-name="umacron" unicode="&#x16b;" horiz-adv-x="530" 
d="M30 0zM330 500h170v-500h-170v60h-2q-59 -70 -148 -70q-73 0 -111.5 46t-38.5 124v340h170v-300q0 -70 60 -70q30 0 70 20v350zM95 680h340v-120h-340v120z" />
    <glyph glyph-name="Ubreve" unicode="&#x16c;" horiz-adv-x="640" 
d="M321 826q65 0 87 54h67q-18 -150 -154 -150t-154 150h67q22 -54 87 -54zM40 240v440h180v-440q0 -52 24 -76t76 -24t76 24t24 76v440h180v-440q0 -128 -76 -189t-204 -61t-204 61t-76 189z" />
    <glyph glyph-name="ubreve" unicode="&#x16d;" horiz-adv-x="530" 
d="M30 0zM330 500h170v-500h-170v60h-2q-59 -70 -148 -70q-73 0 -111.5 46t-38.5 124v340h170v-300q0 -70 60 -70q30 0 70 20v350zM263 656q65 0 87 54h67q-18 -150 -154 -150t-154 150h67q22 -54 87 -54z" />
    <glyph glyph-name="Uring" unicode="&#x16e;" horiz-adv-x="640" 
d="M222 820q0 41 29.5 70.5t70.5 29.5t70.5 -29.5t29.5 -70.5t-29.5 -70.5t-70.5 -29.5t-70.5 29.5t-29.5 70.5zM283 820q0 -16 11.5 -27.5t27.5 -11.5t27.5 11.5t11.5 27.5t-11.5 27.5t-27.5 11.5t-27.5 -11.5t-11.5 -27.5zM40 240v440h180v-440q0 -52 24 -76t76 -24t76 24
t24 76v440h180v-440q0 -128 -76 -189t-204 -61t-204 61t-76 189z" />
    <glyph glyph-name="uring" unicode="&#x16f;" horiz-adv-x="530" 
d="M330 500h170v-500h-170v60h-2q-59 -70 -148 -70q-73 0 -111.5 46t-38.5 124v340h170v-300q0 -70 60 -70q30 0 70 20v350zM165 650q0 41 29.5 70.5t70.5 29.5t70.5 -29.5t29.5 -70.5t-29.5 -70.5t-70.5 -29.5t-70.5 29.5t-29.5 70.5zM226 650q0 -16 11 -27.5t28 -11.5
t28 11.5t11 27.5t-11 27.5t-28 11.5t-28 -11.5t-11 -27.5z" />
    <glyph glyph-name="Uhungarumlaut" unicode="&#x170;" horiz-adv-x="640" 
d="M373 870l-100 -140h-90l50 140h140zM543 870l-100 -140h-90l50 140h140zM40 240v440h180v-440q0 -52 24 -76t76 -24t76 24t24 76v440h180v-440q0 -128 -76 -189t-204 -61t-204 61t-76 189z" />
    <glyph glyph-name="uhungarumlaut" unicode="&#x171;" horiz-adv-x="530" 
d="M330 500h170v-500h-170v60h-2q-59 -70 -148 -70q-73 0 -111.5 46t-38.5 124v340h170v-300q0 -70 60 -70q30 0 70 20v350zM322 700l-100 -140h-90l50 140h140zM492 700l-100 -140h-90l50 140h140z" />
    <glyph glyph-name="Uogonek" unicode="&#x172;" horiz-adv-x="640" 
d="M406 -137l5 -39q-37 -29 -100 -29q-51 0 -82.5 24t-31.5 60q0 64 74 114q-107 10 -169 70.5t-62 176.5v440h180v-440q0 -52 24 -76t76 -24t76 24t24 76v440h180v-440q0 -120 -66.5 -181t-181.5 -68q-42 -39 -42 -82q0 -25 16 -39t44 -14q18 0 36 7z" />
    <glyph glyph-name="uogonek" unicode="&#x173;" horiz-adv-x="530" 
d="M495 -137l5 -39q-37 -29 -100 -29q-51 0 -82.5 24t-31.5 60q0 69 86 121h-42v60h-2q-59 -70 -148 -70q-73 0 -111.5 46t-38.5 124v340h170v-300q0 -70 60 -70q30 0 70 20v350h170v-500h-48q-53 -44 -53 -91q0 -25 16 -39t44 -14q18 0 36 7z" />
    <glyph glyph-name="Wcircumflex" unicode="&#x174;" horiz-adv-x="940" 
d="M539 730l-70 48l-70 -48h-90l110 140h100l110 -140h-90zM471 390h-2l-74 -395h-230l-155 685h200l79 -460h1l80 460h210l84 -460h1l75 460h190l-155 -685h-230z" />
    <glyph glyph-name="wcircumflex" unicode="&#x175;" horiz-adv-x="790" 
d="M395 240h-2l-53 -245h-190l-140 505h190l63 -320h2l52 320h165l58 -320h2l58 320h180l-140 -505h-190zM464 560l-70 48l-70 -48h-90l110 140h100l110 -140h-90z" />
    <glyph glyph-name="Ycircumflex" unicode="&#x176;" horiz-adv-x="620" 
d="M383 730l-70 48l-70 -48h-90l110 140h100l110 -140h-90zM314 420h2l99 260h195l-210 -440v-240h-180v240l-210 440h205z" />
    <glyph glyph-name="ycircumflex" unicode="&#x177;" horiz-adv-x="560" 
d="M10 0zM185 -5l-175 505h190l83 -320h2l85 320h180l-165 -505q-37 -115 -93 -160t-152 -45q-55 0 -105 10l15 140q25 -5 50 -5q67 0 85 60zM355 560l-70 48l-70 -48h-90l110 140h100l110 -140h-90z" />
    <glyph glyph-name="Ydieresis" unicode="&#x178;" horiz-adv-x="620" 
d="M277 870v-140h-150v140h150zM507 870v-140h-150v140h150zM314 420h2l99 260h195l-210 -440v-240h-180v240l-210 440h205z" />
    <glyph glyph-name="Zacute" unicode="&#x179;" horiz-adv-x="560" 
d="M420 870l-100 -140h-90l50 140h140zM270 162v-2h270v-160h-520v130l265 388v2h-245v160h490v-130z" />
    <glyph glyph-name="zacute" unicode="&#x17a;" horiz-adv-x="470" 
d="M10 0zM445 500v-120l-215 -248v-2h230v-130h-450v120l220 248v2h-205v130h420zM371 700l-100 -140h-90l50 140h140z" />
    <glyph glyph-name="Zdotaccent" unicode="&#x17b;" horiz-adv-x="560" 
d="M203 730v140h150v-140h-150zM270 162v-2h270v-160h-520v130l265 388v2h-245v160h490v-130z" />
    <glyph glyph-name="zdotaccent" unicode="&#x17c;" horiz-adv-x="470" 
d="M445 500v-120l-215 -248v-2h230v-130h-450v120l220 248v2h-205v130h420zM167 560v140h150v-140h-150z" />
    <glyph glyph-name="Zcaron" unicode="&#x17d;" horiz-adv-x="560" 
d="M289 822l70 48h90l-110 -140h-100l-110 140h90zM270 162v-2h270v-160h-520v130l265 388v2h-245v160h490v-130z" />
    <glyph glyph-name="zcaron" unicode="&#x17e;" horiz-adv-x="470" 
d="M10 0zM445 500v-120l-215 -248v-2h230v-130h-450v120l220 248v2h-205v130h420zM252 652l70 48h90l-110 -140h-100l-110 140h90z" />
    <glyph glyph-name="longs" unicode="&#x17f;" horiz-adv-x="335" 
d="M70 -29v578q0 77 39.5 114t130.5 37q45 0 95 -10l-15 -130q-25 5 -40 5q-40 0 -40 -46v-549q0 -85 -36.5 -132.5t-133.5 -47.5q-45 0 -95 10l15 130q25 -5 40 -5q40 0 40 46z" />
    <glyph glyph-name="florin" unicode="&#x192;" horiz-adv-x="460" 
d="M145 -29v409h-60v110l60 10v49q0 77 39.5 114t130.5 37q45 0 95 -10l-15 -130q-25 5 -40 5q-40 0 -40 -46v-19h90v-120h-90v-410q0 -85 -36.5 -132.5t-133.5 -47.5q-45 0 -95 10l15 130q25 -5 40 -5q40 0 40 46z" />
    <glyph glyph-name="AEacute" unicode="&#x1fc;" horiz-adv-x="926" 
d="M649 870l-100 -140h-90l50 140h140zM189 0h-179l306 680h575v-160h-305v-90h260v-160h-260v-110h310v-160h-490v135h-165zM406 519h-2l-103 -244h105v244z" />
    <glyph glyph-name="aeacute" unicode="&#x1fd;" horiz-adv-x="815" 
d="M544 700l-100 -140h-90l50 140h140zM575 510q79 0 129.5 -23.5t70 -64.5t24.5 -95.5t-6 -116.5h-303q4 -38 32.5 -59t77.5 -21q85 0 155 20l20 -135q-87 -25 -200 -25q-52 0 -100 10h-1q-84 20 -127 82q-47 -54 -89.5 -73t-92.5 -19q-72 0 -111 46t-39 114q0 47 21 80.5
t55 49.5t67 23t67 7h80v20q0 25 -18.5 32.5t-61.5 7.5q-62 0 -155 -20l-25 135q125 25 220 25q104 0 153 -31q60 31 157 31zM305 140v70h-70q-50 0 -50 -45q0 -24 15.5 -34.5t34.5 -10.5q43 0 70 20zM490 315h135q4 33 -8.5 49t-51.5 16q-68 0 -75 -65z" />
    <glyph glyph-name="Oslashacute" unicode="&#x1fe;" horiz-adv-x="690" 
d="M487 870l-100 -140h-90l50 140h140zM345 -10q-123 0 -199 54l-66 -84l-50 40l70 88q-70 87 -70 257q0 77 15 136.5t50 108t98 74.5t152 26q118 0 193 -48l71 90l50 -40l-73 -92q74 -83 74 -255q0 -355 -315 -355zM470 345q0 62 -8 99l-209 -265q29 -39 92 -39
q74 0 99.5 50.5t25.5 154.5zM345 540q-74 0 -99.5 -46.5t-25.5 -148.5q0 -63 6 -97l207 261q-29 31 -88 31z" />
    <glyph glyph-name="oslashacute" unicode="&#x1ff;" horiz-adv-x="550" 
d="M421 700l-100 -140h-90l50 140h140zM275 -10q-91 0 -151 33l-54 -63l-50 40l54 64q-54 64 -54 186q0 260 255 260q92 0 151 -34l54 64l50 -40l-55 -64q55 -65 55 -186q0 -260 -255 -260zM350 250q0 15 -2 37l-121 -143q17 -14 48 -14q43 0 59 28.5t16 91.5zM275 370
q-43 0 -59 -28.5t-16 -91.5q0 -26 1 -37l121 142q-16 15 -47 15z" />
    <glyph glyph-name="Scommaaccent" unicode="&#x218;" 
d="M256 -270l30 100h-70v130h170v-130l-80 -100h-50zM300 150q80 0 80 45q0 13 -6 22.5t-22 16.5t-28 11t-42.5 12t-46.5 13q-195 58 -195 220q0 102 73 151t187 49q117 0 250 -40l-40 -150q-132 30 -210 30q-31 0 -50.5 -11.5t-19.5 -33.5q0 -23 27.5 -35t96.5 -28
q7 -1 11 -2q205 -48 205 -210q0 -111 -75 -165.5t-195 -54.5q-137 0 -270 40l30 150q132 -30 240 -30z" />
    <glyph glyph-name="scommaaccent" unicode="&#x219;" horiz-adv-x="480" 
d="M235 125q60 0 60 23q0 5 -3 8.5t-10 5.5t-12.5 3t-17 2.5t-17.5 2.5q-101 17 -155.5 56.5t-54.5 123.5q0 160 210 160q120 0 220 -25l-30 -135q-106 25 -180 25q-50 0 -50 -20q0 -3 0.5 -4.5t2 -3.5t3 -3t4.5 -2.5t5.5 -2.5t8 -2t9 -2t10.5 -2.5t12 -2.5q95 -22 126 -37
q89 -42 89 -133q0 -87 -56 -128.5t-154 -41.5q-140 0 -240 25l30 135q106 -25 190 -25zM199 -270l30 100h-70v130h170v-130l-80 -100h-50z" />
    <glyph glyph-name="uni021A" unicode="&#x21a;" horiz-adv-x="560" 
d="M234 -267l30 100h-70v130h170v-130l-80 -100h-50zM540 520h-170v-520h-180v520h-170v160h520v-160z" />
    <glyph glyph-name="uni021B" unicode="&#x21b;" horiz-adv-x="375" 
d="M240 380v-209q0 -46 60 -46q15 0 40 5l15 -130q-50 -10 -115 -10q-91 0 -130.5 37t-39.5 114v239h-60v110l60 10l20 140h150v-140h110v-120h-110zM149 -272l30 100h-70v130h170v-130l-80 -100h-50z" />
    <glyph glyph-name="circumflex" unicode="&#x2c6;" horiz-adv-x="420" 
d="M280 560l-70 48l-70 -48h-90l110 140h100l110 -140h-90z" />
    <glyph glyph-name="caron" unicode="&#x2c7;" horiz-adv-x="420" 
d="M210 652l70 48h90l-110 -140h-100l-110 140h90z" />
    <glyph glyph-name="uni02C9" unicode="&#x2c9;" horiz-adv-x="440" 
d="M50 680h340v-120h-340v120z" />
    <glyph glyph-name="breve" unicode="&#x2d8;" horiz-adv-x="408" 
d="M204 656q65 0 87 54h67q-18 -150 -154 -150t-154 150h67q22 -54 87 -54z" />
    <glyph glyph-name="dotaccent" unicode="&#x2d9;" horiz-adv-x="250" 
d="M50 560v140h150v-140h-150z" />
    <glyph glyph-name="ring" unicode="&#x2da;" horiz-adv-x="300" 
d="M50 650q0 41 29.5 70.5t70.5 29.5t70.5 -29.5t29.5 -70.5t-29.5 -70.5t-70.5 -29.5t-70.5 29.5t-29.5 70.5zM111 650q0 -16 11.5 -27.5t27.5 -11.5t27.5 11.5t11.5 27.5t-11.5 27.5t-27.5 11.5t-27.5 -11.5t-11.5 -27.5z" />
    <glyph glyph-name="ogonek" unicode="&#x2db;" horiz-adv-x="314" 
d="M259 -137l5 -39q-37 -29 -100 -29q-51 0 -82.5 24t-31.5 60q0 69 86 121h80q-53 -44 -53 -91q0 -25 16 -39t44 -14q18 0 36 7z" />
    <glyph glyph-name="tilde" unicode="&#x2dc;" horiz-adv-x="450" 
d="M164 585q-31 0 -62 -35l-52 40q21 56 51 83t59 27q27 0 72.5 -17.5t60.5 -17.5h5h6h5.5t6 0.5t6 1.5t6.5 2.5t6.5 3.5t7 4.5t8 6t8.5 7.5l42 -51q-42 -86 -107 -86q-19 0 -64.5 15.5t-64.5 15.5z" />
    <glyph glyph-name="hungarumlaut" unicode="&#x2dd;" horiz-adv-x="460" 
d="M240 700l-100 -140h-90l50 140h140zM410 700l-100 -140h-90l50 140h140z" />
    <glyph glyph-name="uni037E" unicode="&#x37e;" horiz-adv-x="230" 
d="M30 170v160h170v-160h-170z" />
    <glyph glyph-name="tonos" unicode="&#x384;" horiz-adv-x="290" 
d="M240 680l-100 -140h-90l50 140h140z" />
    <glyph glyph-name="dieresistonos" unicode="&#x385;" horiz-adv-x="630" 
d="M420 730l-110 -170h-90l50 170h150zM200 700v-140h-150v140h150zM580 700v-140h-150v140h150z" />
    <glyph glyph-name="anoteleia" unicode="&#x387;" horiz-adv-x="480" 
d="M200 700v-140h-150v140h150zM430 700v-140h-150v140h150z" />
    <glyph glyph-name="uni03BC" unicode="&#x3bc;" horiz-adv-x="530" 
d="M30 -29v529h170v-300q0 -70 60 -70q30 0 70 20v350h170v-500h-170v60h-2q-52 -62 -128 -69v-21q0 -85 -36.5 -132.5t-133.5 -47.5q-45 0 -95 10l15 130q25 -5 40 -5q40 0 40 46z" />
    <glyph glyph-name="pi" unicode="&#x3c0;" horiz-adv-x="530" 
d="M200 0h-170v500h470v-500h-170v350h-130v-350z" />
    <glyph glyph-name="uni03C2" unicode="&#x3c2;" horiz-adv-x="513" 
d="M100 249q0 68 48 114l-78 90l8 8l79 -90q44 36 100 36q55 0 99 -36l78 90l9 -8l-78 -89q50 -47 50 -115t-49 -114l76 -86l-9 -9l-77 87q-43 -35 -99 -35q-57 0 -100 35l-76 -87l-9 9l76 86q-48 46 -48 114zM112 249q0 -59 43 -102t102 -43t102.5 43t43.5 102t-43.5 102.5
t-102.5 43.5t-102 -43.5t-43 -102.5z" />
    <glyph glyph-name="sigma" unicode="&#x3c3;" horiz-adv-x="513" 
d="M100 249q0 68 48 114l-78 90l8 8l79 -90q44 36 100 36q55 0 99 -36l78 90l9 -8l-78 -89q50 -47 50 -115t-49 -114l76 -86l-9 -9l-77 87q-43 -35 -99 -35q-57 0 -100 35l-76 -87l-9 9l76 86q-48 46 -48 114zM112 249q0 -59 43 -102t102 -43t102.5 43t43.5 102t-43.5 102.5
t-102.5 43.5t-102 -43.5t-43 -102.5z" />
    <glyph glyph-name="Wgrave" unicode="&#x1e80;" horiz-adv-x="940" 
d="M441 730l-100 140h140l50 -140h-90zM471 390h-2l-74 -395h-230l-155 685h200l79 -460h1l80 460h210l84 -460h1l75 460h190l-155 -685h-230z" />
    <glyph glyph-name="wgrave" unicode="&#x1e81;" horiz-adv-x="790" 
d="M395 240h-2l-53 -245h-190l-140 505h190l63 -320h2l52 320h165l58 -320h2l58 320h180l-140 -505h-190zM346 560l-100 140h140l50 -140h-90z" />
    <glyph glyph-name="Wacute" unicode="&#x1e82;" horiz-adv-x="940" 
d="M620 870l-100 -140h-90l50 140h140zM471 390h-2l-74 -395h-230l-155 685h200l79 -460h1l80 460h210l84 -460h1l75 460h190l-155 -685h-230z" />
    <glyph glyph-name="wacute" unicode="&#x1e83;" horiz-adv-x="790" 
d="M10 0zM395 240h-2l-53 -245h-190l-140 505h190l63 -320h2l52 320h165l58 -320h2l58 320h180l-140 -505h-190zM544 698l-100 -140h-90l50 140h140z" />
    <glyph glyph-name="Wdieresis" unicode="&#x1e84;" horiz-adv-x="940" 
d="M429 870v-140h-150v140h150zM659 870v-140h-150v140h150zM471 390h-2l-74 -395h-230l-155 685h200l79 -460h1l80 460h210l84 -460h1l75 460h190l-155 -685h-230z" />
    <glyph glyph-name="wdieresis" unicode="&#x1e85;" horiz-adv-x="790" 
d="M10 0zM395 240h-2l-53 -245h-190l-140 505h190l63 -320h2l52 320h165l58 -320h2l58 320h180l-140 -505h-190zM354 700v-140h-150v140h150zM584 700v-140h-150v140h150z" />
    <glyph glyph-name="Ygrave" unicode="&#x1ef2;" horiz-adv-x="620" 
d="M263 730l-100 140h140l50 -140h-90zM314 420h2l99 260h195l-210 -440v-240h-180v240l-210 440h205z" />
    <glyph glyph-name="ygrave" unicode="&#x1ef3;" horiz-adv-x="560" 
d="M185 -5l-175 505h190l83 -320h2l85 320h180l-165 -505q-37 -115 -93 -160t-152 -45q-55 0 -105 10l15 140q25 -5 50 -5q67 0 85 60zM234 560l-100 140h140l50 -140h-90z" />
    <glyph glyph-name="figuredash" unicode="&#x2012;" 
d="M30 335h540v-140h-540v140z" />
    <glyph glyph-name="endash" unicode="&#x2013;" 
d="M30 335h540v-140h-540v140z" />
    <glyph glyph-name="emdash" unicode="&#x2014;" horiz-adv-x="700" 
d="M30 335h640v-140h-640v140z" />
    <glyph glyph-name="quoteleft" unicode="&#x2018;" horiz-adv-x="230" 
d="M160 680l-30 -130h70v-160h-170v160l80 130h50z" />
    <glyph glyph-name="quoteright" unicode="&#x2019;" horiz-adv-x="230" 
d="M70 390l30 130h-70v160h170v-160l-80 -130h-50z" />
    <glyph glyph-name="quotesinglbase" unicode="&#x201a;" horiz-adv-x="230" 
d="M70 -130l30 130h-70v160h170v-160l-80 -130h-50z" />
    <glyph glyph-name="quotedblleft" unicode="&#x201c;" horiz-adv-x="450" 
d="M380 680l-30 -130h70v-160h-170v160l80 130h50zM160 680l-30 -130h70v-160h-170v160l80 130h50z" />
    <glyph glyph-name="quotedblright" unicode="&#x201d;" horiz-adv-x="450" 
d="M70 390l30 130h-70v160h170v-160l-80 -130h-50zM290 390l30 130h-70v160h170v-160l-80 -130h-50z" />
    <glyph glyph-name="quotedblbase" unicode="&#x201e;" horiz-adv-x="450" 
d="M70 -130l30 130h-70v160h170v-160l-80 -130h-50zM290 -130l30 130h-70v160h170v-160l-80 -130h-50z" />
    <glyph glyph-name="dagger" unicode="&#x2020;" horiz-adv-x="580" 
d="M550 340l-180 10l10 -350h-180l10 350l-180 -10v160l180 -10l-10 210h180l-10 -210l180 10v-160z" />
    <glyph glyph-name="daggerdbl" unicode="&#x2021;" horiz-adv-x="580" 
d="M370 300l180 10v-160l-180 10l10 -160h-180l10 160l-180 -10v160l180 -10v100l-180 -10v160l180 -10l-10 160h180l-10 -160l180 10v-160l-180 10v-100z" />
    <glyph glyph-name="bullet" unicode="&#x2022;" horiz-adv-x="230" 
d="M30 170v160h170v-160h-170z" />
    <glyph glyph-name="onedotenleader" unicode="&#x2024;" horiz-adv-x="230" 
d="M30 0v160h170v-160h-170z" />
    <glyph glyph-name="twodotenleader" unicode="&#x2025;" horiz-adv-x="430" 
d="M30 0v160h170v-160h-170zM230 0v160h170v-160h-170z" />
    <glyph glyph-name="ellipsis" unicode="&#x2026;" horiz-adv-x="670" 
d="M50 0v160h170v-160h-170zM250 0v160h170v-160h-170zM450 0v160h170v-160h-170z" />
    <glyph glyph-name="perthousand" unicode="&#x2030;" horiz-adv-x="1110" 
d="M620 680l-370 -680h-110l370 680h110zM180 606q-45 0 -45 -70t45 -70t45 70t-45 70zM180 382q-73 0 -111.5 41t-38.5 113t38.5 113t111.5 41t111.5 -41t38.5 -113t-38.5 -113t-111.5 -41zM580 214q-45 0 -45 -70t45 -70t45 70t-45 70zM580 -10q-73 0 -111.5 41t-38.5 113
t38.5 113t111.5 41t111.5 -41t38.5 -113t-38.5 -113t-111.5 -41zM930 214q-45 0 -45 -70t45 -70t45 70t-45 70zM930 -10q-73 0 -111.5 41t-38.5 113t38.5 113t111.5 41t111.5 -41t38.5 -113t-38.5 -113t-111.5 -41z" />
    <glyph glyph-name="guilsinglleft" unicode="&#x2039;" horiz-adv-x="380" 
d="M30 300l320 210v-180l-140 -80l140 -80v-180l-320 210v100z" />
    <glyph glyph-name="guilsinglright" unicode="&#x203a;" horiz-adv-x="380" 
d="M30 510l320 -210v-100l-320 -210v180l140 80l-140 80v180z" />
    <glyph glyph-name="exclamdbl" unicode="&#x203c;" horiz-adv-x="430" 
d="M30 0v160h170v-160h-170zM40 220l-10 480h170l-10 -480h-150zM230 0v160h170v-160h-170zM240 220l-10 480h170l-10 -480h-150z" />
    <glyph glyph-name="fraction" unicode="&#x2044;" horiz-adv-x="540" 
d="M530 680l-370 -680h-150l370 680h150z" />
    <glyph glyph-name="zerosuperior" unicode="&#x2070;" horiz-adv-x="325" 
d="M163 810q-43 0 -43 -102q0 -108 43 -108q42 0 42 108q0 102 -42 102zM163 530q-69 0 -101 49t-32 129q0 172 133 172q69 0 100.5 -46.5t31.5 -125.5q0 -80 -31.5 -129t-100.5 -49z" />
    <glyph glyph-name="foursuperior" unicode="&#x2074;" horiz-adv-x="335" 
d="M117 680h63v90h-1q-26 -44 -62 -90zM160 880h105v-200h40v-70h-40v-70h-85v70h-150v70q81 89 130 200z" />
    <glyph glyph-name="fivesuperior" unicode="&#x2075;" horiz-adv-x="315" 
d="M126 748h1q27 15 57 15q46 0 73.5 -29t27.5 -84q0 -54 -35.5 -87t-95.5 -33t-124 35l25 65q5 -2 15.5 -7t15.5 -7.5t14.5 -6t16 -5t15.5 -3t18 -1.5q19 0 32 12t13 33q0 45 -42 45q-27 0 -43 -15l-60 5l5 195h210v-75h-136z" />
    <glyph glyph-name="sixsuperior" unicode="&#x2076;" horiz-adv-x="315" 
d="M115 737l1 -1q27 27 64 27q49 0 77 -31t28 -87q0 -53 -34 -84t-89 -31q-65 0 -98.5 44.5t-33.5 110.5q0 195 155 195q43 0 90 -20l-10 -65q-38 15 -73 15q-12 0 -23.5 -2.5t-25 -9.5t-21 -22.5t-7.5 -38.5zM123 675q-4 -31 3.5 -53t31.5 -22q16 0 26.5 11.5t10.5 33.5
q0 44 -38 44q-17 0 -34 -14z" />
    <glyph glyph-name="sevensuperior" unicode="&#x2077;" horiz-adv-x="310" 
d="M188 804v1h-158v75h250v-60q-3 -6 -16 -29.5t-17.5 -31.5t-15.5 -29.5t-15.5 -33.5t-13 -33.5t-13.5 -38t-10 -39t-9 -45.5h-90q25 140 108 264z" />
    <glyph glyph-name="eightsuperior" unicode="&#x2078;" horiz-adv-x="325" 
d="M173 745q27 10 27 38q0 14 -10 24.5t-30 10.5q-16 0 -25.5 -9.5t-9.5 -20.5q0 -32 48 -43zM150 670q-32 -12 -32 -40q0 -15 12 -26t36 -11q42 0 42 30q0 7 -3 13t-7 10t-11 8t-11.5 6t-13.5 5.5t-12 4.5zM160 530q-55 0 -92.5 22t-37.5 69q0 56 58 81v1q-48 28 -48 82
q0 46 37 70.5t88 24.5q47 0 83.5 -23.5t36.5 -66.5q0 -47 -49 -75v-1q59 -32 59 -84q0 -50 -39 -75t-96 -25z" />
    <glyph glyph-name="ninesuperior" unicode="&#x2079;" horiz-adv-x="315" 
d="M200 674h-1q-24 -26 -64 -26q-49 0 -77 30.5t-28 86.5q0 53 34 84t90 31q64 0 97.5 -44.5t33.5 -110.5q0 -195 -154 -195q-43 0 -90 20l10 65q40 -15 72 -15q13 0 24.5 3t24.5 10t20.5 22.5t7.5 38.5zM193 735q4 31 -3.5 53t-31.5 22q-17 0 -27.5 -11.5t-10.5 -33.5
q0 -44 38 -44q18 0 35 14z" />
    <glyph glyph-name="parenleftsuperior" unicode="&#x207d;" horiz-adv-x="205" 
d="M120 930h55q-60 -109 -60 -240q0 -124 60 -240h-55q-90 103 -90 240t90 240z" />
    <glyph glyph-name="parenrightsuperior" unicode="&#x207e;" horiz-adv-x="205" 
d="M30 930h55q90 -103 90 -240t-90 -240h-55q60 113 60 240q0 133 -60 240z" />
    <glyph glyph-name="nsuperior" unicode="&#x207f;" horiz-adv-x="295" 
d="M115 430h-85v250h85v-30h1q29 35 74 35q36 0 55.5 -23t19.5 -62v-170h-85v150q0 35 -30 35q-15 0 -35 -10v-175z" />
    <glyph glyph-name="zeroinferior" unicode="&#x2080;" horiz-adv-x="325" 
d="M163 70q-43 0 -43 -102q0 -108 43 -108q42 0 42 108q0 102 -42 102zM163 -210q-69 0 -101 49t-32 129q0 172 133 172q69 0 100.5 -46.5t31.5 -125.5q0 -80 -31.5 -129t-100.5 -49z" />
    <glyph glyph-name="oneinferior" unicode="&#x2081;" horiz-adv-x="295" 
d="M40 -130h70v179l-59 -21l-21 65q71 22 103 50h62v-273h70v-70h-225v70z" />
    <glyph glyph-name="twoinferior" unicode="&#x2082;" horiz-adv-x="305" 
d="M130 68q-24 0 -75 -23l-25 65q61 35 125 35q55 0 85 -29t30 -76q0 -48 -30 -85t-90 -79v-1h125v-75h-245v80q87 53 118.5 84t31.5 59q0 45 -50 45z" />
    <glyph glyph-name="threeinferior" unicode="&#x2083;" horiz-adv-x="315" 
d="M158 70q-11 0 -20 -1t-21.5 -5.5t-16.5 -6t-20 -9t-18 -8.5l-25 65q61 35 128 35q46 0 78 -23.5t32 -66.5q0 -53 -54 -75v-1q64 -19 64 -84q0 -48 -34.5 -74t-95.5 -26q-70 0 -125 35l25 65q66 -30 98 -30q21 0 33 10.5t12 24.5q0 35 -53 35h-47v70h43q49 0 49 40
q0 13 -9.5 21.5t-22.5 8.5z" />
    <glyph glyph-name="fourinferior" unicode="&#x2084;" horiz-adv-x="335" 
d="M117 -60h63v90h-1q-26 -44 -62 -90zM160 140h105v-200h40v-70h-40v-70h-85v70h-150v70q81 89 130 200z" />
    <glyph glyph-name="fiveinferior" unicode="&#x2085;" horiz-adv-x="315" 
d="M126 8h1q27 15 57 15q46 0 73.5 -29t27.5 -84q0 -54 -35.5 -87t-95.5 -33t-124 35l25 65q5 -2 15.5 -7t15.5 -7.5t14.5 -6t16 -5t15.5 -3t18 -1.5q19 0 32 12t13 33q0 45 -42 45q-27 0 -43 -15l-60 5l5 195h210v-75h-136z" />
    <glyph glyph-name="sixinferior" unicode="&#x2086;" horiz-adv-x="315" 
d="M115 -3l1 -1q27 27 64 27q49 0 77 -31t28 -87q0 -53 -34 -84t-89 -31q-65 0 -98.5 44.5t-33.5 110.5q0 195 155 195q43 0 90 -20l-10 -65q-38 15 -73 15q-12 0 -23.5 -2.5t-25 -9.5t-21 -22.5t-7.5 -38.5zM123 -65q-4 -31 3.5 -53t31.5 -22q16 0 26.5 11.5t10.5 33.5
q0 44 -38 44q-17 0 -34 -14z" />
    <glyph glyph-name="seveninferior" unicode="&#x2087;" horiz-adv-x="310" 
d="M188 64v1h-158v75h250v-60q-3 -6 -16 -29.5t-17.5 -31.5t-15.5 -29.5t-15.5 -33.5t-13 -33.5t-13.5 -38t-10 -39t-9 -45.5h-90q25 140 108 264z" />
    <glyph glyph-name="eightinferior" unicode="&#x2088;" horiz-adv-x="325" 
d="M173 5q27 10 27 38q0 14 -10 24.5t-30 10.5q-16 0 -25.5 -9.5t-9.5 -20.5q0 -32 48 -43zM150 -70q-32 -12 -32 -40q0 -15 12 -26t36 -11q42 0 42 30q0 7 -3 13t-7 10t-11 8t-11.5 6t-13.5 5.5t-12 4.5zM160 -210q-55 0 -92.5 22t-37.5 69q0 56 58 81v1q-48 28 -48 82
q0 46 37 70.5t88 24.5q47 0 83.5 -23.5t36.5 -66.5q0 -47 -49 -75v-1q59 -32 59 -84q0 -50 -39 -75t-96 -25z" />
    <glyph glyph-name="nineinferior" unicode="&#x2089;" horiz-adv-x="315" 
d="M200 -66h-1q-24 -26 -64 -26q-49 0 -77 30.5t-28 86.5q0 53 34 84t90 31q64 0 97.5 -44.5t33.5 -110.5q0 -195 -154 -195q-43 0 -90 20l10 65q40 -15 72 -15q13 0 24.5 3t24.5 10t20.5 22.5t7.5 38.5zM193 -5q4 31 -3.5 53t-31.5 22q-17 0 -27.5 -11.5t-10.5 -33.5
q0 -44 38 -44q18 0 35 14z" />
    <glyph glyph-name="parenleftinferior" unicode="&#x208d;" horiz-adv-x="205" 
d="M120 190h55q-60 -109 -60 -240q0 -124 60 -240h-55q-90 103 -90 240t90 240z" />
    <glyph glyph-name="parenrightinferior" unicode="&#x208e;" horiz-adv-x="205" 
d="M30 190h55q90 -103 90 -240t-90 -240h-55q60 113 60 240q0 133 -60 240z" />
    <glyph glyph-name="colonmonetary" unicode="&#x20a1;" horiz-adv-x="630" 
d="M445 -100h-70v91q-5 0 -15 -0.5t-15 -0.5q-18 0 -50 4v-94h-70v111q-94 37 -144.5 126.5t-50.5 207.5q0 117 50.5 203.5t144.5 121.5v110h70v-94q32 4 50 4q5 0 15 -0.5t15 -0.5v91h70v-101q83 -20 155 -74l-60 -135q-84 60 -165 60q-73 0 -114 -46.5t-41 -138.5
q0 -93 41.5 -144t113.5 -51q81 0 165 60l60 -135q-68 -53 -155 -74v-101z" />
    <glyph glyph-name="franc" unicode="&#x20a3;" horiz-adv-x="700" 
d="M315 460h155l-10 -100h-170v-15q0 -17 1 -25h179l-10 -100h-142q41 -70 127 -70q81 0 165 60l60 -135q-109 -85 -255 -85q-115 0 -192 62.5t-107 167.5h-86v100h70v25v15h-70v100h84q27 106 104.5 168t196.5 62q146 0 255 -85l-60 -135q-84 60 -165 60q-91 0 -130 -70z
" />
    <glyph glyph-name="lira" unicode="&#x20a4;" horiz-adv-x="700" 
d="M315 460h155l-10 -100h-170v-15q0 -17 1 -25h179l-10 -100h-142q41 -70 127 -70q81 0 165 60l60 -135q-109 -85 -255 -85q-115 0 -192 62.5t-107 167.5h-86v100h70v25v15h-70v100h84q27 106 104.5 168t196.5 62q146 0 255 -85l-60 -135q-84 60 -165 60q-91 0 -130 -70z
" />
    <glyph glyph-name="peseta" unicode="&#x20a7;" horiz-adv-x="700" 
d="M315 460h155l-10 -100h-170v-15q0 -17 1 -25h179l-10 -100h-142q41 -70 127 -70q81 0 165 60l60 -135q-109 -85 -255 -85q-115 0 -192 62.5t-107 167.5h-86v100h70v25v15h-70v100h84q27 106 104.5 168t196.5 62q146 0 255 -85l-60 -135q-84 60 -165 60q-91 0 -130 -70z
" />
    <glyph glyph-name="Euro" unicode="&#x20ac;" horiz-adv-x="700" 
d="M315 460h155l-10 -100h-170v-15q0 -17 1 -25h179l-10 -100h-142q41 -70 127 -70q81 0 165 60l60 -135q-109 -85 -255 -85q-115 0 -192 62.5t-107 167.5h-86v100h70v25v15h-70v100h84q27 106 104.5 168t196.5 62q146 0 255 -85l-60 -135q-84 60 -165 60q-91 0 -130 -70z
" />
    <glyph glyph-name="litre" unicode="&#x2113;" horiz-adv-x="449" 
d="M42 156l-12 11l94 99v243q0 102 40 151q42 50 100 50q44 0 70 -27t26 -72q0 -51 -31 -112q-31 -63 -129 -176v-168q0 -75 23 -106q22 -29 60 -29q35 0 64 29q32 29 54 103h18q-21 -83 -68 -127q-37 -35 -89 -35q-43 0 -77.5 24.5t-49.5 65.5q-11 33 -11 107v52zM200 543
v-193q134 155 134 242q0 41 -19 65t-48 24t-48 -28t-19 -110z" />
    <glyph glyph-name="afii61352" unicode="&#x2116;" horiz-adv-x="1034" 
d="M600 0h-180l-218 350h-2v-350h-170v680h180l218 -350h2v350h170v-680zM837 598q-50 0 -50 -78t50 -78t50 78t-50 78zM837 350q-81 0 -124 45t-43 125t43 125t124 45t124 -45t43 -125t-43 -125t-124 -45zM670 320h334v-100h-334v100z" />
    <glyph glyph-name="trademark" unicode="&#x2122;" horiz-adv-x="800" 
d="M314 591h-92v-255h-100v255h-92v89h284v-89zM574 503l54 177h142v-344h-100v184h-2l-63 -184h-77l-64 184h-1v-184h-95v344h142z" />
    <glyph glyph-name="Omega" unicode="&#x2126;" horiz-adv-x="670" 
d="M20 390q0 132 83 216t232 84t232 -84t83 -216q0 -80 -41.5 -149.5t-123.5 -100.5v-20h165v-120h-285v210q47 17 71 55t24 125q0 150 -125 150t-125 -150q0 -87 24 -125t71 -55v-210h-285v120h165v20q-82 31 -123.5 100.5t-41.5 149.5z" />
    <glyph glyph-name="estimated" unicode="&#x212e;" horiz-adv-x="736" 
d="M706 349h-528v-235q81 -78 190 -78q163 0 252 157l46 -26q-64 -91 -130 -134q-67 -43 -168 -43q-153 0 -244 103q-94 100 -94 256q0 158 94 259q94 102 244 102q135 0 234 -91q98 -94 104 -270zM178 397h380v189q-82 77 -191 77q-110 0 -189 -77v-189z" />
    <glyph glyph-name="onethird" unicode="&#x2153;" horiz-adv-x="800" 
d="M60 410h70v179l-59 -21l-21 65q71 22 103 50h62v-273h70v-70h-225v70zM617 680l-370 -680h-50l370 680h50zM623 270q-11 0 -20 -1t-21.5 -5.5t-16.5 -6t-20 -9t-18 -8.5l-25 65q61 35 128 35q46 0 78 -23.5t32 -66.5q0 -53 -54 -75v-1q64 -19 64 -84q0 -48 -34.5 -74
t-95.5 -26q-70 0 -125 35l25 65q66 -30 98 -30q21 0 33 10.5t12 24.5q0 35 -53 35h-47v70h43q49 0 49 40q0 13 -9.5 21.5t-22.5 8.5z" />
    <glyph glyph-name="twothirds" unicode="&#x2154;" horiz-adv-x="800" 
d="M617 680l-370 -680h-50l370 680h50zM623 270q-11 0 -20 -1t-21.5 -5.5t-16.5 -6t-20 -9t-18 -8.5l-25 65q61 35 128 35q46 0 78 -23.5t32 -66.5q0 -53 -54 -75v-1q64 -19 64 -84q0 -48 -34.5 -74t-95.5 -26q-70 0 -125 35l25 65q66 -30 98 -30q21 0 33 10.5t12 24.5
q0 35 -53 35h-47v70h43q49 0 49 40q0 13 -9.5 21.5t-22.5 8.5zM150 608q-24 0 -75 -23l-25 65q61 35 125 35q55 0 85 -29t30 -76q0 -48 -30 -85t-90 -79v-1h125v-75h-245v80q87 53 118.5 84t31.5 59q0 45 -50 45z" />
    <glyph glyph-name="oneeighth" unicode="&#x215b;" horiz-adv-x="800" 
d="M60 410h70v179l-59 -21l-21 65q71 22 103 50h62v-273h70v-70h-225v70zM617 680l-370 -680h-50l370 680h50zM628 205q27 10 27 38q0 14 -10 24.5t-30 10.5q-16 0 -25.5 -9.5t-9.5 -20.5q0 -32 48 -43zM605 130q-32 -12 -32 -40q0 -15 12 -26t36 -11q42 0 42 30q0 7 -3 13
t-7 10t-11 8t-11.5 6t-13.5 5.5t-12 4.5zM615 -10q-55 0 -92.5 22t-37.5 69q0 56 58 81v1q-48 28 -48 82q0 46 37 70.5t88 24.5q47 0 83.5 -23.5t36.5 -66.5q0 -47 -49 -75v-1q59 -32 59 -84q0 -50 -39 -75t-96 -25z" />
    <glyph glyph-name="threeeighths" unicode="&#x215c;" horiz-adv-x="800" 
d="M612 680l-370 -680h-50l370 680h50zM628 205q27 10 27 38q0 14 -10 24.5t-30 10.5q-16 0 -25.5 -9.5t-9.5 -20.5q0 -32 48 -43zM605 130q-32 -12 -32 -40q0 -15 12 -26t36 -11q42 0 42 30q0 7 -3 13t-7 10t-11 8t-11.5 6t-13.5 5.5t-12 4.5zM615 -10q-55 0 -92.5 22
t-37.5 69q0 56 58 81v1q-48 28 -48 82q0 46 37 70.5t88 24.5q47 0 83.5 -23.5t36.5 -66.5q0 -47 -49 -75v-1q59 -32 59 -84q0 -50 -39 -75t-96 -25zM178 610q-11 0 -20 -1t-21.5 -5.5t-16.5 -6t-20 -9t-18 -8.5l-25 65q61 35 128 35q46 0 78 -23.5t32 -66.5q0 -53 -54 -75
v-1q64 -19 64 -84q0 -48 -34.5 -74t-95.5 -26q-70 0 -125 35l25 65q66 -30 98 -30q21 0 33 10.5t12 24.5q0 35 -53 35h-47v70h43q49 0 49 40q0 13 -9.5 21.5t-22.5 8.5z" />
    <glyph glyph-name="fiveeighths" unicode="&#x215d;" horiz-adv-x="800" 
d="M607 680l-370 -680h-50l370 680h50zM628 205q27 10 27 38q0 14 -10 24.5t-30 10.5q-16 0 -25.5 -9.5t-9.5 -20.5q0 -32 48 -43zM605 130q-32 -12 -32 -40q0 -15 12 -26t36 -11q42 0 42 30q0 7 -3 13t-7 10t-11 8t-11.5 6t-13.5 5.5t-12 4.5zM615 -10q-55 0 -92.5 22
t-37.5 69q0 56 58 81v1q-48 28 -48 82q0 46 37 70.5t88 24.5q47 0 83.5 -23.5t36.5 -66.5q0 -47 -49 -75v-1q59 -32 59 -84q0 -50 -39 -75t-96 -25zM146 548h1q27 15 57 15q46 0 73.5 -29t27.5 -84q0 -54 -35.5 -87t-95.5 -33t-124 35l25 65q5 -2 15.5 -7t15.5 -7.5t14.5 -6
t16 -5t15.5 -3t18 -1.5q19 0 32 12t13 33q0 45 -42 45q-27 0 -43 -15l-60 5l5 195h210v-75h-136z" />
    <glyph glyph-name="seveneighths" unicode="&#x215e;" horiz-adv-x="800" 
d="M567 680l-370 -680h-50l370 680h50zM628 205q27 10 27 38q0 14 -10 24.5t-30 10.5q-16 0 -25.5 -9.5t-9.5 -20.5q0 -32 48 -43zM605 130q-32 -12 -32 -40q0 -15 12 -26t36 -11q42 0 42 30q0 7 -3 13t-7 10t-11 8t-11.5 6t-13.5 5.5t-12 4.5zM615 -10q-55 0 -92.5 22
t-37.5 69q0 56 58 81v1q-48 28 -48 82q0 46 37 70.5t88 24.5q47 0 83.5 -23.5t36.5 -66.5q0 -47 -49 -75v-1q59 -32 59 -84q0 -50 -39 -75t-96 -25zM208 604v1h-158v75h250v-60q-3 -6 -16 -29.5t-17.5 -31.5t-15.5 -29.5t-15.5 -33.5t-13 -33.5t-13.5 -38t-10 -39t-9 -45.5
h-90q25 140 108 264z" />
    <glyph glyph-name="partialdiff" unicode="&#x2202;" horiz-adv-x="573" 
d="M386 402l2 1q7 45 -4 76.5t-35 45.5t-46.5 19.5t-47.5 5.5q-67 0 -149 -30l-2 130q99 40 186 40q43 0 79 -7.5t70 -25t56 -46.5t38.5 -72t18 -102t-7.5 -137q-19 -132 -98.5 -221t-208.5 -89q-112 0 -170.5 61.5t-43.5 168.5q16 111 80.5 173t162.5 62q77 0 120 -53z
M356 280q-32 28 -65 28q-42 0 -62.5 -26t-25.5 -62q-6 -43 11.5 -66.5t50.5 -23.5q48 0 69.5 44t21.5 106z" />
    <glyph glyph-name="Delta" unicode="&#x2206;" horiz-adv-x="628" 
d="M294 710l284 -710h-528zM261 450l-129 -380h273z" />
    <glyph glyph-name="product" unicode="&#x220f;" horiz-adv-x="630" 
d="M200 0h-170v700h570v-700h-170v550h-230v-550z" />
    <glyph glyph-name="summation" unicode="&#x2211;" horiz-adv-x="550" 
d="M396 340l-121 -178v-2h245v-160h-490v130l141 210l-141 210v130h490v-160h-245v-2z" />
    <glyph glyph-name="minus" unicode="&#x2212;" horiz-adv-x="500" 
d="M30 335h440v-140h-440v140z" />
    <glyph glyph-name="uni2215" unicode="&#x2215;" horiz-adv-x="540" 
d="M530 680l-370 -680h-150l370 680h150z" />
    <glyph glyph-name="uni2219" unicode="&#x2219;" horiz-adv-x="230" 
d="M30 170v160h170v-160h-170z" />
    <glyph glyph-name="radical" unicode="&#x221a;" horiz-adv-x="800" 
d="M750 700l-227 -705h-208l-103 295h-162v100h318l55 -210h2l145 520h180z" />
    <glyph glyph-name="infinity" unicode="&#x221e;" horiz-adv-x="849" 
d="M218 130q62 0 114.5 41t73.5 84q-21 47 -75 81t-111 34q-79 0 -119.5 -33t-40.5 -82q0 -50 39.5 -87.5t118.5 -37.5zM631 370q-62 0 -114.5 -41t-73.5 -84q21 -47 75 -81t111 -34q79 0 119.5 33t40.5 82q0 50 -39.5 87.5t-118.5 37.5zM220 400q69 0 124 -37t83 -88
q83 125 212 125q81 0 130.5 -44t49.5 -111q0 -65 -51 -105t-139 -40q-69 0 -125 37t-83 86q-82 -123 -211 -123q-81 0 -130.5 44t-49.5 111q0 65 51 105t139 40z" />
    <glyph glyph-name="integral" unicode="&#x222b;" horiz-adv-x="360" 
d="M95 -29v578q0 77 39.5 114t130.5 37q45 0 95 -10l-15 -130q-25 5 -40 5q-40 0 -40 -46v-549q0 -85 -36.5 -132.5t-133.5 -47.5q-45 0 -95 10l15 130q25 -5 40 -5q40 0 40 46z" />
    <glyph glyph-name="approxequal" unicode="&#x2248;" horiz-adv-x="500" 
d="M164 325q-31 0 -62 -35l-52 40q21 56 51 83t59 27q27 0 97.5 -17.5t85.5 -17.5h5h6h5.5t6 0.5t6 1.5t6.5 2.5t6.5 3.5t7 4.5t8 6t8.5 7.5l42 -51q-42 -86 -107 -86q-19 0 -89.5 15.5t-89.5 15.5zM164 125q-31 0 -62 -35l-52 40q21 56 51 83t59 27q27 0 97.5 -17.5
t85.5 -17.5h5h6h5.5t6 0.5t6 1.5t6.5 2.5t6.5 3.5t7 4.5t8 6t8.5 7.5l42 -51q-42 -86 -107 -86q-19 0 -89.5 15.5t-89.5 15.5z" />
    <glyph glyph-name="notequal" unicode="&#x2260;" horiz-adv-x="500" 
d="M30 235h168l33 60h-201v140h277l93 170h70l-93 -170h93v-140h-169l-33 -60h202v-140h-278l-92 -170h-70l92 170h-92v140z" />
    <glyph glyph-name="lessequal" unicode="&#x2264;" horiz-adv-x="480" 
d="M450 110l-420 160v80l420 160v-120l-240 -80l240 -80v-120zM30 100h420v-100h-420v100z" />
    <glyph glyph-name="greaterequal" unicode="&#x2265;" horiz-adv-x="480" 
d="M450 270l-420 -160v120l240 80l-240 80v120l420 -160v-80zM30 100h420v-100h-420v100z" />
    <glyph glyph-name="lozenge" unicode="&#x25ca;" horiz-adv-x="472" 
d="M229 -30l-199 374l199 374h14l199 -374l-199 -374h-14zM167 344l69 -128l69 128l-69 128z" />
    <glyph glyph-name="undercommaaccent" unicode="&#xf005;" horiz-adv-x="230" 
d="M70 -270l30 100h-70v130h170v-130l-80 -100h-50z" />
    <glyph glyph-name="Abreve.small" unicode="&#xf66d;" horiz-adv-x="610" 
d="M301 736q65 0 87 54h67q-18 -150 -154 -150t-154 150h67q22 -54 87 -54zM200 0h-190l195 585h200l195 -585h-200l-25 85h-150zM301 360h-1l-39 -135h78z" />
    <glyph glyph-name="Amacron.small" unicode="&#xf66e;" horiz-adv-x="610" 
d="M130 760h340v-120h-340v120zM200 0h-190l195 585h200l195 -585h-200l-25 85h-150zM301 360h-1l-39 -135h78z" />
    <glyph glyph-name="AEacute.small" unicode="&#xf670;" horiz-adv-x="886" 
d="M189 0h-179l306 580h535v-150h-275v-60h230v-150h-230v-70h280v-150h-450v135h-150zM326 275h80v155h-2zM597 780l-100 -140h-90l50 140h140z" />
    <glyph glyph-name="Cacute.small" unicode="&#xf671;" horiz-adv-x="580" 
d="M30 290q0 149 73.5 224.5t231.5 75.5q131 0 225 -40l-40 -140q-90 30 -180 30q-64 0 -97 -34t-33 -116t33 -116t97 -34q90 0 180 30l40 -140q-94 -40 -225 -40q-158 0 -231.5 75.5t-73.5 224.5zM476 780l-100 -140h-90l50 140h140z" />
    <glyph glyph-name="Ccaron.small" unicode="&#xf672;" horiz-adv-x="580" 
d="M30 290q0 149 73.5 224.5t231.5 75.5q131 0 225 -40l-40 -140q-90 30 -180 30q-64 0 -97 -34t-33 -116t33 -116t97 -34q90 0 180 30l40 -140q-94 -40 -225 -40q-158 0 -231.5 75.5t-73.5 224.5zM337 732l70 48h90l-110 -140h-100l-110 140h90z" />
    <glyph glyph-name="Ccircumflex.small" unicode="&#xf673;" horiz-adv-x="580" 
d="M30 290q0 149 73.5 224.5t231.5 75.5q131 0 225 -40l-40 -140q-90 30 -180 30q-64 0 -97 -34t-33 -116t33 -116t97 -34q90 0 180 30l40 -140q-94 -40 -225 -40q-158 0 -231.5 75.5t-73.5 224.5zM398 630l-70 48l-70 -48h-90l110 140h100l110 -140h-90z" />
    <glyph glyph-name="Cdotaccent.small" unicode="&#xf674;" horiz-adv-x="580" 
d="M30 290q0 149 73.5 224.5t231.5 75.5q131 0 225 -40l-40 -140q-90 30 -180 30q-64 0 -97 -34t-33 -116t33 -116t97 -34q90 0 180 30l40 -140q-94 -40 -225 -40q-158 0 -231.5 75.5t-73.5 224.5zM255 640v140h150v-140h-150z" />
    <glyph glyph-name="Dcaron.small" unicode="&#xf675;" horiz-adv-x="610" 
d="M40 580h260q280 0 280 -285q0 -142 -70 -218.5t-210 -76.5h-260v580zM290 430h-80v-280h80q60 0 85 33t25 112q0 77 -24.5 106t-85.5 29zM294 732l70 48h90l-110 -140h-100l-110 140h90z" />
    <glyph glyph-name="Ebreve.small" unicode="&#xf677;" horiz-adv-x="520" 
d="M210 150h280v-150h-450v580h445v-150h-275v-60h230v-150h-230v-70zM269 736q65 0 87 54h67q-18 -150 -154 -150t-154 150h67q22 -54 87 -54z" />
    <glyph glyph-name="Ecaron.small" unicode="&#xf678;" horiz-adv-x="520" 
d="M210 150h280v-150h-450v580h445v-150h-275v-60h230v-150h-230v-70zM283 732l70 48h90l-110 -140h-100l-110 140h90z" />
    <glyph glyph-name="Edotaccent.small" unicode="&#xf679;" horiz-adv-x="520" 
d="M210 150h280v-150h-450v580h445v-150h-275v-60h230v-150h-230v-70zM188 640v140h150v-140h-150z" />
    <glyph glyph-name="Emacron.small" unicode="&#xf67a;" horiz-adv-x="520" 
d="M210 150h280v-150h-450v580h445v-150h-275v-60h230v-150h-230v-70zM92 760h340v-120h-340v120z" />
    <glyph glyph-name="Gbreve.small" unicode="&#xf67d;" 
d="M340 140q32 0 50 2v68h-60v120h230v-300q-94 -40 -225 -40q-158 0 -231.5 75.5t-73.5 224.5t73.5 224.5t231.5 75.5q131 0 225 -40l-40 -140q-90 30 -180 30q-64 0 -97 -34t-33 -116t33 -116t97 -34zM329 736q65 0 87 54h67q-18 -150 -154 -150t-154 150h67
q22 -54 87 -54z" />
    <glyph glyph-name="Gcircumflex.small" unicode="&#xf67e;" 
d="M340 140q32 0 50 2v68h-60v120h230v-300q-94 -40 -225 -40q-158 0 -231.5 75.5t-73.5 224.5t73.5 224.5t231.5 75.5q131 0 225 -40l-40 -140q-90 30 -180 30q-64 0 -97 -34t-33 -116t33 -116t97 -34zM399 630l-70 48l-70 -48h-90l110 140h100l110 -140h-90z" />
    <glyph glyph-name="Gcommaaccent.small" unicode="&#xf67f;" 
d="M340 140q32 0 50 2v68h-60v120h230v-300q-94 -40 -225 -40q-158 0 -231.5 75.5t-73.5 224.5t73.5 224.5t231.5 75.5q131 0 225 -40l-40 -140q-90 30 -180 30q-64 0 -97 -34t-33 -116t33 -116t97 -34zM279 -270l30 100h-70v130h170v-130l-80 -100h-50z" />
    <glyph glyph-name="Gdotaccent.small" unicode="&#xf680;" 
d="M340 140q32 0 50 2v68h-60v120h230v-300q-94 -40 -225 -40q-158 0 -231.5 75.5t-73.5 224.5t73.5 224.5t231.5 75.5q131 0 225 -40l-40 -140q-90 30 -180 30q-64 0 -97 -34t-33 -116t33 -116t97 -34zM254 640v140h150v-140h-150z" />
    <glyph glyph-name="Hcircumflex.small" unicode="&#xf682;" 
d="M390 220h-180v-220h-170v580h170v-210h180v210h170v-580h-170v220zM367 630l-70 48l-70 -48h-90l110 140h100l110 -140h-90z" />
    <glyph glyph-name="Ibreve.small" unicode="&#xf683;" horiz-adv-x="250" 
d="M210 0h-170v580h170v-580zM125 736q65 0 87 54h67q-18 -150 -154 -150t-154 150h67q22 -54 87 -54z" />
    <glyph glyph-name="Imacron.small" unicode="&#xf685;" horiz-adv-x="250" 
d="M210 0h-170v580h170v-580zM-45 760h340v-120h-340v120z" />
    <glyph glyph-name="Itilde.small" unicode="&#xf687;" horiz-adv-x="250" 
d="M210 0h-170v580h170v-580zM64 665q-31 0 -62 -35l-52 40q21 56 51 83t59 27q27 0 72.5 -17.5t60.5 -17.5h5h6h5.5t6 0.5t6 1.5t6.5 2.5t6.5 3.5t7 4.5t8 6t8.5 7.5l42 -51q-42 -86 -107 -86q-19 0 -64.5 15.5t-64.5 15.5z" />
    <glyph glyph-name="Jcircumflex.small" unicode="&#xf688;" horiz-adv-x="360" 
d="M150 191v389h170v-389q0 -109 -47.5 -155t-142.5 -46q-53 0 -120 10l15 150q30 -5 55 -5q35 0 52.5 9t17.5 37zM310 630l-70 48l-70 -48h-90l110 140h100l110 -140h-90z" />
    <glyph glyph-name="Kcommaaccent.small" unicode="&#xf689;" horiz-adv-x="605" 
d="M380 0l-125 205l-45 -56v-149h-170v580h170v-195l175 195h210l-219 -251l219 -329h-215zM236 -270l30 100h-70v130h170v-130l-80 -100h-50z" />
    <glyph glyph-name="Lacute.small" unicode="&#xf68a;" horiz-adv-x="500" 
d="M210 150h270v-150h-440v580h170v-430zM304 780l-100 -140h-90l50 140h140z" />
    <glyph glyph-name="Lcaron.small" unicode="&#xf68b;" horiz-adv-x="500" 
d="M210 150h270v-150h-440v580h170v-430zM315 350l30 100h-70v130h170v-130l-80 -100h-50z" />
    <glyph glyph-name="Lcommaaccent.small" unicode="&#xf68c;" horiz-adv-x="500" 
d="M210 150h270v-150h-440v580h170v-430zM208 -270l30 100h-70v130h170v-130l-80 -100h-50z" />
    <glyph glyph-name="Ldot.small" unicode="&#xf68d;" horiz-adv-x="500" 
d="M210 150h270v-150h-440v580h170v-430zM270 260v140h150v-140h-150z" />
    <glyph glyph-name="Nacute.small" unicode="&#xf68e;" horiz-adv-x="610" 
d="M570 0h-180l-183 295h-2v-295h-165v580h180l183 -295h2v295h165v-580zM454 780l-100 -140h-90l50 140h140z" />
    <glyph glyph-name="Ncaron.small" unicode="&#xf68f;" horiz-adv-x="610" 
d="M570 0h-180l-183 295h-2v-295h-165v580h180l183 -295h2v295h165v-580zM316 732l70 48h90l-110 -140h-100l-110 140h90z" />
    <glyph glyph-name="Ncommaaccent.small" unicode="&#xf690;" horiz-adv-x="610" 
d="M570 0h-180l-183 295h-2v-295h-165v580h180l183 -295h2v295h165v-580zM246 -270l30 100h-70v130h170v-130l-80 -100h-50z" />
    <glyph glyph-name="Obreve.small" unicode="&#xf691;" horiz-adv-x="650" 
d="M325 450q-67 0 -91 -38.5t-24 -116.5q0 -80 24.5 -122.5t90.5 -42.5t90.5 42.5t24.5 122.5q0 78 -24 116.5t-91 38.5zM325 -10q-295 0 -295 305q0 148 71.5 221.5t223.5 73.5t223.5 -73.5t71.5 -221.5q0 -305 -295 -305zM324 736q65 0 87 54h67q-18 -150 -154 -150
t-154 150h67q22 -54 87 -54z" />
    <glyph glyph-name="Ohungarumlaut.small" unicode="&#xf692;" horiz-adv-x="650" 
d="M325 450q-67 0 -91 -38.5t-24 -116.5q0 -80 24.5 -122.5t90.5 -42.5t90.5 42.5t24.5 122.5q0 78 -24 116.5t-91 38.5zM325 -10q-295 0 -295 305q0 148 71.5 221.5t223.5 73.5t223.5 -73.5t71.5 -221.5q0 -305 -295 -305zM380 780l-100 -140h-90l50 140h140zM550 780
l-100 -140h-90l50 140h140z" />
    <glyph glyph-name="Omacron.small" unicode="&#xf693;" horiz-adv-x="650" 
d="M325 450q-67 0 -91 -38.5t-24 -116.5q0 -80 24.5 -122.5t90.5 -42.5t90.5 42.5t24.5 122.5q0 78 -24 116.5t-91 38.5zM325 -10q-295 0 -295 305q0 148 71.5 221.5t223.5 73.5t223.5 -73.5t71.5 -221.5q0 -305 -295 -305zM153 760h340v-120h-340v120z" />
    <glyph glyph-name="Oslashacute.small" unicode="&#xf694;" horiz-adv-x="650" 
d="M477 780l-100 -140h-90l50 140h140zM325 -10q-103 0 -171 37l-54 -67l-50 40l53 66q-73 76 -73 229q0 148 71.5 221.5t223.5 73.5q105 0 172 -36l53 66l50 -40l-52 -64q72 -72 72 -221q0 -305 -295 -305zM325 450q-67 0 -91 -38.5t-24 -116.5q0 -53 8 -86l179 221
q-26 20 -72 20zM440 295q0 48 -8 77l-178 -221q25 -21 71 -21q66 0 90.5 42.5t24.5 122.5z" />
    <glyph glyph-name="Racute.small" unicode="&#xf695;" horiz-adv-x="575" 
d="M401 780l-100 -140h-90l50 140h140zM355 0l-93 160h-52v-160h-170v580h260q114 0 177 -53.5t63 -156.5q0 -130 -100 -180l125 -190h-210zM210 430v-120h90q33 0 49 12.5t16 47.5t-16 47.5t-49 12.5h-90z" />
    <glyph glyph-name="Rcaron.small" unicode="&#xf696;" horiz-adv-x="575" 
d="M274 732l70 48h90l-110 -140h-100l-110 140h90zM355 0l-93 160h-52v-160h-170v580h260q114 0 177 -53.5t63 -156.5q0 -130 -100 -180l125 -190h-210zM210 430v-120h90q33 0 49 12.5t16 47.5t-16 47.5t-49 12.5h-90z" />
    <glyph glyph-name="Rcommaaccent.small" unicode="&#xf697;" horiz-adv-x="575" 
d="M248 -270l30 100h-70v130h170v-130l-80 -100h-50zM355 0l-93 160h-52v-160h-170v580h260q114 0 177 -53.5t63 -156.5q0 -130 -100 -180l125 -190h-210zM210 430v-120h90q33 0 49 12.5t16 47.5t-16 47.5t-49 12.5h-90z" />
    <glyph glyph-name="Sacute.small" unicode="&#xf698;" horiz-adv-x="570" 
d="M235 216q-96 16 -140.5 60.5t-44.5 123.5q0 190 230 190q117 0 250 -40l-40 -140q-132 30 -205 30q-33 0 -44 -6t-11 -19q0 -18 24 -26t76 -16q13 -2 20 -3q190 -30 190 -190q0 -96 -69 -143t-181 -47q-127 0 -260 40l40 140q132 -30 225 -30q65 0 65 30q0 18 -16.5 24.5
t-72.5 15.5q-23 4 -36 6zM429 780l-100 -140h-90l50 140h140z" />
    <glyph glyph-name="Scircumflex.small" unicode="&#xf69a;" horiz-adv-x="570" 
d="M235 216q-96 16 -140.5 60.5t-44.5 123.5q0 190 230 190q117 0 250 -40l-40 -140q-132 30 -205 30q-33 0 -44 -6t-11 -19q0 -18 24 -26t76 -16q13 -2 20 -3q190 -30 190 -190q0 -96 -69 -143t-181 -47q-127 0 -260 40l40 140q132 -30 225 -30q65 0 65 30q0 18 -16.5 24.5
t-72.5 15.5q-23 4 -36 6zM367 630l-70 48l-70 -48h-90l110 140h100l110 -140h-90z" />
    <glyph glyph-name="Scommaaccent.small" unicode="&#xf69b;" horiz-adv-x="570" 
d="M235 216q-96 16 -140.5 60.5t-44.5 123.5q0 190 230 190q117 0 250 -40l-40 -140q-132 30 -205 30q-33 0 -44 -6t-11 -19q0 -18 24 -26t76 -16q13 -2 20 -3q190 -30 190 -190q0 -96 -69 -143t-181 -47q-127 0 -260 40l40 140q132 -30 225 -30q65 0 65 30q0 18 -16.5 24.5
t-72.5 15.5q-23 4 -36 6zM250 -270l30 100h-70v130h170v-130l-80 -100h-50z" />
    <glyph glyph-name="Tcaron.small" unicode="&#xf69d;" horiz-adv-x="520" 
d="M500 430h-155v-430h-170v430h-155v150h480v-150zM259 732l70 48h90l-110 -140h-100l-110 140h90z" />
    <glyph glyph-name="Tcommaaccent.small" unicode="&#xf69e;" horiz-adv-x="520" 
d="M500 430h-155v-430h-170v430h-155v150h480v-150zM216 -270l30 100h-70v130h170v-130l-80 -100h-50z" />
    <glyph glyph-name="Ubreve.small" unicode="&#xf69f;" 
d="M300 -10q-131 0 -195.5 59t-64.5 191v340h170v-340q0 -59 17 -84.5t73 -25.5t73 25.5t17 84.5v340h170v-340q0 -132 -64.5 -191t-195.5 -59zM305 736q65 0 87 54h67q-18 -150 -154 -150t-154 150h67q22 -54 87 -54z" />
    <glyph glyph-name="Uhungarumlaut.small" unicode="&#xf6a0;" 
d="M300 -10q-131 0 -195.5 59t-64.5 191v340h170v-340q0 -59 17 -84.5t73 -25.5t73 25.5t17 84.5v340h170v-340q0 -132 -64.5 -191t-195.5 -59zM365 780l-100 -140h-90l50 140h140zM535 780l-100 -140h-90l50 140h140z" />
    <glyph glyph-name="Umacron.small" unicode="&#xf6a1;" 
d="M300 -10q-131 0 -195.5 59t-64.5 191v340h170v-340q0 -59 17 -84.5t73 -25.5t73 25.5t17 84.5v340h170v-340q0 -132 -64.5 -191t-195.5 -59zM132 760h340v-120h-340v120z" />
    <glyph glyph-name="Uring.small" unicode="&#xf6a3;" 
d="M300 -10q-131 0 -195.5 59t-64.5 191v340h170v-340q0 -59 17 -84.5t73 -25.5t73 25.5t17 84.5v340h170v-340q0 -132 -64.5 -191t-195.5 -59zM201 730q0 41 29.5 70.5t70.5 29.5t70.5 -29.5t29.5 -70.5t-29.5 -70.5t-70.5 -29.5t-70.5 29.5t-29.5 70.5zM262 730
q0 -16 11 -27.5t28 -11.5t28 11.5t11 27.5t-11 27.5t-28 11.5t-28 -11.5t-11 -27.5z" />
    <glyph glyph-name="Utilde.small" unicode="&#xf6a4;" 
d="M300 -10q-131 0 -195.5 59t-64.5 191v340h170v-340q0 -59 17 -84.5t73 -25.5t73 25.5t17 84.5v340h170v-340q0 -132 -64.5 -191t-195.5 -59zM236 665q-31 0 -62 -35l-52 40q21 56 51 83t59 27q27 0 72.5 -17.5t60.5 -17.5h5h6h5.5t6 0.5t6 1.5t6.5 2.5t6.5 3.5t7 4.5t8 6
t8.5 7.5l42 -51q-42 -86 -107 -86q-19 0 -64.5 15.5t-64.5 15.5z" />
    <glyph glyph-name="Wacute.small" unicode="&#xf6a5;" horiz-adv-x="900" 
d="M440 290h-2l-63 -295h-210l-155 585h200l79 -360h1l60 360h190l79 -360h1l80 360h190l-155 -585h-230zM600 780l-100 -140h-90l50 140h140z" />
    <glyph glyph-name="Wcircumflex.small" unicode="&#xf6a6;" horiz-adv-x="900" 
d="M440 290h-2l-63 -295h-210l-155 585h200l79 -360h1l60 360h190l79 -360h1l80 360h190l-155 -585h-230zM508 630l-70 48l-70 -48h-90l110 140h100l110 -140h-90z" />
    <glyph glyph-name="Wdieresis.small" unicode="&#xf6a7;" horiz-adv-x="900" 
d="M440 290h-2l-63 -295h-210l-155 585h200l79 -360h1l60 360h190l79 -360h1l80 360h190l-155 -585h-230zM400 780v-140h-150v140h150zM630 780v-140h-150v140h150z" />
    <glyph glyph-name="Wgrave.small" unicode="&#xf6a8;" horiz-adv-x="900" 
d="M440 290h-2l-63 -295h-210l-155 585h200l79 -360h1l60 360h190l79 -360h1l80 360h190l-155 -585h-230zM396 640l-100 140h140l50 -140h-90z" />
    <glyph glyph-name="Ycircumflex.small" unicode="&#xf6a9;" horiz-adv-x="580" 
d="M294 380h2l79 200h195l-195 -400v-180h-170v180l-195 400h205zM366 630l-70 48l-70 -48h-90l110 140h100l110 -140h-90z" />
    <glyph glyph-name="Ygrave.small" unicode="&#xf6aa;" horiz-adv-x="580" 
d="M294 380h2l79 200h195l-195 -400v-180h-170v180l-195 400h205zM251 640l-100 140h140l50 -140h-90z" />
    <glyph glyph-name="Zacute.small" unicode="&#xf6ab;" horiz-adv-x="520" 
d="M255 152v-2h245v-150h-480v130l240 298v2h-220v150h450v-130zM395 780l-100 -140h-90l50 140h140z" />
    <glyph glyph-name="Zdotaccent.small" unicode="&#xf6ac;" horiz-adv-x="520" 
d="M255 152v-2h245v-150h-480v130l240 298v2h-220v150h450v-130zM195 640v140h150v-140h-150z" />
    <glyph glyph-name="Idotaccent.small" unicode="&#xf6ad;" horiz-adv-x="250" 
d="M210 0h-170v580h170v-580zM49 640v140h150v-140h-150z" />
    <glyph glyph-name="dotlessj" unicode="&#xf6be;" horiz-adv-x="270" 
d="M70 -39v539h170v-550q0 -82 -35.5 -121t-134.5 -39q-45 0 -95 10l15 130q25 -5 40 -5q23 0 31.5 7t8.5 29z" />
    <glyph glyph-name="commaaccent" unicode="&#xf6c3;" horiz-adv-x="230" 
d="M70 -270l30 100h-70v130h170v-130l-80 -100h-50z" />
    <glyph glyph-name="Acute" unicode="&#xf6c9;" horiz-adv-x="290" 
d="M240 870l-100 -140h-90l50 140h140z" />
    <glyph glyph-name="Caron" unicode="&#xf6ca;" horiz-adv-x="420" 
d="M210 822l70 48h90l-110 -140h-100l-110 140h90z" />
    <glyph glyph-name="Dieresis" unicode="&#xf6cb;" horiz-adv-x="480" 
d="M200 870v-140h-150v140h150zM430 870v-140h-150v140h150z" />
    <glyph glyph-name="DieresisAcute" unicode="&#xf6cc;" horiz-adv-x="630" 
d="M420 900l-110 -170h-90l50 170h150zM200 870v-140h-150v140h150zM580 870v-140h-150v140h150z" />
    <glyph glyph-name="DieresisGrave" unicode="&#xf6cd;" horiz-adv-x="630" 
d="M320 730l-110 170h150l50 -170h-90zM430 730v140h150v-140h-150zM50 730v140h150v-140h-150z" />
    <glyph glyph-name="Grave" unicode="&#xf6ce;" horiz-adv-x="290" 
d="M150 730l-100 140h140l50 -140h-90z" />
    <glyph glyph-name="Hungarumlaut" unicode="&#xf6cf;" horiz-adv-x="460" 
d="M240 870l-100 -140h-90l50 140h140zM410 870l-100 -140h-90l50 140h140z" />
    <glyph glyph-name="Macron" unicode="&#xf6d0;" horiz-adv-x="440" 
d="M50 850h340v-120h-340v120z" />
    <glyph glyph-name="cyrBreve" unicode="&#xf6d1;" horiz-adv-x="408" 
d="M204 826q65 0 87 54h67q-18 -150 -154 -150t-154 150h67q22 -54 87 -54z" />
    <glyph glyph-name="cyrFlex" unicode="&#xf6d2;" horiz-adv-x="420" 
d="M280 730l-70 48l-70 -48h-90l110 140h100l110 -140h-90z" />
    <glyph glyph-name="dblGrave" unicode="&#xf6d3;" horiz-adv-x="460" 
d="M320 730l-100 140h140l50 -140h-90zM150 730l-100 140h140l50 -140h-90z" />
    <glyph glyph-name="cyrbreve" unicode="&#xf6d4;" horiz-adv-x="408" 
d="M204 656q65 0 87 54h67q-18 -150 -154 -150t-154 150h67q22 -54 87 -54z" />
    <glyph glyph-name="cyrflex" unicode="&#xf6d5;" horiz-adv-x="420" 
d="M280 560l-70 48l-70 -48h-90l110 140h100l110 -140h-90z" />
    <glyph glyph-name="dblgrave" unicode="&#xf6d6;" horiz-adv-x="460" 
d="M320 560l-100 140h140l50 -140h-90zM150 560l-100 140h140l50 -140h-90z" />
    <glyph glyph-name="dieresisacute" unicode="&#xf6d7;" horiz-adv-x="630" 
d="M420 730l-110 -170h-90l50 170h150zM200 700v-140h-150v140h150zM580 700v-140h-150v140h150z" />
    <glyph glyph-name="dieresisgrave" unicode="&#xf6d8;" horiz-adv-x="630" 
d="M320 560l-110 170h150l50 -170h-90zM430 560v140h150v-140h-150zM50 560v140h150v-140h-150z" />
    <glyph glyph-name="rupiah" unicode="&#xf6dd;" horiz-adv-x="1170" 
d="M830 45v-245h-170v200h-275l-123 220h-52v-220h-180v680h290q114 0 182 -61t68 -169q0 -140 -120 -200l75 -130h135v380h170v-50h2q48 60 118 60q93 0 141.5 -74t48.5 -186q0 -110 -53 -185t-147 -75q-64 0 -108 55h-2zM830 350v-200q27 -20 60 -20q70 0 70 120t-70 120
q-33 0 -60 -20zM210 520v-140h90q85 0 85 70t-85 70h-90z" />
    <glyph glyph-name="threequartersemdash" unicode="&#xf6de;" horiz-adv-x="700" 
d="M30 335h640v-140h-640v140z" />
    <glyph glyph-name="centinferior" unicode="&#xf6df;" horiz-adv-x="345" 
d="M203 60q-37 0 -57.5 -23t-20.5 -69q0 -47 21 -72.5t57 -25.5q40 0 82 30l30 -67q-53 -43 -127 -43t-116 50.5t-42 127.5q0 76 41.5 124t116.5 48q73 0 127 -42l-30 -68q-42 30 -82 30zM208 -290h-45v60h45v-60zM208 160h-45v60h45v-60z" />
    <glyph glyph-name="centsuperior" unicode="&#xf6e0;" horiz-adv-x="345" 
d="M203 800q-37 0 -57.5 -23t-20.5 -69q0 -47 21 -72.5t57 -25.5q40 0 82 30l30 -67q-53 -43 -127 -43t-116 50.5t-42 127.5q0 76 41.5 124t116.5 48q73 0 127 -42l-30 -68q-42 30 -82 30zM208 450h-45v60h45v-60zM208 900h-45v60h45v-60z" />
    <glyph glyph-name="commainferior" unicode="&#xf6e1;" horiz-adv-x="168" 
d="M53 -120h85q0 -102 -38 -145h-70q23 46 23 145z" />
    <glyph glyph-name="commasuperior" unicode="&#xf6e2;" horiz-adv-x="168" 
d="M53 620h85q0 -102 -38 -145h-70q23 46 23 145z" />
    <glyph glyph-name="dollarinferior" unicode="&#xf6e3;" horiz-adv-x="335" 
d="M170 -130q40 0 40 25q0 7 -4.5 12t-13.5 8.5t-17 5.5t-19.5 4.5t-17.5 4.5q-98 28 -98 110q0 51 36.5 75.5t93.5 24.5q72 0 125 -35l-35 -70q-49 25 -90 25q-35 0 -35 -20q0 -3 1 -6t4 -5.5t5.5 -4.5t7.5 -4t8.5 -3.5t10 -3.5t10 -3t11 -2.5t10.5 -2.5q102 -25 102 -105
q0 -55 -39.5 -82.5t-100.5 -27.5q-38 0 -75.5 12.5t-59.5 32.5l40 65q50 -30 100 -30zM193 -290h-45v60h45v-60zM193 160h-45v60h45v-60z" />
    <glyph glyph-name="dollarsuperior" unicode="&#xf6e4;" horiz-adv-x="335" 
d="M170 610q40 0 40 25q0 7 -4.5 12t-13.5 8.5t-17 5.5t-19.5 4.5t-17.5 4.5q-98 28 -98 110q0 51 36.5 75.5t93.5 24.5q72 0 125 -35l-35 -70q-49 25 -90 25q-35 0 -35 -20q0 -3 1 -6t4 -5.5t5.5 -4.5t7.5 -4t8.5 -3.5t10 -3.5t10 -3t11 -2.5t10.5 -2.5q102 -25 102 -105
q0 -55 -39.5 -82.5t-100.5 -27.5q-38 0 -75.5 12.5t-59.5 32.5l40 65q50 -30 100 -30zM193 450h-45v60h45v-60zM193 900h-45v60h45v-60z" />
    <glyph glyph-name="hypheninferior" unicode="&#xf6e5;" horiz-adv-x="280" 
d="M30 15h220v-70h-220v70z" />
    <glyph glyph-name="hyphensuperior" unicode="&#xf6e6;" horiz-adv-x="280" 
d="M30 755h220v-70h-220v70z" />
    <glyph glyph-name="periodinferior" unicode="&#xf6e7;" horiz-adv-x="145" 
d="M30 -200v80h85v-80h-85z" />
    <glyph glyph-name="periodsuperior" unicode="&#xf6e8;" horiz-adv-x="145" 
d="M30 540v80h85v-80h-85z" />
    <glyph glyph-name="asuperior" unicode="&#xf6e9;" horiz-adv-x="290" 
d="M58 605l-13 68q65 12 110 12q55 0 80 -17.5t25 -67.5v-170h-85v25h-1q-26 -30 -69 -30q-36 0 -55.5 23t-19.5 57q0 44 32.5 62t72.5 18h40v10q0 13 -9 16.5t-31 3.5q-33 0 -77 -10zM175 500v35h-35q-25 0 -25 -22q0 -23 25 -23q21 0 35 10z" />
    <glyph glyph-name="bsuperior" unicode="&#xf6ea;" horiz-adv-x="300" 
d="M110 453l-15 -25h-65v352h85v-125h1q23 30 64 30q90 0 90 -130q0 -58 -23 -94t-72 -36q-38 0 -64 28h-1zM115 605v-100q15 -10 30 -10q35 0 35 60t-35 60q-15 0 -30 -10z" />
    <glyph glyph-name="dsuperior" unicode="&#xf6eb;" horiz-adv-x="300" 
d="M185 658v122h85v-350h-85v25h-1q-25 -30 -64 -30q-90 0 -90 130q0 58 23 94t72 36q37 0 59 -27h1zM185 505v100q-13 10 -30 10q-35 0 -35 -60t35 -60q17 0 30 10z" />
    <glyph glyph-name="esuperior" unicode="&#xf6ec;" horiz-adv-x="308" 
d="M165 685q52 0 79.5 -20.5t30.5 -54t-1 -75.5h-151q3 -40 55 -40q42 0 77 10l10 -67q-45 -13 -100 -13q-72 0 -103.5 33.5t-31.5 96.5t31.5 96.5t103.5 33.5zM123 588h67q5 32 -30 32q-34 0 -37 -32z" />
    <glyph glyph-name="isuperior" unicode="&#xf6ed;" horiz-adv-x="145" 
d="M30 430v250h85v-250h-85zM30 705v75h85v-75h-85z" />
    <glyph glyph-name="lsuperior" unicode="&#xf6ee;" horiz-adv-x="145" 
d="M30 430v350h85v-350h-85z" />
    <glyph glyph-name="msuperior" unicode="&#xf6ef;" horiz-adv-x="445" 
d="M265 430h-85v154q-1 31 -30 31q-15 0 -35 -10v-175h-85v250h85v-30h1q29 35 74 35q48 0 66 -39q33 39 84 39q36 0 55.5 -23t19.5 -62v-170h-85v150q0 35 -30 35q-15 0 -35 -10v-175z" />
    <glyph glyph-name="osuperior" unicode="&#xf6f0;" horiz-adv-x="315" 
d="M158 615q-22 0 -30 -14t-8 -46t8 -46t30 -14q21 0 29 14.5t8 45.5t-8 45.5t-29 14.5zM158 425q-128 0 -128 130t128 130q127 0 127 -130t-127 -130z" />
    <glyph glyph-name="rsuperior" unicode="&#xf6f1;" horiz-adv-x="225" 
d="M115 430h-85v250h85v-40h1q23 45 79 45v-80q-55 0 -80 -10v-165z" />
    <glyph glyph-name="ssuperior" unicode="&#xf6f2;" horiz-adv-x="285" 
d="M140 493q30 0 30 11q0 7 -30 11q-51 8 -78 28t-27 62q0 80 105 80q59 0 110 -12l-15 -68q-55 13 -90 13q-25 0 -25 -10q0 -5 6.5 -7.5t21.5 -5.5q1 0 13 -3t14.5 -3.5t13.5 -4t15 -5.5t13 -6t12.5 -8t10 -10t9 -12.5t4.5 -14.5t2 -18q0 -85 -105 -85q-71 0 -120 13l15 67
q52 -12 95 -12z" />
    <glyph glyph-name="tsuperior" unicode="&#xf6f3;" horiz-adv-x="233" 
d="M145 620v-104q0 -23 30 -23q6 0 20 2l8 -65q-25 -5 -58 -5q-45 0 -65 18.5t-20 57.5v119h-30v55l30 5l10 70h75v-70h55v-60h-55z" />
    <glyph glyph-name="Brevesmall" unicode="&#xf6f4;" horiz-adv-x="408" 
d="M204 736q65 0 87 54h67q-18 -150 -154 -150t-154 150h67q22 -54 87 -54z" />
    <glyph glyph-name="Caronsmall" unicode="&#xf6f5;" horiz-adv-x="420" 
d="M210 732l70 48h90l-110 -140h-100l-110 140h90z" />
    <glyph glyph-name="Circumflexsmall" unicode="&#xf6f6;" horiz-adv-x="420" 
d="M280 630l-70 48l-70 -48h-90l110 140h100l110 -140h-90z" />
    <glyph glyph-name="Dotaccentsmall" unicode="&#xf6f7;" horiz-adv-x="250" 
d="M50 640v140h150v-140h-150z" />
    <glyph glyph-name="Hungarumlautsmall" unicode="&#xf6f8;" horiz-adv-x="460" 
d="M240 780l-100 -140h-90l50 140h140zM410 780l-100 -140h-90l50 140h140z" />
    <glyph glyph-name="Lslashsmall" unicode="&#xf6f9;" horiz-adv-x="500" 
d="M210 150h270v-150h-440v231l-70 -16v100l70 16v249h170v-208l100 23v-100l-100 -23v-122z" />
    <glyph glyph-name="OEsmall" unicode="&#xf6fa;" horiz-adv-x="930" 
d="M620 150h280v-150h-478q-48 -10 -97 -10q-295 0 -295 305q0 148 71.5 221.5t223.5 73.5q51 0 101 -10h469v-150h-275v-60h230v-150h-230v-70zM325 450q-67 0 -91 -38.5t-24 -116.5q0 -80 24.5 -122.5t90.5 -42.5t90.5 42.5t24.5 122.5q0 78 -24 116.5t-91 38.5z" />
    <glyph glyph-name="Ogoneksmall" unicode="&#xf6fb;" horiz-adv-x="314" 
d="M259 -137l5 -39q-37 -29 -100 -29q-51 0 -82.5 24t-31.5 60q0 69 86 121h80q-53 -44 -53 -91q0 -25 16 -39t44 -14q18 0 36 7z" />
    <glyph glyph-name="Ringsmall" unicode="&#xf6fc;" horiz-adv-x="300" 
d="M50 730q0 41 29.5 70.5t70.5 29.5t70.5 -29.5t29.5 -70.5t-29.5 -70.5t-70.5 -29.5t-70.5 29.5t-29.5 70.5zM111 730q0 -16 11.5 -27.5t27.5 -11.5t27.5 11.5t11.5 27.5t-11.5 27.5t-27.5 11.5t-27.5 -11.5t-11.5 -27.5z" />
    <glyph glyph-name="Scaronsmall" unicode="&#xf6fd;" horiz-adv-x="570" 
d="M235 216q-96 16 -140.5 60.5t-44.5 123.5q0 190 230 190q117 0 250 -40l-40 -140q-132 30 -205 30q-33 0 -44 -6t-11 -19q0 -18 24 -26t76 -16q13 -2 20 -3q190 -30 190 -190q0 -96 -69 -143t-181 -47q-127 0 -260 40l40 140q132 -30 225 -30q65 0 65 30q0 18 -16.5 24.5
t-72.5 15.5q-23 4 -36 6zM297 732l70 48h90l-110 -140h-100l-110 140h90z" />
    <glyph glyph-name="Tildesmall" unicode="&#xf6fe;" horiz-adv-x="450" 
d="M164 665q-31 0 -62 -35l-52 40q21 56 51 83t59 27q27 0 72.5 -17.5t60.5 -17.5h5h6h5.5t6 0.5t6 1.5t6.5 2.5t6.5 3.5t7 4.5t8 6t8.5 7.5l42 -51q-42 -86 -107 -86q-19 0 -64.5 15.5t-64.5 15.5z" />
    <glyph glyph-name="Zcaronsmall" unicode="&#xf6ff;" horiz-adv-x="520" 
d="M255 152v-2h245v-150h-480v130l240 298v2h-220v150h450v-130zM270 732l70 48h90l-110 -140h-100l-110 140h90z" />
    <glyph glyph-name="exclamsmall" unicode="&#xf721;" horiz-adv-x="230" 
d="M30 0v160h170v-160h-170zM40 220l-10 380h170l-10 -380h-150z" />
    <glyph glyph-name="dollaroldstyle" unicode="&#xf724;" horiz-adv-x="510" 
d="M480 160q0 -84 -61.5 -127t-148.5 -43q-64 0 -133.5 13t-106.5 32l30 125q98 -35 190 -35q60 0 60 23q0 5 -3 8.5t-10 5.5t-12.5 3t-17 2.5t-17.5 2.5q-101 17 -155.5 56.5t-54.5 123.5q0 83 60.5 121.5t149.5 38.5q133 0 220 -45l-30 -125q-105 35 -180 35
q-50 0 -50 -20q0 -3 0.5 -4.5t2 -3.5t3 -3t4.5 -2.5t5.5 -2.5t8 -2t9 -2t10.5 -2.5t12 -2.5q95 -22 126 -37q89 -42 89 -133zM300 -130h-90v100h90v-100zM300 530h-90v100h90v-100z" />
    <glyph glyph-name="ampersandsmall" unicode="&#xf726;" horiz-adv-x="905" 
d="M760 210v-39q0 -46 60 -46q15 0 40 5l15 -130q-50 -10 -115 -10q-91 0 -130.5 37t-39.5 114v69h-375q18 -80 110 -80q55 0 145 30l20 -130q-93 -40 -190 -40q-124 0 -197 70t-73 190t73 190t197 70q105 0 159 -52.5t63 -142.5h68l20 185h150v-185h110v-105h-110zM215 315
h135q4 31 -11.5 48t-48.5 17q-29 0 -50 -16.5t-25 -48.5z" />
    <glyph glyph-name="zerooldstyle" unicode="&#xf730;" horiz-adv-x="590" 
d="M295 370q-38 0 -61.5 -31t-23.5 -89t23.5 -89t61.5 -31t61.5 31t23.5 89t-23.5 89t-61.5 31zM295 -10q-123 0 -194 70t-71 190t71 190t194 70t194 -70t71 -190t-71 -190t-194 -70z" />
    <glyph glyph-name="oneoldstyle" unicode="&#xf731;" horiz-adv-x="410" 
d="M190 307l-118 -42l-42 140q143 46 205 100h125v-505h-170v307z" />
    <glyph glyph-name="twooldstyle" unicode="&#xf732;" horiz-adv-x="590" 
d="M280 355q-83 0 -190 -30l-40 145q120 40 260 40q105 0 162.5 -42.5t57.5 -117.5q0 -116 -146 -176q-26 -11 -94 -32v-2l250 10v-150h-490v160q36 13 97.5 33.5t87.5 30.5t58.5 25t44.5 29.5t12 31.5q0 45 -70 45z" />
    <glyph glyph-name="threeoldstyle" unicode="&#xf733;" horiz-adv-x="570" 
d="M270 370q-81 0 -177 -40l-50 130q115 50 257 50q92 0 156 -47t64 -134q0 -104 -108 -150v-2q66 -19 97 -64.5t31 -102.5q0 -96 -69 -148t-191 -52q-138 0 -250 50l50 130q93 -40 190 -40q46 0 70.5 20.5t24.5 49.5q0 39 -26.5 54.5t-78.5 15.5h-95v140h87q60 0 79 22.5
t19 57.5q0 27 -21.5 43.5t-58.5 16.5z" />
    <glyph glyph-name="fouroldstyle" unicode="&#xf734;" 
d="M193 140h127v180h-2q-52 -89 -125 -180zM280 505h210v-365h80v-140h-80v-170h-170v170h-300v140q73 79 105 116.5t77 105.5t78 143z" />
    <glyph glyph-name="fiveoldstyle" unicode="&#xf735;" horiz-adv-x="570" 
d="M540 50q0 -118 -70.5 -179t-199.5 -61q-128 0 -240 50l50 130q93 -40 180 -40q52 0 76 26t24 64q0 36 -19.5 63t-65.5 27q-51 0 -85 -30l-120 10l10 390h420v-150h-273l-5 -104l2 -1q52 30 113 30q92 0 147.5 -58t55.5 -167z" />
    <glyph glyph-name="sixoldstyle" unicode="&#xf736;" horiz-adv-x="570" 
d="M200 403l2 -1q51 53 128 53q98 0 154 -62t56 -173q0 -107 -67.5 -168.5t-179.5 -61.5q-87 0 -148 44.5t-88 113t-27 152.5q0 390 309 390q91 0 180 -30l-20 -130q-87 20 -145 20q-19 0 -37.5 -3t-41 -12.5t-38.5 -24.5t-27 -42.5t-10 -64.5zM215 280q-4 -37 -2 -70
t20.5 -56.5t51.5 -23.5t54 23.5t21 66.5q0 36 -17.5 62t-58.5 26q-34 0 -69 -28z" />
    <glyph glyph-name="sevenoldstyle" unicode="&#xf737;" horiz-adv-x="500" 
d="M295 348v2h-275v150h460v-120q-44 -80 -66.5 -124.5t-55 -118.5t-53.5 -150.5t-35 -166.5h-190q23 128 80 269.5t135 258.5z" />
    <glyph glyph-name="eightoldstyle" unicode="&#xf738;" horiz-adv-x="590" 
d="M316 419q22 9 38 30t16 46q0 29 -20.5 49.5t-59.5 20.5q-33 0 -51.5 -18.5t-18.5 -41.5q0 -32 29 -54.5t67 -31.5zM269 270q-28 -12 -46 -33t-18 -47q0 -30 24.5 -52.5t71.5 -22.5q43 0 63.5 17t20.5 43q0 17 -6.5 30t-23 24t-25 15.5t-33.5 14.5t-28 11zM290 -10
q-109 0 -184.5 44t-75.5 138q0 111 116 161v2q-96 57 -96 165q0 63 38 107.5t93 63.5t119 19q94 0 167 -47.5t73 -133.5q0 -50 -24 -85.5t-74 -64.5v-2q118 -63 118 -167q0 -101 -78 -150.5t-192 -49.5z" />
    <glyph glyph-name="nineoldstyle" unicode="&#xf739;" horiz-adv-x="570" 
d="M370 97l-2 1q-51 -53 -128 -53q-98 0 -154 62t-56 173q0 107 67.5 168.5t179.5 61.5q87 0 148 -44.5t88 -113t27 -152.5q0 -390 -309 -390q-91 0 -180 30l20 130q87 -20 145 -20q19 0 37.5 3t41 12.5t38.5 24.5t27 42.5t10 64.5zM355 220q4 37 2 70t-20.5 56.5
t-51.5 23.5t-54 -23.5t-21 -66.5q0 -36 17.5 -62t58.5 -26q34 0 69 28z" />
    <glyph glyph-name="questionsmall" unicode="&#xf73f;" horiz-adv-x="500" 
d="M255 610q62 0 106.5 -14.5t67 -39t32 -50.5t9.5 -56q0 -46 -16.5 -78t-40 -47.5t-47 -27.5t-40 -28t-16.5 -39v-20h-150v30q0 47 14 78t34 43.5t39.5 20t33.5 17t14 26.5q0 35 -75 35q-63 0 -152 -35l-38 125q43 24 107.5 42t117.5 18zM150 0v160h170v-160h-170z" />
    <glyph glyph-name="Gravesmall" unicode="&#xf760;" horiz-adv-x="290" 
d="M150 640l-100 140h140l50 -140h-90z" />
    <glyph glyph-name="Asmall" unicode="&#xf761;" horiz-adv-x="610" 
d="M200 0h-190l195 585h200l195 -585h-200l-25 85h-150zM301 360h-1l-39 -135h78z" />
    <glyph glyph-name="Bsmall" unicode="&#xf762;" horiz-adv-x="570" 
d="M310 230h-100v-80h100q60 0 60 40t-60 40zM290 430h-80v-70h80q32 0 46 7t14 28t-14 28t-46 7zM435 305v-2q47 -11 81 -47.5t34 -95.5q0 -160 -210 -160h-300v580h300q91 0 140.5 -38t49.5 -112q0 -49 -27 -81t-68 -44z" />
    <glyph glyph-name="Csmall" unicode="&#xf763;" horiz-adv-x="580" 
d="M30 290q0 149 73.5 224.5t231.5 75.5q131 0 225 -40l-40 -140q-90 30 -180 30q-64 0 -97 -34t-33 -116t33 -116t97 -34q90 0 180 30l40 -140q-94 -40 -225 -40q-158 0 -231.5 75.5t-73.5 224.5z" />
    <glyph glyph-name="Dsmall" unicode="&#xf764;" horiz-adv-x="610" 
d="M40 580h260q280 0 280 -285q0 -142 -70 -218.5t-210 -76.5h-260v580zM290 430h-80v-280h80q60 0 85 33t25 112q0 77 -24.5 106t-85.5 29z" />
    <glyph glyph-name="Esmall" unicode="&#xf765;" horiz-adv-x="520" 
d="M210 150h280v-150h-450v580h445v-150h-275v-60h230v-150h-230v-70z" />
    <glyph glyph-name="Fsmall" unicode="&#xf766;" horiz-adv-x="495" 
d="M210 0h-170v580h435v-150h-265v-80h220v-150h-220v-200z" />
    <glyph glyph-name="Gsmall" unicode="&#xf767;" 
d="M340 140q32 0 50 2v68h-60v120h230v-300q-94 -40 -225 -40q-158 0 -231.5 75.5t-73.5 224.5t73.5 224.5t231.5 75.5q131 0 225 -40l-40 -140q-90 30 -180 30q-64 0 -97 -34t-33 -116t33 -116t97 -34z" />
    <glyph glyph-name="Hsmall" unicode="&#xf768;" 
d="M390 220h-180v-220h-170v580h170v-210h180v210h170v-580h-170v220z" />
    <glyph glyph-name="Ismall" unicode="&#xf769;" horiz-adv-x="250" 
d="M210 0h-170v580h170v-580z" />
    <glyph glyph-name="Jsmall" unicode="&#xf76a;" horiz-adv-x="360" 
d="M150 191v389h170v-389q0 -109 -47.5 -155t-142.5 -46q-53 0 -120 10l15 150q30 -5 55 -5q35 0 52.5 9t17.5 37z" />
    <glyph glyph-name="Ksmall" unicode="&#xf76b;" horiz-adv-x="605" 
d="M380 0l-125 205l-45 -56v-149h-170v580h170v-195l175 195h210l-219 -251l219 -329h-215z" />
    <glyph glyph-name="Lsmall" unicode="&#xf76c;" horiz-adv-x="500" 
d="M210 150h270v-150h-440v580h170v-430z" />
    <glyph glyph-name="Msmall" unicode="&#xf76d;" horiz-adv-x="760" 
d="M385 280h2l93 300h240v-580h-170v310h-2l-108 -310h-130l-103 310h-2v-310h-165v580h240z" />
    <glyph glyph-name="Nsmall" unicode="&#xf76e;" horiz-adv-x="610" 
d="M570 0h-180l-183 295h-2v-295h-165v580h180l183 -295h2v295h165v-580z" />
    <glyph glyph-name="Osmall" unicode="&#xf76f;" horiz-adv-x="650" 
d="M325 450q-67 0 -91 -38.5t-24 -116.5q0 -80 24.5 -122.5t90.5 -42.5t90.5 42.5t24.5 122.5q0 78 -24 116.5t-91 38.5zM325 -10q-295 0 -295 305q0 148 71.5 221.5t223.5 73.5t223.5 -73.5t71.5 -221.5q0 -305 -295 -305z" />
    <glyph glyph-name="Psmall" unicode="&#xf770;" horiz-adv-x="560" 
d="M300 160h-90v-160h-170v580h260q116 0 178 -52t62 -158t-62 -158t-178 -52zM210 430v-120h80q75 0 75 60t-75 60h-80z" />
    <glyph glyph-name="Qsmall" unicode="&#xf771;" horiz-adv-x="650" 
d="M325 450q-67 0 -91 -38.5t-24 -116.5q0 -80 24.5 -122.5t90.5 -42.5t90.5 42.5t24.5 122.5q0 78 -24 116.5t-91 38.5zM600 30v-140q-227 -27 -308 102q-136 9 -199 85.5t-63 217.5q0 148 71.5 221.5t223.5 73.5t223.5 -73.5t71.5 -221.5q0 -124 -53.5 -185.5
t-141.5 -74.5v-5q44 -11 175 0z" />
    <glyph glyph-name="Rsmall" unicode="&#xf772;" horiz-adv-x="575" 
d="M355 0l-93 160h-52v-160h-170v580h260q114 0 177 -53.5t63 -156.5q0 -130 -100 -180l125 -190h-210zM210 430v-120h90q33 0 49 12.5t16 47.5t-16 47.5t-49 12.5h-90z" />
    <glyph glyph-name="Ssmall" unicode="&#xf773;" horiz-adv-x="570" 
d="M235 216q-96 16 -140.5 60.5t-44.5 123.5q0 190 230 190q117 0 250 -40l-40 -140q-132 30 -205 30q-33 0 -44 -6t-11 -19q0 -18 24 -26t76 -16q13 -2 20 -3q190 -30 190 -190q0 -96 -69 -143t-181 -47q-127 0 -260 40l40 140q132 -30 225 -30q65 0 65 30q0 18 -16.5 24.5
t-72.5 15.5q-23 4 -36 6z" />
    <glyph glyph-name="Tsmall" unicode="&#xf774;" horiz-adv-x="520" 
d="M500 430h-155v-430h-170v430h-155v150h480v-150z" />
    <glyph glyph-name="Usmall" unicode="&#xf775;" 
d="M300 -10q-131 0 -195.5 59t-64.5 191v340h170v-340q0 -59 17 -84.5t73 -25.5t73 25.5t17 84.5v340h170v-340q0 -132 -64.5 -191t-195.5 -59z" />
    <glyph glyph-name="Vsmall" unicode="&#xf776;" horiz-adv-x="610" 
d="M309 220h1l100 360h190l-195 -585h-200l-195 585h200z" />
    <glyph glyph-name="Wsmall" unicode="&#xf777;" horiz-adv-x="900" 
d="M440 290h-2l-63 -295h-210l-155 585h200l79 -360h1l60 360h190l79 -360h1l80 360h190l-155 -585h-230z" />
    <glyph glyph-name="Xsmall" unicode="&#xf778;" horiz-adv-x="610" 
d="M600 0h-215l-95 155l-90 -155h-190l180 290l-175 290h200l88 -135l82 135h200l-185 -280z" />
    <glyph glyph-name="Ysmall" unicode="&#xf779;" horiz-adv-x="580" 
d="M294 380h2l79 200h195l-195 -400v-180h-170v180l-195 400h205z" />
    <glyph glyph-name="Zsmall" unicode="&#xf77a;" horiz-adv-x="520" 
d="M255 152v-2h245v-150h-480v130l240 298v2h-220v150h450v-130z" />
    <glyph glyph-name="exclamdownsmall" unicode="&#xf7a1;" horiz-adv-x="230" 
d="M30 440v160h170v-160h-170zM30 0l10 380h150l10 -380h-170z" />
    <glyph glyph-name="centoldstyle" unicode="&#xf7a2;" horiz-adv-x="510" 
d="M300 -10q-124 0 -197 70t-73 190t73 190t197 70q87 0 180 -40l-20 -130q-78 30 -145 30q-46 0 -75.5 -28.5t-29.5 -91.5t29.5 -91.5t75.5 -28.5q67 0 145 30l20 -130q-93 -40 -180 -40zM340 -130h-90v100h90v-100zM340 530h-90v100h90v-100z" />
    <glyph glyph-name="Dieresissmall" unicode="&#xf7a8;" horiz-adv-x="480" 
d="M200 780v-140h-150v140h150zM430 780v-140h-150v140h150z" />
    <glyph glyph-name="Macronsmall" unicode="&#xf7af;" horiz-adv-x="440" 
d="M50 760h340v-120h-340v120z" />
    <glyph glyph-name="Acutesmall" unicode="&#xf7b4;" horiz-adv-x="290" 
d="M240 780l-100 -140h-90l50 140h140z" />
    <glyph glyph-name="Cedillasmall" unicode="&#xf7b8;" horiz-adv-x="294" 
d="M101 -80v80h60v-50q83 -14 83 -74q0 -38 -28 -59.5t-79 -21.5q-47 0 -87 12l9 52q21 -4 43 -4q39 0 39 30q0 23 -40 35z" />
    <glyph glyph-name="questiondownsmall" unicode="&#xf7bf;" horiz-adv-x="500" 
d="M245 -10q-62 0 -106.5 14.5t-67 39t-32 50.5t-9.5 56q0 46 16.5 78t40 47.5t47 27.5t40 28t16.5 39v20h150v-30q0 -47 -14 -78t-33.5 -43.5t-39.5 -20t-34 -17t-14 -26.5q0 -35 75 -35q63 0 152 35l38 -125q-43 -24 -107.5 -42t-117.5 -18zM350 600v-160h-170v160h170z
" />
    <glyph glyph-name="Agravesmall" unicode="&#xf7e0;" horiz-adv-x="610" 
d="M255 640l-100 140h140l50 -140h-90zM200 0h-190l195 585h200l195 -585h-200l-25 85h-150zM301 360h-1l-39 -135h78z" />
    <glyph glyph-name="Aacutesmall" unicode="&#xf7e1;" horiz-adv-x="610" 
d="M446 780l-100 -140h-90l50 140h140zM200 0h-190l195 585h200l195 -585h-200l-25 85h-150zM301 360h-1l-39 -135h78z" />
    <glyph glyph-name="Acircumflexsmall" unicode="&#xf7e2;" horiz-adv-x="610" 
d="M371 630l-70 48l-70 -48h-90l110 140h100l110 -140h-90zM200 0h-190l195 585h200l195 -585h-200l-25 85h-150zM301 360h-1l-39 -135h78z" />
    <glyph glyph-name="Atildesmall" unicode="&#xf7e3;" horiz-adv-x="610" 
d="M239 665q-31 0 -62 -35l-52 40q21 56 51 83t59 27q27 0 72.5 -17.5t60.5 -17.5h5h6h5.5t6 0.5t6 1.5t6.5 2.5t6.5 3.5t7 4.5t8 6t8.5 7.5l42 -51q-42 -86 -107 -86q-19 0 -64.5 15.5t-64.5 15.5zM200 0h-190l195 585h200l195 -585h-200l-25 85h-150zM301 360h-1l-39 -135
h78z" />
    <glyph glyph-name="Adieresissmall" unicode="&#xf7e4;" horiz-adv-x="610" 
d="M260 780v-140h-150v140h150zM490 780v-140h-150v140h150zM200 0h-190l195 585h200l195 -585h-200l-25 85h-150zM301 360h-1l-39 -135h78z" />
    <glyph glyph-name="Aringsmall" unicode="&#xf7e5;" horiz-adv-x="610" 
d="M200 730q0 41 29.5 70.5t70.5 29.5t70.5 -29.5t29.5 -70.5t-29.5 -70.5t-70.5 -29.5t-70.5 29.5t-29.5 70.5zM261 730q0 -16 11.5 -27.5t27.5 -11.5t27.5 11.5t11.5 27.5t-11.5 27.5t-27.5 11.5t-27.5 -11.5t-11.5 -27.5zM200 0h-190l195 585h200l195 -585h-200l-25 85
h-150zM301 360h-1l-39 -135h78z" />
    <glyph glyph-name="AEsmall" unicode="&#xf7e6;" horiz-adv-x="886" 
d="M189 0h-179l306 580h535v-150h-275v-60h230v-150h-230v-70h280v-150h-450v135h-150zM326 275h80v155h-2z" />
    <glyph glyph-name="Ccedillasmall" unicode="&#xf7e7;" horiz-adv-x="580" 
d="M30 290q0 149 73.5 224.5t231.5 75.5q131 0 225 -40l-40 -140q-90 30 -180 30q-64 0 -97 -34t-33 -116t33 -116t97 -34q90 0 180 30l40 -140q-84 -36 -203 -40v-40q83 -14 83 -74q0 -38 -28 -59.5t-79 -21.5q-47 0 -87 12l9 52q21 -4 43 -4q39 0 39 30q0 23 -40 35v72
q-138 8 -202.5 83t-64.5 215z" />
    <glyph glyph-name="Egravesmall" unicode="&#xf7e8;" horiz-adv-x="520" 
d="M210 150h280v-150h-450v580h445v-150h-275v-60h230v-150h-230v-70zM196 640l-100 140h140l50 -140h-90z" />
    <glyph glyph-name="Eacutesmall" unicode="&#xf7e9;" horiz-adv-x="520" 
d="M210 150h280v-150h-450v580h445v-150h-275v-60h230v-150h-230v-70zM440 780l-100 -140h-90l50 140h140z" />
    <glyph glyph-name="Ecircumflexsmall" unicode="&#xf7ea;" horiz-adv-x="520" 
d="M210 150h280v-150h-450v580h445v-150h-275v-60h230v-150h-230v-70zM333 630l-70 48l-70 -48h-90l110 140h100l110 -140h-90z" />
    <glyph glyph-name="Edieresissmall" unicode="&#xf7eb;" horiz-adv-x="520" 
d="M210 150h280v-150h-450v580h445v-150h-275v-60h230v-150h-230v-70zM222 780v-140h-150v140h150zM452 780v-140h-150v140h150z" />
    <glyph glyph-name="Igravesmall" unicode="&#xf7ec;" horiz-adv-x="250" 
d="M210 0h-170v580h170v-580zM78 640l-100 140h140l50 -140h-90z" />
    <glyph glyph-name="Iacutesmall" unicode="&#xf7ed;" horiz-adv-x="250" 
d="M210 0h-170v580h170v-580zM271 780l-100 -140h-90l50 140h140z" />
    <glyph glyph-name="Icircumflexsmall" unicode="&#xf7ee;" horiz-adv-x="250" 
d="M210 0h-170v580h170v-580zM195 630l-70 48l-70 -48h-90l110 140h100l110 -140h-90z" />
    <glyph glyph-name="Idieresissmall" unicode="&#xf7ef;" horiz-adv-x="250" 
d="M210 0h-170v580h170v-580zM85 780v-140h-150v140h150zM315 780v-140h-150v140h150z" />
    <glyph glyph-name="Ethsmall" unicode="&#xf7f0;" horiz-adv-x="610" 
d="M230 150h60q60 0 85 33t25 112q0 77 -24.5 106t-85.5 29h-60v-85h100v-100h-100v-95zM300 0h-240v245h-70v100h70v235h240q280 0 280 -285q0 -142 -70 -218.5t-210 -76.5z" />
    <glyph glyph-name="Ntildesmall" unicode="&#xf7f1;" horiz-adv-x="610" 
d="M570 0h-180l-183 295h-2v-295h-165v580h180l183 -295h2v295h165v-580zM244 665q-31 0 -62 -35l-52 40q21 56 51 83t59 27q27 0 72.5 -17.5t60.5 -17.5h5h6h5.5t6 0.5t6 1.5t6.5 2.5t6.5 3.5t7 4.5t8 6t8.5 7.5l42 -51q-42 -86 -107 -86q-19 0 -64.5 15.5t-64.5 15.5z" />
    <glyph glyph-name="Ogravesmall" unicode="&#xf7f2;" horiz-adv-x="650" 
d="M325 450q-67 0 -91 -38.5t-24 -116.5q0 -80 24.5 -122.5t90.5 -42.5t90.5 42.5t24.5 122.5q0 78 -24 116.5t-91 38.5zM325 -10q-295 0 -295 305q0 148 71.5 221.5t223.5 73.5t223.5 -73.5t71.5 -221.5q0 -305 -295 -305zM294 640l-100 140h140l50 -140h-90z" />
    <glyph glyph-name="Oacutesmall" unicode="&#xf7f3;" horiz-adv-x="650" 
d="M325 450q-67 0 -91 -38.5t-24 -116.5q0 -80 24.5 -122.5t90.5 -42.5t90.5 42.5t24.5 122.5q0 78 -24 116.5t-91 38.5zM325 -10q-295 0 -295 305q0 148 71.5 221.5t223.5 73.5t223.5 -73.5t71.5 -221.5q0 -305 -295 -305zM464 780l-100 -140h-90l50 140h140z" />
    <glyph glyph-name="Ocircumflexsmall" unicode="&#xf7f4;" horiz-adv-x="650" 
d="M325 450q-67 0 -91 -38.5t-24 -116.5q0 -80 24.5 -122.5t90.5 -42.5t90.5 42.5t24.5 122.5q0 78 -24 116.5t-91 38.5zM325 -10q-295 0 -295 305q0 148 71.5 221.5t223.5 73.5t223.5 -73.5t71.5 -221.5q0 -305 -295 -305zM393 630l-70 48l-70 -48h-90l110 140h100
l110 -140h-90z" />
    <glyph glyph-name="Otildesmall" unicode="&#xf7f5;" horiz-adv-x="650" 
d="M325 450q-67 0 -91 -38.5t-24 -116.5q0 -80 24.5 -122.5t90.5 -42.5t90.5 42.5t24.5 122.5q0 78 -24 116.5t-91 38.5zM325 -10q-295 0 -295 305q0 148 71.5 221.5t223.5 73.5t223.5 -73.5t71.5 -221.5q0 -305 -295 -305zM262 665q-31 0 -62 -35l-52 40q21 56 51 83t59 27
q27 0 72.5 -17.5t60.5 -17.5h5h6h5.5t6 0.5t6 1.5t6.5 2.5t6.5 3.5t7 4.5t8 6t8.5 7.5l42 -51q-42 -86 -107 -86q-19 0 -64.5 15.5t-64.5 15.5z" />
    <glyph glyph-name="Odieresissmall" unicode="&#xf7f6;" horiz-adv-x="650" 
d="M325 450q-67 0 -91 -38.5t-24 -116.5q0 -80 24.5 -122.5t90.5 -42.5t90.5 42.5t24.5 122.5q0 78 -24 116.5t-91 38.5zM325 -10q-295 0 -295 305q0 148 71.5 221.5t223.5 73.5t223.5 -73.5t71.5 -221.5q0 -305 -295 -305zM283 780v-140h-150v140h150zM513 780v-140h-150
v140h150z" />
    <glyph glyph-name="Oslashsmall" unicode="&#xf7f8;" horiz-adv-x="650" 
d="M325 -10q-103 0 -171 37l-54 -67l-50 40l53 66q-73 76 -73 229q0 148 71.5 221.5t223.5 73.5q105 0 172 -36l53 66l50 -40l-52 -64q72 -72 72 -221q0 -305 -295 -305zM325 450q-67 0 -91 -38.5t-24 -116.5q0 -53 8 -86l179 221q-26 20 -72 20zM440 295q0 48 -8 77
l-178 -221q25 -21 71 -21q66 0 90.5 42.5t24.5 122.5z" />
    <glyph glyph-name="Ugravesmall" unicode="&#xf7f9;" 
d="M300 -10q-131 0 -195.5 59t-64.5 191v340h170v-340q0 -59 17 -84.5t73 -25.5t73 25.5t17 84.5v340h170v-340q0 -132 -64.5 -191t-195.5 -59zM251 640l-100 140h140l50 -140h-90z" />
    <glyph glyph-name="Uacutesmall" unicode="&#xf7fa;" 
d="M300 -10q-131 0 -195.5 59t-64.5 191v340h170v-340q0 -59 17 -84.5t73 -25.5t73 25.5t17 84.5v340h170v-340q0 -132 -64.5 -191t-195.5 -59zM449 780l-100 -140h-90l50 140h140z" />
    <glyph glyph-name="Ucircumflexsmall" unicode="&#xf7fb;" 
d="M300 -10q-131 0 -195.5 59t-64.5 191v340h170v-340q0 -59 17 -84.5t73 -25.5t73 25.5t17 84.5v340h170v-340q0 -132 -64.5 -191t-195.5 -59zM371 630l-70 48l-70 -48h-90l110 140h100l110 -140h-90z" />
    <glyph glyph-name="Udieresissmall" unicode="&#xf7fc;" 
d="M300 -10q-131 0 -195.5 59t-64.5 191v340h170v-340q0 -59 17 -84.5t73 -25.5t73 25.5t17 84.5v340h170v-340q0 -132 -64.5 -191t-195.5 -59zM261 780v-140h-150v140h150zM491 780v-140h-150v140h150z" />
    <glyph glyph-name="Yacutesmall" unicode="&#xf7fd;" horiz-adv-x="580" 
d="M294 380h2l79 200h195l-195 -400v-180h-170v180l-195 400h205zM447 780l-100 -140h-90l50 140h140z" />
    <glyph glyph-name="Thornsmall" unicode="&#xf7fe;" horiz-adv-x="550" 
d="M290 80h-80v-80h-170v580h170v-80h80q117 0 183.5 -52.5t66.5 -157.5t-66.5 -157.5t-183.5 -52.5zM210 350v-120h80q75 0 75 60t-75 60h-80z" />
    <glyph glyph-name="Ydieresissmall" unicode="&#xf7ff;" horiz-adv-x="580" 
d="M294 380h2l79 200h195l-195 -400v-180h-170v180l-195 400h205zM254 780v-140h-150v140h150zM484 780v-140h-150v140h150z" />
    <glyph glyph-name="Breve" horiz-adv-x="408" 
d="M204 826q65 0 87 54h67q-18 -150 -154 -150t-154 150h67q22 -54 87 -54z" />
    <glyph glyph-name="Cedilla" horiz-adv-x="294" 
d="M101 -80v80h60v-50q83 -14 83 -74q0 -38 -28 -59.5t-79 -21.5q-47 0 -87 12l9 52q21 -4 43 -4q39 0 39 30q0 23 -40 35z" />
    <glyph glyph-name="Circumflex" horiz-adv-x="420" 
d="M280 730l-70 48l-70 -48h-90l110 140h100l110 -140h-90z" />
    <glyph glyph-name="commaaccent.cap" horiz-adv-x="230" 
d="M70 -270l30 100h-70v130h170v-130l-80 -100h-50z" />
    <glyph glyph-name="Dotaccent" horiz-adv-x="250" 
d="M50 730v140h150v-140h-150z" />
    <glyph glyph-name="Ogonek" horiz-adv-x="314" 
d="M259 -137l5 -39q-37 -29 -100 -29q-51 0 -82.5 24t-31.5 60q0 69 86 121h80q-53 -44 -53 -91q0 -25 16 -39t44 -14q18 0 36 7z" />
    <glyph glyph-name="Ring" horiz-adv-x="300" 
d="M50 820q0 41 29.5 70.5t70.5 29.5t70.5 -29.5t29.5 -70.5t-29.5 -70.5t-70.5 -29.5t-70.5 29.5t-29.5 70.5zM111 820q0 -16 11.5 -27.5t27.5 -11.5t27.5 11.5t11.5 27.5t-11.5 27.5t-27.5 11.5t-27.5 -11.5t-11.5 -27.5z" />
    <glyph glyph-name="Tilde" horiz-adv-x="450" 
d="M164 755q-31 0 -62 -35l-52 40q21 56 51 83t59 27q27 0 72.5 -17.5t60.5 -17.5h5h6h5.5t6 0.5t6 1.5t6.5 2.5t6.5 3.5t7 4.5t8 6t8.5 7.5l42 -51q-42 -86 -107 -86q-19 0 -64.5 15.5t-64.5 15.5z" />
    <glyph glyph-name="commaaccent.small" horiz-adv-x="230" 
d="M70 -270l30 100h-70v130h170v-130l-80 -100h-50z" />
    <glyph glyph-name="DieresisAcute.small" horiz-adv-x="630" 
d="M420 810l-110 -170h-90l50 170h150zM200 780v-140h-150v140h150zM580 780v-140h-150v140h150z" />
    <glyph glyph-name="DieresisGrave.small" horiz-adv-x="630" 
d="M320 640l-110 170h150l50 -170h-90zM430 640v140h150v-140h-150zM50 640v140h150v-140h-150z" />
    <glyph glyph-name="dblGrave.small" horiz-adv-x="460" 
d="M320 640l-100 140h140l50 -140h-90zM150 640l-100 140h140l50 -140h-90z" />
    <glyph glyph-name="middot" horiz-adv-x="250" 
d="M50 240v140h150v-140h-150z" />
    <glyph glyph-name="Aogonek.small" horiz-adv-x="610" 
d="M595 -137l5 -39q-37 -29 -100 -29q-51 0 -82.5 24t-31.5 60q0 69 86 121h-72l-25 85h-150l-25 -85h-190l195 585h200l195 -585h-48q-53 -44 -53 -91q0 -25 16 -39t44 -14q18 0 36 7zM301 360h-1l-39 -135h78z" />
    <glyph glyph-name="Dcroat.small" horiz-adv-x="610" 
d="M230 150h60q60 0 85 33t25 112q0 77 -24.5 106t-85.5 29h-60v-85h100v-100h-100v-95zM300 0h-240v245h-70v100h70v235h240q280 0 280 -285q0 -142 -70 -218.5t-210 -76.5z" />
    <glyph glyph-name="Eogonek.small" horiz-adv-x="520" 
d="M533 -137l5 -39q-37 -29 -100 -29q-51 0 -82.5 24t-31.5 60q0 69 86 121h-370v580h445v-150h-275v-60h230v-150h-230v-70h280v-150q-53 -44 -53 -91q0 -25 16 -39t44 -14q18 0 36 7z" />
    <glyph glyph-name="Hbar.small" horiz-adv-x="620" 
d="M-20 520h70v60h170v-60h180v60h170v-60h70v-100h-70v-420h-170v220h-180v-220h-170v420h-70v100zM220 370h180v50h-180v-50z" />
    <glyph glyph-name="Iogonek.small" horiz-adv-x="250" 
d="M215 -137l5 -39q-37 -29 -100 -29q-51 0 -82.5 24t-31.5 60q0 69 86 121h-52v580h170v-580h-38q-53 -44 -53 -91q0 -25 16 -39t44 -14q18 0 36 7z" />
    <glyph glyph-name="IJ.small" horiz-adv-x="610" 
d="M210 0h-170v580h170v-580zM400 191v389h170v-389q0 -109 -47.5 -155t-142.5 -46q-53 0 -120 10l15 150q30 -5 55 -5q35 0 52.5 9t17.5 37z" />
    <glyph glyph-name="Scedilla.small" horiz-adv-x="570" 
d="M246 -80v71q-112 7 -216 39l40 140q132 -30 225 -30q65 0 65 30q0 18 -16.5 24.5t-72.5 15.5q-23 4 -36 6q-96 16 -140.5 60.5t-44.5 123.5q0 190 230 190q117 0 250 -40l-40 -140q-132 30 -205 30q-33 0 -44 -6t-11 -19q0 -18 24 -26t76 -16q13 -2 20 -3
q190 -30 190 -190q0 -92 -64 -139t-170 -50v-41q83 -14 83 -74q0 -38 -28 -59.5t-79 -21.5q-46 0 -87 12l9 52q21 -4 43 -4q39 0 39 30q0 23 -40 35z" />
    <glyph glyph-name="Tbar.small" horiz-adv-x="520" 
d="M415 180h-70v-180h-170v180h-70v100h70v150h-155v150h480v-150h-155v-150h70v-100z" />
    <glyph glyph-name="Uogonek.small" 
d="M386 -137l5 -39q-37 -29 -100 -29q-51 0 -82.5 24t-31.5 60q0 64 73 113q-106 10 -158 69.5t-52 178.5v340h170v-340q0 -59 17 -84.5t73 -25.5t73 25.5t17 84.5v340h170v-340q0 -123 -57 -182.5t-171 -66.5q-42 -39 -42 -82q0 -25 16 -39t44 -14q18 0 36 7z" />
    <glyph glyph-name="c_t" horiz-adv-x="865" 
d="M290 130q65 0 150 20l30 -135q-100 -25 -180 -25q-147 0 -208.5 66t-61.5 194t61.5 194t208.5 66q80 0 180 -25l-30 -135q-85 20 -150 20q-90 0 -90 -120t90 -120zM730 380v-209q0 -46 60 -46q15 0 40 5l15 -130q-50 -10 -115 -10q-91 0 -130.5 37t-39.5 114v239h-60v110
l60 10l20 140h150v-140h110v-120h-110z" />
    <glyph glyph-name="s_p" horiz-adv-x="1025" 
d="M235 125q60 0 60 23q0 5 -3 8.5t-10 5.5t-12.5 3t-17 2.5t-17.5 2.5q-101 17 -155.5 56.5t-54.5 123.5q0 160 210 160q120 0 220 -25l-30 -135q-106 25 -180 25q-50 0 -50 -20q0 -3 0.5 -4.5t2 -3.5t3 -3t4.5 -2.5t5.5 -2.5t8 -2t9 -2t10.5 -2.5t12 -2.5q95 -22 126 -37
q89 -42 89 -133q0 -87 -56 -128.5t-154 -41.5q-140 0 -240 25l30 135q106 -25 190 -25zM695 45v-245h-170v700h170v-50h2q21 27 56.5 43.5t71.5 16.5q180 0 180 -260q0 -74 -17.5 -130t-61.5 -93t-111 -37q-74 0 -118 55h-2zM695 350v-200q28 -20 60 -20q70 0 70 120
t-70 120q-32 0 -60 -20z" />
    <glyph glyph-name="s_t" horiz-adv-x="860" 
d="M235 125q60 0 60 23q0 5 -3 8.5t-10 5.5t-12.5 3t-17 2.5t-17.5 2.5q-101 17 -155.5 56.5t-54.5 123.5q0 160 210 160q120 0 220 -25l-30 -135q-106 25 -180 25q-50 0 -50 -20q0 -3 0.5 -4.5t2 -3.5t3 -3t4.5 -2.5t5.5 -2.5t8 -2t9 -2t10.5 -2.5t12 -2.5q95 -22 126 -37
q89 -42 89 -133q0 -87 -56 -128.5t-154 -41.5q-140 0 -240 25l30 135q106 -25 190 -25zM725 380v-209q0 -46 60 -46q15 0 40 5l15 -130q-50 -10 -115 -10q-91 0 -130.5 37t-39.5 114v239h-60v110l60 10l20 140h150v-140h110v-120h-110z" />
    <glyph glyph-name="h.superior" horiz-adv-x="295" 
d="M115 430h-85v350h85v-130h1q29 35 74 35q36 0 55.5 -23t19.5 -62v-170h-85v150q0 35 -30 35q-15 0 -35 -10v-175z" />
    <glyph glyph-name="Eng.small" horiz-adv-x="610" 
d="M390 -29v29l-188 300h-2v-300h-160v580h180l188 -300h2v300h160v-610q0 -85 -36.5 -132.5t-133.5 -47.5q-55 0 -105 10l15 130q25 -5 40 -5q40 0 40 46z" />
    <glyph glyph-name="longs_h" horiz-adv-x="865" 
d="M70 -29v538q0 41 10 72.5t34 59.5t71 43.5t115 15.5q67 0 115 -10h120v-250h2q59 70 148 70q73 0 111.5 -46t38.5 -124v-340h-170v300q0 70 -60 70q-30 0 -70 -20v-350h-170v562q-23 3 -45 3q-29 0 -46.5 -5t-24 -16t-8 -18.5t-1.5 -22.5v-4v-529q0 -85 -36.5 -132.5
t-133.5 -47.5q-45 0 -95 10l15 130q25 -5 40 -5q40 0 40 46z" />
    <glyph glyph-name="longs_l" horiz-adv-x="565" 
d="M240 499v-529q0 -85 -36.5 -132.5t-133.5 -47.5q-45 0 -95 10l15 130q25 -5 40 -5q40 0 40 46v538q0 41 10 72.5t34 59.5t71 43.5t115 15.5q67 0 115 -10h120v-690h-170v562q-23 3 -45 3q-29 0 -46.5 -5t-24 -16t-8 -18.5t-1.5 -22.5v-4z" />
    <glyph glyph-name="longs_t" horiz-adv-x="670" 
d="M70 -29v578q0 77 39.5 114t130.5 37q45 0 95 -10l-15 -130q-25 5 -40 5q-40 0 -40 -46v-549q0 -85 -36.5 -132.5t-133.5 -47.5q-45 0 -95 10l15 130q25 -5 40 -5q40 0 40 46zM535 380v-209q0 -46 60 -46q15 0 40 5l15 -130q-50 -10 -115 -10q-91 0 -130.5 37t-39.5 114
v239h-60v110l60 10l20 140h150v-140h110v-120h-110z" />
    <glyph glyph-name="longs_i" horiz-adv-x="565" 
d="M365 500h170v-500h-170v500zM70 -29v578q0 77 39.5 114t130.5 37q45 0 95 -10l-15 -130q-25 5 -40 5q-40 0 -40 -46v-549q0 -85 -36.5 -132.5t-133.5 -47.5q-45 0 -95 10l15 130q25 -5 40 -5q40 0 40 46z" />
    <glyph glyph-name="longs_longs" horiz-adv-x="620" 
d="M70 -29v578q0 77 39.5 114t130.5 37q45 0 95 -10l-15 -130q-25 5 -40 5q-40 0 -40 -46v-549q0 -85 -36.5 -132.5t-133.5 -47.5q-45 0 -95 10l15 130q25 -5 40 -5q40 0 40 46zM355 -29v578q0 77 39.5 114t130.5 37q45 0 95 -10l-15 -130q-25 5 -40 5q-40 0 -40 -46v-549
q0 -85 -36.5 -132.5t-133.5 -47.5q-45 0 -95 10l15 130q25 -5 40 -5q40 0 40 46z" />
    <glyph glyph-name="zero.slash" horiz-adv-x="590" 
d="M295 -10q-94 0 -155 49.5t-85.5 126t-24.5 179.5q0 158 63.5 251.5t201.5 93.5t201.5 -93.5t63.5 -251.5q0 -103 -24.5 -179.5t-85.5 -126t-155 -49.5zM295 130q85 0 85 215q0 20 -2 56l-155 -196q21 -75 72 -75zM295 550q-46 0 -65.5 -52.5t-19.5 -152.5q0 -36 1 -52
l153 194q-20 63 -69 63z" />
    <glyph glyph-name="zero.fitted" 
d="M300 550q-46 0 -65.5 -52.5t-19.5 -152.5q0 -215 85 -215t85 215q0 100 -19.5 152.5t-65.5 52.5zM300 -10q-78 0 -131.5 27t-82 78t-40 111t-11.5 139t11.5 137.5t40 107.5t82 74.5t131.5 25.5t131.5 -25.5t82 -74.5t40 -107.5t11.5 -137.5t-11.5 -139t-40 -111t-82 -78
t-131.5 -27z" />
    <glyph glyph-name="one.fitted" 
d="M85 140h140v357l-118 -42l-42 130q143 46 205 100h125v-545h140v-140h-450v140z" />
    <glyph glyph-name="two.fitted" 
d="M255 535q-66 0 -150 -30l-50 135q70 27 122.5 38.5t117.5 11.5q116 0 178 -58t62 -152q0 -97 -59.5 -170.5t-180.5 -157.5v-2h250v-150h-490v160q174 106 237 168t63 117q0 90 -100 90z" />
    <glyph glyph-name="three.fitted" 
d="M285 550q-81 0 -177 -40l-50 130q115 50 257 50q92 0 156 -47t64 -134q0 -104 -108 -150v-2q66 -19 97 -64.5t31 -102.5q0 -96 -69 -148t-191 -52q-137 0 -250 50l50 130q93 -40 190 -40q46 0 70.5 20.5t24.5 49.5q0 39 -26.5 54.5t-78.5 15.5h-95v140h87q60 0 79 22.5
t19 57.5q0 27 -21.5 43.5t-58.5 16.5z" />
    <glyph glyph-name="four.fitted" 
d="M198 280h127v180h-2q-52 -89 -125 -180zM285 680h210v-400h80v-140h-80v-140h-170v140h-300v140q163 177 260 400z" />
    <glyph glyph-name="five.fitted" 
d="M555 230q0 -118 -70.5 -179t-199.5 -61q-127 0 -240 50l50 130q93 -40 180 -40q52 0 76 26t24 64q0 36 -19.5 63t-65.5 27q-51 0 -85 -30l-120 10l10 390h420v-150h-273l-5 -104l2 -1q52 30 113 30q92 0 147.5 -58t55.5 -167z" />
    <glyph glyph-name="six.fitted" 
d="M215 403l2 -1q51 53 128 53q98 0 154 -62t56 -173q0 -107 -67.5 -168.5t-179.5 -61.5q-87 0 -148 44.5t-88 113t-27 152.5q0 390 309 390q92 0 180 -30l-20 -130q-87 20 -145 20q-19 0 -37.5 -3t-41 -12.5t-38.5 -24.5t-27 -42.5t-10 -64.5zM230 280q-4 -37 -2 -70
t20.5 -56.5t51.5 -23.5t54 23.5t21 66.5q0 36 -17.5 62t-58.5 26q-34 0 -69 -28z" />
    <glyph glyph-name="seven.fitted" 
d="M345 528v2h-275v150h460v-120q-44 -80 -66.5 -124.5t-55 -118.5t-53.5 -150.5t-35 -166.5h-190q23 128 80 269.5t135 258.5z" />
    <glyph glyph-name="eight.fitted" 
d="M321 419q22 9 38 30t16 46q0 29 -20.5 49.5t-59.5 20.5q-33 0 -51.5 -18.5t-18.5 -41.5q0 -32 29 -54.5t67 -31.5zM274 270q-28 -12 -46 -33t-18 -47q0 -30 24.5 -52.5t71.5 -22.5q43 0 63.5 17t20.5 43q0 17 -6.5 30t-23 24t-25 15.5t-33.5 14.5t-28 11zM295 -10
q-109 0 -184.5 44t-75.5 138q0 111 116 161v2q-96 57 -96 165q0 63 38 107.5t93 63.5t119 19q94 0 167 -47.5t73 -133.5q0 -50 -24 -85.5t-74 -64.5v-2q118 -63 118 -167q0 -101 -78 -150.5t-192 -49.5z" />
    <glyph glyph-name="nine.fitted" 
d="M385 277l-2 1q-51 -53 -128 -53q-98 0 -154 62t-56 173q0 107 67.5 168.5t179.5 61.5q87 0 148 -44.5t88 -113t27 -152.5q0 -390 -309 -390q-92 0 -180 30l20 130q87 -20 145 -20q19 0 37.5 3t41 12.5t38.5 24.5t27 42.5t10 64.5zM370 400q4 37 2 70t-20.5 56.5
t-51.5 23.5t-54 -23.5t-21 -66.5q0 -36 17.5 -62t58.5 -26q34 0 69 28z" />
    <glyph glyph-name="zero.taboldstyle" 
d="M300 370q-38 0 -61.5 -31t-23.5 -89t23.5 -89t61.5 -31t61.5 31t23.5 89t-23.5 89t-61.5 31zM300 -10q-123 0 -194 70t-71 190t71 190t194 70t194 -70t71 -190t-71 -190t-194 -70z" />
    <glyph glyph-name="one.taboldstyle" 
d="M85 140h140v187l-118 -42l-42 130q143 46 205 100h125v-375h140v-140h-450v140z" />
    <glyph glyph-name="two.taboldstyle" 
d="M285 355q-83 0 -190 -30l-40 145q120 40 260 40q105 0 162.5 -42.5t57.5 -117.5q0 -116 -146 -176q-26 -11 -94 -32v-2l250 10v-150h-490v160q36 13 97.5 33.5t87.5 30.5t58.5 25t44.5 29.5t12 31.5q0 45 -70 45z" />
    <glyph glyph-name="three.taboldstyle" 
d="M285 370q-81 0 -177 -40l-50 130q115 50 257 50q92 0 156 -47t64 -134q0 -104 -108 -150v-2q66 -19 97 -64.5t31 -102.5q0 -96 -69 -148t-191 -52q-137 0 -250 50l50 130q93 -40 190 -40q46 0 70.5 20.5t24.5 49.5q0 39 -26.5 54.5t-78.5 15.5h-95v140h87q60 0 79 22.5
t19 57.5q0 27 -21.5 43.5t-58.5 16.5z" />
    <glyph glyph-name="four.taboldstyle" 
d="M198 140h127v180h-2q-52 -89 -125 -180zM285 505h210v-365h80v-140h-80v-170h-170v170h-300v140q73 79 105 116.5t77 105.5t78 143z" />
    <glyph glyph-name="five.taboldstyle" 
d="M555 50q0 -118 -70.5 -179t-199.5 -61q-127 0 -240 50l50 130q93 -40 180 -40q52 0 76 26t24 64q0 36 -19.5 63t-65.5 27q-51 0 -85 -30l-120 10l10 390h420v-150h-273l-5 -104l2 -1q52 30 113 30q92 0 147.5 -58t55.5 -167z" />
    <glyph glyph-name="six.taboldstyle" 
d="M215 403l2 -1q51 53 128 53q98 0 154 -62t56 -173q0 -107 -67.5 -168.5t-179.5 -61.5q-87 0 -148 44.5t-88 113t-27 152.5q0 390 309 390q92 0 180 -30l-20 -130q-87 20 -145 20q-19 0 -37.5 -3t-41 -12.5t-38.5 -24.5t-27 -42.5t-10 -64.5zM230 280q-4 -37 -2 -70
t20.5 -56.5t51.5 -23.5t54 23.5t21 66.5q0 36 -17.5 62t-58.5 26q-34 0 -69 -28z" />
    <glyph glyph-name="seven.taboldstyle" 
d="M345 348v2h-275v150h460v-120q-44 -80 -66.5 -124.5t-55 -118.5t-53.5 -150.5t-35 -166.5h-190q23 128 80 269.5t135 258.5z" />
    <glyph glyph-name="eight.taboldstyle" 
d="M321 419q22 9 38 30t16 46q0 29 -20.5 49.5t-59.5 20.5q-33 0 -51.5 -18.5t-18.5 -41.5q0 -32 29 -54.5t67 -31.5zM274 270q-28 -12 -46 -33t-18 -47q0 -30 24.5 -52.5t71.5 -22.5q43 0 63.5 17t20.5 43q0 17 -6.5 30t-23 24t-25 15.5t-33.5 14.5t-28 11zM295 -10
q-109 0 -184.5 44t-75.5 138q0 111 116 161v2q-96 57 -96 165q0 63 38 107.5t93 63.5t119 19q94 0 167 -47.5t73 -133.5q0 -50 -24 -85.5t-74 -64.5v-2q118 -63 118 -167q0 -101 -78 -150.5t-192 -49.5z" />
    <glyph glyph-name="nine.taboldstyle" 
d="M385 97l-2 1q-51 -53 -128 -53q-98 0 -154 62t-56 173q0 107 67.5 168.5t179.5 61.5q87 0 148 -44.5t88 -113t27 -152.5q0 -390 -309 -390q-92 0 -180 30l20 130q87 -20 145 -20q19 0 37.5 3t41 12.5t38.5 24.5t27 42.5t10 64.5zM370 220q4 37 2 70t-20.5 56.5
t-51.5 23.5t-54 -23.5t-21 -66.5q0 -36 17.5 -62t58.5 -26q34 0 69 28z" />
    <glyph glyph-name="currency.taboldstyle" horiz-adv-x="513" 
d="M100 249q0 68 48 114l-78 90l8 8l79 -90q44 36 100 36q55 0 99 -36l78 90l9 -8l-78 -89q50 -47 50 -115t-49 -114l76 -86l-9 -9l-77 87q-43 -35 -99 -35q-57 0 -100 35l-76 -87l-9 9l76 86q-48 46 -48 114zM112 249q0 -59 43 -102t102 -43t102.5 43t43.5 102t-43.5 102.5
t-102.5 43.5t-102 -43.5t-43 -102.5z" />
    <glyph glyph-name="cent.taboldstyle" 
d="M345 -10q-124 0 -197 70t-73 190t73 190t197 70q87 0 180 -40l-20 -130q-78 30 -145 30q-46 0 -75.5 -28.5t-29.5 -91.5t29.5 -91.5t75.5 -28.5q67 0 145 30l20 -130q-93 -40 -180 -40zM385 -130h-90v100h90v-100zM385 530h-90v100h90v-100z" />
    <glyph glyph-name="dollar.taboldstyle" 
d="M525 160q0 -84 -61.5 -127t-148.5 -43q-64 0 -133.5 13t-106.5 32l30 125q98 -35 190 -35q60 0 60 23q0 5 -3 8.5t-10 5.5t-12.5 3t-17 2.5t-17.5 2.5q-101 17 -155.5 56.5t-54.5 123.5q0 83 60.5 121.5t149.5 38.5q133 0 220 -45l-30 -125q-105 35 -180 35
q-50 0 -50 -20q0 -3 0.5 -4.5t2 -3.5t3 -3t4.5 -2.5t5.5 -2.5t8 -2t9 -2t10.5 -2.5t12 -2.5q95 -22 126 -37q89 -42 89 -133zM345 -130h-90v100h90v-100zM345 530h-90v100h90v-100z" />
    <glyph glyph-name="Euro.taboldstyle" 
d="M50 320h57q20 89 89.5 139.5t173.5 50.5q87 0 180 -40l-20 -130q-78 30 -145 30q-65 0 -91 -50h86v-50h-99q-1 -7 -1 -20q0 -14 1 -20h99v-50h-86q26 -50 91 -50q67 0 145 30l20 -130q-93 -40 -180 -40q-105 0 -174 50t-89 140h-57v50h50v20v20h-50v50z" />
    <glyph glyph-name="franc.taboldstyle" 
d="M50 320h57q20 89 89.5 139.5t173.5 50.5q87 0 180 -40l-20 -130q-78 30 -145 30q-65 0 -91 -50h86v-50h-99q-1 -7 -1 -20q0 -14 1 -20h99v-50h-86q26 -50 91 -50q67 0 145 30l20 -130q-93 -40 -180 -40q-105 0 -174 50t-89 140h-57v50h50v20v20h-50v50z" />
    <glyph glyph-name="sterling.taboldstyle" 
d="M365 200h-110v-50h290v-150h-510v150h50v50h-50v100h50v25q0 96 68.5 140.5t181.5 44.5q128 0 230 -65l-50 -125q-108 50 -190 50q-70 0 -70 -50v-20h110v-100z" />
    <glyph glyph-name="yen.taboldstyle" 
d="M409 225h81v-80h-105v-145h-170v145h-105v80h80l-150 275h205l59 -160h2l59 160h195z" />
    <glyph glyph-name="lira.taboldstyle" 
d="M50 320h57q20 89 89.5 139.5t173.5 50.5q87 0 180 -40l-20 -130q-78 30 -145 30q-65 0 -91 -50h86v-50h-99q-1 -7 -1 -20q0 -14 1 -20h99v-50h-86q26 -50 91 -50q67 0 145 30l20 -130q-93 -40 -180 -40q-105 0 -174 50t-89 140h-57v50h50v20v20h-50v50z" />
    <glyph glyph-name="peseta.taboldstyle" 
d="M50 320h57q20 89 89.5 139.5t173.5 50.5q87 0 180 -40l-20 -130q-78 30 -145 30q-65 0 -91 -50h86v-50h-99q-1 -7 -1 -20q0 -14 1 -20h99v-50h-86q26 -50 91 -50q67 0 145 30l20 -130q-93 -40 -180 -40q-105 0 -174 50t-89 140h-57v50h50v20v20h-50v50z" />
    <glyph glyph-name="colonmonetary.taboldstyle" 
d="M345 -10q-124 0 -197 70t-73 190t73 190t197 70q87 0 180 -40l-20 -130q-78 30 -145 30q-46 0 -75.5 -28.5t-29.5 -91.5t29.5 -91.5t75.5 -28.5q67 0 145 30l20 -130q-93 -40 -180 -40zM285 -130h-70v100h70v-100zM285 530h-70v100h70v-100zM415 -130h-70v100h70v-100z
M415 530h-70v100h70v-100z" />
    <glyph glyph-name="florin.taboldstyle" 
d="M215 -29v209h-60v110l60 10v59q0 77 39.5 114t130.5 37q45 0 95 -10l-15 -130q-25 5 -40 5q-40 0 -40 -46v-29h90v-120h-90v-210q0 -85 -36.5 -132.5t-133.5 -47.5q-45 0 -95 10l15 130q25 -5 40 -5q40 0 40 46z" />
    <glyph glyph-name="numbersign.taboldstyle" 
d="M166 500h120l-10 -90h80l10 90h120l-10 -90h100l-11 -110h-100l-11 -100h100l-11 -110h-100l-10 -90h-120l10 90h-80l-10 -90h-120l10 90h-100l11 110h100l11 100h-100l11 110h100zM265 300l-11 -100h80l11 100h-80z" />
    <glyph glyph-name="zero.denominator" horiz-adv-x="325" 
d="M163 270q-43 0 -43 -102q0 -108 43 -108q42 0 42 108q0 102 -42 102zM163 -10q-69 0 -101 49t-32 129q0 172 133 172q69 0 100.5 -46.5t31.5 -125.5q0 -80 -31.5 -129t-100.5 -49z" />
    <glyph glyph-name="one.denominator" horiz-adv-x="295" 
d="M40 70h70v179l-59 -21l-21 65q71 22 103 50h62v-273h70v-70h-225v70z" />
    <glyph glyph-name="two.denominator" horiz-adv-x="305" 
d="M130 268q-24 0 -75 -23l-25 65q61 35 125 35q55 0 85 -29t30 -76q0 -48 -30 -85t-90 -79v-1h125v-75h-245v80q87 53 118.5 84t31.5 59q0 45 -50 45z" />
    <glyph glyph-name="three.denominator" horiz-adv-x="315" 
d="M158 270q-11 0 -20 -1t-21.5 -5.5t-16.5 -6t-20 -9t-18 -8.5l-25 65q61 35 128 35q46 0 78 -23.5t32 -66.5q0 -53 -54 -75v-1q64 -19 64 -84q0 -48 -34.5 -74t-95.5 -26q-70 0 -125 35l25 65q66 -30 98 -30q21 0 33 10.5t12 24.5q0 35 -53 35h-47v70h43q49 0 49 40
q0 13 -9.5 21.5t-22.5 8.5z" />
    <glyph glyph-name="four.denominator" horiz-adv-x="335" 
d="M117 140h63v90h-1q-26 -44 -62 -90zM160 340h105v-200h40v-70h-40v-70h-85v70h-150v70q81 89 130 200z" />
    <glyph glyph-name="five.denominator" horiz-adv-x="315" 
d="M126 208h1q27 15 57 15q46 0 73.5 -29t27.5 -84q0 -54 -35.5 -87t-95.5 -33t-124 35l25 65q5 -2 15.5 -7t15.5 -7.5t14.5 -6t16 -5t15.5 -3t18 -1.5q19 0 32 12t13 33q0 45 -42 45q-27 0 -43 -15l-60 5l5 195h210v-75h-136z" />
    <glyph glyph-name="six.denominator" horiz-adv-x="315" 
d="M115 197l1 -1q27 27 64 27q49 0 77 -31t28 -87q0 -53 -34 -84t-89 -31q-65 0 -98.5 44.5t-33.5 110.5q0 195 155 195q43 0 90 -20l-10 -65q-38 15 -73 15q-12 0 -23.5 -2.5t-25 -9.5t-21 -22.5t-7.5 -38.5zM123 135q-4 -31 3.5 -53t31.5 -22q16 0 26.5 11.5t10.5 33.5
q0 44 -38 44q-17 0 -34 -14z" />
    <glyph glyph-name="seven.denominator" horiz-adv-x="310" 
d="M188 264v1h-158v75h250v-60q-3 -6 -16 -29.5t-17.5 -31.5t-15.5 -29.5t-15.5 -33.5t-13 -33.5t-13.5 -38t-10 -39t-9 -45.5h-90q25 140 108 264z" />
    <glyph glyph-name="eight.denominator" horiz-adv-x="325" 
d="M173 205q27 10 27 38q0 14 -10 24.5t-30 10.5q-16 0 -25.5 -9.5t-9.5 -20.5q0 -32 48 -43zM150 130q-32 -12 -32 -40q0 -15 12 -26t36 -11q42 0 42 30q0 7 -3 13t-7 10t-11 8t-11.5 6t-13.5 5.5t-12 4.5zM160 -10q-55 0 -92.5 22t-37.5 69q0 56 58 81v1q-48 28 -48 82
q0 46 37 70.5t88 24.5q47 0 83.5 -23.5t36.5 -66.5q0 -47 -49 -75v-1q59 -32 59 -84q0 -50 -39 -75t-96 -25z" />
    <glyph glyph-name="nine.denominator" horiz-adv-x="315" 
d="M200 134h-1q-24 -26 -64 -26q-49 0 -77 30.5t-28 86.5q0 53 34 84t90 31q64 0 97.5 -44.5t33.5 -110.5q0 -195 -154 -195q-43 0 -90 20l10 65q40 -15 72 -15q13 0 24.5 3t24.5 10t20.5 22.5t7.5 38.5zM193 195q4 31 -3.5 53t-31.5 22q-17 0 -27.5 -11.5t-10.5 -33.5
q0 -44 38 -44q18 0 35 14z" />
    <glyph glyph-name="parenleft.denominator" horiz-adv-x="205" 
d="M120 390h55q-60 -109 -60 -240q0 -124 60 -240h-55q-90 103 -90 240t90 240z" />
    <glyph glyph-name="parenright.denominator" horiz-adv-x="205" 
d="M30 390h55q90 -103 90 -240t-90 -240h-55q60 113 60 240q0 133 -60 240z" />
    <glyph glyph-name="cent.denominator" horiz-adv-x="345" 
d="M203 260q-37 0 -57.5 -23t-20.5 -69q0 -47 21 -72.5t57 -25.5q40 0 82 30l30 -67q-53 -43 -127 -43t-116 50.5t-42 127.5q0 76 41.5 124t116.5 48q73 0 127 -42l-30 -68q-42 30 -82 30zM208 -90h-45v60h45v-60zM208 360h-45v60h45v-60z" />
    <glyph glyph-name="dollar.denominator" horiz-adv-x="335" 
d="M170 70q40 0 40 25q0 7 -4.5 12t-13.5 8.5t-17 5.5t-19.5 4.5t-17.5 4.5q-98 28 -98 110q0 51 36.5 75.5t93.5 24.5q72 0 125 -35l-35 -70q-49 25 -90 25q-35 0 -35 -20q0 -3 1 -6t4 -5.5t5.5 -4.5t7.5 -4t8.5 -3.5t10 -3.5t10 -3t11 -2.5t10.5 -2.5q102 -25 102 -105
q0 -55 -39.5 -82.5t-100.5 -27.5q-38 0 -75.5 12.5t-59.5 32.5l40 65q50 -30 100 -30zM193 -90h-45v60h45v-60zM193 360h-45v60h45v-60z" />
    <glyph glyph-name="hyphen.denominator" horiz-adv-x="280" 
d="M30 215h220v-70h-220v70z" />
    <glyph glyph-name="comma.denominator" horiz-adv-x="168" 
d="M53 80h85q0 -102 -38 -145h-70q23 46 23 145z" />
    <glyph glyph-name="period.denominator" horiz-adv-x="145" 
d="M30 0v80h85v-80h-85z" />
    <glyph glyph-name="zero.numerator" horiz-adv-x="325" 
d="M163 610q-43 0 -43 -102q0 -108 43 -108q42 0 42 108q0 102 -42 102zM163 330q-69 0 -101 49t-32 129q0 172 133 172q69 0 100.5 -46.5t31.5 -125.5q0 -80 -31.5 -129t-100.5 -49z" />
    <glyph glyph-name="one.numerator" horiz-adv-x="295" 
d="M40 410h70v179l-59 -21l-21 65q71 22 103 50h62v-273h70v-70h-225v70z" />
    <glyph glyph-name="two.numerator" horiz-adv-x="305" 
d="M130 608q-24 0 -75 -23l-25 65q61 35 125 35q55 0 85 -29t30 -76q0 -48 -30 -85t-90 -79v-1h125v-75h-245v80q87 53 118.5 84t31.5 59q0 45 -50 45z" />
    <glyph glyph-name="three.numerator" horiz-adv-x="315" 
d="M158 610q-11 0 -20 -1t-21.5 -5.5t-16.5 -6t-20 -9t-18 -8.5l-25 65q61 35 128 35q46 0 78 -23.5t32 -66.5q0 -53 -54 -75v-1q64 -19 64 -84q0 -48 -34.5 -74t-95.5 -26q-70 0 -125 35l25 65q66 -30 98 -30q21 0 33 10.5t12 24.5q0 35 -53 35h-47v70h43q49 0 49 40
q0 13 -9.5 21.5t-22.5 8.5z" />
    <glyph glyph-name="four.numerator" horiz-adv-x="335" 
d="M117 480h63v90h-1q-26 -44 -62 -90zM160 680h105v-200h40v-70h-40v-70h-85v70h-150v70q81 89 130 200z" />
    <glyph glyph-name="five.numerator" horiz-adv-x="315" 
d="M126 548h1q27 15 57 15q46 0 73.5 -29t27.5 -84q0 -54 -35.5 -87t-95.5 -33t-124 35l25 65q5 -2 15.5 -7t15.5 -7.5t14.5 -6t16 -5t15.5 -3t18 -1.5q19 0 32 12t13 33q0 45 -42 45q-27 0 -43 -15l-60 5l5 195h210v-75h-136z" />
    <glyph glyph-name="six.numerator" horiz-adv-x="315" 
d="M115 537l1 -1q27 27 64 27q49 0 77 -31t28 -87q0 -53 -34 -84t-89 -31q-65 0 -98.5 44.5t-33.5 110.5q0 195 155 195q43 0 90 -20l-10 -65q-38 15 -73 15q-12 0 -23.5 -2.5t-25 -9.5t-21 -22.5t-7.5 -38.5zM123 475q-4 -31 3.5 -53t31.5 -22q16 0 26.5 11.5t10.5 33.5
q0 44 -38 44q-17 0 -34 -14z" />
    <glyph glyph-name="seven.numerator" horiz-adv-x="310" 
d="M188 604v1h-158v75h250v-60q-3 -6 -16 -29.5t-17.5 -31.5t-15.5 -29.5t-15.5 -33.5t-13 -33.5t-13.5 -38t-10 -39t-9 -45.5h-90q25 140 108 264z" />
    <glyph glyph-name="eight.numerator" horiz-adv-x="325" 
d="M173 545q27 10 27 38q0 14 -10 24.5t-30 10.5q-16 0 -25.5 -9.5t-9.5 -20.5q0 -32 48 -43zM150 470q-32 -12 -32 -40q0 -15 12 -26t36 -11q42 0 42 30q0 7 -3 13t-7 10t-11 8t-11.5 6t-13.5 5.5t-12 4.5zM160 330q-55 0 -92.5 22t-37.5 69q0 56 58 81v1q-48 28 -48 82
q0 46 37 70.5t88 24.5q47 0 83.5 -23.5t36.5 -66.5q0 -47 -49 -75v-1q59 -32 59 -84q0 -50 -39 -75t-96 -25z" />
    <glyph glyph-name="nine.numerator" horiz-adv-x="315" 
d="M200 474h-1q-24 -26 -64 -26q-49 0 -77 30.5t-28 86.5q0 53 34 84t90 31q64 0 97.5 -44.5t33.5 -110.5q0 -195 -154 -195q-43 0 -90 20l10 65q40 -15 72 -15q13 0 24.5 3t24.5 10t20.5 22.5t7.5 38.5zM193 535q4 31 -3.5 53t-31.5 22q-17 0 -27.5 -11.5t-10.5 -33.5
q0 -44 38 -44q18 0 35 14z" />
    <glyph glyph-name="parenleft.numerator" horiz-adv-x="205" 
d="M120 730h55q-60 -109 -60 -240q0 -124 60 -240h-55q-90 103 -90 240t90 240z" />
    <glyph glyph-name="parenright.numerator" horiz-adv-x="205" 
d="M30 730h55q90 -103 90 -240t-90 -240h-55q60 113 60 240q0 133 -60 240z" />
    <glyph glyph-name="cent.numerator" horiz-adv-x="345" 
d="M203 600q-37 0 -57.5 -23t-20.5 -69q0 -47 21 -72.5t57 -25.5q40 0 82 30l30 -67q-53 -43 -127 -43t-116 50.5t-42 127.5q0 76 41.5 124t116.5 48q73 0 127 -42l-30 -68q-42 30 -82 30zM208 250h-45v60h45v-60zM208 700h-45v60h45v-60z" />
    <glyph glyph-name="dollar.numerator" horiz-adv-x="335" 
d="M170 410q40 0 40 25q0 7 -4.5 12t-13.5 8.5t-17 5.5t-19.5 4.5t-17.5 4.5q-98 28 -98 110q0 51 36.5 75.5t93.5 24.5q72 0 125 -35l-35 -70q-49 25 -90 25q-35 0 -35 -20q0 -3 1 -6t4 -5.5t5.5 -4.5t7.5 -4t8.5 -3.5t10 -3.5t10 -3t11 -2.5t10.5 -2.5q102 -25 102 -105
q0 -55 -39.5 -82.5t-100.5 -27.5q-38 0 -75.5 12.5t-59.5 32.5l40 65q50 -30 100 -30zM193 250h-45v60h45v-60zM193 700h-45v60h45v-60z" />
    <glyph glyph-name="hyphen.numerator" horiz-adv-x="280" 
d="M30 555h220v-70h-220v70z" />
    <glyph glyph-name="comma.numerator" horiz-adv-x="168" 
d="M53 420h85q0 -102 -38 -145h-70q23 46 23 145z" />
    <glyph glyph-name="period.numerator" horiz-adv-x="145" 
d="M30 340v80h85v-80h-85z" />
    <glyph glyph-name="at.cap" horiz-adv-x="830" 
d="M591 410v-167q35 0 59.5 26t34.5 60t10 72q0 106 -74 171t-186 65q-132 0 -215.5 -84.5t-83.5 -219.5q0 -119 77.5 -200t195.5 -81l-10 -92q-161 0 -265 106t-104 267q0 174 114.5 286.5t289.5 112.5q154 0 260 -91.5t106 -234.5q0 -112 -62.5 -186t-175.5 -74h-104v39
h-1q-39 -46 -107 -46q-55 0 -86 35.5t-31 87.5q0 37 16 63t43 38.5t52.5 17.5t52.5 5h61v16q0 39 -56 39q-48 0 -129 -23l-24 88q108 35 188 35q74 0 114 -29.5t40 -101.5zM458 254v56h-56q-15 0 -25.5 -9t-10.5 -27t11 -26.5t25 -8.5q35 0 56 15z" />
    <glyph glyph-name="parenleft.cap" horiz-adv-x="330" 
d="M210 820h110q-120 -216 -120 -480q0 -251 120 -480h-110q-89 102 -134.5 227.5t-45.5 252.5q0 273 180 480z" />
    <glyph glyph-name="parenright.cap" horiz-adv-x="330" 
d="M10 820h110q180 -207 180 -480q0 -127 -45.5 -252.5t-134.5 -227.5h-110q120 229 120 480q0 264 -120 480z" />
    <glyph glyph-name="bracketleft.cap" horiz-adv-x="300" 
d="M210 -40h80v-100h-260v960h260v-100h-80v-760z" />
    <glyph glyph-name="bracketright.cap" horiz-adv-x="300" 
d="M10 -40h80v760h-80v100h260v-960h-260v100z" />
    <glyph glyph-name="braceleft.cap" horiz-adv-x="340" 
d="M30 300v80q26 4 40.5 11t21 22.5t7.5 28.5t1 43q0 29 -5 93.5t-5 95.5q0 30 7.5 53.5t18 38.5t30.5 25.5t37 16t46 8.5t48 3.5t53 0.5v-70q-24 0 -34.5 -3.5t-18 -23.5t-7.5 -63q0 -30 7 -100t7 -101q0 -54 -27.5 -78.5t-82.5 -39.5v-2q55 -15 82.5 -39.5t27.5 -78.5
q0 -31 -7 -101t-7 -100q0 -43 7.5 -63t18 -23.5t34.5 -3.5v-70q-34 0 -53 0.5t-48 3.5t-46 8.5t-37 16t-30.5 25.5t-18 38.5t-7.5 53.5q0 31 5 95.5t5 93.5q0 30 -1 43t-7.5 28.5t-21 22.5t-40.5 11z" />
    <glyph glyph-name="braceright.cap" horiz-adv-x="340" 
d="M310 380v-80q-26 -4 -40.5 -11t-21 -22.5t-7.5 -28.5t-1 -43q0 -29 5 -93.5t5 -95.5q0 -30 -7.5 -53.5t-18 -38.5t-30.5 -25.5t-37 -16t-46 -8.5t-48 -3.5t-53 -0.5v70q24 0 34.5 3.5t18 23.5t7.5 63q0 30 -7 100t-7 101q0 54 27.5 78.5t82.5 39.5v2q-55 15 -82.5 39.5
t-27.5 78.5q0 31 7 101t7 100q0 43 -7.5 63t-18 23.5t-34.5 3.5v70q34 0 53 -0.5t48 -3.5t46 -8.5t37 -16t30.5 -25.5t18 -38.5t7.5 -53.5q0 -31 -5 -95.5t-5 -93.5q0 -30 1 -43t7.5 -28.5t21 -22.5t40.5 -11z" />
    <glyph glyph-name="exclamdown.cap" horiz-adv-x="230" 
d="M30 520v160h170v-160h-170zM30 0l10 470h150l10 -470h-170z" />
    <glyph glyph-name="questiondown.cap" horiz-adv-x="500" 
d="M245 -10q-62 0 -107 18t-67 47.5t-31.5 60t-9.5 64.5q0 45 16.5 80t40 57t47 40.5t40 39t16.5 43.5v30h150v-30q0 -47 -14 -83.5t-33.5 -56.5t-39.5 -36t-34 -32t-14 -34q0 -48 75 -48q55 0 142 25l48 -145q-96 -40 -225 -40zM350 680v-160h-170v160h170z" />
    <glyph glyph-name="guillemotleft.cap" horiz-adv-x="730" 
d="M30 360l320 210v-180l-140 -80l140 -80v-180l-320 210v100zM380 360l320 210v-180l-140 -80l140 -80v-180l-320 210v100z" />
    <glyph glyph-name="guillemotright.cap" horiz-adv-x="730" 
d="M30 570l320 -210v-100l-320 -210v180l140 80l-140 80v180zM380 570l320 -210v-100l-320 -210v180l140 80l-140 80v180z" />
    <glyph glyph-name="guilsinglleft.cap" horiz-adv-x="380" 
d="M30 360l320 210v-180l-140 -80l140 -80v-180l-320 210v100z" />
    <glyph glyph-name="guilsinglright.cap" horiz-adv-x="380" 
d="M30 570l320 -210v-100l-320 -210v180l140 80l-140 80v180z" />
    <glyph glyph-name="hyphen.cap" horiz-adv-x="500" 
d="M30 395h440v-140h-440v140z" />
    <glyph glyph-name="endash.cap" 
d="M30 395h540v-140h-540v140z" />
    <glyph glyph-name="emdash.cap" horiz-adv-x="700" 
d="M30 395h640v-140h-640v140z" />
    <glyph glyph-name="periodcentered.cap" horiz-adv-x="230" 
d="M30 170v160h170v-160h-170z" />
    <glyph glyph-name="percent.oldstyle" horiz-adv-x="760" 
d="M620 580l-370 -580h-110l370 580h110zM180 506q-45 0 -45 -70t45 -70t45 70t-45 70zM180 282q-73 0 -111.5 41t-38.5 113t38.5 113t111.5 41t111.5 -41t38.5 -113t-38.5 -113t-111.5 -41zM580 214q-45 0 -45 -70t45 -70t45 70t-45 70zM580 -10q-73 0 -111.5 41t-38.5 113
t38.5 113t111.5 41t111.5 -41t38.5 -113t-38.5 -113t-111.5 -41z" />
    <glyph glyph-name="perthousand.oldstyle" horiz-adv-x="1110" 
d="M620 580l-370 -580h-110l370 580h110zM180 506q-45 0 -45 -70t45 -70t45 70t-45 70zM180 282q-73 0 -111.5 41t-38.5 113t38.5 113t111.5 41t111.5 -41t38.5 -113t-38.5 -113t-111.5 -41zM580 214q-45 0 -45 -70t45 -70t45 70t-45 70zM580 -10q-73 0 -111.5 41t-38.5 113
t38.5 113t111.5 41t111.5 -41t38.5 -113t-38.5 -113t-111.5 -41zM930 214q-45 0 -45 -70t45 -70t45 70t-45 70zM930 -10q-73 0 -111.5 41t-38.5 113t38.5 113t111.5 41t111.5 -41t38.5 -113t-38.5 -113t-111.5 -41z" />
    <glyph glyph-name="overscore" horiz-adv-x="400" 
d="M30 680h340v-120h-340v120z" />
    <glyph glyph-name="ampersand.alt" horiz-adv-x="840" 
d="M525 190h-235q-60 0 -60 -30q0 -18 16 -24t49 -6q67 0 145 30l20 -130q-93 -40 -200 -40q-106 0 -168 36.5t-62 103.5q0 101 125 123v2q-48 12 -76.5 43.5t-28.5 81.5q0 71 57 100.5t163 29.5q109 0 190 -40l-20 -130q-78 30 -145 30q-33 0 -49 -6t-16 -24q0 -30 60 -30
h235l20 190h150v-190h110v-105h-110v-34q0 -46 60 -46q15 0 40 5l15 -130q-50 -10 -115 -10q-91 0 -130.5 37t-39.5 114v49z" />
    <glyph glyph-name="y.alt" horiz-adv-x="530" 
d="M500 500v-470q0 -114 -62.5 -177t-207.5 -63q-80 0 -180 25l30 135q85 -20 150 -20q47 0 73.5 19.5t26.5 80.5v30h-2q-59 -70 -148 -70q-73 0 -111.5 46t-38.5 124v340h170v-300q0 -70 60 -70q30 0 70 20v350h170z" />
    <glyph glyph-name="yacute.alt" horiz-adv-x="530" 
d="M500 500v-470q0 -114 -62.5 -177t-207.5 -63q-80 0 -180 25l30 135q85 -20 150 -20q47 0 73.5 19.5t26.5 80.5v30h-2q-59 -70 -148 -70q-73 0 -111.5 46t-38.5 124v340h170v-300q0 -70 60 -70q30 0 70 20v350h170zM414 700l-100 -140h-90l50 140h140z" />
    <glyph glyph-name="ydieresis.alt" horiz-adv-x="530" 
d="M500 500v-470q0 -114 -62.5 -177t-207.5 -63q-80 0 -180 25l30 135q85 -20 150 -20q47 0 73.5 19.5t26.5 80.5v30h-2q-59 -70 -148 -70q-73 0 -111.5 46t-38.5 124v340h170v-300q0 -70 60 -70q30 0 70 20v350h170zM225 700v-140h-150v140h150zM455 700v-140h-150v140h150
z" />
    <glyph glyph-name="ycircumflex.alt" horiz-adv-x="530" 
d="M500 500v-470q0 -114 -62.5 -177t-207.5 -63q-80 0 -180 25l30 135q85 -20 150 -20q47 0 73.5 19.5t26.5 80.5v30h-2q-59 -70 -148 -70q-73 0 -111.5 46t-38.5 124v340h170v-300q0 -70 60 -70q30 0 70 20v350h170zM332 560l-70 48l-70 -48h-90l110 140h100l110 -140h-90z
" />
    <glyph glyph-name="ygrave.alt" horiz-adv-x="530" 
d="M500 500v-470q0 -114 -62.5 -177t-207.5 -63q-80 0 -180 25l30 135q85 -20 150 -20q47 0 73.5 19.5t26.5 80.5v30h-2q-59 -70 -148 -70q-73 0 -111.5 46t-38.5 124v340h170v-300q0 -70 60 -70q30 0 70 20v350h170zM223 560l-100 140h140l50 -140h-90z" />
    <glyph glyph-name=".ttfautohint" horiz-adv-x="530" 
d="M0 0z" />
    </font>
</defs>
</svg>
